M48
; DRILL file {KiCad (5.1.8)-1} date 03/14/21 17:59:08
; FORMAT={-:-/ absolute / inch / decimal}
; #@! TF.CreationDate,2021-03-14T17:59:08-04:00
; #@! TF.GenerationSoftware,Kicad,Pcbnew,(5.1.8)-1
; #@! TF.FileFunction,Plated,1,2,PTH
FMAT,2
INCH
T1C0.0157
T2C0.0197
T3C0.0236
T4C0.0300
T5C0.0315
T6C0.0354
T7C0.0394
T8C0.0433
T9C0.0453
T10C0.0598
%
G90
G05
T1
X5.152Y-2.5776
X5.7972Y-3.3713
X5.9567Y-3.3713
X6.3713Y-2.6508
T2
X6.0039Y-1.5685
X6.0039Y-1.7185
T3
X6.6929Y-1.7488
T4
X5.6992Y-3.4449
X5.7992Y-3.4449
X5.8992Y-3.4449
X5.9992Y-3.4449
X6.0992Y-3.4449
X6.1992Y-3.4449
X6.2992Y-3.4449
T5
X5.3051Y-2.8366
X5.3051Y-3.3366
X5.4921Y-2.8366
X5.4921Y-3.3366
T6
X4.9524Y-2.5043
X5.0524Y-1.5043
X5.0524Y-2.5043
X5.1524Y-1.5043
X5.1524Y-2.5043
X5.2524Y-1.5043
X5.2524Y-2.5043
X5.3524Y-1.5043
X5.3524Y-2.5043
X5.4524Y-2.5043
T7
X6.5669Y-2.1654
X6.5669Y-2.2654
X6.5669Y-2.3654
X6.5669Y-2.4654
X6.5669Y-2.5654
X6.5669Y-2.6654
X7.0669Y-2.1654
X7.0669Y-2.2654
X7.0669Y-2.3654
X7.0669Y-2.4654
X7.0669Y-2.5654
X7.0669Y-2.6654
T8
X5.7039Y-1.3185
X5.7039Y-1.4185
X5.7039Y-1.5185
X5.7039Y-1.6185
X5.7039Y-1.7185
X5.7039Y-1.8185
X5.7039Y-1.9185
X5.7039Y-2.0185
X5.7039Y-2.1185
X5.7039Y-2.2185
X5.7039Y-2.3185
X5.7039Y-2.4185
X5.7039Y-2.5185
X5.7039Y-2.6185
X5.8039Y-2.6185
X5.9039Y-2.6185
X6.0039Y-2.6185
X6.1039Y-2.6185
X6.2039Y-1.4185
X6.2039Y-1.6185
X6.2039Y-1.7185
X6.2039Y-1.8185
X6.2039Y-2.6185
X6.3039Y-1.3185
X6.3039Y-1.4185
X6.3039Y-1.5185
X6.3039Y-1.6185
X6.3039Y-1.7185
X6.3039Y-1.8185
X6.3039Y-1.9185
X6.3039Y-2.0185
X6.3039Y-2.1185
X6.3039Y-2.2185
X6.3039Y-2.3185
X6.3039Y-2.4185
X6.3039Y-2.5185
X6.3039Y-2.6185
X4.9213Y-3.148
X4.9213Y-3.248
X4.9213Y-2.8543
X4.9213Y-2.9543
T9
X6.5102Y-2.8829
X6.6102Y-2.8829
X6.7102Y-2.8829
X6.8102Y-2.8829
X6.9102Y-2.8829
X7.0102Y-2.8829
X7.1102Y-2.8829
T10
X6.8937Y-1.3551
X6.8937Y-1.5551
T0
M30
