%TF.GenerationSoftware,KiCad,Pcbnew,(5.1.8)-1*%
%TF.CreationDate,2021-03-14T17:59:32-04:00*%
%TF.ProjectId,Artemis Payload Computer,41727465-6d69-4732-9050-61796c6f6164,rev?*%
%TF.SameCoordinates,Original*%
%TF.FileFunction,Paste,Top*%
%TF.FilePolarity,Positive*%
%FSLAX46Y46*%
G04 Gerber Fmt 4.6, Leading zero omitted, Abs format (unit mm)*
G04 Created by KiCad (PCBNEW (5.1.8)-1) date 2021-03-14 17:59:32*
%MOMM*%
%LPD*%
G01*
G04 APERTURE LIST*
%ADD10R,2.000000X1.500000*%
%ADD11R,2.000000X3.800000*%
G04 APERTURE END LIST*
D10*
%TO.C,U601*%
X173150000Y-49800000D03*
X173150000Y-45200000D03*
X173150000Y-47500000D03*
D11*
X166850000Y-47500000D03*
%TD*%
%TO.C,C602*%
G36*
G01*
X175762500Y-45825000D02*
X176237500Y-45825000D01*
G75*
G02*
X176475000Y-46062500I0J-237500D01*
G01*
X176475000Y-46662500D01*
G75*
G02*
X176237500Y-46900000I-237500J0D01*
G01*
X175762500Y-46900000D01*
G75*
G02*
X175525000Y-46662500I0J237500D01*
G01*
X175525000Y-46062500D01*
G75*
G02*
X175762500Y-45825000I237500J0D01*
G01*
G37*
G36*
G01*
X175762500Y-44100000D02*
X176237500Y-44100000D01*
G75*
G02*
X176475000Y-44337500I0J-237500D01*
G01*
X176475000Y-44937500D01*
G75*
G02*
X176237500Y-45175000I-237500J0D01*
G01*
X175762500Y-45175000D01*
G75*
G02*
X175525000Y-44937500I0J237500D01*
G01*
X175525000Y-44337500D01*
G75*
G02*
X175762500Y-44100000I237500J0D01*
G01*
G37*
%TD*%
%TO.C,C601*%
G36*
G01*
X176237500Y-48675000D02*
X175762500Y-48675000D01*
G75*
G02*
X175525000Y-48437500I0J237500D01*
G01*
X175525000Y-47837500D01*
G75*
G02*
X175762500Y-47600000I237500J0D01*
G01*
X176237500Y-47600000D01*
G75*
G02*
X176475000Y-47837500I0J-237500D01*
G01*
X176475000Y-48437500D01*
G75*
G02*
X176237500Y-48675000I-237500J0D01*
G01*
G37*
G36*
G01*
X176237500Y-50400000D02*
X175762500Y-50400000D01*
G75*
G02*
X175525000Y-50162500I0J237500D01*
G01*
X175525000Y-49562500D01*
G75*
G02*
X175762500Y-49325000I237500J0D01*
G01*
X176237500Y-49325000D01*
G75*
G02*
X176475000Y-49562500I0J-237500D01*
G01*
X176475000Y-50162500D01*
G75*
G02*
X176237500Y-50400000I-237500J0D01*
G01*
G37*
%TD*%
M02*
