%TF.GenerationSoftware,KiCad,Pcbnew,(5.1.8)-1*%
%TF.CreationDate,2021-03-31T15:24:53-04:00*%
%TF.ProjectId,Artemis Payload Computer,41727465-6d69-4732-9050-61796c6f6164,rev?*%
%TF.SameCoordinates,Original*%
%TF.FileFunction,Legend,Bot*%
%TF.FilePolarity,Positive*%
%FSLAX46Y46*%
G04 Gerber Fmt 4.6, Leading zero omitted, Abs format (unit mm)*
G04 Created by KiCad (PCBNEW (5.1.8)-1) date 2021-03-31 15:24:53*
%MOMM*%
%LPD*%
G01*
G04 APERTURE LIST*
%ADD10C,0.300000*%
%ADD11C,0.010000*%
G04 APERTURE END LIST*
D10*
X166721428Y-122128571D02*
X166721428Y-127128571D01*
X166721428Y-122366666D02*
X166245238Y-122128571D01*
X165292857Y-122128571D01*
X164816666Y-122366666D01*
X164578571Y-122604761D01*
X164340476Y-123080952D01*
X164340476Y-124509523D01*
X164578571Y-124985714D01*
X164816666Y-125223809D01*
X165292857Y-125461904D01*
X166245238Y-125461904D01*
X166721428Y-125223809D01*
X161483333Y-125461904D02*
X161959523Y-125223809D01*
X162197619Y-124985714D01*
X162435714Y-124509523D01*
X162435714Y-123080952D01*
X162197619Y-122604761D01*
X161959523Y-122366666D01*
X161483333Y-122128571D01*
X160769047Y-122128571D01*
X160292857Y-122366666D01*
X160054761Y-122604761D01*
X159816666Y-123080952D01*
X159816666Y-124509523D01*
X160054761Y-124985714D01*
X160292857Y-125223809D01*
X160769047Y-125461904D01*
X161483333Y-125461904D01*
X155530952Y-122128571D02*
X155530952Y-126176190D01*
X155769047Y-126652380D01*
X156007142Y-126890476D01*
X156483333Y-127128571D01*
X157197619Y-127128571D01*
X157673809Y-126890476D01*
X155530952Y-125223809D02*
X156007142Y-125461904D01*
X156959523Y-125461904D01*
X157435714Y-125223809D01*
X157673809Y-124985714D01*
X157911904Y-124509523D01*
X157911904Y-123080952D01*
X157673809Y-122604761D01*
X157435714Y-122366666D01*
X156959523Y-122128571D01*
X156007142Y-122128571D01*
X155530952Y-122366666D01*
X151007142Y-122128571D02*
X151007142Y-126176190D01*
X151245238Y-126652380D01*
X151483333Y-126890476D01*
X151959523Y-127128571D01*
X152673809Y-127128571D01*
X153150000Y-126890476D01*
X151007142Y-125223809D02*
X151483333Y-125461904D01*
X152435714Y-125461904D01*
X152911904Y-125223809D01*
X153150000Y-124985714D01*
X153388095Y-124509523D01*
X153388095Y-123080952D01*
X153150000Y-122604761D01*
X152911904Y-122366666D01*
X152435714Y-122128571D01*
X151483333Y-122128571D01*
X151007142Y-122366666D01*
X146721428Y-125223809D02*
X147197619Y-125461904D01*
X148150000Y-125461904D01*
X148626190Y-125223809D01*
X148864285Y-124747619D01*
X148864285Y-122842857D01*
X148626190Y-122366666D01*
X148150000Y-122128571D01*
X147197619Y-122128571D01*
X146721428Y-122366666D01*
X146483333Y-122842857D01*
X146483333Y-123319047D01*
X148864285Y-123795238D01*
X144340476Y-125461904D02*
X144340476Y-122128571D01*
X144340476Y-123080952D02*
X144102380Y-122604761D01*
X143864285Y-122366666D01*
X143388095Y-122128571D01*
X142911904Y-122128571D01*
X141483333Y-125223809D02*
X141007142Y-125461904D01*
X140054761Y-125461904D01*
X139578571Y-125223809D01*
X139340476Y-124747619D01*
X139340476Y-124509523D01*
X139578571Y-124033333D01*
X140054761Y-123795238D01*
X140769047Y-123795238D01*
X141245238Y-123557142D01*
X141483333Y-123080952D01*
X141483333Y-122842857D01*
X141245238Y-122366666D01*
X140769047Y-122128571D01*
X140054761Y-122128571D01*
X139578571Y-122366666D01*
D11*
%TO.C,G\u002A\u002A\u002A*%
G36*
X140316755Y-91478609D02*
G01*
X140860982Y-91598732D01*
X141344763Y-91855461D01*
X141745407Y-92232764D01*
X142040221Y-92714616D01*
X142201400Y-93253417D01*
X142222655Y-93849078D01*
X142080815Y-94401717D01*
X141778713Y-94902095D01*
X141651335Y-95046864D01*
X141200592Y-95401394D01*
X140668427Y-95622749D01*
X140088756Y-95701736D01*
X139499440Y-95630172D01*
X139177209Y-95487620D01*
X138829519Y-95239768D01*
X138507502Y-94932338D01*
X138294274Y-94652948D01*
X140733391Y-94439553D01*
X140785721Y-94554398D01*
X140808575Y-94578483D01*
X140968424Y-94665368D01*
X141088524Y-94598210D01*
X141127153Y-94472234D01*
X141095283Y-94286814D01*
X140982978Y-94212816D01*
X140838152Y-94276149D01*
X140813573Y-94302640D01*
X140733391Y-94439553D01*
X138294274Y-94652948D01*
X138262294Y-94611047D01*
X138181294Y-94451616D01*
X138076497Y-94047650D01*
X139101126Y-93958006D01*
X139196013Y-94134094D01*
X139453369Y-94350139D01*
X139742087Y-94414472D01*
X140025814Y-94325480D01*
X140195726Y-94178456D01*
X140308460Y-93978039D01*
X140361863Y-93792487D01*
X140357307Y-93611297D01*
X140257379Y-93451433D01*
X140120377Y-93324921D01*
X140061187Y-93285465D01*
X140776159Y-93222913D01*
X140861481Y-93446304D01*
X141035310Y-93559044D01*
X141246261Y-93545897D01*
X141424328Y-93415106D01*
X141522380Y-93270265D01*
X141511838Y-93147175D01*
X141387153Y-92975894D01*
X141188936Y-92837042D01*
X140988411Y-92838519D01*
X140834014Y-92960739D01*
X140774182Y-93184122D01*
X140776159Y-93222913D01*
X140061187Y-93285465D01*
X139905855Y-93181923D01*
X139709906Y-93109831D01*
X139664753Y-93107674D01*
X139381538Y-93204568D01*
X139179209Y-93409214D01*
X139078746Y-93675672D01*
X139101126Y-93958006D01*
X138076497Y-94047650D01*
X138029655Y-93867085D01*
X138031068Y-93297460D01*
X138173279Y-92765935D01*
X138444033Y-92295706D01*
X138831078Y-91909966D01*
X139322160Y-91631909D01*
X139734775Y-91511120D01*
X140316755Y-91478609D01*
G37*
X140316755Y-91478609D02*
X140860982Y-91598732D01*
X141344763Y-91855461D01*
X141745407Y-92232764D01*
X142040221Y-92714616D01*
X142201400Y-93253417D01*
X142222655Y-93849078D01*
X142080815Y-94401717D01*
X141778713Y-94902095D01*
X141651335Y-95046864D01*
X141200592Y-95401394D01*
X140668427Y-95622749D01*
X140088756Y-95701736D01*
X139499440Y-95630172D01*
X139177209Y-95487620D01*
X138829519Y-95239768D01*
X138507502Y-94932338D01*
X138294274Y-94652948D01*
X140733391Y-94439553D01*
X140785721Y-94554398D01*
X140808575Y-94578483D01*
X140968424Y-94665368D01*
X141088524Y-94598210D01*
X141127153Y-94472234D01*
X141095283Y-94286814D01*
X140982978Y-94212816D01*
X140838152Y-94276149D01*
X140813573Y-94302640D01*
X140733391Y-94439553D01*
X138294274Y-94652948D01*
X138262294Y-94611047D01*
X138181294Y-94451616D01*
X138076497Y-94047650D01*
X139101126Y-93958006D01*
X139196013Y-94134094D01*
X139453369Y-94350139D01*
X139742087Y-94414472D01*
X140025814Y-94325480D01*
X140195726Y-94178456D01*
X140308460Y-93978039D01*
X140361863Y-93792487D01*
X140357307Y-93611297D01*
X140257379Y-93451433D01*
X140120377Y-93324921D01*
X140061187Y-93285465D01*
X140776159Y-93222913D01*
X140861481Y-93446304D01*
X141035310Y-93559044D01*
X141246261Y-93545897D01*
X141424328Y-93415106D01*
X141522380Y-93270265D01*
X141511838Y-93147175D01*
X141387153Y-92975894D01*
X141188936Y-92837042D01*
X140988411Y-92838519D01*
X140834014Y-92960739D01*
X140774182Y-93184122D01*
X140776159Y-93222913D01*
X140061187Y-93285465D01*
X139905855Y-93181923D01*
X139709906Y-93109831D01*
X139664753Y-93107674D01*
X139381538Y-93204568D01*
X139179209Y-93409214D01*
X139078746Y-93675672D01*
X139101126Y-93958006D01*
X138076497Y-94047650D01*
X138029655Y-93867085D01*
X138031068Y-93297460D01*
X138173279Y-92765935D01*
X138444033Y-92295706D01*
X138831078Y-91909966D01*
X139322160Y-91631909D01*
X139734775Y-91511120D01*
X140316755Y-91478609D01*
G36*
X150575487Y-91038699D02*
G01*
X151137464Y-91199990D01*
X151656376Y-91496373D01*
X152107195Y-91925245D01*
X152308751Y-92203459D01*
X152537498Y-92710346D01*
X152643898Y-93282128D01*
X152622950Y-93861614D01*
X152495051Y-94332878D01*
X152240026Y-94793518D01*
X151885776Y-95217770D01*
X151478885Y-95555798D01*
X151214578Y-95702890D01*
X150731778Y-95848963D01*
X150187759Y-95908269D01*
X149667466Y-95873716D01*
X149527796Y-95843752D01*
X149099683Y-95665785D01*
X148669337Y-95372679D01*
X148291878Y-95008615D01*
X148152881Y-94811421D01*
X150725094Y-94586382D01*
X150807018Y-94748567D01*
X150975247Y-94822056D01*
X151056234Y-94814641D01*
X151187462Y-94740878D01*
X151219381Y-94573673D01*
X151215973Y-94520454D01*
X151142380Y-94321232D01*
X151000155Y-94243728D01*
X150840148Y-94302609D01*
X150767366Y-94391056D01*
X150725094Y-94586382D01*
X148152881Y-94811421D01*
X148039761Y-94650942D01*
X147812924Y-94062114D01*
X147778543Y-93767259D01*
X148842982Y-93674132D01*
X148937380Y-93979008D01*
X149141793Y-94232529D01*
X149419214Y-94383665D01*
X149601523Y-94428553D01*
X149746050Y-94412658D01*
X149931606Y-94322157D01*
X150001829Y-94281458D01*
X150268750Y-94042379D01*
X150395507Y-93745129D01*
X150378520Y-93428976D01*
X150214210Y-93133186D01*
X150115316Y-93036731D01*
X150093799Y-93024995D01*
X150732022Y-92969158D01*
X150781401Y-93195820D01*
X150804305Y-93234750D01*
X150968452Y-93351170D01*
X151195875Y-93374565D01*
X151407361Y-93303393D01*
X151470080Y-93247705D01*
X151546627Y-93039581D01*
X151491996Y-92807686D01*
X151348366Y-92637613D01*
X151139441Y-92560435D01*
X150944663Y-92614566D01*
X150797650Y-92763107D01*
X150732022Y-92969158D01*
X150093799Y-93024995D01*
X149792584Y-92860715D01*
X149457954Y-92846467D01*
X149141640Y-92992603D01*
X149036151Y-93086168D01*
X148871578Y-93361864D01*
X148842982Y-93674132D01*
X147778543Y-93767259D01*
X147741519Y-93449753D01*
X147821802Y-92843734D01*
X148050027Y-92273932D01*
X148397500Y-91796542D01*
X148881452Y-91391423D01*
X149422453Y-91131812D01*
X149995475Y-91015105D01*
X150575487Y-91038699D01*
G37*
X150575487Y-91038699D02*
X151137464Y-91199990D01*
X151656376Y-91496373D01*
X152107195Y-91925245D01*
X152308751Y-92203459D01*
X152537498Y-92710346D01*
X152643898Y-93282128D01*
X152622950Y-93861614D01*
X152495051Y-94332878D01*
X152240026Y-94793518D01*
X151885776Y-95217770D01*
X151478885Y-95555798D01*
X151214578Y-95702890D01*
X150731778Y-95848963D01*
X150187759Y-95908269D01*
X149667466Y-95873716D01*
X149527796Y-95843752D01*
X149099683Y-95665785D01*
X148669337Y-95372679D01*
X148291878Y-95008615D01*
X148152881Y-94811421D01*
X150725094Y-94586382D01*
X150807018Y-94748567D01*
X150975247Y-94822056D01*
X151056234Y-94814641D01*
X151187462Y-94740878D01*
X151219381Y-94573673D01*
X151215973Y-94520454D01*
X151142380Y-94321232D01*
X151000155Y-94243728D01*
X150840148Y-94302609D01*
X150767366Y-94391056D01*
X150725094Y-94586382D01*
X148152881Y-94811421D01*
X148039761Y-94650942D01*
X147812924Y-94062114D01*
X147778543Y-93767259D01*
X148842982Y-93674132D01*
X148937380Y-93979008D01*
X149141793Y-94232529D01*
X149419214Y-94383665D01*
X149601523Y-94428553D01*
X149746050Y-94412658D01*
X149931606Y-94322157D01*
X150001829Y-94281458D01*
X150268750Y-94042379D01*
X150395507Y-93745129D01*
X150378520Y-93428976D01*
X150214210Y-93133186D01*
X150115316Y-93036731D01*
X150093799Y-93024995D01*
X150732022Y-92969158D01*
X150781401Y-93195820D01*
X150804305Y-93234750D01*
X150968452Y-93351170D01*
X151195875Y-93374565D01*
X151407361Y-93303393D01*
X151470080Y-93247705D01*
X151546627Y-93039581D01*
X151491996Y-92807686D01*
X151348366Y-92637613D01*
X151139441Y-92560435D01*
X150944663Y-92614566D01*
X150797650Y-92763107D01*
X150732022Y-92969158D01*
X150093799Y-93024995D01*
X149792584Y-92860715D01*
X149457954Y-92846467D01*
X149141640Y-92992603D01*
X149036151Y-93086168D01*
X148871578Y-93361864D01*
X148842982Y-93674132D01*
X147778543Y-93767259D01*
X147741519Y-93449753D01*
X147821802Y-92843734D01*
X148050027Y-92273932D01*
X148397500Y-91796542D01*
X148881452Y-91391423D01*
X149422453Y-91131812D01*
X149995475Y-91015105D01*
X150575487Y-91038699D01*
G36*
X142832515Y-101397129D02*
G01*
X143564105Y-101382186D01*
X144438232Y-101392903D01*
X145446606Y-101429350D01*
X146169282Y-101466824D01*
X147838059Y-101584140D01*
X149365041Y-101736087D01*
X150748063Y-101921817D01*
X151984962Y-102140485D01*
X153073570Y-102391239D01*
X154011725Y-102673234D01*
X154797260Y-102985622D01*
X155428012Y-103327554D01*
X155901814Y-103698184D01*
X156216503Y-104096662D01*
X156369913Y-104522142D01*
X156359879Y-104973776D01*
X156210702Y-105399115D01*
X156078168Y-105583088D01*
X155850966Y-105820384D01*
X155572662Y-106066527D01*
X155501507Y-106123220D01*
X155140581Y-106419088D01*
X154853605Y-106697710D01*
X154604291Y-107003084D01*
X154356350Y-107379215D01*
X154099744Y-107822911D01*
X153903418Y-108165588D01*
X153730361Y-108434557D01*
X153548846Y-108666874D01*
X153327147Y-108899595D01*
X153033535Y-109169774D01*
X152693465Y-109465377D01*
X151862630Y-110131803D01*
X150991511Y-110743522D01*
X150116225Y-111278109D01*
X149272892Y-111713138D01*
X148662915Y-111968036D01*
X148126035Y-112125046D01*
X147482745Y-112250520D01*
X146794251Y-112336992D01*
X146121757Y-112376997D01*
X145526467Y-112363068D01*
X145467395Y-112357832D01*
X144639701Y-112249741D01*
X143898120Y-112096596D01*
X143261885Y-111904503D01*
X142750228Y-111679564D01*
X142382377Y-111427882D01*
X142309780Y-111355665D01*
X142156359Y-111164061D01*
X142036663Y-110950892D01*
X141947344Y-110694194D01*
X141885050Y-110372000D01*
X141846431Y-109962349D01*
X141828138Y-109443276D01*
X141826822Y-108792814D01*
X141834364Y-108238658D01*
X141841974Y-107245799D01*
X141828453Y-106353445D01*
X141794639Y-105574894D01*
X141741370Y-104923443D01*
X141669484Y-104412390D01*
X141579822Y-104055034D01*
X141568631Y-104024962D01*
X141447869Y-103784182D01*
X141259431Y-103481506D01*
X141054222Y-103195951D01*
X140777370Y-102781376D01*
X140701309Y-102574214D01*
X141022723Y-102546094D01*
X141197479Y-102823171D01*
X141226849Y-102856776D01*
X141476188Y-103160968D01*
X141682471Y-103478365D01*
X141848847Y-103826943D01*
X141978460Y-104224677D01*
X142074460Y-104689543D01*
X142139992Y-105239517D01*
X142178204Y-105892574D01*
X142192245Y-106666690D01*
X142185259Y-107579839D01*
X142171093Y-108250098D01*
X142160953Y-108764916D01*
X142156338Y-109250831D01*
X142157241Y-109669833D01*
X142163658Y-109983908D01*
X142171326Y-110119858D01*
X142284806Y-110624986D01*
X142528018Y-111038202D01*
X142908097Y-111366436D01*
X143432184Y-111616618D01*
X143836222Y-111736472D01*
X144339440Y-111843189D01*
X144910111Y-111937954D01*
X145473652Y-112009933D01*
X145955477Y-112048291D01*
X145992876Y-112049744D01*
X146519357Y-112033053D01*
X147133857Y-111959125D01*
X147769759Y-111839727D01*
X148360445Y-111686627D01*
X148693412Y-111572741D01*
X149306981Y-111295976D01*
X149995979Y-110921092D01*
X150721084Y-110474500D01*
X151442980Y-109982607D01*
X152122346Y-109471823D01*
X152719863Y-108968555D01*
X153070033Y-108633177D01*
X153288438Y-108373895D01*
X153524982Y-108039593D01*
X153705947Y-107741783D01*
X154009498Y-107213215D01*
X154281508Y-106800909D01*
X154554440Y-106464354D01*
X154860756Y-106163040D01*
X155189820Y-105890072D01*
X155560946Y-105578786D01*
X155801731Y-105316310D01*
X155930020Y-105069517D01*
X155963659Y-104805276D01*
X155927009Y-104521492D01*
X155830990Y-104229935D01*
X155658440Y-103975046D01*
X155389364Y-103741145D01*
X155003762Y-103512551D01*
X154481640Y-103273583D01*
X154180899Y-103152248D01*
X153263226Y-102842724D01*
X152187030Y-102568938D01*
X150959499Y-102331791D01*
X149587821Y-102132181D01*
X148079184Y-101971009D01*
X146440774Y-101849175D01*
X144679782Y-101767577D01*
X142803393Y-101727117D01*
X142795024Y-101727032D01*
X142482591Y-101748128D01*
X142111575Y-101808222D01*
X141735929Y-101894534D01*
X141409605Y-101994286D01*
X141186551Y-102094696D01*
X141157595Y-102114895D01*
X141009594Y-102311781D01*
X141022723Y-102546094D01*
X140701309Y-102574214D01*
X140649260Y-102432453D01*
X140673488Y-102141339D01*
X140853652Y-101900186D01*
X141193348Y-101701151D01*
X141696175Y-101536389D01*
X141830109Y-101503714D01*
X142251752Y-101437662D01*
X142832515Y-101397129D01*
G37*
X142832515Y-101397129D02*
X143564105Y-101382186D01*
X144438232Y-101392903D01*
X145446606Y-101429350D01*
X146169282Y-101466824D01*
X147838059Y-101584140D01*
X149365041Y-101736087D01*
X150748063Y-101921817D01*
X151984962Y-102140485D01*
X153073570Y-102391239D01*
X154011725Y-102673234D01*
X154797260Y-102985622D01*
X155428012Y-103327554D01*
X155901814Y-103698184D01*
X156216503Y-104096662D01*
X156369913Y-104522142D01*
X156359879Y-104973776D01*
X156210702Y-105399115D01*
X156078168Y-105583088D01*
X155850966Y-105820384D01*
X155572662Y-106066527D01*
X155501507Y-106123220D01*
X155140581Y-106419088D01*
X154853605Y-106697710D01*
X154604291Y-107003084D01*
X154356350Y-107379215D01*
X154099744Y-107822911D01*
X153903418Y-108165588D01*
X153730361Y-108434557D01*
X153548846Y-108666874D01*
X153327147Y-108899595D01*
X153033535Y-109169774D01*
X152693465Y-109465377D01*
X151862630Y-110131803D01*
X150991511Y-110743522D01*
X150116225Y-111278109D01*
X149272892Y-111713138D01*
X148662915Y-111968036D01*
X148126035Y-112125046D01*
X147482745Y-112250520D01*
X146794251Y-112336992D01*
X146121757Y-112376997D01*
X145526467Y-112363068D01*
X145467395Y-112357832D01*
X144639701Y-112249741D01*
X143898120Y-112096596D01*
X143261885Y-111904503D01*
X142750228Y-111679564D01*
X142382377Y-111427882D01*
X142309780Y-111355665D01*
X142156359Y-111164061D01*
X142036663Y-110950892D01*
X141947344Y-110694194D01*
X141885050Y-110372000D01*
X141846431Y-109962349D01*
X141828138Y-109443276D01*
X141826822Y-108792814D01*
X141834364Y-108238658D01*
X141841974Y-107245799D01*
X141828453Y-106353445D01*
X141794639Y-105574894D01*
X141741370Y-104923443D01*
X141669484Y-104412390D01*
X141579822Y-104055034D01*
X141568631Y-104024962D01*
X141447869Y-103784182D01*
X141259431Y-103481506D01*
X141054222Y-103195951D01*
X140777370Y-102781376D01*
X140701309Y-102574214D01*
X141022723Y-102546094D01*
X141197479Y-102823171D01*
X141226849Y-102856776D01*
X141476188Y-103160968D01*
X141682471Y-103478365D01*
X141848847Y-103826943D01*
X141978460Y-104224677D01*
X142074460Y-104689543D01*
X142139992Y-105239517D01*
X142178204Y-105892574D01*
X142192245Y-106666690D01*
X142185259Y-107579839D01*
X142171093Y-108250098D01*
X142160953Y-108764916D01*
X142156338Y-109250831D01*
X142157241Y-109669833D01*
X142163658Y-109983908D01*
X142171326Y-110119858D01*
X142284806Y-110624986D01*
X142528018Y-111038202D01*
X142908097Y-111366436D01*
X143432184Y-111616618D01*
X143836222Y-111736472D01*
X144339440Y-111843189D01*
X144910111Y-111937954D01*
X145473652Y-112009933D01*
X145955477Y-112048291D01*
X145992876Y-112049744D01*
X146519357Y-112033053D01*
X147133857Y-111959125D01*
X147769759Y-111839727D01*
X148360445Y-111686627D01*
X148693412Y-111572741D01*
X149306981Y-111295976D01*
X149995979Y-110921092D01*
X150721084Y-110474500D01*
X151442980Y-109982607D01*
X152122346Y-109471823D01*
X152719863Y-108968555D01*
X153070033Y-108633177D01*
X153288438Y-108373895D01*
X153524982Y-108039593D01*
X153705947Y-107741783D01*
X154009498Y-107213215D01*
X154281508Y-106800909D01*
X154554440Y-106464354D01*
X154860756Y-106163040D01*
X155189820Y-105890072D01*
X155560946Y-105578786D01*
X155801731Y-105316310D01*
X155930020Y-105069517D01*
X155963659Y-104805276D01*
X155927009Y-104521492D01*
X155830990Y-104229935D01*
X155658440Y-103975046D01*
X155389364Y-103741145D01*
X155003762Y-103512551D01*
X154481640Y-103273583D01*
X154180899Y-103152248D01*
X153263226Y-102842724D01*
X152187030Y-102568938D01*
X150959499Y-102331791D01*
X149587821Y-102132181D01*
X148079184Y-101971009D01*
X146440774Y-101849175D01*
X144679782Y-101767577D01*
X142803393Y-101727117D01*
X142795024Y-101727032D01*
X142482591Y-101748128D01*
X142111575Y-101808222D01*
X141735929Y-101894534D01*
X141409605Y-101994286D01*
X141186551Y-102094696D01*
X141157595Y-102114895D01*
X141009594Y-102311781D01*
X141022723Y-102546094D01*
X140701309Y-102574214D01*
X140649260Y-102432453D01*
X140673488Y-102141339D01*
X140853652Y-101900186D01*
X141193348Y-101701151D01*
X141696175Y-101536389D01*
X141830109Y-101503714D01*
X142251752Y-101437662D01*
X142832515Y-101397129D01*
G36*
X157919962Y-85131719D02*
G01*
X158969521Y-85272134D01*
X160027966Y-85563870D01*
X161067755Y-85992878D01*
X162061344Y-86545111D01*
X162981189Y-87206522D01*
X163799747Y-87963064D01*
X164078635Y-88272715D01*
X164721338Y-89123099D01*
X165278765Y-90073202D01*
X165758588Y-91139307D01*
X166168476Y-92337704D01*
X166405721Y-93214316D01*
X166479982Y-93571590D01*
X166564253Y-94071333D01*
X166655542Y-94687179D01*
X166750857Y-95392763D01*
X166847207Y-96161722D01*
X166941601Y-96967689D01*
X167031047Y-97784299D01*
X167112554Y-98585188D01*
X167183128Y-99343991D01*
X167239781Y-100034342D01*
X167279519Y-100629877D01*
X167298943Y-101086433D01*
X167283822Y-102566816D01*
X167162211Y-103930612D01*
X166931001Y-105195349D01*
X166587081Y-106378553D01*
X166181859Y-107381179D01*
X165637045Y-108403292D01*
X164965979Y-109396827D01*
X164190648Y-110340515D01*
X163333041Y-111213090D01*
X162415145Y-111993285D01*
X161458949Y-112659834D01*
X160486442Y-113191469D01*
X159931223Y-113426743D01*
X158465340Y-113929827D01*
X156870191Y-114385557D01*
X155181541Y-114784541D01*
X153610290Y-115087527D01*
X153257802Y-115140167D01*
X152776131Y-115200421D01*
X152198652Y-115265177D01*
X151558739Y-115331321D01*
X150889769Y-115395738D01*
X150225114Y-115455319D01*
X149598150Y-115506946D01*
X149042252Y-115547510D01*
X148590795Y-115573893D01*
X148299259Y-115582955D01*
X147590589Y-115580243D01*
X146897417Y-115565909D01*
X146249676Y-115541410D01*
X145677296Y-115508204D01*
X145210208Y-115467748D01*
X144878341Y-115421499D01*
X144844846Y-115414745D01*
X144237629Y-115248526D01*
X143608138Y-115012609D01*
X143018398Y-114733450D01*
X142530436Y-114437505D01*
X142496661Y-114413172D01*
X142085643Y-114063983D01*
X141676389Y-113631896D01*
X141307029Y-113163908D01*
X141015692Y-112707008D01*
X140878652Y-112419081D01*
X140824114Y-112269138D01*
X140779103Y-112114250D01*
X140741441Y-111933305D01*
X140708942Y-111705189D01*
X140679428Y-111408791D01*
X140650716Y-111022998D01*
X140620625Y-110526698D01*
X140586973Y-109898778D01*
X140556908Y-109305220D01*
X140499750Y-108202683D01*
X140445910Y-107256357D01*
X140394151Y-106453180D01*
X140343232Y-105780088D01*
X140291915Y-105224023D01*
X140238960Y-104771921D01*
X140183129Y-104410720D01*
X140123181Y-104127360D01*
X140057878Y-103908779D01*
X140040565Y-103862713D01*
X139932301Y-103635281D01*
X139781943Y-103419207D01*
X139567192Y-103192512D01*
X139265747Y-102933221D01*
X138855309Y-102619359D01*
X138563921Y-102407529D01*
X138360084Y-102248445D01*
X138263656Y-102113307D01*
X138239332Y-101934926D01*
X138243263Y-101811557D01*
X138550562Y-101784672D01*
X138581079Y-101917482D01*
X138663283Y-102046947D01*
X138820318Y-102194368D01*
X139075327Y-102381048D01*
X139451454Y-102628290D01*
X139502577Y-102660967D01*
X139753043Y-102878236D01*
X140017881Y-103204739D01*
X140153126Y-103411374D01*
X140482926Y-103957152D01*
X140685796Y-106574178D01*
X140739214Y-107285194D01*
X140789610Y-107997255D01*
X140834886Y-108677532D01*
X140872947Y-109293199D01*
X140901692Y-109811426D01*
X140919027Y-110199385D01*
X140920711Y-110250778D01*
X140956900Y-110987498D01*
X141019339Y-111582164D01*
X141112910Y-112060702D01*
X141242490Y-112449034D01*
X141387943Y-112733072D01*
X141509388Y-112909768D01*
X141647708Y-113047508D01*
X141828152Y-113155022D01*
X142075971Y-113241032D01*
X142416412Y-113314265D01*
X142874728Y-113383448D01*
X143476166Y-113457306D01*
X143487444Y-113458614D01*
X144998794Y-113571837D01*
X146425174Y-113549222D01*
X147783990Y-113389810D01*
X148825356Y-113165425D01*
X149743452Y-112880483D01*
X150606126Y-112511952D01*
X151447374Y-112041363D01*
X152301189Y-111450249D01*
X152980625Y-110908013D01*
X153389255Y-110561940D01*
X153722514Y-110267599D01*
X154005984Y-109996622D01*
X154265248Y-109720637D01*
X154525888Y-109411275D01*
X154813487Y-109040166D01*
X155153626Y-108578938D01*
X155447341Y-108172457D01*
X155978883Y-107402056D01*
X156397544Y-106714920D01*
X156714987Y-106079581D01*
X156942878Y-105464579D01*
X157092883Y-104838449D01*
X157176665Y-104169727D01*
X157205873Y-103429141D01*
X157203383Y-103072138D01*
X157191814Y-102770167D01*
X157173359Y-102570357D01*
X157163981Y-102527951D01*
X157057367Y-102431737D01*
X156802911Y-102301785D01*
X156417319Y-102144324D01*
X155917297Y-101965582D01*
X155319551Y-101771787D01*
X154640790Y-101569168D01*
X154436744Y-101511210D01*
X152448015Y-101008156D01*
X150457952Y-100613447D01*
X148499869Y-100332400D01*
X146607084Y-100170337D01*
X145843228Y-100139127D01*
X145082066Y-100133746D01*
X144277222Y-100154870D01*
X143454444Y-100199652D01*
X142639482Y-100265241D01*
X141858084Y-100348787D01*
X141135996Y-100447440D01*
X140498968Y-100558350D01*
X139972748Y-100678666D01*
X139583084Y-100805540D01*
X139504092Y-100840810D01*
X139049922Y-101100017D01*
X138735540Y-101364685D01*
X138571550Y-101624317D01*
X138550562Y-101784672D01*
X138243263Y-101811557D01*
X138243691Y-101798120D01*
X138256808Y-101515712D01*
X138256629Y-101329543D01*
X138237269Y-101166682D01*
X138192842Y-100954199D01*
X138166027Y-100835860D01*
X138153345Y-100708707D01*
X138454899Y-100682325D01*
X138476798Y-100889721D01*
X138516972Y-101002014D01*
X138546191Y-101006119D01*
X138948190Y-100764796D01*
X139318856Y-100572794D01*
X139691256Y-100420214D01*
X140098458Y-100297156D01*
X140573527Y-100193725D01*
X141149529Y-100100021D01*
X141859533Y-100006146D01*
X141905837Y-100000450D01*
X143766581Y-99836197D01*
X145646807Y-99799759D01*
X147562308Y-99892539D01*
X149528880Y-100115938D01*
X151562316Y-100471361D01*
X153678411Y-100960209D01*
X154170413Y-101089501D01*
X154871132Y-101280770D01*
X155444773Y-101445304D01*
X155929183Y-101594759D01*
X156362209Y-101740790D01*
X156762429Y-101887711D01*
X157080513Y-102020954D01*
X157301431Y-102159320D01*
X157442069Y-102335568D01*
X157519315Y-102582462D01*
X157550057Y-102932762D01*
X157551201Y-103417890D01*
X157520114Y-104186550D01*
X157442335Y-104867185D01*
X157306001Y-105492649D01*
X157099256Y-106095798D01*
X156810237Y-106709487D01*
X156427089Y-107366571D01*
X155937950Y-108099906D01*
X155780648Y-108323005D01*
X155362792Y-108903744D01*
X155019189Y-109364946D01*
X154731395Y-109728778D01*
X154480959Y-110017409D01*
X154249435Y-110253006D01*
X154018375Y-110457735D01*
X153973378Y-110494669D01*
X153655902Y-110758753D01*
X153296174Y-111067292D01*
X152998301Y-111330108D01*
X152171113Y-111979257D01*
X151213625Y-112563630D01*
X150158011Y-113066161D01*
X149036446Y-113469786D01*
X148872830Y-113518344D01*
X148131384Y-113687891D01*
X147267800Y-113810334D01*
X146323000Y-113884252D01*
X145337902Y-113908221D01*
X144353425Y-113880819D01*
X143410488Y-113800622D01*
X142882108Y-113726640D01*
X142562514Y-113680179D01*
X142312815Y-113655159D01*
X142175019Y-113655405D01*
X142161737Y-113661029D01*
X142198740Y-113736465D01*
X142344863Y-113876596D01*
X142566537Y-114054944D01*
X142830191Y-114245027D01*
X143102254Y-114420369D01*
X143187482Y-114470102D01*
X143749007Y-114751383D01*
X144326786Y-114961002D01*
X144958610Y-115107865D01*
X145682272Y-115200883D01*
X146484720Y-115247340D01*
X147489340Y-115267035D01*
X148469044Y-115256303D01*
X149460495Y-115212853D01*
X150500354Y-115134399D01*
X151625284Y-115018651D01*
X152871947Y-114863323D01*
X153075052Y-114836015D01*
X153944452Y-114699968D01*
X154865602Y-114523116D01*
X155813679Y-114312616D01*
X156763854Y-114075621D01*
X157691304Y-113819285D01*
X158571201Y-113550763D01*
X159378720Y-113277210D01*
X160089035Y-113005779D01*
X160677321Y-112743625D01*
X161060972Y-112534609D01*
X161836179Y-112003296D01*
X162619069Y-111371090D01*
X163380703Y-110667634D01*
X164092138Y-109922569D01*
X164724430Y-109165535D01*
X165248641Y-108426175D01*
X165516460Y-107971444D01*
X166100103Y-106717948D01*
X166533661Y-105414462D01*
X166821110Y-104045616D01*
X166966422Y-102596040D01*
X166977996Y-102319221D01*
X166983197Y-101590204D01*
X166957022Y-100745088D01*
X166902703Y-99810887D01*
X166823469Y-98814618D01*
X166722553Y-97783297D01*
X166603185Y-96743939D01*
X166468596Y-95723561D01*
X166322017Y-94749178D01*
X166166679Y-93847806D01*
X166005814Y-93046463D01*
X165842653Y-92372163D01*
X165750749Y-92057801D01*
X165278483Y-90820726D01*
X164685115Y-89695166D01*
X163975097Y-88686002D01*
X163152881Y-87798111D01*
X162222919Y-87036372D01*
X161189667Y-86405662D01*
X160182402Y-85956829D01*
X159355850Y-85685874D01*
X158585485Y-85524407D01*
X157808587Y-85461360D01*
X157387001Y-85463619D01*
X156326368Y-85578839D01*
X155311410Y-85855149D01*
X154354780Y-86287556D01*
X153469132Y-86871067D01*
X153148634Y-87135939D01*
X152780614Y-87459039D01*
X151993021Y-87191652D01*
X150805984Y-86829238D01*
X149707328Y-86576749D01*
X148704479Y-86434839D01*
X147804860Y-86404157D01*
X147015898Y-86485356D01*
X146345016Y-86679086D01*
X146311405Y-86693140D01*
X146033434Y-86836808D01*
X145754408Y-87021913D01*
X145512400Y-87217792D01*
X145345489Y-87393782D01*
X145291172Y-87514739D01*
X145370360Y-87566699D01*
X145559117Y-87607162D01*
X145618531Y-87613556D01*
X145911302Y-87657912D01*
X146253216Y-87737782D01*
X146605010Y-87840163D01*
X146927424Y-87952055D01*
X147181196Y-88060454D01*
X147327065Y-88152356D01*
X147347171Y-88186045D01*
X147329901Y-88263420D01*
X147246813Y-88300423D01*
X147076439Y-88295316D01*
X146797314Y-88246359D01*
X146387971Y-88151814D01*
X146129975Y-88087464D01*
X145268609Y-87911043D01*
X144457376Y-87826427D01*
X143718861Y-87833230D01*
X143075651Y-87931065D01*
X142550333Y-88119551D01*
X142494108Y-88149452D01*
X142175074Y-88326615D01*
X142813731Y-88340681D01*
X143673923Y-88415507D01*
X144607071Y-88595404D01*
X145565235Y-88866881D01*
X146500478Y-89216438D01*
X147331320Y-89612447D01*
X147911271Y-89924348D01*
X148120983Y-89619195D01*
X148401633Y-89315530D01*
X148802460Y-89052932D01*
X149332014Y-88828736D01*
X149998850Y-88640278D01*
X150811515Y-88484893D01*
X151778565Y-88359913D01*
X152329707Y-88307387D01*
X152929919Y-88257440D01*
X153395089Y-88224036D01*
X153758698Y-88207177D01*
X154054228Y-88206862D01*
X154315160Y-88223091D01*
X154574976Y-88255864D01*
X154867158Y-88305181D01*
X154879410Y-88307393D01*
X155996632Y-88581095D01*
X157093705Y-88987159D01*
X158124793Y-89506110D01*
X158917841Y-90023443D01*
X159201855Y-90243436D01*
X159354518Y-90395507D01*
X159388830Y-90500261D01*
X159317788Y-90578299D01*
X159280544Y-90598287D01*
X159127927Y-90583051D01*
X158887062Y-90441673D01*
X158770317Y-90352143D01*
X158194045Y-89946555D01*
X157502368Y-89556202D01*
X156748902Y-89206533D01*
X155987267Y-88922998D01*
X155427007Y-88765291D01*
X154502636Y-88611587D01*
X153480691Y-88554426D01*
X152401740Y-88592423D01*
X151306350Y-88724191D01*
X150260461Y-88941826D01*
X149652199Y-89110147D01*
X149187750Y-89270917D01*
X148842671Y-89435657D01*
X148592518Y-89615886D01*
X148423609Y-89807547D01*
X148298938Y-90054057D01*
X148252993Y-90295518D01*
X148294721Y-90472808D01*
X148318895Y-90499343D01*
X148411074Y-90481274D01*
X148614889Y-90397016D01*
X148893824Y-90262392D01*
X149035399Y-90188918D01*
X150115173Y-89690001D01*
X151198390Y-89330775D01*
X152271662Y-89110494D01*
X153321591Y-89028415D01*
X154334788Y-89083791D01*
X155297859Y-89275878D01*
X156197411Y-89603929D01*
X157020050Y-90067201D01*
X157752384Y-90664949D01*
X157762126Y-90674458D01*
X158096100Y-90993571D01*
X158351317Y-91210907D01*
X158564536Y-91348507D01*
X158772510Y-91428410D01*
X159011998Y-91472658D01*
X159112285Y-91484028D01*
X159686156Y-91586091D01*
X160155563Y-91757735D01*
X160503648Y-91988857D01*
X160713552Y-92269351D01*
X160768214Y-92476689D01*
X160717640Y-92783031D01*
X160537149Y-93073535D01*
X160264517Y-93308856D01*
X159937521Y-93449647D01*
X159814993Y-93469508D01*
X159501937Y-93563910D01*
X159118845Y-93790891D01*
X158682467Y-94137630D01*
X158209555Y-94591304D01*
X157876067Y-94953869D01*
X157475920Y-95392577D01*
X157132035Y-95726979D01*
X156804926Y-95992429D01*
X156461393Y-96220465D01*
X155539909Y-96703941D01*
X154561645Y-97077562D01*
X153550596Y-97339453D01*
X152530760Y-97487742D01*
X151526129Y-97520552D01*
X150560702Y-97436010D01*
X149658472Y-97232242D01*
X148843435Y-96907372D01*
X148692338Y-96827334D01*
X148476518Y-96721936D01*
X148336115Y-96680957D01*
X148304427Y-96698916D01*
X148375443Y-96885893D01*
X148540072Y-97137825D01*
X148762370Y-97410625D01*
X149006398Y-97660207D01*
X149236214Y-97842483D01*
X149237222Y-97843123D01*
X149526063Y-98011341D01*
X149805177Y-98133554D01*
X150104090Y-98213193D01*
X150452326Y-98253694D01*
X150879409Y-98258490D01*
X151414864Y-98231016D01*
X152088115Y-98174715D01*
X153381361Y-98014267D01*
X154537914Y-97781067D01*
X155577333Y-97467628D01*
X156519176Y-97066461D01*
X157383001Y-96570078D01*
X158188368Y-95970989D01*
X158460969Y-95734837D01*
X158720434Y-95510532D01*
X158939865Y-95336969D01*
X159084292Y-95241185D01*
X159113018Y-95230725D01*
X159243022Y-95260250D01*
X159242088Y-95376413D01*
X159117907Y-95568617D01*
X158878175Y-95826263D01*
X158530584Y-96138756D01*
X158340408Y-96294945D01*
X157547257Y-96871096D01*
X156717847Y-97350647D01*
X155829150Y-97741726D01*
X154858141Y-98052461D01*
X153781790Y-98290978D01*
X152577072Y-98465404D01*
X152033417Y-98520946D01*
X151458217Y-98572193D01*
X151021991Y-98606335D01*
X150695246Y-98623341D01*
X150448486Y-98623185D01*
X150252216Y-98605839D01*
X150076940Y-98571274D01*
X149893163Y-98519462D01*
X149891349Y-98518907D01*
X149307401Y-98265482D01*
X148781519Y-97893751D01*
X148344522Y-97433698D01*
X148027234Y-96915302D01*
X147907181Y-96588870D01*
X147782692Y-96310056D01*
X147593137Y-96047587D01*
X147557792Y-96011331D01*
X147352518Y-95788576D01*
X147127692Y-95509156D01*
X147031881Y-95377421D01*
X146882851Y-95163227D01*
X146779786Y-95015499D01*
X146750679Y-94974142D01*
X146682895Y-95014696D01*
X146511835Y-95139651D01*
X146266358Y-95327512D01*
X146078384Y-95474897D01*
X145275374Y-96050962D01*
X144486673Y-96486159D01*
X143668776Y-96797712D01*
X142778184Y-97002850D01*
X141965570Y-97103528D01*
X140853906Y-97142745D01*
X139857286Y-97059139D01*
X138976519Y-96852783D01*
X138909539Y-96830445D01*
X138523833Y-96698674D01*
X138458811Y-96928199D01*
X138428924Y-97142551D01*
X138487802Y-97311467D01*
X138653391Y-97446913D01*
X138943637Y-97560853D01*
X139376485Y-97665253D01*
X139639374Y-97715346D01*
X139935983Y-97763448D01*
X140210281Y-97792235D01*
X140500333Y-97801669D01*
X140844204Y-97791711D01*
X141279959Y-97762325D01*
X141845662Y-97713474D01*
X141848926Y-97713176D01*
X142662859Y-97627405D01*
X143334621Y-97530201D01*
X143891225Y-97417365D01*
X144103980Y-97362411D01*
X144525445Y-97254658D01*
X144804660Y-97206082D01*
X144957124Y-97214295D01*
X144980309Y-97227345D01*
X145036732Y-97313340D01*
X144983547Y-97398799D01*
X144805679Y-97492273D01*
X144488051Y-97602313D01*
X144142039Y-97702803D01*
X143599204Y-97829763D01*
X142953032Y-97935928D01*
X142174532Y-98025840D01*
X141942041Y-98047548D01*
X141420745Y-98095703D01*
X141045281Y-98135410D01*
X140792638Y-98171071D01*
X140639803Y-98207090D01*
X140563763Y-98247867D01*
X140541506Y-98297806D01*
X140541890Y-98315398D01*
X140476632Y-98503769D01*
X140261459Y-98712041D01*
X139912507Y-98926927D01*
X139645613Y-99053513D01*
X139159683Y-99290682D01*
X138819978Y-99522634D01*
X138604901Y-99766744D01*
X138513665Y-99964223D01*
X138471850Y-100172105D01*
X138452756Y-100427296D01*
X138454899Y-100682325D01*
X138153345Y-100708707D01*
X138113244Y-100306660D01*
X138212486Y-99844338D01*
X138466353Y-99444394D01*
X138877440Y-99102333D01*
X139296787Y-98878234D01*
X139751171Y-98660470D01*
X140043900Y-98483278D01*
X140175672Y-98339110D01*
X140147185Y-98220418D01*
X139959138Y-98119655D01*
X139612226Y-98029273D01*
X139379320Y-97985601D01*
X138878546Y-97877555D01*
X138526020Y-97745219D01*
X138300982Y-97574862D01*
X138182675Y-97352760D01*
X138153221Y-97174765D01*
X138151361Y-96915069D01*
X138175979Y-96703327D01*
X138180898Y-96684566D01*
X138178293Y-96567467D01*
X138088722Y-96426384D01*
X137890652Y-96232620D01*
X137753059Y-96114440D01*
X137224853Y-95575801D01*
X136855995Y-94980079D01*
X136646571Y-94327416D01*
X136625257Y-94200081D01*
X136618192Y-94137163D01*
X136885299Y-94113794D01*
X137023527Y-94620520D01*
X137283704Y-95123235D01*
X137645583Y-95596029D01*
X138088917Y-96012989D01*
X138593459Y-96348202D01*
X139138961Y-96575757D01*
X139206603Y-96594702D01*
X139994962Y-96747138D01*
X140857909Y-96816508D01*
X141746416Y-96804850D01*
X142611455Y-96714199D01*
X143403999Y-96546593D01*
X143845041Y-96402009D01*
X144624333Y-96047572D01*
X145376674Y-95605858D01*
X146035158Y-95116736D01*
X146109141Y-95052836D01*
X146593302Y-94626607D01*
X146544310Y-94066635D01*
X146819122Y-94042592D01*
X146962435Y-94608615D01*
X146963755Y-94612025D01*
X147251083Y-95146148D01*
X147679133Y-95662796D01*
X148219451Y-96137327D01*
X148843579Y-96545101D01*
X149523059Y-96861479D01*
X149590165Y-96886141D01*
X150258808Y-97063619D01*
X151035980Y-97165294D01*
X151878677Y-97190927D01*
X152743890Y-97140275D01*
X153588613Y-97013103D01*
X154027417Y-96910848D01*
X154909923Y-96639178D01*
X155663656Y-96320396D01*
X156327492Y-95931250D01*
X156940303Y-95448491D01*
X157540961Y-94848870D01*
X157618505Y-94762998D01*
X158223351Y-94134247D01*
X158775955Y-93660967D01*
X159281404Y-93339293D01*
X159711504Y-93173334D01*
X160091221Y-93023413D01*
X160330931Y-92816080D01*
X160427902Y-92577164D01*
X160379401Y-92332488D01*
X160182697Y-92107878D01*
X159842862Y-91931890D01*
X159581754Y-91855193D01*
X159362538Y-91816448D01*
X159308341Y-91815425D01*
X159031898Y-91814651D01*
X158769863Y-91759204D01*
X158493035Y-91634203D01*
X158172209Y-91424767D01*
X157778183Y-91116016D01*
X157535695Y-90912155D01*
X157137503Y-90578800D01*
X156820094Y-90333849D01*
X156540482Y-90150154D01*
X156255677Y-90000559D01*
X155922690Y-89857912D01*
X155774908Y-89800008D01*
X155112682Y-89568229D01*
X154520637Y-89420290D01*
X153929815Y-89343520D01*
X153271258Y-89325249D01*
X153196365Y-89326193D01*
X152381431Y-89397878D01*
X151494744Y-89580077D01*
X150580003Y-89859437D01*
X149680911Y-90222603D01*
X148841169Y-90656221D01*
X148838283Y-90657908D01*
X148456803Y-90932944D01*
X148052491Y-91311177D01*
X147662095Y-91749523D01*
X147322360Y-92204896D01*
X147070033Y-92634213D01*
X146987171Y-92828323D01*
X146827244Y-93458535D01*
X146819122Y-94042592D01*
X146544310Y-94066635D01*
X146541711Y-94036927D01*
X146548740Y-93375640D01*
X146698523Y-92752880D01*
X146958880Y-92196376D01*
X147188113Y-91791682D01*
X146916587Y-91443161D01*
X146352309Y-90854116D01*
X145680328Y-90388905D01*
X144917972Y-90057171D01*
X144087113Y-89869150D01*
X143583563Y-89838157D01*
X142969727Y-89855492D01*
X142295693Y-89915138D01*
X141611553Y-90011076D01*
X140967394Y-90137288D01*
X140413307Y-90287756D01*
X140309972Y-90322980D01*
X139517436Y-90665407D01*
X138794438Y-91094997D01*
X138159122Y-91594216D01*
X137629627Y-92145531D01*
X137224097Y-92731405D01*
X136960677Y-93334306D01*
X136889266Y-93628970D01*
X136885299Y-94113794D01*
X136618192Y-94137163D01*
X136587102Y-93860286D01*
X136596860Y-93598133D01*
X136664306Y-93329353D01*
X136754918Y-93082250D01*
X136925195Y-92715112D01*
X137151184Y-92317314D01*
X137340159Y-92036199D01*
X137614383Y-91605506D01*
X137739529Y-91248168D01*
X137745314Y-91203167D01*
X137772853Y-91112743D01*
X138060599Y-91087568D01*
X138146679Y-91061960D01*
X138339839Y-90962307D01*
X138605395Y-90807178D01*
X138739803Y-90723887D01*
X139544931Y-90292275D01*
X140443603Y-89957900D01*
X141456950Y-89713895D01*
X142201378Y-89598699D01*
X142789147Y-89532615D01*
X143255510Y-89499919D01*
X143644714Y-89498899D01*
X144001009Y-89527838D01*
X144007942Y-89528691D01*
X144872437Y-89707614D01*
X145661997Y-90015944D01*
X146355932Y-90443239D01*
X146933552Y-90979064D01*
X146972648Y-91024564D01*
X147169173Y-91253682D01*
X147318609Y-91421320D01*
X147392259Y-91495403D01*
X147394865Y-91496485D01*
X147458741Y-91438276D01*
X147601046Y-91289836D01*
X147739153Y-91140044D01*
X147923595Y-90921486D01*
X148005277Y-90765284D01*
X148005817Y-90618888D01*
X147985227Y-90541824D01*
X147857823Y-90365188D01*
X147590049Y-90157551D01*
X147205599Y-89929816D01*
X146728172Y-89692890D01*
X146181461Y-89457675D01*
X145589164Y-89235076D01*
X144974976Y-89035998D01*
X144362592Y-88871343D01*
X144347164Y-88867681D01*
X143991273Y-88786824D01*
X143702413Y-88734327D01*
X143433950Y-88707883D01*
X143139247Y-88705185D01*
X142771672Y-88723923D01*
X142284589Y-88761789D01*
X142255852Y-88764178D01*
X141555918Y-88838519D01*
X140981282Y-88941668D01*
X140488540Y-89087831D01*
X140034288Y-89291208D01*
X139575119Y-89566005D01*
X139364342Y-89710379D01*
X139124833Y-89898083D01*
X138859936Y-90134974D01*
X138595772Y-90393461D01*
X138358458Y-90645954D01*
X138174114Y-90864862D01*
X138068859Y-91022595D01*
X138060599Y-91087568D01*
X137772853Y-91112743D01*
X137855510Y-90841345D01*
X138104081Y-90449894D01*
X138467213Y-90047865D01*
X138921094Y-89654308D01*
X139441914Y-89288272D01*
X140005859Y-88968809D01*
X140589118Y-88714968D01*
X141025429Y-88578981D01*
X141475863Y-88411000D01*
X141924670Y-88151049D01*
X141970502Y-88118333D01*
X142594556Y-87766575D01*
X143303885Y-87556176D01*
X144085060Y-87490897D01*
X144199500Y-87493557D01*
X144823834Y-87515951D01*
X145101786Y-87184142D01*
X145333937Y-86953402D01*
X145636897Y-86711178D01*
X145847147Y-86570703D01*
X146081490Y-86439633D01*
X146303981Y-86346132D01*
X146562527Y-86276583D01*
X146905038Y-86217372D01*
X147256231Y-86170245D01*
X148289240Y-86116135D01*
X149402560Y-86202185D01*
X150584144Y-86426632D01*
X151821941Y-86787710D01*
X152074666Y-86875980D01*
X152690121Y-87096732D01*
X153127073Y-86741827D01*
X153999963Y-86133073D01*
X154943418Y-85659834D01*
X155933400Y-85330187D01*
X156945870Y-85152207D01*
X157919962Y-85131719D01*
G37*
X157919962Y-85131719D02*
X158969521Y-85272134D01*
X160027966Y-85563870D01*
X161067755Y-85992878D01*
X162061344Y-86545111D01*
X162981189Y-87206522D01*
X163799747Y-87963064D01*
X164078635Y-88272715D01*
X164721338Y-89123099D01*
X165278765Y-90073202D01*
X165758588Y-91139307D01*
X166168476Y-92337704D01*
X166405721Y-93214316D01*
X166479982Y-93571590D01*
X166564253Y-94071333D01*
X166655542Y-94687179D01*
X166750857Y-95392763D01*
X166847207Y-96161722D01*
X166941601Y-96967689D01*
X167031047Y-97784299D01*
X167112554Y-98585188D01*
X167183128Y-99343991D01*
X167239781Y-100034342D01*
X167279519Y-100629877D01*
X167298943Y-101086433D01*
X167283822Y-102566816D01*
X167162211Y-103930612D01*
X166931001Y-105195349D01*
X166587081Y-106378553D01*
X166181859Y-107381179D01*
X165637045Y-108403292D01*
X164965979Y-109396827D01*
X164190648Y-110340515D01*
X163333041Y-111213090D01*
X162415145Y-111993285D01*
X161458949Y-112659834D01*
X160486442Y-113191469D01*
X159931223Y-113426743D01*
X158465340Y-113929827D01*
X156870191Y-114385557D01*
X155181541Y-114784541D01*
X153610290Y-115087527D01*
X153257802Y-115140167D01*
X152776131Y-115200421D01*
X152198652Y-115265177D01*
X151558739Y-115331321D01*
X150889769Y-115395738D01*
X150225114Y-115455319D01*
X149598150Y-115506946D01*
X149042252Y-115547510D01*
X148590795Y-115573893D01*
X148299259Y-115582955D01*
X147590589Y-115580243D01*
X146897417Y-115565909D01*
X146249676Y-115541410D01*
X145677296Y-115508204D01*
X145210208Y-115467748D01*
X144878341Y-115421499D01*
X144844846Y-115414745D01*
X144237629Y-115248526D01*
X143608138Y-115012609D01*
X143018398Y-114733450D01*
X142530436Y-114437505D01*
X142496661Y-114413172D01*
X142085643Y-114063983D01*
X141676389Y-113631896D01*
X141307029Y-113163908D01*
X141015692Y-112707008D01*
X140878652Y-112419081D01*
X140824114Y-112269138D01*
X140779103Y-112114250D01*
X140741441Y-111933305D01*
X140708942Y-111705189D01*
X140679428Y-111408791D01*
X140650716Y-111022998D01*
X140620625Y-110526698D01*
X140586973Y-109898778D01*
X140556908Y-109305220D01*
X140499750Y-108202683D01*
X140445910Y-107256357D01*
X140394151Y-106453180D01*
X140343232Y-105780088D01*
X140291915Y-105224023D01*
X140238960Y-104771921D01*
X140183129Y-104410720D01*
X140123181Y-104127360D01*
X140057878Y-103908779D01*
X140040565Y-103862713D01*
X139932301Y-103635281D01*
X139781943Y-103419207D01*
X139567192Y-103192512D01*
X139265747Y-102933221D01*
X138855309Y-102619359D01*
X138563921Y-102407529D01*
X138360084Y-102248445D01*
X138263656Y-102113307D01*
X138239332Y-101934926D01*
X138243263Y-101811557D01*
X138550562Y-101784672D01*
X138581079Y-101917482D01*
X138663283Y-102046947D01*
X138820318Y-102194368D01*
X139075327Y-102381048D01*
X139451454Y-102628290D01*
X139502577Y-102660967D01*
X139753043Y-102878236D01*
X140017881Y-103204739D01*
X140153126Y-103411374D01*
X140482926Y-103957152D01*
X140685796Y-106574178D01*
X140739214Y-107285194D01*
X140789610Y-107997255D01*
X140834886Y-108677532D01*
X140872947Y-109293199D01*
X140901692Y-109811426D01*
X140919027Y-110199385D01*
X140920711Y-110250778D01*
X140956900Y-110987498D01*
X141019339Y-111582164D01*
X141112910Y-112060702D01*
X141242490Y-112449034D01*
X141387943Y-112733072D01*
X141509388Y-112909768D01*
X141647708Y-113047508D01*
X141828152Y-113155022D01*
X142075971Y-113241032D01*
X142416412Y-113314265D01*
X142874728Y-113383448D01*
X143476166Y-113457306D01*
X143487444Y-113458614D01*
X144998794Y-113571837D01*
X146425174Y-113549222D01*
X147783990Y-113389810D01*
X148825356Y-113165425D01*
X149743452Y-112880483D01*
X150606126Y-112511952D01*
X151447374Y-112041363D01*
X152301189Y-111450249D01*
X152980625Y-110908013D01*
X153389255Y-110561940D01*
X153722514Y-110267599D01*
X154005984Y-109996622D01*
X154265248Y-109720637D01*
X154525888Y-109411275D01*
X154813487Y-109040166D01*
X155153626Y-108578938D01*
X155447341Y-108172457D01*
X155978883Y-107402056D01*
X156397544Y-106714920D01*
X156714987Y-106079581D01*
X156942878Y-105464579D01*
X157092883Y-104838449D01*
X157176665Y-104169727D01*
X157205873Y-103429141D01*
X157203383Y-103072138D01*
X157191814Y-102770167D01*
X157173359Y-102570357D01*
X157163981Y-102527951D01*
X157057367Y-102431737D01*
X156802911Y-102301785D01*
X156417319Y-102144324D01*
X155917297Y-101965582D01*
X155319551Y-101771787D01*
X154640790Y-101569168D01*
X154436744Y-101511210D01*
X152448015Y-101008156D01*
X150457952Y-100613447D01*
X148499869Y-100332400D01*
X146607084Y-100170337D01*
X145843228Y-100139127D01*
X145082066Y-100133746D01*
X144277222Y-100154870D01*
X143454444Y-100199652D01*
X142639482Y-100265241D01*
X141858084Y-100348787D01*
X141135996Y-100447440D01*
X140498968Y-100558350D01*
X139972748Y-100678666D01*
X139583084Y-100805540D01*
X139504092Y-100840810D01*
X139049922Y-101100017D01*
X138735540Y-101364685D01*
X138571550Y-101624317D01*
X138550562Y-101784672D01*
X138243263Y-101811557D01*
X138243691Y-101798120D01*
X138256808Y-101515712D01*
X138256629Y-101329543D01*
X138237269Y-101166682D01*
X138192842Y-100954199D01*
X138166027Y-100835860D01*
X138153345Y-100708707D01*
X138454899Y-100682325D01*
X138476798Y-100889721D01*
X138516972Y-101002014D01*
X138546191Y-101006119D01*
X138948190Y-100764796D01*
X139318856Y-100572794D01*
X139691256Y-100420214D01*
X140098458Y-100297156D01*
X140573527Y-100193725D01*
X141149529Y-100100021D01*
X141859533Y-100006146D01*
X141905837Y-100000450D01*
X143766581Y-99836197D01*
X145646807Y-99799759D01*
X147562308Y-99892539D01*
X149528880Y-100115938D01*
X151562316Y-100471361D01*
X153678411Y-100960209D01*
X154170413Y-101089501D01*
X154871132Y-101280770D01*
X155444773Y-101445304D01*
X155929183Y-101594759D01*
X156362209Y-101740790D01*
X156762429Y-101887711D01*
X157080513Y-102020954D01*
X157301431Y-102159320D01*
X157442069Y-102335568D01*
X157519315Y-102582462D01*
X157550057Y-102932762D01*
X157551201Y-103417890D01*
X157520114Y-104186550D01*
X157442335Y-104867185D01*
X157306001Y-105492649D01*
X157099256Y-106095798D01*
X156810237Y-106709487D01*
X156427089Y-107366571D01*
X155937950Y-108099906D01*
X155780648Y-108323005D01*
X155362792Y-108903744D01*
X155019189Y-109364946D01*
X154731395Y-109728778D01*
X154480959Y-110017409D01*
X154249435Y-110253006D01*
X154018375Y-110457735D01*
X153973378Y-110494669D01*
X153655902Y-110758753D01*
X153296174Y-111067292D01*
X152998301Y-111330108D01*
X152171113Y-111979257D01*
X151213625Y-112563630D01*
X150158011Y-113066161D01*
X149036446Y-113469786D01*
X148872830Y-113518344D01*
X148131384Y-113687891D01*
X147267800Y-113810334D01*
X146323000Y-113884252D01*
X145337902Y-113908221D01*
X144353425Y-113880819D01*
X143410488Y-113800622D01*
X142882108Y-113726640D01*
X142562514Y-113680179D01*
X142312815Y-113655159D01*
X142175019Y-113655405D01*
X142161737Y-113661029D01*
X142198740Y-113736465D01*
X142344863Y-113876596D01*
X142566537Y-114054944D01*
X142830191Y-114245027D01*
X143102254Y-114420369D01*
X143187482Y-114470102D01*
X143749007Y-114751383D01*
X144326786Y-114961002D01*
X144958610Y-115107865D01*
X145682272Y-115200883D01*
X146484720Y-115247340D01*
X147489340Y-115267035D01*
X148469044Y-115256303D01*
X149460495Y-115212853D01*
X150500354Y-115134399D01*
X151625284Y-115018651D01*
X152871947Y-114863323D01*
X153075052Y-114836015D01*
X153944452Y-114699968D01*
X154865602Y-114523116D01*
X155813679Y-114312616D01*
X156763854Y-114075621D01*
X157691304Y-113819285D01*
X158571201Y-113550763D01*
X159378720Y-113277210D01*
X160089035Y-113005779D01*
X160677321Y-112743625D01*
X161060972Y-112534609D01*
X161836179Y-112003296D01*
X162619069Y-111371090D01*
X163380703Y-110667634D01*
X164092138Y-109922569D01*
X164724430Y-109165535D01*
X165248641Y-108426175D01*
X165516460Y-107971444D01*
X166100103Y-106717948D01*
X166533661Y-105414462D01*
X166821110Y-104045616D01*
X166966422Y-102596040D01*
X166977996Y-102319221D01*
X166983197Y-101590204D01*
X166957022Y-100745088D01*
X166902703Y-99810887D01*
X166823469Y-98814618D01*
X166722553Y-97783297D01*
X166603185Y-96743939D01*
X166468596Y-95723561D01*
X166322017Y-94749178D01*
X166166679Y-93847806D01*
X166005814Y-93046463D01*
X165842653Y-92372163D01*
X165750749Y-92057801D01*
X165278483Y-90820726D01*
X164685115Y-89695166D01*
X163975097Y-88686002D01*
X163152881Y-87798111D01*
X162222919Y-87036372D01*
X161189667Y-86405662D01*
X160182402Y-85956829D01*
X159355850Y-85685874D01*
X158585485Y-85524407D01*
X157808587Y-85461360D01*
X157387001Y-85463619D01*
X156326368Y-85578839D01*
X155311410Y-85855149D01*
X154354780Y-86287556D01*
X153469132Y-86871067D01*
X153148634Y-87135939D01*
X152780614Y-87459039D01*
X151993021Y-87191652D01*
X150805984Y-86829238D01*
X149707328Y-86576749D01*
X148704479Y-86434839D01*
X147804860Y-86404157D01*
X147015898Y-86485356D01*
X146345016Y-86679086D01*
X146311405Y-86693140D01*
X146033434Y-86836808D01*
X145754408Y-87021913D01*
X145512400Y-87217792D01*
X145345489Y-87393782D01*
X145291172Y-87514739D01*
X145370360Y-87566699D01*
X145559117Y-87607162D01*
X145618531Y-87613556D01*
X145911302Y-87657912D01*
X146253216Y-87737782D01*
X146605010Y-87840163D01*
X146927424Y-87952055D01*
X147181196Y-88060454D01*
X147327065Y-88152356D01*
X147347171Y-88186045D01*
X147329901Y-88263420D01*
X147246813Y-88300423D01*
X147076439Y-88295316D01*
X146797314Y-88246359D01*
X146387971Y-88151814D01*
X146129975Y-88087464D01*
X145268609Y-87911043D01*
X144457376Y-87826427D01*
X143718861Y-87833230D01*
X143075651Y-87931065D01*
X142550333Y-88119551D01*
X142494108Y-88149452D01*
X142175074Y-88326615D01*
X142813731Y-88340681D01*
X143673923Y-88415507D01*
X144607071Y-88595404D01*
X145565235Y-88866881D01*
X146500478Y-89216438D01*
X147331320Y-89612447D01*
X147911271Y-89924348D01*
X148120983Y-89619195D01*
X148401633Y-89315530D01*
X148802460Y-89052932D01*
X149332014Y-88828736D01*
X149998850Y-88640278D01*
X150811515Y-88484893D01*
X151778565Y-88359913D01*
X152329707Y-88307387D01*
X152929919Y-88257440D01*
X153395089Y-88224036D01*
X153758698Y-88207177D01*
X154054228Y-88206862D01*
X154315160Y-88223091D01*
X154574976Y-88255864D01*
X154867158Y-88305181D01*
X154879410Y-88307393D01*
X155996632Y-88581095D01*
X157093705Y-88987159D01*
X158124793Y-89506110D01*
X158917841Y-90023443D01*
X159201855Y-90243436D01*
X159354518Y-90395507D01*
X159388830Y-90500261D01*
X159317788Y-90578299D01*
X159280544Y-90598287D01*
X159127927Y-90583051D01*
X158887062Y-90441673D01*
X158770317Y-90352143D01*
X158194045Y-89946555D01*
X157502368Y-89556202D01*
X156748902Y-89206533D01*
X155987267Y-88922998D01*
X155427007Y-88765291D01*
X154502636Y-88611587D01*
X153480691Y-88554426D01*
X152401740Y-88592423D01*
X151306350Y-88724191D01*
X150260461Y-88941826D01*
X149652199Y-89110147D01*
X149187750Y-89270917D01*
X148842671Y-89435657D01*
X148592518Y-89615886D01*
X148423609Y-89807547D01*
X148298938Y-90054057D01*
X148252993Y-90295518D01*
X148294721Y-90472808D01*
X148318895Y-90499343D01*
X148411074Y-90481274D01*
X148614889Y-90397016D01*
X148893824Y-90262392D01*
X149035399Y-90188918D01*
X150115173Y-89690001D01*
X151198390Y-89330775D01*
X152271662Y-89110494D01*
X153321591Y-89028415D01*
X154334788Y-89083791D01*
X155297859Y-89275878D01*
X156197411Y-89603929D01*
X157020050Y-90067201D01*
X157752384Y-90664949D01*
X157762126Y-90674458D01*
X158096100Y-90993571D01*
X158351317Y-91210907D01*
X158564536Y-91348507D01*
X158772510Y-91428410D01*
X159011998Y-91472658D01*
X159112285Y-91484028D01*
X159686156Y-91586091D01*
X160155563Y-91757735D01*
X160503648Y-91988857D01*
X160713552Y-92269351D01*
X160768214Y-92476689D01*
X160717640Y-92783031D01*
X160537149Y-93073535D01*
X160264517Y-93308856D01*
X159937521Y-93449647D01*
X159814993Y-93469508D01*
X159501937Y-93563910D01*
X159118845Y-93790891D01*
X158682467Y-94137630D01*
X158209555Y-94591304D01*
X157876067Y-94953869D01*
X157475920Y-95392577D01*
X157132035Y-95726979D01*
X156804926Y-95992429D01*
X156461393Y-96220465D01*
X155539909Y-96703941D01*
X154561645Y-97077562D01*
X153550596Y-97339453D01*
X152530760Y-97487742D01*
X151526129Y-97520552D01*
X150560702Y-97436010D01*
X149658472Y-97232242D01*
X148843435Y-96907372D01*
X148692338Y-96827334D01*
X148476518Y-96721936D01*
X148336115Y-96680957D01*
X148304427Y-96698916D01*
X148375443Y-96885893D01*
X148540072Y-97137825D01*
X148762370Y-97410625D01*
X149006398Y-97660207D01*
X149236214Y-97842483D01*
X149237222Y-97843123D01*
X149526063Y-98011341D01*
X149805177Y-98133554D01*
X150104090Y-98213193D01*
X150452326Y-98253694D01*
X150879409Y-98258490D01*
X151414864Y-98231016D01*
X152088115Y-98174715D01*
X153381361Y-98014267D01*
X154537914Y-97781067D01*
X155577333Y-97467628D01*
X156519176Y-97066461D01*
X157383001Y-96570078D01*
X158188368Y-95970989D01*
X158460969Y-95734837D01*
X158720434Y-95510532D01*
X158939865Y-95336969D01*
X159084292Y-95241185D01*
X159113018Y-95230725D01*
X159243022Y-95260250D01*
X159242088Y-95376413D01*
X159117907Y-95568617D01*
X158878175Y-95826263D01*
X158530584Y-96138756D01*
X158340408Y-96294945D01*
X157547257Y-96871096D01*
X156717847Y-97350647D01*
X155829150Y-97741726D01*
X154858141Y-98052461D01*
X153781790Y-98290978D01*
X152577072Y-98465404D01*
X152033417Y-98520946D01*
X151458217Y-98572193D01*
X151021991Y-98606335D01*
X150695246Y-98623341D01*
X150448486Y-98623185D01*
X150252216Y-98605839D01*
X150076940Y-98571274D01*
X149893163Y-98519462D01*
X149891349Y-98518907D01*
X149307401Y-98265482D01*
X148781519Y-97893751D01*
X148344522Y-97433698D01*
X148027234Y-96915302D01*
X147907181Y-96588870D01*
X147782692Y-96310056D01*
X147593137Y-96047587D01*
X147557792Y-96011331D01*
X147352518Y-95788576D01*
X147127692Y-95509156D01*
X147031881Y-95377421D01*
X146882851Y-95163227D01*
X146779786Y-95015499D01*
X146750679Y-94974142D01*
X146682895Y-95014696D01*
X146511835Y-95139651D01*
X146266358Y-95327512D01*
X146078384Y-95474897D01*
X145275374Y-96050962D01*
X144486673Y-96486159D01*
X143668776Y-96797712D01*
X142778184Y-97002850D01*
X141965570Y-97103528D01*
X140853906Y-97142745D01*
X139857286Y-97059139D01*
X138976519Y-96852783D01*
X138909539Y-96830445D01*
X138523833Y-96698674D01*
X138458811Y-96928199D01*
X138428924Y-97142551D01*
X138487802Y-97311467D01*
X138653391Y-97446913D01*
X138943637Y-97560853D01*
X139376485Y-97665253D01*
X139639374Y-97715346D01*
X139935983Y-97763448D01*
X140210281Y-97792235D01*
X140500333Y-97801669D01*
X140844204Y-97791711D01*
X141279959Y-97762325D01*
X141845662Y-97713474D01*
X141848926Y-97713176D01*
X142662859Y-97627405D01*
X143334621Y-97530201D01*
X143891225Y-97417365D01*
X144103980Y-97362411D01*
X144525445Y-97254658D01*
X144804660Y-97206082D01*
X144957124Y-97214295D01*
X144980309Y-97227345D01*
X145036732Y-97313340D01*
X144983547Y-97398799D01*
X144805679Y-97492273D01*
X144488051Y-97602313D01*
X144142039Y-97702803D01*
X143599204Y-97829763D01*
X142953032Y-97935928D01*
X142174532Y-98025840D01*
X141942041Y-98047548D01*
X141420745Y-98095703D01*
X141045281Y-98135410D01*
X140792638Y-98171071D01*
X140639803Y-98207090D01*
X140563763Y-98247867D01*
X140541506Y-98297806D01*
X140541890Y-98315398D01*
X140476632Y-98503769D01*
X140261459Y-98712041D01*
X139912507Y-98926927D01*
X139645613Y-99053513D01*
X139159683Y-99290682D01*
X138819978Y-99522634D01*
X138604901Y-99766744D01*
X138513665Y-99964223D01*
X138471850Y-100172105D01*
X138452756Y-100427296D01*
X138454899Y-100682325D01*
X138153345Y-100708707D01*
X138113244Y-100306660D01*
X138212486Y-99844338D01*
X138466353Y-99444394D01*
X138877440Y-99102333D01*
X139296787Y-98878234D01*
X139751171Y-98660470D01*
X140043900Y-98483278D01*
X140175672Y-98339110D01*
X140147185Y-98220418D01*
X139959138Y-98119655D01*
X139612226Y-98029273D01*
X139379320Y-97985601D01*
X138878546Y-97877555D01*
X138526020Y-97745219D01*
X138300982Y-97574862D01*
X138182675Y-97352760D01*
X138153221Y-97174765D01*
X138151361Y-96915069D01*
X138175979Y-96703327D01*
X138180898Y-96684566D01*
X138178293Y-96567467D01*
X138088722Y-96426384D01*
X137890652Y-96232620D01*
X137753059Y-96114440D01*
X137224853Y-95575801D01*
X136855995Y-94980079D01*
X136646571Y-94327416D01*
X136625257Y-94200081D01*
X136618192Y-94137163D01*
X136885299Y-94113794D01*
X137023527Y-94620520D01*
X137283704Y-95123235D01*
X137645583Y-95596029D01*
X138088917Y-96012989D01*
X138593459Y-96348202D01*
X139138961Y-96575757D01*
X139206603Y-96594702D01*
X139994962Y-96747138D01*
X140857909Y-96816508D01*
X141746416Y-96804850D01*
X142611455Y-96714199D01*
X143403999Y-96546593D01*
X143845041Y-96402009D01*
X144624333Y-96047572D01*
X145376674Y-95605858D01*
X146035158Y-95116736D01*
X146109141Y-95052836D01*
X146593302Y-94626607D01*
X146544310Y-94066635D01*
X146819122Y-94042592D01*
X146962435Y-94608615D01*
X146963755Y-94612025D01*
X147251083Y-95146148D01*
X147679133Y-95662796D01*
X148219451Y-96137327D01*
X148843579Y-96545101D01*
X149523059Y-96861479D01*
X149590165Y-96886141D01*
X150258808Y-97063619D01*
X151035980Y-97165294D01*
X151878677Y-97190927D01*
X152743890Y-97140275D01*
X153588613Y-97013103D01*
X154027417Y-96910848D01*
X154909923Y-96639178D01*
X155663656Y-96320396D01*
X156327492Y-95931250D01*
X156940303Y-95448491D01*
X157540961Y-94848870D01*
X157618505Y-94762998D01*
X158223351Y-94134247D01*
X158775955Y-93660967D01*
X159281404Y-93339293D01*
X159711504Y-93173334D01*
X160091221Y-93023413D01*
X160330931Y-92816080D01*
X160427902Y-92577164D01*
X160379401Y-92332488D01*
X160182697Y-92107878D01*
X159842862Y-91931890D01*
X159581754Y-91855193D01*
X159362538Y-91816448D01*
X159308341Y-91815425D01*
X159031898Y-91814651D01*
X158769863Y-91759204D01*
X158493035Y-91634203D01*
X158172209Y-91424767D01*
X157778183Y-91116016D01*
X157535695Y-90912155D01*
X157137503Y-90578800D01*
X156820094Y-90333849D01*
X156540482Y-90150154D01*
X156255677Y-90000559D01*
X155922690Y-89857912D01*
X155774908Y-89800008D01*
X155112682Y-89568229D01*
X154520637Y-89420290D01*
X153929815Y-89343520D01*
X153271258Y-89325249D01*
X153196365Y-89326193D01*
X152381431Y-89397878D01*
X151494744Y-89580077D01*
X150580003Y-89859437D01*
X149680911Y-90222603D01*
X148841169Y-90656221D01*
X148838283Y-90657908D01*
X148456803Y-90932944D01*
X148052491Y-91311177D01*
X147662095Y-91749523D01*
X147322360Y-92204896D01*
X147070033Y-92634213D01*
X146987171Y-92828323D01*
X146827244Y-93458535D01*
X146819122Y-94042592D01*
X146544310Y-94066635D01*
X146541711Y-94036927D01*
X146548740Y-93375640D01*
X146698523Y-92752880D01*
X146958880Y-92196376D01*
X147188113Y-91791682D01*
X146916587Y-91443161D01*
X146352309Y-90854116D01*
X145680328Y-90388905D01*
X144917972Y-90057171D01*
X144087113Y-89869150D01*
X143583563Y-89838157D01*
X142969727Y-89855492D01*
X142295693Y-89915138D01*
X141611553Y-90011076D01*
X140967394Y-90137288D01*
X140413307Y-90287756D01*
X140309972Y-90322980D01*
X139517436Y-90665407D01*
X138794438Y-91094997D01*
X138159122Y-91594216D01*
X137629627Y-92145531D01*
X137224097Y-92731405D01*
X136960677Y-93334306D01*
X136889266Y-93628970D01*
X136885299Y-94113794D01*
X136618192Y-94137163D01*
X136587102Y-93860286D01*
X136596860Y-93598133D01*
X136664306Y-93329353D01*
X136754918Y-93082250D01*
X136925195Y-92715112D01*
X137151184Y-92317314D01*
X137340159Y-92036199D01*
X137614383Y-91605506D01*
X137739529Y-91248168D01*
X137745314Y-91203167D01*
X137772853Y-91112743D01*
X138060599Y-91087568D01*
X138146679Y-91061960D01*
X138339839Y-90962307D01*
X138605395Y-90807178D01*
X138739803Y-90723887D01*
X139544931Y-90292275D01*
X140443603Y-89957900D01*
X141456950Y-89713895D01*
X142201378Y-89598699D01*
X142789147Y-89532615D01*
X143255510Y-89499919D01*
X143644714Y-89498899D01*
X144001009Y-89527838D01*
X144007942Y-89528691D01*
X144872437Y-89707614D01*
X145661997Y-90015944D01*
X146355932Y-90443239D01*
X146933552Y-90979064D01*
X146972648Y-91024564D01*
X147169173Y-91253682D01*
X147318609Y-91421320D01*
X147392259Y-91495403D01*
X147394865Y-91496485D01*
X147458741Y-91438276D01*
X147601046Y-91289836D01*
X147739153Y-91140044D01*
X147923595Y-90921486D01*
X148005277Y-90765284D01*
X148005817Y-90618888D01*
X147985227Y-90541824D01*
X147857823Y-90365188D01*
X147590049Y-90157551D01*
X147205599Y-89929816D01*
X146728172Y-89692890D01*
X146181461Y-89457675D01*
X145589164Y-89235076D01*
X144974976Y-89035998D01*
X144362592Y-88871343D01*
X144347164Y-88867681D01*
X143991273Y-88786824D01*
X143702413Y-88734327D01*
X143433950Y-88707883D01*
X143139247Y-88705185D01*
X142771672Y-88723923D01*
X142284589Y-88761789D01*
X142255852Y-88764178D01*
X141555918Y-88838519D01*
X140981282Y-88941668D01*
X140488540Y-89087831D01*
X140034288Y-89291208D01*
X139575119Y-89566005D01*
X139364342Y-89710379D01*
X139124833Y-89898083D01*
X138859936Y-90134974D01*
X138595772Y-90393461D01*
X138358458Y-90645954D01*
X138174114Y-90864862D01*
X138068859Y-91022595D01*
X138060599Y-91087568D01*
X137772853Y-91112743D01*
X137855510Y-90841345D01*
X138104081Y-90449894D01*
X138467213Y-90047865D01*
X138921094Y-89654308D01*
X139441914Y-89288272D01*
X140005859Y-88968809D01*
X140589118Y-88714968D01*
X141025429Y-88578981D01*
X141475863Y-88411000D01*
X141924670Y-88151049D01*
X141970502Y-88118333D01*
X142594556Y-87766575D01*
X143303885Y-87556176D01*
X144085060Y-87490897D01*
X144199500Y-87493557D01*
X144823834Y-87515951D01*
X145101786Y-87184142D01*
X145333937Y-86953402D01*
X145636897Y-86711178D01*
X145847147Y-86570703D01*
X146081490Y-86439633D01*
X146303981Y-86346132D01*
X146562527Y-86276583D01*
X146905038Y-86217372D01*
X147256231Y-86170245D01*
X148289240Y-86116135D01*
X149402560Y-86202185D01*
X150584144Y-86426632D01*
X151821941Y-86787710D01*
X152074666Y-86875980D01*
X152690121Y-87096732D01*
X153127073Y-86741827D01*
X153999963Y-86133073D01*
X154943418Y-85659834D01*
X155933400Y-85330187D01*
X156945870Y-85152207D01*
X157919962Y-85131719D01*
%TD*%
M02*
