M48
; DRILL file {KiCad (5.1.8)-1} date 03/31/21 15:24:48
; FORMAT={-:-/ absolute / inch / decimal}
; #@! TF.CreationDate,2021-03-31T15:24:48-04:00
; #@! TF.GenerationSoftware,Kicad,Pcbnew,(5.1.8)-1
; #@! TF.FileFunction,Plated,1,2,PTH
FMAT,2
INCH
T1C0.0157
T2C0.0197
T3C0.0300
T4C0.0315
T5C0.0354
T6C0.0394
T7C0.0433
T8C0.0453
T9C0.0472
T10C0.0598
%
G90
G05
T1
X4.878Y-4.1811
X4.9488Y-3.9685
X5.4213Y-3.0315
X5.5531Y-4.0087
X5.6102Y-4.0748
X5.8169Y-4.0748
X5.9567Y-3.3622
X6.5748Y-3.0807
X6.8012Y-3.0807
T2
X5.7965Y-2.639
X5.7965Y-2.789
T3
X5.4984Y-4.7087
X5.5984Y-4.7087
X5.6984Y-4.7087
X5.7984Y-4.7087
X5.8984Y-4.7087
X5.9984Y-4.7087
X6.0984Y-4.7087
T4
X5.2913Y-4.2043
X5.2913Y-4.7043
X5.1008Y-4.2024
X5.1008Y-4.7024
T5
X4.6374Y-3.6067
X4.7374Y-2.6067
X4.7374Y-3.6067
X4.8374Y-2.6067
X4.8374Y-3.6067
X4.9374Y-2.6067
X4.9374Y-3.6067
X5.0374Y-2.6067
X5.0374Y-3.6067
X5.1374Y-3.6067
T6
X6.4579Y-3.6024
X6.4579Y-3.7024
X6.4579Y-3.8024
X6.4579Y-3.9024
X6.4579Y-4.0024
X6.4579Y-4.1024
X6.9579Y-3.6024
X6.9579Y-3.7024
X6.9579Y-3.8024
X6.9579Y-3.9024
X6.9579Y-4.0024
X6.9579Y-4.1024
T7
X5.4965Y-2.389
X5.4965Y-2.489
X5.4965Y-2.589
X5.4965Y-2.689
X5.4965Y-2.789
X5.4965Y-2.889
X5.4965Y-2.989
X5.4965Y-3.089
X5.4965Y-3.189
X5.4965Y-3.289
X5.4965Y-3.389
X5.4965Y-3.489
X5.4965Y-3.589
X5.4965Y-3.689
X5.5965Y-3.689
X5.6965Y-3.689
X5.7965Y-3.689
X5.8965Y-3.689
X5.9965Y-2.489
X5.9965Y-2.689
X5.9965Y-2.789
X5.9965Y-2.889
X5.9965Y-3.689
X6.0965Y-2.389
X6.0965Y-2.489
X6.0965Y-2.589
X6.0965Y-2.689
X6.0965Y-2.789
X6.0965Y-2.889
X6.0965Y-2.989
X6.0965Y-3.089
X6.0965Y-3.189
X6.0965Y-3.289
X6.0965Y-3.389
X6.0965Y-3.489
X6.0965Y-3.589
X6.0965Y-3.689
T8
X6.3579Y-4.5386
X6.4579Y-4.5386
X6.5579Y-4.5386
X6.6579Y-4.5386
X6.7579Y-4.5386
X6.8579Y-4.5386
X6.9579Y-4.5386
T9
X4.6319Y-4.089
X4.6319Y-4.2268
X4.6346Y-4.5874
X4.6346Y-4.7252
T10
X6.6445Y-2.4685
X6.6445Y-2.6685
T0
M30
