%TF.GenerationSoftware,KiCad,Pcbnew,(5.1.8)-1*%
%TF.CreationDate,2021-03-31T15:24:53-04:00*%
%TF.ProjectId,Artemis Payload Computer,41727465-6d69-4732-9050-61796c6f6164,rev?*%
%TF.SameCoordinates,Original*%
%TF.FileFunction,Other,Fab,Top*%
%FSLAX46Y46*%
G04 Gerber Fmt 4.6, Leading zero omitted, Abs format (unit mm)*
G04 Created by KiCad (PCBNEW (5.1.8)-1) date 2021-03-31 15:24:53*
%MOMM*%
%LPD*%
G01*
G04 APERTURE LIST*
%ADD10C,0.100000*%
%ADD11C,0.127000*%
%ADD12C,0.150000*%
%ADD13C,0.060000*%
%ADD14C,0.120000*%
G04 APERTURE END LIST*
D10*
%TO.C,J2*%
X118858000Y-120975000D02*
X116765000Y-118883000D01*
X118675000Y-121158000D02*
X116582000Y-119066000D01*
X118858000Y-117475000D02*
X116765000Y-115382000D01*
X118675000Y-117658000D02*
X116582000Y-115565000D01*
X114720000Y-114770000D02*
X114720000Y-121770000D01*
X113620000Y-114770000D02*
X113620000Y-121770000D01*
X113620000Y-114770000D02*
X120820000Y-114770000D01*
X113220000Y-115170000D02*
X113620000Y-114770000D01*
X113220000Y-121770000D02*
X113220000Y-115170000D01*
X120820000Y-121770000D02*
X113220000Y-121770000D01*
X120820000Y-114770000D02*
X120820000Y-121770000D01*
X119220000Y-120020000D02*
G75*
G03*
X119220000Y-120020000I-1500000J0D01*
G01*
X119220000Y-116520000D02*
G75*
G03*
X119220000Y-116520000I-1500000J0D01*
G01*
%TO.C,J1*%
X118788000Y-108315000D02*
X116695000Y-106223000D01*
X118605000Y-108498000D02*
X116512000Y-106406000D01*
X118788000Y-104815000D02*
X116695000Y-102722000D01*
X118605000Y-104998000D02*
X116512000Y-102905000D01*
X114650000Y-102110000D02*
X114650000Y-109110000D01*
X113550000Y-102110000D02*
X113550000Y-109110000D01*
X113550000Y-102110000D02*
X120750000Y-102110000D01*
X113150000Y-102510000D02*
X113550000Y-102110000D01*
X113150000Y-109110000D02*
X113150000Y-102510000D01*
X120750000Y-109110000D02*
X113150000Y-109110000D01*
X120750000Y-102110000D02*
X120750000Y-109110000D01*
X119150000Y-107360000D02*
G75*
G03*
X119150000Y-107360000I-1500000J0D01*
G01*
X119150000Y-103860000D02*
G75*
G03*
X119150000Y-103860000I-1500000J0D01*
G01*
%TO.C,R2*%
X132800000Y-117640000D02*
X136000000Y-117640000D01*
X136000000Y-117640000D02*
X136000000Y-108640000D01*
X136000000Y-108640000D02*
X132800000Y-108640000D01*
X132800000Y-108640000D02*
X132800000Y-117640000D01*
X134400000Y-119490000D02*
X134400000Y-117640000D01*
X134400000Y-106790000D02*
X134400000Y-108640000D01*
D11*
%TO.C,U1*%
X134300000Y-96690000D02*
X112710000Y-96690000D01*
X112710000Y-96690000D02*
X112710000Y-61130000D01*
X112710000Y-61130000D02*
X134300000Y-61130000D01*
X134300000Y-61130000D02*
X134300000Y-96690000D01*
D10*
%TO.C,R1*%
X131160000Y-108590000D02*
X127960000Y-108590000D01*
X127960000Y-108590000D02*
X127960000Y-117590000D01*
X127960000Y-117590000D02*
X131160000Y-117590000D01*
X131160000Y-117590000D02*
X131160000Y-108590000D01*
X129560000Y-106740000D02*
X129560000Y-108590000D01*
X129560000Y-119440000D02*
X129560000Y-117590000D01*
%TO.C,U601*%
X168960000Y-80480000D02*
X167910000Y-81530000D01*
X168960000Y-80480000D02*
X168960000Y-74830000D01*
X167910000Y-81530000D02*
X165260000Y-81530000D01*
X168960000Y-74830000D02*
X165260000Y-74830000D01*
X165260000Y-81530000D02*
X165260000Y-74830000D01*
%TO.C,J601*%
X171320000Y-70190000D02*
X171320000Y-60290000D01*
X165020000Y-70240000D02*
X172520000Y-70240000D01*
X172520000Y-70240000D02*
X172520000Y-60240000D01*
X172520000Y-60240000D02*
X165020000Y-60240000D01*
X165020000Y-60240000D02*
X165020000Y-70240000D01*
%TO.C,C602*%
X174700000Y-75550000D02*
X175500000Y-75550000D01*
X175500000Y-75550000D02*
X175500000Y-77150000D01*
X175500000Y-77150000D02*
X174700000Y-77150000D01*
X174700000Y-77150000D02*
X174700000Y-75550000D01*
%TO.C,C601*%
X175500000Y-81125000D02*
X174700000Y-81125000D01*
X174700000Y-81125000D02*
X174700000Y-79525000D01*
X174700000Y-79525000D02*
X175500000Y-79525000D01*
X175500000Y-79525000D02*
X175500000Y-81125000D01*
%TD*%
%TO.C,J2*%
D12*
X113754761Y-126028095D02*
X113802380Y-125885238D01*
X113802380Y-125647142D01*
X113754761Y-125551904D01*
X113707142Y-125504285D01*
X113611904Y-125456666D01*
X113516666Y-125456666D01*
X113421428Y-125504285D01*
X113373809Y-125551904D01*
X113326190Y-125647142D01*
X113278571Y-125837619D01*
X113230952Y-125932857D01*
X113183333Y-125980476D01*
X113088095Y-126028095D01*
X112992857Y-126028095D01*
X112897619Y-125980476D01*
X112850000Y-125932857D01*
X112802380Y-125837619D01*
X112802380Y-125599523D01*
X112850000Y-125456666D01*
X113754761Y-124599523D02*
X113802380Y-124694761D01*
X113802380Y-124885238D01*
X113754761Y-124980476D01*
X113707142Y-125028095D01*
X113611904Y-125075714D01*
X113326190Y-125075714D01*
X113230952Y-125028095D01*
X113183333Y-124980476D01*
X113135714Y-124885238D01*
X113135714Y-124694761D01*
X113183333Y-124599523D01*
X113802380Y-124170952D02*
X113135714Y-124170952D01*
X113326190Y-124170952D02*
X113230952Y-124123333D01*
X113183333Y-124075714D01*
X113135714Y-123980476D01*
X113135714Y-123885238D01*
X113754761Y-123170952D02*
X113802380Y-123266190D01*
X113802380Y-123456666D01*
X113754761Y-123551904D01*
X113659523Y-123599523D01*
X113278571Y-123599523D01*
X113183333Y-123551904D01*
X113135714Y-123456666D01*
X113135714Y-123266190D01*
X113183333Y-123170952D01*
X113278571Y-123123333D01*
X113373809Y-123123333D01*
X113469047Y-123599523D01*
X113135714Y-122790000D02*
X113802380Y-122599523D01*
X113326190Y-122409047D01*
X113802380Y-122218571D01*
X113135714Y-122028095D01*
X113897619Y-121885238D02*
X113897619Y-121123333D01*
X112802380Y-121028095D02*
X112802380Y-120456666D01*
X113802380Y-120742380D02*
X112802380Y-120742380D01*
X113754761Y-119742380D02*
X113802380Y-119837619D01*
X113802380Y-120028095D01*
X113754761Y-120123333D01*
X113659523Y-120170952D01*
X113278571Y-120170952D01*
X113183333Y-120123333D01*
X113135714Y-120028095D01*
X113135714Y-119837619D01*
X113183333Y-119742380D01*
X113278571Y-119694761D01*
X113373809Y-119694761D01*
X113469047Y-120170952D01*
X113802380Y-119266190D02*
X113135714Y-119266190D01*
X113326190Y-119266190D02*
X113230952Y-119218571D01*
X113183333Y-119170952D01*
X113135714Y-119075714D01*
X113135714Y-118980476D01*
X113802380Y-118647142D02*
X113135714Y-118647142D01*
X113230952Y-118647142D02*
X113183333Y-118599523D01*
X113135714Y-118504285D01*
X113135714Y-118361428D01*
X113183333Y-118266190D01*
X113278571Y-118218571D01*
X113802380Y-118218571D01*
X113278571Y-118218571D02*
X113183333Y-118170952D01*
X113135714Y-118075714D01*
X113135714Y-117932857D01*
X113183333Y-117837619D01*
X113278571Y-117790000D01*
X113802380Y-117790000D01*
X113802380Y-117313809D02*
X113135714Y-117313809D01*
X112802380Y-117313809D02*
X112850000Y-117361428D01*
X112897619Y-117313809D01*
X112850000Y-117266190D01*
X112802380Y-117313809D01*
X112897619Y-117313809D01*
X113135714Y-116837619D02*
X113802380Y-116837619D01*
X113230952Y-116837619D02*
X113183333Y-116790000D01*
X113135714Y-116694761D01*
X113135714Y-116551904D01*
X113183333Y-116456666D01*
X113278571Y-116409047D01*
X113802380Y-116409047D01*
X113802380Y-115504285D02*
X113278571Y-115504285D01*
X113183333Y-115551904D01*
X113135714Y-115647142D01*
X113135714Y-115837619D01*
X113183333Y-115932857D01*
X113754761Y-115504285D02*
X113802380Y-115599523D01*
X113802380Y-115837619D01*
X113754761Y-115932857D01*
X113659523Y-115980476D01*
X113564285Y-115980476D01*
X113469047Y-115932857D01*
X113421428Y-115837619D01*
X113421428Y-115599523D01*
X113373809Y-115504285D01*
X113802380Y-114885238D02*
X113754761Y-114980476D01*
X113659523Y-115028095D01*
X112802380Y-115028095D01*
X113897619Y-114742380D02*
X113897619Y-113980476D01*
X112802380Y-113551904D02*
X112802380Y-113456666D01*
X112850000Y-113361428D01*
X112897619Y-113313809D01*
X112992857Y-113266190D01*
X113183333Y-113218571D01*
X113421428Y-113218571D01*
X113611904Y-113266190D01*
X113707142Y-113313809D01*
X113754761Y-113361428D01*
X113802380Y-113456666D01*
X113802380Y-113551904D01*
X113754761Y-113647142D01*
X113707142Y-113694761D01*
X113611904Y-113742380D01*
X113421428Y-113790000D01*
X113183333Y-113790000D01*
X112992857Y-113742380D01*
X112897619Y-113694761D01*
X112850000Y-113647142D01*
X112802380Y-113551904D01*
X113802380Y-112266190D02*
X113802380Y-112837619D01*
X113802380Y-112551904D02*
X112802380Y-112551904D01*
X112945238Y-112647142D01*
X113040476Y-112742380D01*
X113088095Y-112837619D01*
X113802380Y-111932857D02*
X113135714Y-111409047D01*
X113135714Y-111932857D02*
X113802380Y-111409047D01*
X112802380Y-110837619D02*
X112802380Y-110742380D01*
X112850000Y-110647142D01*
X112897619Y-110599523D01*
X112992857Y-110551904D01*
X113183333Y-110504285D01*
X113421428Y-110504285D01*
X113611904Y-110551904D01*
X113707142Y-110599523D01*
X113754761Y-110647142D01*
X113802380Y-110742380D01*
X113802380Y-110837619D01*
X113754761Y-110932857D01*
X113707142Y-110980476D01*
X113611904Y-111028095D01*
X113421428Y-111075714D01*
X113183333Y-111075714D01*
X112992857Y-111028095D01*
X112897619Y-110980476D01*
X112850000Y-110932857D01*
X112802380Y-110837619D01*
X112897619Y-110123333D02*
X112850000Y-110075714D01*
X112802380Y-109980476D01*
X112802380Y-109742380D01*
X112850000Y-109647142D01*
X112897619Y-109599523D01*
X112992857Y-109551904D01*
X113088095Y-109551904D01*
X113230952Y-109599523D01*
X113802380Y-110170952D01*
X113802380Y-109551904D01*
X115172380Y-118123333D02*
X115886666Y-118123333D01*
X116029523Y-118170952D01*
X116124761Y-118266190D01*
X116172380Y-118409047D01*
X116172380Y-118504285D01*
X115267619Y-117694761D02*
X115220000Y-117647142D01*
X115172380Y-117551904D01*
X115172380Y-117313809D01*
X115220000Y-117218571D01*
X115267619Y-117170952D01*
X115362857Y-117123333D01*
X115458095Y-117123333D01*
X115600952Y-117170952D01*
X116172380Y-117742380D01*
X116172380Y-117123333D01*
%TO.C,J1*%
X113684761Y-113368095D02*
X113732380Y-113225238D01*
X113732380Y-112987142D01*
X113684761Y-112891904D01*
X113637142Y-112844285D01*
X113541904Y-112796666D01*
X113446666Y-112796666D01*
X113351428Y-112844285D01*
X113303809Y-112891904D01*
X113256190Y-112987142D01*
X113208571Y-113177619D01*
X113160952Y-113272857D01*
X113113333Y-113320476D01*
X113018095Y-113368095D01*
X112922857Y-113368095D01*
X112827619Y-113320476D01*
X112780000Y-113272857D01*
X112732380Y-113177619D01*
X112732380Y-112939523D01*
X112780000Y-112796666D01*
X113684761Y-111939523D02*
X113732380Y-112034761D01*
X113732380Y-112225238D01*
X113684761Y-112320476D01*
X113637142Y-112368095D01*
X113541904Y-112415714D01*
X113256190Y-112415714D01*
X113160952Y-112368095D01*
X113113333Y-112320476D01*
X113065714Y-112225238D01*
X113065714Y-112034761D01*
X113113333Y-111939523D01*
X113732380Y-111510952D02*
X113065714Y-111510952D01*
X113256190Y-111510952D02*
X113160952Y-111463333D01*
X113113333Y-111415714D01*
X113065714Y-111320476D01*
X113065714Y-111225238D01*
X113684761Y-110510952D02*
X113732380Y-110606190D01*
X113732380Y-110796666D01*
X113684761Y-110891904D01*
X113589523Y-110939523D01*
X113208571Y-110939523D01*
X113113333Y-110891904D01*
X113065714Y-110796666D01*
X113065714Y-110606190D01*
X113113333Y-110510952D01*
X113208571Y-110463333D01*
X113303809Y-110463333D01*
X113399047Y-110939523D01*
X113065714Y-110130000D02*
X113732380Y-109939523D01*
X113256190Y-109749047D01*
X113732380Y-109558571D01*
X113065714Y-109368095D01*
X113827619Y-109225238D02*
X113827619Y-108463333D01*
X112732380Y-108368095D02*
X112732380Y-107796666D01*
X113732380Y-108082380D02*
X112732380Y-108082380D01*
X113684761Y-107082380D02*
X113732380Y-107177619D01*
X113732380Y-107368095D01*
X113684761Y-107463333D01*
X113589523Y-107510952D01*
X113208571Y-107510952D01*
X113113333Y-107463333D01*
X113065714Y-107368095D01*
X113065714Y-107177619D01*
X113113333Y-107082380D01*
X113208571Y-107034761D01*
X113303809Y-107034761D01*
X113399047Y-107510952D01*
X113732380Y-106606190D02*
X113065714Y-106606190D01*
X113256190Y-106606190D02*
X113160952Y-106558571D01*
X113113333Y-106510952D01*
X113065714Y-106415714D01*
X113065714Y-106320476D01*
X113732380Y-105987142D02*
X113065714Y-105987142D01*
X113160952Y-105987142D02*
X113113333Y-105939523D01*
X113065714Y-105844285D01*
X113065714Y-105701428D01*
X113113333Y-105606190D01*
X113208571Y-105558571D01*
X113732380Y-105558571D01*
X113208571Y-105558571D02*
X113113333Y-105510952D01*
X113065714Y-105415714D01*
X113065714Y-105272857D01*
X113113333Y-105177619D01*
X113208571Y-105130000D01*
X113732380Y-105130000D01*
X113732380Y-104653809D02*
X113065714Y-104653809D01*
X112732380Y-104653809D02*
X112780000Y-104701428D01*
X112827619Y-104653809D01*
X112780000Y-104606190D01*
X112732380Y-104653809D01*
X112827619Y-104653809D01*
X113065714Y-104177619D02*
X113732380Y-104177619D01*
X113160952Y-104177619D02*
X113113333Y-104130000D01*
X113065714Y-104034761D01*
X113065714Y-103891904D01*
X113113333Y-103796666D01*
X113208571Y-103749047D01*
X113732380Y-103749047D01*
X113732380Y-102844285D02*
X113208571Y-102844285D01*
X113113333Y-102891904D01*
X113065714Y-102987142D01*
X113065714Y-103177619D01*
X113113333Y-103272857D01*
X113684761Y-102844285D02*
X113732380Y-102939523D01*
X113732380Y-103177619D01*
X113684761Y-103272857D01*
X113589523Y-103320476D01*
X113494285Y-103320476D01*
X113399047Y-103272857D01*
X113351428Y-103177619D01*
X113351428Y-102939523D01*
X113303809Y-102844285D01*
X113732380Y-102225238D02*
X113684761Y-102320476D01*
X113589523Y-102368095D01*
X112732380Y-102368095D01*
X113827619Y-102082380D02*
X113827619Y-101320476D01*
X112732380Y-100891904D02*
X112732380Y-100796666D01*
X112780000Y-100701428D01*
X112827619Y-100653809D01*
X112922857Y-100606190D01*
X113113333Y-100558571D01*
X113351428Y-100558571D01*
X113541904Y-100606190D01*
X113637142Y-100653809D01*
X113684761Y-100701428D01*
X113732380Y-100796666D01*
X113732380Y-100891904D01*
X113684761Y-100987142D01*
X113637142Y-101034761D01*
X113541904Y-101082380D01*
X113351428Y-101130000D01*
X113113333Y-101130000D01*
X112922857Y-101082380D01*
X112827619Y-101034761D01*
X112780000Y-100987142D01*
X112732380Y-100891904D01*
X113732380Y-99606190D02*
X113732380Y-100177619D01*
X113732380Y-99891904D02*
X112732380Y-99891904D01*
X112875238Y-99987142D01*
X112970476Y-100082380D01*
X113018095Y-100177619D01*
X113732380Y-99272857D02*
X113065714Y-98749047D01*
X113065714Y-99272857D02*
X113732380Y-98749047D01*
X112732380Y-98177619D02*
X112732380Y-98082380D01*
X112780000Y-97987142D01*
X112827619Y-97939523D01*
X112922857Y-97891904D01*
X113113333Y-97844285D01*
X113351428Y-97844285D01*
X113541904Y-97891904D01*
X113637142Y-97939523D01*
X113684761Y-97987142D01*
X113732380Y-98082380D01*
X113732380Y-98177619D01*
X113684761Y-98272857D01*
X113637142Y-98320476D01*
X113541904Y-98368095D01*
X113351428Y-98415714D01*
X113113333Y-98415714D01*
X112922857Y-98368095D01*
X112827619Y-98320476D01*
X112780000Y-98272857D01*
X112732380Y-98177619D01*
X112827619Y-97463333D02*
X112780000Y-97415714D01*
X112732380Y-97320476D01*
X112732380Y-97082380D01*
X112780000Y-96987142D01*
X112827619Y-96939523D01*
X112922857Y-96891904D01*
X113018095Y-96891904D01*
X113160952Y-96939523D01*
X113732380Y-97510952D01*
X113732380Y-96891904D01*
X115102380Y-105463333D02*
X115816666Y-105463333D01*
X115959523Y-105510952D01*
X116054761Y-105606190D01*
X116102380Y-105749047D01*
X116102380Y-105844285D01*
X116102380Y-104463333D02*
X116102380Y-105034761D01*
X116102380Y-104749047D02*
X115102380Y-104749047D01*
X115245238Y-104844285D01*
X115340476Y-104939523D01*
X115388095Y-105034761D01*
%TO.C,U701*%
X159162380Y-122051428D02*
X158162380Y-122051428D01*
X158876666Y-121718095D01*
X158162380Y-121384761D01*
X159162380Y-121384761D01*
X159162380Y-120908571D02*
X158495714Y-120908571D01*
X158162380Y-120908571D02*
X158210000Y-120956190D01*
X158257619Y-120908571D01*
X158210000Y-120860952D01*
X158162380Y-120908571D01*
X158257619Y-120908571D01*
X159114761Y-120003809D02*
X159162380Y-120099047D01*
X159162380Y-120289523D01*
X159114761Y-120384761D01*
X159067142Y-120432380D01*
X158971904Y-120480000D01*
X158686190Y-120480000D01*
X158590952Y-120432380D01*
X158543333Y-120384761D01*
X158495714Y-120289523D01*
X158495714Y-120099047D01*
X158543333Y-120003809D01*
X159162380Y-119575238D02*
X158495714Y-119575238D01*
X158686190Y-119575238D02*
X158590952Y-119527619D01*
X158543333Y-119480000D01*
X158495714Y-119384761D01*
X158495714Y-119289523D01*
X159162380Y-118813333D02*
X159114761Y-118908571D01*
X159067142Y-118956190D01*
X158971904Y-119003809D01*
X158686190Y-119003809D01*
X158590952Y-118956190D01*
X158543333Y-118908571D01*
X158495714Y-118813333D01*
X158495714Y-118670476D01*
X158543333Y-118575238D01*
X158590952Y-118527619D01*
X158686190Y-118480000D01*
X158971904Y-118480000D01*
X159067142Y-118527619D01*
X159114761Y-118575238D01*
X159162380Y-118670476D01*
X159162380Y-118813333D01*
X159114761Y-118099047D02*
X159162380Y-117956190D01*
X159162380Y-117718095D01*
X159114761Y-117622857D01*
X159067142Y-117575238D01*
X158971904Y-117527619D01*
X158876666Y-117527619D01*
X158781428Y-117575238D01*
X158733809Y-117622857D01*
X158686190Y-117718095D01*
X158638571Y-117908571D01*
X158590952Y-118003809D01*
X158543333Y-118051428D01*
X158448095Y-118099047D01*
X158352857Y-118099047D01*
X158257619Y-118051428D01*
X158210000Y-118003809D01*
X158162380Y-117908571D01*
X158162380Y-117670476D01*
X158210000Y-117527619D01*
X159162380Y-117099047D02*
X158162380Y-117099047D01*
X158162380Y-116860952D01*
X158210000Y-116718095D01*
X158305238Y-116622857D01*
X158400476Y-116575238D01*
X158590952Y-116527619D01*
X158733809Y-116527619D01*
X158924285Y-116575238D01*
X159019523Y-116622857D01*
X159114761Y-116718095D01*
X159162380Y-116860952D01*
X159162380Y-117099047D01*
X159257619Y-116337142D02*
X159257619Y-115575238D01*
X158638571Y-115003809D02*
X158686190Y-114860952D01*
X158733809Y-114813333D01*
X158829047Y-114765714D01*
X158971904Y-114765714D01*
X159067142Y-114813333D01*
X159114761Y-114860952D01*
X159162380Y-114956190D01*
X159162380Y-115337142D01*
X158162380Y-115337142D01*
X158162380Y-115003809D01*
X158210000Y-114908571D01*
X158257619Y-114860952D01*
X158352857Y-114813333D01*
X158448095Y-114813333D01*
X158543333Y-114860952D01*
X158590952Y-114908571D01*
X158638571Y-115003809D01*
X158638571Y-115337142D01*
X159162380Y-114337142D02*
X158495714Y-114337142D01*
X158686190Y-114337142D02*
X158590952Y-114289523D01*
X158543333Y-114241904D01*
X158495714Y-114146666D01*
X158495714Y-114051428D01*
X159114761Y-113337142D02*
X159162380Y-113432380D01*
X159162380Y-113622857D01*
X159114761Y-113718095D01*
X159019523Y-113765714D01*
X158638571Y-113765714D01*
X158543333Y-113718095D01*
X158495714Y-113622857D01*
X158495714Y-113432380D01*
X158543333Y-113337142D01*
X158638571Y-113289523D01*
X158733809Y-113289523D01*
X158829047Y-113765714D01*
X159162380Y-112432380D02*
X158638571Y-112432380D01*
X158543333Y-112480000D01*
X158495714Y-112575238D01*
X158495714Y-112765714D01*
X158543333Y-112860952D01*
X159114761Y-112432380D02*
X159162380Y-112527619D01*
X159162380Y-112765714D01*
X159114761Y-112860952D01*
X159019523Y-112908571D01*
X158924285Y-112908571D01*
X158829047Y-112860952D01*
X158781428Y-112765714D01*
X158781428Y-112527619D01*
X158733809Y-112432380D01*
X159162380Y-111956190D02*
X158162380Y-111956190D01*
X158781428Y-111860952D02*
X159162380Y-111575238D01*
X158495714Y-111575238D02*
X158876666Y-111956190D01*
X159162380Y-111003809D02*
X159114761Y-111099047D01*
X159067142Y-111146666D01*
X158971904Y-111194285D01*
X158686190Y-111194285D01*
X158590952Y-111146666D01*
X158543333Y-111099047D01*
X158495714Y-111003809D01*
X158495714Y-110860952D01*
X158543333Y-110765714D01*
X158590952Y-110718095D01*
X158686190Y-110670476D01*
X158971904Y-110670476D01*
X159067142Y-110718095D01*
X159114761Y-110765714D01*
X159162380Y-110860952D01*
X159162380Y-111003809D01*
X158495714Y-109813333D02*
X159162380Y-109813333D01*
X158495714Y-110241904D02*
X159019523Y-110241904D01*
X159114761Y-110194285D01*
X159162380Y-110099047D01*
X159162380Y-109956190D01*
X159114761Y-109860952D01*
X159067142Y-109813333D01*
X158495714Y-109480000D02*
X158495714Y-109099047D01*
X158162380Y-109337142D02*
X159019523Y-109337142D01*
X159114761Y-109289523D01*
X159162380Y-109194285D01*
X159162380Y-109099047D01*
X159257619Y-109003809D02*
X159257619Y-108241904D01*
X159114761Y-108051428D02*
X159162380Y-107908571D01*
X159162380Y-107670476D01*
X159114761Y-107575238D01*
X159067142Y-107527619D01*
X158971904Y-107480000D01*
X158876666Y-107480000D01*
X158781428Y-107527619D01*
X158733809Y-107575238D01*
X158686190Y-107670476D01*
X158638571Y-107860952D01*
X158590952Y-107956190D01*
X158543333Y-108003809D01*
X158448095Y-108051428D01*
X158352857Y-108051428D01*
X158257619Y-108003809D01*
X158210000Y-107956190D01*
X158162380Y-107860952D01*
X158162380Y-107622857D01*
X158210000Y-107480000D01*
X158495714Y-107051428D02*
X159495714Y-107051428D01*
X158543333Y-107051428D02*
X158495714Y-106956190D01*
X158495714Y-106765714D01*
X158543333Y-106670476D01*
X158590952Y-106622857D01*
X158686190Y-106575238D01*
X158971904Y-106575238D01*
X159067142Y-106622857D01*
X159114761Y-106670476D01*
X159162380Y-106765714D01*
X159162380Y-106956190D01*
X159114761Y-107051428D01*
X159162380Y-105718095D02*
X158638571Y-105718095D01*
X158543333Y-105765714D01*
X158495714Y-105860952D01*
X158495714Y-106051428D01*
X158543333Y-106146666D01*
X159114761Y-105718095D02*
X159162380Y-105813333D01*
X159162380Y-106051428D01*
X159114761Y-106146666D01*
X159019523Y-106194285D01*
X158924285Y-106194285D01*
X158829047Y-106146666D01*
X158781428Y-106051428D01*
X158781428Y-105813333D01*
X158733809Y-105718095D01*
X159162380Y-105241904D02*
X158495714Y-105241904D01*
X158686190Y-105241904D02*
X158590952Y-105194285D01*
X158543333Y-105146666D01*
X158495714Y-105051428D01*
X158495714Y-104956190D01*
X159162380Y-104622857D02*
X158162380Y-104622857D01*
X158781428Y-104527619D02*
X159162380Y-104241904D01*
X158495714Y-104241904D02*
X158876666Y-104622857D01*
X158495714Y-103956190D02*
X158495714Y-103575238D01*
X159162380Y-103813333D02*
X158305238Y-103813333D01*
X158210000Y-103765714D01*
X158162380Y-103670476D01*
X158162380Y-103575238D01*
X158495714Y-102813333D02*
X159162380Y-102813333D01*
X158495714Y-103241904D02*
X159019523Y-103241904D01*
X159114761Y-103194285D01*
X159162380Y-103099047D01*
X159162380Y-102956190D01*
X159114761Y-102860952D01*
X159067142Y-102813333D01*
X158495714Y-102337142D02*
X159162380Y-102337142D01*
X158590952Y-102337142D02*
X158543333Y-102289523D01*
X158495714Y-102194285D01*
X158495714Y-102051428D01*
X158543333Y-101956190D01*
X158638571Y-101908571D01*
X159162380Y-101908571D01*
%TO.C,U401*%
X172422380Y-101881428D02*
X171422380Y-101881428D01*
X172327142Y-100833809D02*
X172374761Y-100881428D01*
X172422380Y-101024285D01*
X172422380Y-101119523D01*
X172374761Y-101262380D01*
X172279523Y-101357619D01*
X172184285Y-101405238D01*
X171993809Y-101452857D01*
X171850952Y-101452857D01*
X171660476Y-101405238D01*
X171565238Y-101357619D01*
X171470000Y-101262380D01*
X171422380Y-101119523D01*
X171422380Y-101024285D01*
X171470000Y-100881428D01*
X171517619Y-100833809D01*
X172422380Y-100405238D02*
X171422380Y-100405238D01*
X172136666Y-100071904D01*
X171422380Y-99738571D01*
X172422380Y-99738571D01*
X172041428Y-99262380D02*
X172041428Y-98500476D01*
X171517619Y-98071904D02*
X171470000Y-98024285D01*
X171422380Y-97929047D01*
X171422380Y-97690952D01*
X171470000Y-97595714D01*
X171517619Y-97548095D01*
X171612857Y-97500476D01*
X171708095Y-97500476D01*
X171850952Y-97548095D01*
X172422380Y-98119523D01*
X172422380Y-97500476D01*
X171422380Y-96881428D02*
X171422380Y-96786190D01*
X171470000Y-96690952D01*
X171517619Y-96643333D01*
X171612857Y-96595714D01*
X171803333Y-96548095D01*
X172041428Y-96548095D01*
X172231904Y-96595714D01*
X172327142Y-96643333D01*
X172374761Y-96690952D01*
X172422380Y-96786190D01*
X172422380Y-96881428D01*
X172374761Y-96976666D01*
X172327142Y-97024285D01*
X172231904Y-97071904D01*
X172041428Y-97119523D01*
X171803333Y-97119523D01*
X171612857Y-97071904D01*
X171517619Y-97024285D01*
X171470000Y-96976666D01*
X171422380Y-96881428D01*
X172422380Y-96071904D02*
X172422380Y-95881428D01*
X172374761Y-95786190D01*
X172327142Y-95738571D01*
X172184285Y-95643333D01*
X171993809Y-95595714D01*
X171612857Y-95595714D01*
X171517619Y-95643333D01*
X171470000Y-95690952D01*
X171422380Y-95786190D01*
X171422380Y-95976666D01*
X171470000Y-96071904D01*
X171517619Y-96119523D01*
X171612857Y-96167142D01*
X171850952Y-96167142D01*
X171946190Y-96119523D01*
X171993809Y-96071904D01*
X172041428Y-95976666D01*
X172041428Y-95786190D01*
X171993809Y-95690952D01*
X171946190Y-95643333D01*
X171850952Y-95595714D01*
X171755714Y-94738571D02*
X172422380Y-94738571D01*
X171374761Y-94976666D02*
X172089047Y-95214761D01*
X172089047Y-94595714D01*
X171850952Y-94071904D02*
X171803333Y-94167142D01*
X171755714Y-94214761D01*
X171660476Y-94262380D01*
X171612857Y-94262380D01*
X171517619Y-94214761D01*
X171470000Y-94167142D01*
X171422380Y-94071904D01*
X171422380Y-93881428D01*
X171470000Y-93786190D01*
X171517619Y-93738571D01*
X171612857Y-93690952D01*
X171660476Y-93690952D01*
X171755714Y-93738571D01*
X171803333Y-93786190D01*
X171850952Y-93881428D01*
X171850952Y-94071904D01*
X171898571Y-94167142D01*
X171946190Y-94214761D01*
X172041428Y-94262380D01*
X172231904Y-94262380D01*
X172327142Y-94214761D01*
X172374761Y-94167142D01*
X172422380Y-94071904D01*
X172422380Y-93881428D01*
X172374761Y-93786190D01*
X172327142Y-93738571D01*
X172231904Y-93690952D01*
X172041428Y-93690952D01*
X171946190Y-93738571D01*
X171898571Y-93786190D01*
X171850952Y-93881428D01*
%TO.C,R2*%
X136282380Y-120561428D02*
X135806190Y-120894761D01*
X136282380Y-121132857D02*
X135282380Y-121132857D01*
X135282380Y-120751904D01*
X135330000Y-120656666D01*
X135377619Y-120609047D01*
X135472857Y-120561428D01*
X135615714Y-120561428D01*
X135710952Y-120609047D01*
X135758571Y-120656666D01*
X135806190Y-120751904D01*
X135806190Y-121132857D01*
X136377619Y-120370952D02*
X136377619Y-119609047D01*
X135282380Y-119370952D02*
X136091904Y-119370952D01*
X136187142Y-119323333D01*
X136234761Y-119275714D01*
X136282380Y-119180476D01*
X136282380Y-118990000D01*
X136234761Y-118894761D01*
X136187142Y-118847142D01*
X136091904Y-118799523D01*
X135282380Y-118799523D01*
X136234761Y-118370952D02*
X136282380Y-118228095D01*
X136282380Y-117990000D01*
X136234761Y-117894761D01*
X136187142Y-117847142D01*
X136091904Y-117799523D01*
X135996666Y-117799523D01*
X135901428Y-117847142D01*
X135853809Y-117894761D01*
X135806190Y-117990000D01*
X135758571Y-118180476D01*
X135710952Y-118275714D01*
X135663333Y-118323333D01*
X135568095Y-118370952D01*
X135472857Y-118370952D01*
X135377619Y-118323333D01*
X135330000Y-118275714D01*
X135282380Y-118180476D01*
X135282380Y-117942380D01*
X135330000Y-117799523D01*
D13*
X134580952Y-119556666D02*
X134390476Y-119690000D01*
X134580952Y-119785238D02*
X134180952Y-119785238D01*
X134180952Y-119632857D01*
X134200000Y-119594761D01*
X134219047Y-119575714D01*
X134257142Y-119556666D01*
X134314285Y-119556666D01*
X134352380Y-119575714D01*
X134371428Y-119594761D01*
X134390476Y-119632857D01*
X134390476Y-119785238D01*
X134219047Y-119404285D02*
X134200000Y-119385238D01*
X134180952Y-119347142D01*
X134180952Y-119251904D01*
X134200000Y-119213809D01*
X134219047Y-119194761D01*
X134257142Y-119175714D01*
X134295238Y-119175714D01*
X134352380Y-119194761D01*
X134580952Y-119423333D01*
X134580952Y-119175714D01*
%TO.C,R1*%
D12*
X128582380Y-107811428D02*
X128106190Y-108144761D01*
X128582380Y-108382857D02*
X127582380Y-108382857D01*
X127582380Y-108001904D01*
X127630000Y-107906666D01*
X127677619Y-107859047D01*
X127772857Y-107811428D01*
X127915714Y-107811428D01*
X128010952Y-107859047D01*
X128058571Y-107906666D01*
X128106190Y-108001904D01*
X128106190Y-108382857D01*
X128677619Y-107620952D02*
X128677619Y-106859047D01*
X127582380Y-106620952D02*
X128391904Y-106620952D01*
X128487142Y-106573333D01*
X128534761Y-106525714D01*
X128582380Y-106430476D01*
X128582380Y-106240000D01*
X128534761Y-106144761D01*
X128487142Y-106097142D01*
X128391904Y-106049523D01*
X127582380Y-106049523D01*
X128534761Y-105620952D02*
X128582380Y-105478095D01*
X128582380Y-105240000D01*
X128534761Y-105144761D01*
X128487142Y-105097142D01*
X128391904Y-105049523D01*
X128296666Y-105049523D01*
X128201428Y-105097142D01*
X128153809Y-105144761D01*
X128106190Y-105240000D01*
X128058571Y-105430476D01*
X128010952Y-105525714D01*
X127963333Y-105573333D01*
X127868095Y-105620952D01*
X127772857Y-105620952D01*
X127677619Y-105573333D01*
X127630000Y-105525714D01*
X127582380Y-105430476D01*
X127582380Y-105192380D01*
X127630000Y-105049523D01*
D13*
X129740952Y-106806666D02*
X129550476Y-106940000D01*
X129740952Y-107035238D02*
X129340952Y-107035238D01*
X129340952Y-106882857D01*
X129360000Y-106844761D01*
X129379047Y-106825714D01*
X129417142Y-106806666D01*
X129474285Y-106806666D01*
X129512380Y-106825714D01*
X129531428Y-106844761D01*
X129550476Y-106882857D01*
X129550476Y-107035238D01*
X129740952Y-106425714D02*
X129740952Y-106654285D01*
X129740952Y-106540000D02*
X129340952Y-106540000D01*
X129398095Y-106578095D01*
X129436190Y-106616190D01*
X129455238Y-106654285D01*
%TO.C,U601*%
D12*
X160800476Y-74132380D02*
X160800476Y-73132380D01*
X161133809Y-73846666D01*
X161467142Y-73132380D01*
X161467142Y-74132380D01*
X161943333Y-74132380D02*
X161943333Y-73132380D01*
X162990952Y-74037142D02*
X162943333Y-74084761D01*
X162800476Y-74132380D01*
X162705238Y-74132380D01*
X162562380Y-74084761D01*
X162467142Y-73989523D01*
X162419523Y-73894285D01*
X162371904Y-73703809D01*
X162371904Y-73560952D01*
X162419523Y-73370476D01*
X162467142Y-73275238D01*
X162562380Y-73180000D01*
X162705238Y-73132380D01*
X162800476Y-73132380D01*
X162943333Y-73180000D01*
X162990952Y-73227619D01*
X163324285Y-73132380D02*
X163943333Y-73132380D01*
X163610000Y-73513333D01*
X163752857Y-73513333D01*
X163848095Y-73560952D01*
X163895714Y-73608571D01*
X163943333Y-73703809D01*
X163943333Y-73941904D01*
X163895714Y-74037142D01*
X163848095Y-74084761D01*
X163752857Y-74132380D01*
X163467142Y-74132380D01*
X163371904Y-74084761D01*
X163324285Y-74037142D01*
X164419523Y-74132380D02*
X164610000Y-74132380D01*
X164705238Y-74084761D01*
X164752857Y-74037142D01*
X164848095Y-73894285D01*
X164895714Y-73703809D01*
X164895714Y-73322857D01*
X164848095Y-73227619D01*
X164800476Y-73180000D01*
X164705238Y-73132380D01*
X164514761Y-73132380D01*
X164419523Y-73180000D01*
X164371904Y-73227619D01*
X164324285Y-73322857D01*
X164324285Y-73560952D01*
X164371904Y-73656190D01*
X164419523Y-73703809D01*
X164514761Y-73751428D01*
X164705238Y-73751428D01*
X164800476Y-73703809D01*
X164848095Y-73656190D01*
X164895714Y-73560952D01*
X165848095Y-74132380D02*
X165276666Y-74132380D01*
X165562380Y-74132380D02*
X165562380Y-73132380D01*
X165467142Y-73275238D01*
X165371904Y-73370476D01*
X165276666Y-73418095D01*
X166467142Y-73132380D02*
X166562380Y-73132380D01*
X166657619Y-73180000D01*
X166705238Y-73227619D01*
X166752857Y-73322857D01*
X166800476Y-73513333D01*
X166800476Y-73751428D01*
X166752857Y-73941904D01*
X166705238Y-74037142D01*
X166657619Y-74084761D01*
X166562380Y-74132380D01*
X166467142Y-74132380D01*
X166371904Y-74084761D01*
X166324285Y-74037142D01*
X166276666Y-73941904D01*
X166229047Y-73751428D01*
X166229047Y-73513333D01*
X166276666Y-73322857D01*
X166324285Y-73227619D01*
X166371904Y-73180000D01*
X166467142Y-73132380D01*
X167419523Y-73132380D02*
X167514761Y-73132380D01*
X167610000Y-73180000D01*
X167657619Y-73227619D01*
X167705238Y-73322857D01*
X167752857Y-73513333D01*
X167752857Y-73751428D01*
X167705238Y-73941904D01*
X167657619Y-74037142D01*
X167610000Y-74084761D01*
X167514761Y-74132380D01*
X167419523Y-74132380D01*
X167324285Y-74084761D01*
X167276666Y-74037142D01*
X167229047Y-73941904D01*
X167181428Y-73751428D01*
X167181428Y-73513333D01*
X167229047Y-73322857D01*
X167276666Y-73227619D01*
X167324285Y-73180000D01*
X167419523Y-73132380D01*
X168181428Y-73751428D02*
X168943333Y-73751428D01*
X169895714Y-73132380D02*
X169419523Y-73132380D01*
X169371904Y-73608571D01*
X169419523Y-73560952D01*
X169514761Y-73513333D01*
X169752857Y-73513333D01*
X169848095Y-73560952D01*
X169895714Y-73608571D01*
X169943333Y-73703809D01*
X169943333Y-73941904D01*
X169895714Y-74037142D01*
X169848095Y-74084761D01*
X169752857Y-74132380D01*
X169514761Y-74132380D01*
X169419523Y-74084761D01*
X169371904Y-74037142D01*
X170371904Y-74037142D02*
X170419523Y-74084761D01*
X170371904Y-74132380D01*
X170324285Y-74084761D01*
X170371904Y-74037142D01*
X170371904Y-74132380D01*
X171038571Y-73132380D02*
X171133809Y-73132380D01*
X171229047Y-73180000D01*
X171276666Y-73227619D01*
X171324285Y-73322857D01*
X171371904Y-73513333D01*
X171371904Y-73751428D01*
X171324285Y-73941904D01*
X171276666Y-74037142D01*
X171229047Y-74084761D01*
X171133809Y-74132380D01*
X171038571Y-74132380D01*
X170943333Y-74084761D01*
X170895714Y-74037142D01*
X170848095Y-73941904D01*
X170800476Y-73751428D01*
X170800476Y-73513333D01*
X170848095Y-73322857D01*
X170895714Y-73227619D01*
X170943333Y-73180000D01*
X171038571Y-73132380D01*
X171705238Y-73132380D02*
X171943333Y-74132380D01*
X172133809Y-73418095D01*
X172324285Y-74132380D01*
X172562380Y-73132380D01*
X172895714Y-74084761D02*
X173038571Y-74132380D01*
X173276666Y-74132380D01*
X173371904Y-74084761D01*
X173419523Y-74037142D01*
X173467142Y-73941904D01*
X173467142Y-73846666D01*
X173419523Y-73751428D01*
X173371904Y-73703809D01*
X173276666Y-73656190D01*
X173086190Y-73608571D01*
X172990952Y-73560952D01*
X172943333Y-73513333D01*
X172895714Y-73418095D01*
X172895714Y-73322857D01*
X172943333Y-73227619D01*
X172990952Y-73180000D01*
X173086190Y-73132380D01*
X173324285Y-73132380D01*
X173467142Y-73180000D01*
D14*
X166671904Y-79551428D02*
X167319523Y-79551428D01*
X167395714Y-79513333D01*
X167433809Y-79475238D01*
X167471904Y-79399047D01*
X167471904Y-79246666D01*
X167433809Y-79170476D01*
X167395714Y-79132380D01*
X167319523Y-79094285D01*
X166671904Y-79094285D01*
X166671904Y-78370476D02*
X166671904Y-78522857D01*
X166710000Y-78599047D01*
X166748095Y-78637142D01*
X166862380Y-78713333D01*
X167014761Y-78751428D01*
X167319523Y-78751428D01*
X167395714Y-78713333D01*
X167433809Y-78675238D01*
X167471904Y-78599047D01*
X167471904Y-78446666D01*
X167433809Y-78370476D01*
X167395714Y-78332380D01*
X167319523Y-78294285D01*
X167129047Y-78294285D01*
X167052857Y-78332380D01*
X167014761Y-78370476D01*
X166976666Y-78446666D01*
X166976666Y-78599047D01*
X167014761Y-78675238D01*
X167052857Y-78713333D01*
X167129047Y-78751428D01*
X166671904Y-77799047D02*
X166671904Y-77722857D01*
X166710000Y-77646666D01*
X166748095Y-77608571D01*
X166824285Y-77570476D01*
X166976666Y-77532380D01*
X167167142Y-77532380D01*
X167319523Y-77570476D01*
X167395714Y-77608571D01*
X167433809Y-77646666D01*
X167471904Y-77722857D01*
X167471904Y-77799047D01*
X167433809Y-77875238D01*
X167395714Y-77913333D01*
X167319523Y-77951428D01*
X167167142Y-77989523D01*
X166976666Y-77989523D01*
X166824285Y-77951428D01*
X166748095Y-77913333D01*
X166710000Y-77875238D01*
X166671904Y-77799047D01*
X167471904Y-76770476D02*
X167471904Y-77227619D01*
X167471904Y-76999047D02*
X166671904Y-76999047D01*
X166786190Y-77075238D01*
X166862380Y-77151428D01*
X166900476Y-77227619D01*
%TO.C,U501*%
D12*
X166541428Y-120108571D02*
X166684285Y-120156190D01*
X166731904Y-120203809D01*
X166779523Y-120299047D01*
X166779523Y-120441904D01*
X166731904Y-120537142D01*
X166684285Y-120584761D01*
X166589047Y-120632380D01*
X166208095Y-120632380D01*
X166208095Y-119632380D01*
X166541428Y-119632380D01*
X166636666Y-119680000D01*
X166684285Y-119727619D01*
X166731904Y-119822857D01*
X166731904Y-119918095D01*
X166684285Y-120013333D01*
X166636666Y-120060952D01*
X166541428Y-120108571D01*
X166208095Y-120108571D01*
X167208095Y-120632380D02*
X167208095Y-119632380D01*
X167541428Y-120346666D01*
X167874761Y-119632380D01*
X167874761Y-120632380D01*
X168350952Y-120632380D02*
X168350952Y-119632380D01*
X168731904Y-119632380D01*
X168827142Y-119680000D01*
X168874761Y-119727619D01*
X168922380Y-119822857D01*
X168922380Y-119965714D01*
X168874761Y-120060952D01*
X168827142Y-120108571D01*
X168731904Y-120156190D01*
X168350952Y-120156190D01*
X169303333Y-119727619D02*
X169350952Y-119680000D01*
X169446190Y-119632380D01*
X169684285Y-119632380D01*
X169779523Y-119680000D01*
X169827142Y-119727619D01*
X169874761Y-119822857D01*
X169874761Y-119918095D01*
X169827142Y-120060952D01*
X169255714Y-120632380D01*
X169874761Y-120632380D01*
X170446190Y-120060952D02*
X170350952Y-120013333D01*
X170303333Y-119965714D01*
X170255714Y-119870476D01*
X170255714Y-119822857D01*
X170303333Y-119727619D01*
X170350952Y-119680000D01*
X170446190Y-119632380D01*
X170636666Y-119632380D01*
X170731904Y-119680000D01*
X170779523Y-119727619D01*
X170827142Y-119822857D01*
X170827142Y-119870476D01*
X170779523Y-119965714D01*
X170731904Y-120013333D01*
X170636666Y-120060952D01*
X170446190Y-120060952D01*
X170350952Y-120108571D01*
X170303333Y-120156190D01*
X170255714Y-120251428D01*
X170255714Y-120441904D01*
X170303333Y-120537142D01*
X170350952Y-120584761D01*
X170446190Y-120632380D01*
X170636666Y-120632380D01*
X170731904Y-120584761D01*
X170779523Y-120537142D01*
X170827142Y-120441904D01*
X170827142Y-120251428D01*
X170779523Y-120156190D01*
X170731904Y-120108571D01*
X170636666Y-120060952D01*
X171446190Y-119632380D02*
X171541428Y-119632380D01*
X171636666Y-119680000D01*
X171684285Y-119727619D01*
X171731904Y-119822857D01*
X171779523Y-120013333D01*
X171779523Y-120251428D01*
X171731904Y-120441904D01*
X171684285Y-120537142D01*
X171636666Y-120584761D01*
X171541428Y-120632380D01*
X171446190Y-120632380D01*
X171350952Y-120584761D01*
X171303333Y-120537142D01*
X171255714Y-120441904D01*
X171208095Y-120251428D01*
X171208095Y-120013333D01*
X171255714Y-119822857D01*
X171303333Y-119727619D01*
X171350952Y-119680000D01*
X171446190Y-119632380D01*
%TO.C,U2*%
X136522380Y-80761428D02*
X136522380Y-80190000D01*
X137522380Y-80475714D02*
X136522380Y-80475714D01*
X137474761Y-79475714D02*
X137522380Y-79570952D01*
X137522380Y-79761428D01*
X137474761Y-79856666D01*
X137379523Y-79904285D01*
X136998571Y-79904285D01*
X136903333Y-79856666D01*
X136855714Y-79761428D01*
X136855714Y-79570952D01*
X136903333Y-79475714D01*
X136998571Y-79428095D01*
X137093809Y-79428095D01*
X137189047Y-79904285D01*
X137474761Y-78618571D02*
X137522380Y-78713809D01*
X137522380Y-78904285D01*
X137474761Y-78999523D01*
X137379523Y-79047142D01*
X136998571Y-79047142D01*
X136903333Y-78999523D01*
X136855714Y-78904285D01*
X136855714Y-78713809D01*
X136903333Y-78618571D01*
X136998571Y-78570952D01*
X137093809Y-78570952D01*
X137189047Y-79047142D01*
X136855714Y-78142380D02*
X137522380Y-78142380D01*
X136950952Y-78142380D02*
X136903333Y-78094761D01*
X136855714Y-77999523D01*
X136855714Y-77856666D01*
X136903333Y-77761428D01*
X136998571Y-77713809D01*
X137522380Y-77713809D01*
X137474761Y-77285238D02*
X137522380Y-77190000D01*
X137522380Y-76999523D01*
X137474761Y-76904285D01*
X137379523Y-76856666D01*
X137331904Y-76856666D01*
X137236666Y-76904285D01*
X137189047Y-76999523D01*
X137189047Y-77142380D01*
X137141428Y-77237619D01*
X137046190Y-77285238D01*
X136998571Y-77285238D01*
X136903333Y-77237619D01*
X136855714Y-77142380D01*
X136855714Y-76999523D01*
X136903333Y-76904285D01*
X136855714Y-76523333D02*
X137522380Y-76285238D01*
X136855714Y-76047142D02*
X137522380Y-76285238D01*
X137760476Y-76380476D01*
X137808095Y-76428095D01*
X137855714Y-76523333D01*
X136522380Y-75761428D02*
X136522380Y-75142380D01*
X136903333Y-75475714D01*
X136903333Y-75332857D01*
X136950952Y-75237619D01*
X136998571Y-75190000D01*
X137093809Y-75142380D01*
X137331904Y-75142380D01*
X137427142Y-75190000D01*
X137474761Y-75237619D01*
X137522380Y-75332857D01*
X137522380Y-75618571D01*
X137474761Y-75713809D01*
X137427142Y-75761428D01*
X137427142Y-74713809D02*
X137474761Y-74666190D01*
X137522380Y-74713809D01*
X137474761Y-74761428D01*
X137427142Y-74713809D01*
X137522380Y-74713809D01*
X136617619Y-74285238D02*
X136570000Y-74237619D01*
X136522380Y-74142380D01*
X136522380Y-73904285D01*
X136570000Y-73809047D01*
X136617619Y-73761428D01*
X136712857Y-73713809D01*
X136808095Y-73713809D01*
X136950952Y-73761428D01*
X137522380Y-74332857D01*
X137522380Y-73713809D01*
%TO.C,J601*%
X174207142Y-77001904D02*
X174254761Y-77049523D01*
X174302380Y-77192380D01*
X174302380Y-77287619D01*
X174254761Y-77430476D01*
X174159523Y-77525714D01*
X174064285Y-77573333D01*
X173873809Y-77620952D01*
X173730952Y-77620952D01*
X173540476Y-77573333D01*
X173445238Y-77525714D01*
X173350000Y-77430476D01*
X173302380Y-77287619D01*
X173302380Y-77192380D01*
X173350000Y-77049523D01*
X173397619Y-77001904D01*
X174302380Y-76430476D02*
X174254761Y-76525714D01*
X174207142Y-76573333D01*
X174111904Y-76620952D01*
X173826190Y-76620952D01*
X173730952Y-76573333D01*
X173683333Y-76525714D01*
X173635714Y-76430476D01*
X173635714Y-76287619D01*
X173683333Y-76192380D01*
X173730952Y-76144761D01*
X173826190Y-76097142D01*
X174111904Y-76097142D01*
X174207142Y-76144761D01*
X174254761Y-76192380D01*
X174302380Y-76287619D01*
X174302380Y-76430476D01*
X173635714Y-75668571D02*
X174302380Y-75668571D01*
X173730952Y-75668571D02*
X173683333Y-75620952D01*
X173635714Y-75525714D01*
X173635714Y-75382857D01*
X173683333Y-75287619D01*
X173778571Y-75240000D01*
X174302380Y-75240000D01*
X173635714Y-74763809D02*
X174302380Y-74763809D01*
X173730952Y-74763809D02*
X173683333Y-74716190D01*
X173635714Y-74620952D01*
X173635714Y-74478095D01*
X173683333Y-74382857D01*
X173778571Y-74335238D01*
X174302380Y-74335238D01*
X174254761Y-73478095D02*
X174302380Y-73573333D01*
X174302380Y-73763809D01*
X174254761Y-73859047D01*
X174159523Y-73906666D01*
X173778571Y-73906666D01*
X173683333Y-73859047D01*
X173635714Y-73763809D01*
X173635714Y-73573333D01*
X173683333Y-73478095D01*
X173778571Y-73430476D01*
X173873809Y-73430476D01*
X173969047Y-73906666D01*
X174254761Y-72573333D02*
X174302380Y-72668571D01*
X174302380Y-72859047D01*
X174254761Y-72954285D01*
X174207142Y-73001904D01*
X174111904Y-73049523D01*
X173826190Y-73049523D01*
X173730952Y-73001904D01*
X173683333Y-72954285D01*
X173635714Y-72859047D01*
X173635714Y-72668571D01*
X173683333Y-72573333D01*
X173635714Y-72287619D02*
X173635714Y-71906666D01*
X173302380Y-72144761D02*
X174159523Y-72144761D01*
X174254761Y-72097142D01*
X174302380Y-72001904D01*
X174302380Y-71906666D01*
X174302380Y-71430476D02*
X174254761Y-71525714D01*
X174207142Y-71573333D01*
X174111904Y-71620952D01*
X173826190Y-71620952D01*
X173730952Y-71573333D01*
X173683333Y-71525714D01*
X173635714Y-71430476D01*
X173635714Y-71287619D01*
X173683333Y-71192380D01*
X173730952Y-71144761D01*
X173826190Y-71097142D01*
X174111904Y-71097142D01*
X174207142Y-71144761D01*
X174254761Y-71192380D01*
X174302380Y-71287619D01*
X174302380Y-71430476D01*
X174302380Y-70668571D02*
X173635714Y-70668571D01*
X173826190Y-70668571D02*
X173730952Y-70620952D01*
X173683333Y-70573333D01*
X173635714Y-70478095D01*
X173635714Y-70382857D01*
X174397619Y-70287619D02*
X174397619Y-69525714D01*
X174254761Y-69335238D02*
X174302380Y-69192380D01*
X174302380Y-68954285D01*
X174254761Y-68859047D01*
X174207142Y-68811428D01*
X174111904Y-68763809D01*
X174016666Y-68763809D01*
X173921428Y-68811428D01*
X173873809Y-68859047D01*
X173826190Y-68954285D01*
X173778571Y-69144761D01*
X173730952Y-69240000D01*
X173683333Y-69287619D01*
X173588095Y-69335238D01*
X173492857Y-69335238D01*
X173397619Y-69287619D01*
X173350000Y-69240000D01*
X173302380Y-69144761D01*
X173302380Y-68906666D01*
X173350000Y-68763809D01*
X174254761Y-67906666D02*
X174302380Y-68001904D01*
X174302380Y-68192380D01*
X174254761Y-68287619D01*
X174207142Y-68335238D01*
X174111904Y-68382857D01*
X173826190Y-68382857D01*
X173730952Y-68335238D01*
X173683333Y-68287619D01*
X173635714Y-68192380D01*
X173635714Y-68001904D01*
X173683333Y-67906666D01*
X174302380Y-67478095D02*
X173635714Y-67478095D01*
X173826190Y-67478095D02*
X173730952Y-67430476D01*
X173683333Y-67382857D01*
X173635714Y-67287619D01*
X173635714Y-67192380D01*
X174254761Y-66478095D02*
X174302380Y-66573333D01*
X174302380Y-66763809D01*
X174254761Y-66859047D01*
X174159523Y-66906666D01*
X173778571Y-66906666D01*
X173683333Y-66859047D01*
X173635714Y-66763809D01*
X173635714Y-66573333D01*
X173683333Y-66478095D01*
X173778571Y-66430476D01*
X173873809Y-66430476D01*
X173969047Y-66906666D01*
X173635714Y-66097142D02*
X174302380Y-65906666D01*
X173826190Y-65716190D01*
X174302380Y-65525714D01*
X173635714Y-65335238D01*
X174397619Y-65192380D02*
X174397619Y-64430476D01*
X173302380Y-64335238D02*
X173302380Y-63763809D01*
X174302380Y-64049523D02*
X173302380Y-64049523D01*
X174254761Y-63049523D02*
X174302380Y-63144761D01*
X174302380Y-63335238D01*
X174254761Y-63430476D01*
X174159523Y-63478095D01*
X173778571Y-63478095D01*
X173683333Y-63430476D01*
X173635714Y-63335238D01*
X173635714Y-63144761D01*
X173683333Y-63049523D01*
X173778571Y-63001904D01*
X173873809Y-63001904D01*
X173969047Y-63478095D01*
X174302380Y-62573333D02*
X173635714Y-62573333D01*
X173826190Y-62573333D02*
X173730952Y-62525714D01*
X173683333Y-62478095D01*
X173635714Y-62382857D01*
X173635714Y-62287619D01*
X174302380Y-61954285D02*
X173635714Y-61954285D01*
X173730952Y-61954285D02*
X173683333Y-61906666D01*
X173635714Y-61811428D01*
X173635714Y-61668571D01*
X173683333Y-61573333D01*
X173778571Y-61525714D01*
X174302380Y-61525714D01*
X173778571Y-61525714D02*
X173683333Y-61478095D01*
X173635714Y-61382857D01*
X173635714Y-61240000D01*
X173683333Y-61144761D01*
X173778571Y-61097142D01*
X174302380Y-61097142D01*
X174302380Y-60620952D02*
X173635714Y-60620952D01*
X173302380Y-60620952D02*
X173350000Y-60668571D01*
X173397619Y-60620952D01*
X173350000Y-60573333D01*
X173302380Y-60620952D01*
X173397619Y-60620952D01*
X173635714Y-60144761D02*
X174302380Y-60144761D01*
X173730952Y-60144761D02*
X173683333Y-60097142D01*
X173635714Y-60001904D01*
X173635714Y-59859047D01*
X173683333Y-59763809D01*
X173778571Y-59716190D01*
X174302380Y-59716190D01*
X174302380Y-58811428D02*
X173778571Y-58811428D01*
X173683333Y-58859047D01*
X173635714Y-58954285D01*
X173635714Y-59144761D01*
X173683333Y-59240000D01*
X174254761Y-58811428D02*
X174302380Y-58906666D01*
X174302380Y-59144761D01*
X174254761Y-59240000D01*
X174159523Y-59287619D01*
X174064285Y-59287619D01*
X173969047Y-59240000D01*
X173921428Y-59144761D01*
X173921428Y-58906666D01*
X173873809Y-58811428D01*
X174302380Y-58192380D02*
X174254761Y-58287619D01*
X174159523Y-58335238D01*
X173302380Y-58335238D01*
X174397619Y-58049523D02*
X174397619Y-57287619D01*
X173302380Y-56859047D02*
X173302380Y-56763809D01*
X173350000Y-56668571D01*
X173397619Y-56620952D01*
X173492857Y-56573333D01*
X173683333Y-56525714D01*
X173921428Y-56525714D01*
X174111904Y-56573333D01*
X174207142Y-56620952D01*
X174254761Y-56668571D01*
X174302380Y-56763809D01*
X174302380Y-56859047D01*
X174254761Y-56954285D01*
X174207142Y-57001904D01*
X174111904Y-57049523D01*
X173921428Y-57097142D01*
X173683333Y-57097142D01*
X173492857Y-57049523D01*
X173397619Y-57001904D01*
X173350000Y-56954285D01*
X173302380Y-56859047D01*
X174302380Y-55573333D02*
X174302380Y-56144761D01*
X174302380Y-55859047D02*
X173302380Y-55859047D01*
X173445238Y-55954285D01*
X173540476Y-56049523D01*
X173588095Y-56144761D01*
X174302380Y-55240000D02*
X173635714Y-54716190D01*
X173635714Y-55240000D02*
X174302380Y-54716190D01*
X173302380Y-54144761D02*
X173302380Y-54049523D01*
X173350000Y-53954285D01*
X173397619Y-53906666D01*
X173492857Y-53859047D01*
X173683333Y-53811428D01*
X173921428Y-53811428D01*
X174111904Y-53859047D01*
X174207142Y-53906666D01*
X174254761Y-53954285D01*
X174302380Y-54049523D01*
X174302380Y-54144761D01*
X174254761Y-54240000D01*
X174207142Y-54287619D01*
X174111904Y-54335238D01*
X173921428Y-54382857D01*
X173683333Y-54382857D01*
X173492857Y-54335238D01*
X173397619Y-54287619D01*
X173350000Y-54240000D01*
X173302380Y-54144761D01*
X173397619Y-53430476D02*
X173350000Y-53382857D01*
X173302380Y-53287619D01*
X173302380Y-53049523D01*
X173350000Y-52954285D01*
X173397619Y-52906666D01*
X173492857Y-52859047D01*
X173588095Y-52859047D01*
X173730952Y-52906666D01*
X174302380Y-53478095D01*
X174302380Y-52859047D01*
X168222380Y-66525714D02*
X168936666Y-66525714D01*
X169079523Y-66573333D01*
X169174761Y-66668571D01*
X169222380Y-66811428D01*
X169222380Y-66906666D01*
X168222380Y-65620952D02*
X168222380Y-65811428D01*
X168270000Y-65906666D01*
X168317619Y-65954285D01*
X168460476Y-66049523D01*
X168650952Y-66097142D01*
X169031904Y-66097142D01*
X169127142Y-66049523D01*
X169174761Y-66001904D01*
X169222380Y-65906666D01*
X169222380Y-65716190D01*
X169174761Y-65620952D01*
X169127142Y-65573333D01*
X169031904Y-65525714D01*
X168793809Y-65525714D01*
X168698571Y-65573333D01*
X168650952Y-65620952D01*
X168603333Y-65716190D01*
X168603333Y-65906666D01*
X168650952Y-66001904D01*
X168698571Y-66049523D01*
X168793809Y-66097142D01*
X168222380Y-64906666D02*
X168222380Y-64811428D01*
X168270000Y-64716190D01*
X168317619Y-64668571D01*
X168412857Y-64620952D01*
X168603333Y-64573333D01*
X168841428Y-64573333D01*
X169031904Y-64620952D01*
X169127142Y-64668571D01*
X169174761Y-64716190D01*
X169222380Y-64811428D01*
X169222380Y-64906666D01*
X169174761Y-65001904D01*
X169127142Y-65049523D01*
X169031904Y-65097142D01*
X168841428Y-65144761D01*
X168603333Y-65144761D01*
X168412857Y-65097142D01*
X168317619Y-65049523D01*
X168270000Y-65001904D01*
X168222380Y-64906666D01*
X169222380Y-63620952D02*
X169222380Y-64192380D01*
X169222380Y-63906666D02*
X168222380Y-63906666D01*
X168365238Y-64001904D01*
X168460476Y-64097142D01*
X168508095Y-64192380D01*
%TO.C,C602*%
X174122380Y-77802380D02*
X174122380Y-78373809D01*
X174122380Y-78088095D02*
X173122380Y-78088095D01*
X173265238Y-78183333D01*
X173360476Y-78278571D01*
X173408095Y-78373809D01*
X173122380Y-77183333D02*
X173122380Y-77088095D01*
X173170000Y-76992857D01*
X173217619Y-76945238D01*
X173312857Y-76897619D01*
X173503333Y-76850000D01*
X173741428Y-76850000D01*
X173931904Y-76897619D01*
X174027142Y-76945238D01*
X174074761Y-76992857D01*
X174122380Y-77088095D01*
X174122380Y-77183333D01*
X174074761Y-77278571D01*
X174027142Y-77326190D01*
X173931904Y-77373809D01*
X173741428Y-77421428D01*
X173503333Y-77421428D01*
X173312857Y-77373809D01*
X173217619Y-77326190D01*
X173170000Y-77278571D01*
X173122380Y-77183333D01*
X173455714Y-75230952D02*
X174122380Y-75230952D01*
X173455714Y-75659523D02*
X173979523Y-75659523D01*
X174074761Y-75611904D01*
X174122380Y-75516666D01*
X174122380Y-75373809D01*
X174074761Y-75278571D01*
X174027142Y-75230952D01*
X173598571Y-74421428D02*
X173598571Y-74754761D01*
X174122380Y-74754761D02*
X173122380Y-74754761D01*
X173122380Y-74278571D01*
D13*
X175242857Y-76797619D02*
X175261904Y-76816666D01*
X175280952Y-76873809D01*
X175280952Y-76911904D01*
X175261904Y-76969047D01*
X175223809Y-77007142D01*
X175185714Y-77026190D01*
X175109523Y-77045238D01*
X175052380Y-77045238D01*
X174976190Y-77026190D01*
X174938095Y-77007142D01*
X174900000Y-76969047D01*
X174880952Y-76911904D01*
X174880952Y-76873809D01*
X174900000Y-76816666D01*
X174919047Y-76797619D01*
X174880952Y-76454761D02*
X174880952Y-76530952D01*
X174900000Y-76569047D01*
X174919047Y-76588095D01*
X174976190Y-76626190D01*
X175052380Y-76645238D01*
X175204761Y-76645238D01*
X175242857Y-76626190D01*
X175261904Y-76607142D01*
X175280952Y-76569047D01*
X175280952Y-76492857D01*
X175261904Y-76454761D01*
X175242857Y-76435714D01*
X175204761Y-76416666D01*
X175109523Y-76416666D01*
X175071428Y-76435714D01*
X175052380Y-76454761D01*
X175033333Y-76492857D01*
X175033333Y-76569047D01*
X175052380Y-76607142D01*
X175071428Y-76626190D01*
X175109523Y-76645238D01*
X174880952Y-76169047D02*
X174880952Y-76130952D01*
X174900000Y-76092857D01*
X174919047Y-76073809D01*
X174957142Y-76054761D01*
X175033333Y-76035714D01*
X175128571Y-76035714D01*
X175204761Y-76054761D01*
X175242857Y-76073809D01*
X175261904Y-76092857D01*
X175280952Y-76130952D01*
X175280952Y-76169047D01*
X175261904Y-76207142D01*
X175242857Y-76226190D01*
X175204761Y-76245238D01*
X175128571Y-76264285D01*
X175033333Y-76264285D01*
X174957142Y-76245238D01*
X174919047Y-76226190D01*
X174900000Y-76207142D01*
X174880952Y-76169047D01*
X174919047Y-75883333D02*
X174900000Y-75864285D01*
X174880952Y-75826190D01*
X174880952Y-75730952D01*
X174900000Y-75692857D01*
X174919047Y-75673809D01*
X174957142Y-75654761D01*
X174995238Y-75654761D01*
X175052380Y-75673809D01*
X175280952Y-75902380D01*
X175280952Y-75654761D01*
%TO.C,C601*%
D12*
X176982380Y-81777380D02*
X176982380Y-82348809D01*
X176982380Y-82063095D02*
X175982380Y-82063095D01*
X176125238Y-82158333D01*
X176220476Y-82253571D01*
X176268095Y-82348809D01*
X175982380Y-81158333D02*
X175982380Y-81063095D01*
X176030000Y-80967857D01*
X176077619Y-80920238D01*
X176172857Y-80872619D01*
X176363333Y-80825000D01*
X176601428Y-80825000D01*
X176791904Y-80872619D01*
X176887142Y-80920238D01*
X176934761Y-80967857D01*
X176982380Y-81063095D01*
X176982380Y-81158333D01*
X176934761Y-81253571D01*
X176887142Y-81301190D01*
X176791904Y-81348809D01*
X176601428Y-81396428D01*
X176363333Y-81396428D01*
X176172857Y-81348809D01*
X176077619Y-81301190D01*
X176030000Y-81253571D01*
X175982380Y-81158333D01*
X176315714Y-79205952D02*
X176982380Y-79205952D01*
X176315714Y-79634523D02*
X176839523Y-79634523D01*
X176934761Y-79586904D01*
X176982380Y-79491666D01*
X176982380Y-79348809D01*
X176934761Y-79253571D01*
X176887142Y-79205952D01*
X176458571Y-78396428D02*
X176458571Y-78729761D01*
X176982380Y-78729761D02*
X175982380Y-78729761D01*
X175982380Y-78253571D01*
D13*
X175242857Y-80772619D02*
X175261904Y-80791666D01*
X175280952Y-80848809D01*
X175280952Y-80886904D01*
X175261904Y-80944047D01*
X175223809Y-80982142D01*
X175185714Y-81001190D01*
X175109523Y-81020238D01*
X175052380Y-81020238D01*
X174976190Y-81001190D01*
X174938095Y-80982142D01*
X174900000Y-80944047D01*
X174880952Y-80886904D01*
X174880952Y-80848809D01*
X174900000Y-80791666D01*
X174919047Y-80772619D01*
X174880952Y-80429761D02*
X174880952Y-80505952D01*
X174900000Y-80544047D01*
X174919047Y-80563095D01*
X174976190Y-80601190D01*
X175052380Y-80620238D01*
X175204761Y-80620238D01*
X175242857Y-80601190D01*
X175261904Y-80582142D01*
X175280952Y-80544047D01*
X175280952Y-80467857D01*
X175261904Y-80429761D01*
X175242857Y-80410714D01*
X175204761Y-80391666D01*
X175109523Y-80391666D01*
X175071428Y-80410714D01*
X175052380Y-80429761D01*
X175033333Y-80467857D01*
X175033333Y-80544047D01*
X175052380Y-80582142D01*
X175071428Y-80601190D01*
X175109523Y-80620238D01*
X174880952Y-80144047D02*
X174880952Y-80105952D01*
X174900000Y-80067857D01*
X174919047Y-80048809D01*
X174957142Y-80029761D01*
X175033333Y-80010714D01*
X175128571Y-80010714D01*
X175204761Y-80029761D01*
X175242857Y-80048809D01*
X175261904Y-80067857D01*
X175280952Y-80105952D01*
X175280952Y-80144047D01*
X175261904Y-80182142D01*
X175242857Y-80201190D01*
X175204761Y-80220238D01*
X175128571Y-80239285D01*
X175033333Y-80239285D01*
X174957142Y-80220238D01*
X174919047Y-80201190D01*
X174900000Y-80182142D01*
X174880952Y-80144047D01*
X175280952Y-79629761D02*
X175280952Y-79858333D01*
X175280952Y-79744047D02*
X174880952Y-79744047D01*
X174938095Y-79782142D01*
X174976190Y-79820238D01*
X174995238Y-79858333D01*
%TD*%
M02*
