%TF.GenerationSoftware,KiCad,Pcbnew,(5.1.8)-1*%
%TF.CreationDate,2021-03-31T15:24:53-04:00*%
%TF.ProjectId,Artemis Payload Computer,41727465-6d69-4732-9050-61796c6f6164,rev?*%
%TF.SameCoordinates,Original*%
%TF.FileFunction,Copper,L2,Bot*%
%TF.FilePolarity,Positive*%
%FSLAX46Y46*%
G04 Gerber Fmt 4.6, Leading zero omitted, Abs format (unit mm)*
G04 Created by KiCad (PCBNEW (5.1.8)-1) date 2021-03-31 15:24:53*
%MOMM*%
%LPD*%
G01*
G04 APERTURE LIST*
%TA.AperFunction,ComponentPad*%
%ADD10C,2.400000*%
%TD*%
%TA.AperFunction,ComponentPad*%
%ADD11R,2.400000X2.400000*%
%TD*%
%TA.AperFunction,ComponentPad*%
%ADD12C,1.524000*%
%TD*%
%TA.AperFunction,ComponentPad*%
%ADD13C,1.600000*%
%TD*%
%TA.AperFunction,ComponentPad*%
%ADD14O,1.600000X1.600000*%
%TD*%
%TA.AperFunction,ComponentPad*%
%ADD15R,1.408000X1.408000*%
%TD*%
%TA.AperFunction,ComponentPad*%
%ADD16C,1.750000*%
%TD*%
%TA.AperFunction,ComponentPad*%
%ADD17R,1.600000X1.600000*%
%TD*%
%TA.AperFunction,ComponentPad*%
%ADD18C,1.900000*%
%TD*%
%TA.AperFunction,ComponentPad*%
%ADD19C,3.000000*%
%TD*%
%TA.AperFunction,ComponentPad*%
%ADD20R,3.000000X3.000000*%
%TD*%
%TA.AperFunction,ViaPad*%
%ADD21C,0.800000*%
%TD*%
%TA.AperFunction,Conductor*%
%ADD22C,0.250000*%
%TD*%
%TA.AperFunction,Conductor*%
%ADD23C,0.254000*%
%TD*%
%TA.AperFunction,Conductor*%
%ADD24C,0.100000*%
%TD*%
G04 APERTURE END LIST*
D10*
%TO.P,J2,2*%
%TO.N,Net-(J2-Pad2)*%
X117720000Y-120020000D03*
D11*
%TO.P,J2,1*%
%TO.N,Net-(J1-Pad2)*%
X117720000Y-116520000D03*
%TD*%
D10*
%TO.P,J1,2*%
%TO.N,Net-(J1-Pad2)*%
X117650000Y-107360000D03*
D11*
%TO.P,J1,1*%
%TO.N,Net-(J1-Pad1)*%
X117650000Y-103860000D03*
%TD*%
D12*
%TO.P,U701,7*%
%TO.N,GND*%
X139660000Y-119600000D03*
%TO.P,U701,6*%
%TO.N,/CD*%
X142200000Y-119600000D03*
%TO.P,U701,5*%
%TO.N,/DO*%
X144740000Y-119600000D03*
%TO.P,U701,4*%
%TO.N,/SCK*%
X147280000Y-119600000D03*
%TO.P,U701,3*%
%TO.N,/DI*%
X149820000Y-119600000D03*
%TO.P,U701,2*%
%TO.N,/CS*%
X152360000Y-119600000D03*
%TO.P,U701,1*%
%TO.N,+5V*%
X154900000Y-119600000D03*
%TD*%
D13*
%TO.P,U401,12*%
%TO.N,Net-(U401-Pad12)*%
X176730000Y-104200000D03*
%TO.P,U401,11*%
%TO.N,Net-(U401-Pad11)*%
X176730000Y-101660000D03*
%TO.P,U401,10*%
%TO.N,Net-(U401-Pad10)*%
X176730000Y-99120000D03*
%TO.P,U401,9*%
%TO.N,Net-(U401-Pad9)*%
X176730000Y-96580000D03*
%TO.P,U401,8*%
%TO.N,Net-(U401-Pad8)*%
X176730000Y-94040000D03*
%TO.P,U401,7*%
%TO.N,Net-(U401-Pad7)*%
X176730000Y-91500000D03*
%TO.P,U401,6*%
%TO.N,Net-(U401-Pad6)*%
X164030000Y-104200000D03*
%TO.P,U401,5*%
%TO.N,/SDA0*%
X164030000Y-101660000D03*
%TO.P,U401,4*%
%TO.N,/SCL0*%
X164030000Y-99120000D03*
%TO.P,U401,3*%
%TO.N,GND*%
X164030000Y-96580000D03*
%TO.P,U401,2*%
%TO.N,Net-(U401-Pad2)*%
X164030000Y-94040000D03*
%TO.P,U401,1*%
%TO.N,+5V*%
X164030000Y-91500000D03*
%TD*%
D14*
%TO.P,R2,2*%
%TO.N,Net-(R1-Pad1)*%
X134400000Y-106790000D03*
D13*
%TO.P,R2,1*%
%TO.N,Net-(J2-Pad2)*%
X134400000Y-119490000D03*
%TD*%
D15*
%TO.P,U1,GND*%
%TO.N,GND*%
X120330000Y-66210000D03*
%TO.P,U1,DT*%
%TO.N,/DT*%
X122870000Y-66210000D03*
%TO.P,U1,SCK*%
%TO.N,/SCK*%
X125410000Y-66210000D03*
%TO.P,U1,VCC*%
%TO.N,+5V*%
X127950000Y-66210000D03*
%TO.P,U1,B+*%
%TO.N,Net-(U1-PadB+)*%
X130490000Y-91610000D03*
%TO.P,U1,B*%
%TO.N,Net-(U1-PadB)*%
X127950000Y-91610000D03*
%TO.P,U1,A+*%
%TO.N,Net-(R1-Pad1)*%
X125410000Y-91610000D03*
%TO.P,U1,A*%
%TO.N,Net-(J1-Pad2)*%
X122870000Y-91610000D03*
%TO.P,U1,E*%
%TO.N,Net-(J2-Pad2)*%
X120330000Y-91610000D03*
%TO.P,U1,E+*%
%TO.N,Net-(J1-Pad1)*%
X117790000Y-91610000D03*
%TD*%
D14*
%TO.P,R1,2*%
%TO.N,Net-(J1-Pad1)*%
X129560000Y-119440000D03*
D13*
%TO.P,R1,1*%
%TO.N,Net-(R1-Pad1)*%
X129560000Y-106740000D03*
%TD*%
D16*
%TO.P,U501,7*%
%TO.N,Net-(U501-Pad7)*%
X161490000Y-115280000D03*
%TO.P,U501,6*%
%TO.N,/SDA0*%
X164030000Y-115280000D03*
%TO.P,U501,5*%
%TO.N,Net-(U501-Pad5)*%
X166570000Y-115280000D03*
%TO.P,U501,4*%
%TO.N,/SCL0*%
X169110000Y-115280000D03*
%TO.P,U501,3*%
%TO.N,GND*%
X171650000Y-115280000D03*
%TO.P,U501,2*%
%TO.N,Net-(U501-Pad2)*%
X174190000Y-115280000D03*
%TO.P,U501,1*%
%TO.N,+5V*%
X176730000Y-115280000D03*
%TD*%
D13*
%TO.P,U2,17*%
%TO.N,GND*%
X147230000Y-93700000D03*
%TO.P,U2,18*%
%TO.N,Net-(U2-Pad18)*%
X149770000Y-93700000D03*
%TO.P,U2,19*%
%TO.N,Net-(U2-Pad19)*%
X152310000Y-93700000D03*
%TO.P,U2,20*%
%TO.N,Net-(U2-Pad20)*%
X154850000Y-93700000D03*
%TO.P,U2,16*%
%TO.N,Net-(U2-Pad16)*%
X144690000Y-93700000D03*
%TO.P,U2,15*%
%TO.N,Net-(U2-Pad15)*%
X142150000Y-93700000D03*
%TO.P,U2,14*%
%TO.N,/DI*%
X139610000Y-93700000D03*
%TO.P,U2,21*%
%TO.N,/SCK*%
X154850000Y-91160000D03*
%TO.P,U2,22*%
%TO.N,/DT*%
X154850000Y-88620000D03*
%TO.P,U2,23*%
%TO.N,Net-(U2-Pad23)*%
X154850000Y-86080000D03*
%TO.P,U2,24*%
%TO.N,/CD*%
X154850000Y-83540000D03*
%TO.P,U2,25*%
%TO.N,/SDA0*%
X154850000Y-81000000D03*
%TO.P,U2,26*%
%TO.N,/SCL0*%
X154850000Y-78460000D03*
%TO.P,U2,27*%
%TO.N,Net-(U2-Pad27)*%
X154850000Y-75920000D03*
%TO.P,U2,28*%
%TO.N,Net-(U2-Pad28)*%
X154850000Y-73380000D03*
%TO.P,U2,29*%
%TO.N,Net-(U2-Pad29)*%
X154850000Y-70840000D03*
%TO.P,U2,30*%
%TO.N,Net-(U2-Pad30)*%
X154850000Y-68300000D03*
%TO.P,U2,31*%
%TO.N,Net-(U2-Pad31)*%
X154850000Y-65760000D03*
%TO.P,U2,32*%
%TO.N,GND*%
X154850000Y-63220000D03*
%TO.P,U2,33*%
%TO.N,+5V*%
X154850000Y-60680000D03*
%TO.P,U2,34*%
%TO.N,Net-(U2-Pad34)*%
X152310000Y-63220000D03*
%TO.P,U2,35*%
%TO.N,Net-(U2-Pad35)*%
X152310000Y-68300000D03*
%TO.P,U2,36*%
%TO.N,Net-(U2-Pad36)*%
X152310000Y-70840000D03*
%TO.P,U2,37*%
%TO.N,Net-(U2-Pad37)*%
X152310000Y-73380000D03*
%TO.P,U2,13*%
%TO.N,/DO*%
X139610000Y-91160000D03*
%TO.P,U2,12*%
%TO.N,/CS*%
X139610000Y-88620000D03*
%TO.P,U2,11*%
%TO.N,Net-(U2-Pad11)*%
X139610000Y-86080000D03*
%TO.P,U2,10*%
%TO.N,Net-(U2-Pad10)*%
X139610000Y-83540000D03*
%TO.P,U2,9*%
%TO.N,Net-(U2-Pad9)*%
X139610000Y-81000000D03*
%TO.P,U2,8*%
%TO.N,Net-(U2-Pad8)*%
X139610000Y-78460000D03*
%TO.P,U2,7*%
%TO.N,Net-(U2-Pad7)*%
X139610000Y-75920000D03*
%TO.P,U2,6*%
%TO.N,Net-(U2-Pad6)*%
X139610000Y-73380000D03*
%TO.P,U2,5*%
%TO.N,Net-(U2-Pad5)*%
X139610000Y-70840000D03*
%TO.P,U2,4*%
%TO.N,Net-(U2-Pad4)*%
X139610000Y-68300000D03*
%TO.P,U2,3*%
%TO.N,Net-(U2-Pad3)*%
X139610000Y-65760000D03*
%TO.P,U2,2*%
%TO.N,Net-(U2-Pad2)*%
X139610000Y-63220000D03*
D17*
%TO.P,U2,1*%
%TO.N,GND*%
X139610000Y-60680000D03*
D18*
%TO.P,U2,52*%
%TO.N,Net-(U2-Pad52)*%
X147230000Y-70840000D03*
X147230000Y-67030000D03*
%TD*%
D19*
%TO.P,J601,2*%
%TO.N,+BATT*%
X168770000Y-62700000D03*
D20*
%TO.P,J601,1*%
%TO.N,GND*%
X168770000Y-67780000D03*
%TD*%
D21*
%TO.N,GND*%
X141050000Y-101820000D03*
X167000000Y-78250000D03*
X172750000Y-78250000D03*
%TO.N,Net-(J1-Pad2)*%
X125700000Y-100800000D03*
%TO.N,Net-(J2-Pad2)*%
X123900000Y-106200000D03*
%TO.N,/DT*%
X137700000Y-77000000D03*
X151300000Y-85400000D03*
%TO.N,/SCK*%
X147750000Y-103500000D03*
%TO.N,/CD*%
X142500000Y-103500000D03*
%TD*%
D22*
%TO.N,GND*%
X147230000Y-93700000D02*
X141050000Y-99880000D01*
X141050000Y-99880000D02*
X141050000Y-101820000D01*
%TO.N,Net-(J1-Pad2)*%
X120100000Y-106400000D02*
X117650000Y-106400000D01*
X125700000Y-100800000D02*
X120100000Y-106400000D01*
%TO.N,Net-(J2-Pad2)*%
X118680000Y-120020000D02*
X117720000Y-119060000D01*
X121830000Y-120020000D02*
X118680000Y-120020000D01*
X123900000Y-117950000D02*
X121830000Y-120020000D01*
X123900000Y-106200000D02*
X123900000Y-117950000D01*
%TO.N,/DT*%
X143075000Y-77175000D02*
X151300000Y-85400000D01*
X137875000Y-77175000D02*
X143075000Y-77175000D01*
X137700000Y-77000000D02*
X137875000Y-77175000D01*
%TO.N,/SCK*%
X153600000Y-92410000D02*
X154850000Y-91160000D01*
X147750000Y-103500000D02*
X153600000Y-97650000D01*
X153600000Y-97650000D02*
X153600000Y-92410000D01*
%TO.N,/CD*%
X148500000Y-89890000D02*
X154850000Y-83540000D01*
X142500000Y-103500000D02*
X148500000Y-97500000D01*
X148500000Y-97500000D02*
X148500000Y-89890000D01*
%TD*%
D23*
%TO.N,GND*%
X184873000Y-137873000D02*
X109127000Y-137873000D01*
X109127000Y-133032413D01*
X110283146Y-133032413D01*
X110283146Y-133567587D01*
X110387553Y-134092477D01*
X110592355Y-134586913D01*
X110889681Y-135031894D01*
X111268106Y-135410319D01*
X111713087Y-135707645D01*
X112207523Y-135912447D01*
X112732413Y-136016854D01*
X113267587Y-136016854D01*
X113792477Y-135912447D01*
X114286913Y-135707645D01*
X114731894Y-135410319D01*
X115110319Y-135031894D01*
X115407645Y-134586913D01*
X115612447Y-134092477D01*
X115716854Y-133567587D01*
X115716854Y-133032413D01*
X179283146Y-133032413D01*
X179283146Y-133567587D01*
X179387553Y-134092477D01*
X179592355Y-134586913D01*
X179889681Y-135031894D01*
X180268106Y-135410319D01*
X180713087Y-135707645D01*
X181207523Y-135912447D01*
X181732413Y-136016854D01*
X182267587Y-136016854D01*
X182792477Y-135912447D01*
X183286913Y-135707645D01*
X183731894Y-135410319D01*
X184110319Y-135031894D01*
X184407645Y-134586913D01*
X184612447Y-134092477D01*
X184716854Y-133567587D01*
X184716854Y-133032413D01*
X184612447Y-132507523D01*
X184407645Y-132013087D01*
X184110319Y-131568106D01*
X183731894Y-131189681D01*
X183286913Y-130892355D01*
X182792477Y-130687553D01*
X182267587Y-130583146D01*
X181732413Y-130583146D01*
X181207523Y-130687553D01*
X180713087Y-130892355D01*
X180268106Y-131189681D01*
X179889681Y-131568106D01*
X179592355Y-132013087D01*
X179387553Y-132507523D01*
X179283146Y-133032413D01*
X115716854Y-133032413D01*
X115612447Y-132507523D01*
X115407645Y-132013087D01*
X115110319Y-131568106D01*
X114731894Y-131189681D01*
X114286913Y-130892355D01*
X113792477Y-130687553D01*
X113267587Y-130583146D01*
X112732413Y-130583146D01*
X112207523Y-130687553D01*
X111713087Y-130892355D01*
X111268106Y-131189681D01*
X110889681Y-131568106D01*
X110592355Y-132013087D01*
X110387553Y-132507523D01*
X110283146Y-133032413D01*
X109127000Y-133032413D01*
X109127000Y-115320000D01*
X115881928Y-115320000D01*
X115881928Y-117720000D01*
X115894188Y-117844482D01*
X115930498Y-117964180D01*
X115989463Y-118074494D01*
X116068815Y-118171185D01*
X116165506Y-118250537D01*
X116275820Y-118309502D01*
X116395518Y-118345812D01*
X116520000Y-118358072D01*
X116937162Y-118358072D01*
X116850801Y-118393844D01*
X116550256Y-118594662D01*
X116294662Y-118850256D01*
X116093844Y-119150801D01*
X115955518Y-119484750D01*
X115885000Y-119839268D01*
X115885000Y-120200732D01*
X115955518Y-120555250D01*
X116093844Y-120889199D01*
X116294662Y-121189744D01*
X116550256Y-121445338D01*
X116850801Y-121646156D01*
X117184750Y-121784482D01*
X117539268Y-121855000D01*
X117900732Y-121855000D01*
X118255250Y-121784482D01*
X118589199Y-121646156D01*
X118889744Y-121445338D01*
X119145338Y-121189744D01*
X119346156Y-120889199D01*
X119391388Y-120780000D01*
X121792678Y-120780000D01*
X121830000Y-120783676D01*
X121867322Y-120780000D01*
X121867333Y-120780000D01*
X121978986Y-120769003D01*
X122122247Y-120725546D01*
X122254276Y-120654974D01*
X122370001Y-120560001D01*
X122393804Y-120530997D01*
X123626136Y-119298665D01*
X128125000Y-119298665D01*
X128125000Y-119581335D01*
X128180147Y-119858574D01*
X128288320Y-120119727D01*
X128445363Y-120354759D01*
X128645241Y-120554637D01*
X128880273Y-120711680D01*
X129141426Y-120819853D01*
X129418665Y-120875000D01*
X129701335Y-120875000D01*
X129978574Y-120819853D01*
X130239727Y-120711680D01*
X130474759Y-120554637D01*
X130674637Y-120354759D01*
X130831680Y-120119727D01*
X130939853Y-119858574D01*
X130995000Y-119581335D01*
X130995000Y-119348665D01*
X132965000Y-119348665D01*
X132965000Y-119631335D01*
X133020147Y-119908574D01*
X133128320Y-120169727D01*
X133285363Y-120404759D01*
X133485241Y-120604637D01*
X133720273Y-120761680D01*
X133981426Y-120869853D01*
X134258665Y-120925000D01*
X134541335Y-120925000D01*
X134818574Y-120869853D01*
X135079727Y-120761680D01*
X135314759Y-120604637D01*
X135353831Y-120565565D01*
X138874040Y-120565565D01*
X138941020Y-120805656D01*
X139190048Y-120922756D01*
X139457135Y-120989023D01*
X139732017Y-121001910D01*
X140004133Y-120960922D01*
X140263023Y-120867636D01*
X140378980Y-120805656D01*
X140445960Y-120565565D01*
X139660000Y-119779605D01*
X138874040Y-120565565D01*
X135353831Y-120565565D01*
X135514637Y-120404759D01*
X135671680Y-120169727D01*
X135779853Y-119908574D01*
X135826907Y-119672017D01*
X138258090Y-119672017D01*
X138299078Y-119944133D01*
X138392364Y-120203023D01*
X138454344Y-120318980D01*
X138694435Y-120385960D01*
X139480395Y-119600000D01*
X139839605Y-119600000D01*
X140625565Y-120385960D01*
X140865656Y-120318980D01*
X140929485Y-120183240D01*
X140961995Y-120261727D01*
X141114880Y-120490535D01*
X141309465Y-120685120D01*
X141538273Y-120838005D01*
X141792510Y-120943314D01*
X142062408Y-120997000D01*
X142337592Y-120997000D01*
X142607490Y-120943314D01*
X142861727Y-120838005D01*
X143090535Y-120685120D01*
X143285120Y-120490535D01*
X143438005Y-120261727D01*
X143470000Y-120184485D01*
X143501995Y-120261727D01*
X143654880Y-120490535D01*
X143849465Y-120685120D01*
X144078273Y-120838005D01*
X144332510Y-120943314D01*
X144602408Y-120997000D01*
X144877592Y-120997000D01*
X145147490Y-120943314D01*
X145401727Y-120838005D01*
X145630535Y-120685120D01*
X145825120Y-120490535D01*
X145978005Y-120261727D01*
X146010000Y-120184485D01*
X146041995Y-120261727D01*
X146194880Y-120490535D01*
X146389465Y-120685120D01*
X146618273Y-120838005D01*
X146872510Y-120943314D01*
X147142408Y-120997000D01*
X147417592Y-120997000D01*
X147687490Y-120943314D01*
X147941727Y-120838005D01*
X148170535Y-120685120D01*
X148365120Y-120490535D01*
X148518005Y-120261727D01*
X148550000Y-120184485D01*
X148581995Y-120261727D01*
X148734880Y-120490535D01*
X148929465Y-120685120D01*
X149158273Y-120838005D01*
X149412510Y-120943314D01*
X149682408Y-120997000D01*
X149957592Y-120997000D01*
X150227490Y-120943314D01*
X150481727Y-120838005D01*
X150710535Y-120685120D01*
X150905120Y-120490535D01*
X151058005Y-120261727D01*
X151090000Y-120184485D01*
X151121995Y-120261727D01*
X151274880Y-120490535D01*
X151469465Y-120685120D01*
X151698273Y-120838005D01*
X151952510Y-120943314D01*
X152222408Y-120997000D01*
X152497592Y-120997000D01*
X152767490Y-120943314D01*
X153021727Y-120838005D01*
X153250535Y-120685120D01*
X153445120Y-120490535D01*
X153598005Y-120261727D01*
X153630000Y-120184485D01*
X153661995Y-120261727D01*
X153814880Y-120490535D01*
X154009465Y-120685120D01*
X154238273Y-120838005D01*
X154492510Y-120943314D01*
X154762408Y-120997000D01*
X155037592Y-120997000D01*
X155307490Y-120943314D01*
X155561727Y-120838005D01*
X155790535Y-120685120D01*
X155985120Y-120490535D01*
X156138005Y-120261727D01*
X156243314Y-120007490D01*
X156297000Y-119737592D01*
X156297000Y-119462408D01*
X156243314Y-119192510D01*
X156138005Y-118938273D01*
X155985120Y-118709465D01*
X155790535Y-118514880D01*
X155561727Y-118361995D01*
X155307490Y-118256686D01*
X155037592Y-118203000D01*
X154762408Y-118203000D01*
X154492510Y-118256686D01*
X154238273Y-118361995D01*
X154009465Y-118514880D01*
X153814880Y-118709465D01*
X153661995Y-118938273D01*
X153630000Y-119015515D01*
X153598005Y-118938273D01*
X153445120Y-118709465D01*
X153250535Y-118514880D01*
X153021727Y-118361995D01*
X152767490Y-118256686D01*
X152497592Y-118203000D01*
X152222408Y-118203000D01*
X151952510Y-118256686D01*
X151698273Y-118361995D01*
X151469465Y-118514880D01*
X151274880Y-118709465D01*
X151121995Y-118938273D01*
X151090000Y-119015515D01*
X151058005Y-118938273D01*
X150905120Y-118709465D01*
X150710535Y-118514880D01*
X150481727Y-118361995D01*
X150227490Y-118256686D01*
X149957592Y-118203000D01*
X149682408Y-118203000D01*
X149412510Y-118256686D01*
X149158273Y-118361995D01*
X148929465Y-118514880D01*
X148734880Y-118709465D01*
X148581995Y-118938273D01*
X148550000Y-119015515D01*
X148518005Y-118938273D01*
X148365120Y-118709465D01*
X148170535Y-118514880D01*
X147941727Y-118361995D01*
X147687490Y-118256686D01*
X147417592Y-118203000D01*
X147142408Y-118203000D01*
X146872510Y-118256686D01*
X146618273Y-118361995D01*
X146389465Y-118514880D01*
X146194880Y-118709465D01*
X146041995Y-118938273D01*
X146010000Y-119015515D01*
X145978005Y-118938273D01*
X145825120Y-118709465D01*
X145630535Y-118514880D01*
X145401727Y-118361995D01*
X145147490Y-118256686D01*
X144877592Y-118203000D01*
X144602408Y-118203000D01*
X144332510Y-118256686D01*
X144078273Y-118361995D01*
X143849465Y-118514880D01*
X143654880Y-118709465D01*
X143501995Y-118938273D01*
X143470000Y-119015515D01*
X143438005Y-118938273D01*
X143285120Y-118709465D01*
X143090535Y-118514880D01*
X142861727Y-118361995D01*
X142607490Y-118256686D01*
X142337592Y-118203000D01*
X142062408Y-118203000D01*
X141792510Y-118256686D01*
X141538273Y-118361995D01*
X141309465Y-118514880D01*
X141114880Y-118709465D01*
X140961995Y-118938273D01*
X140932308Y-119009943D01*
X140927636Y-118996977D01*
X140865656Y-118881020D01*
X140625565Y-118814040D01*
X139839605Y-119600000D01*
X139480395Y-119600000D01*
X138694435Y-118814040D01*
X138454344Y-118881020D01*
X138337244Y-119130048D01*
X138270977Y-119397135D01*
X138258090Y-119672017D01*
X135826907Y-119672017D01*
X135835000Y-119631335D01*
X135835000Y-119348665D01*
X135779853Y-119071426D01*
X135671680Y-118810273D01*
X135554190Y-118634435D01*
X138874040Y-118634435D01*
X139660000Y-119420395D01*
X140445960Y-118634435D01*
X140378980Y-118394344D01*
X140129952Y-118277244D01*
X139862865Y-118210977D01*
X139587983Y-118198090D01*
X139315867Y-118239078D01*
X139056977Y-118332364D01*
X138941020Y-118394344D01*
X138874040Y-118634435D01*
X135554190Y-118634435D01*
X135514637Y-118575241D01*
X135314759Y-118375363D01*
X135079727Y-118218320D01*
X134818574Y-118110147D01*
X134541335Y-118055000D01*
X134258665Y-118055000D01*
X133981426Y-118110147D01*
X133720273Y-118218320D01*
X133485241Y-118375363D01*
X133285363Y-118575241D01*
X133128320Y-118810273D01*
X133020147Y-119071426D01*
X132965000Y-119348665D01*
X130995000Y-119348665D01*
X130995000Y-119298665D01*
X130939853Y-119021426D01*
X130831680Y-118760273D01*
X130674637Y-118525241D01*
X130474759Y-118325363D01*
X130239727Y-118168320D01*
X129978574Y-118060147D01*
X129701335Y-118005000D01*
X129418665Y-118005000D01*
X129141426Y-118060147D01*
X128880273Y-118168320D01*
X128645241Y-118325363D01*
X128445363Y-118525241D01*
X128288320Y-118760273D01*
X128180147Y-119021426D01*
X128125000Y-119298665D01*
X123626136Y-119298665D01*
X124411003Y-118513799D01*
X124440001Y-118490001D01*
X124518505Y-118394344D01*
X124534974Y-118374277D01*
X124605546Y-118242247D01*
X124617451Y-118203000D01*
X124649003Y-118098986D01*
X124660000Y-117987333D01*
X124660000Y-117987324D01*
X124663676Y-117950001D01*
X124660000Y-117912678D01*
X124660000Y-115131278D01*
X159980000Y-115131278D01*
X159980000Y-115428722D01*
X160038029Y-115720451D01*
X160151856Y-115995253D01*
X160317107Y-116242569D01*
X160527431Y-116452893D01*
X160774747Y-116618144D01*
X161049549Y-116731971D01*
X161341278Y-116790000D01*
X161638722Y-116790000D01*
X161930451Y-116731971D01*
X162205253Y-116618144D01*
X162452569Y-116452893D01*
X162662893Y-116242569D01*
X162760000Y-116097238D01*
X162857107Y-116242569D01*
X163067431Y-116452893D01*
X163314747Y-116618144D01*
X163589549Y-116731971D01*
X163881278Y-116790000D01*
X164178722Y-116790000D01*
X164470451Y-116731971D01*
X164745253Y-116618144D01*
X164992569Y-116452893D01*
X165202893Y-116242569D01*
X165300000Y-116097238D01*
X165397107Y-116242569D01*
X165607431Y-116452893D01*
X165854747Y-116618144D01*
X166129549Y-116731971D01*
X166421278Y-116790000D01*
X166718722Y-116790000D01*
X167010451Y-116731971D01*
X167285253Y-116618144D01*
X167532569Y-116452893D01*
X167742893Y-116242569D01*
X167840000Y-116097238D01*
X167937107Y-116242569D01*
X168147431Y-116452893D01*
X168394747Y-116618144D01*
X168669549Y-116731971D01*
X168961278Y-116790000D01*
X169258722Y-116790000D01*
X169550451Y-116731971D01*
X169825253Y-116618144D01*
X170072569Y-116452893D01*
X170199222Y-116326240D01*
X170783365Y-116326240D01*
X170864025Y-116577868D01*
X171132329Y-116706267D01*
X171420526Y-116779855D01*
X171717543Y-116795804D01*
X172011963Y-116753501D01*
X172292474Y-116654572D01*
X172435975Y-116577868D01*
X172516635Y-116326240D01*
X171650000Y-115459605D01*
X170783365Y-116326240D01*
X170199222Y-116326240D01*
X170282893Y-116242569D01*
X170392288Y-116078847D01*
X170603760Y-116146635D01*
X171470395Y-115280000D01*
X171829605Y-115280000D01*
X172696240Y-116146635D01*
X172907712Y-116078847D01*
X173017107Y-116242569D01*
X173227431Y-116452893D01*
X173474747Y-116618144D01*
X173749549Y-116731971D01*
X174041278Y-116790000D01*
X174338722Y-116790000D01*
X174630451Y-116731971D01*
X174905253Y-116618144D01*
X175152569Y-116452893D01*
X175362893Y-116242569D01*
X175460000Y-116097238D01*
X175557107Y-116242569D01*
X175767431Y-116452893D01*
X176014747Y-116618144D01*
X176289549Y-116731971D01*
X176581278Y-116790000D01*
X176878722Y-116790000D01*
X177170451Y-116731971D01*
X177445253Y-116618144D01*
X177692569Y-116452893D01*
X177902893Y-116242569D01*
X178068144Y-115995253D01*
X178181971Y-115720451D01*
X178240000Y-115428722D01*
X178240000Y-115131278D01*
X178181971Y-114839549D01*
X178068144Y-114564747D01*
X177902893Y-114317431D01*
X177692569Y-114107107D01*
X177445253Y-113941856D01*
X177170451Y-113828029D01*
X176878722Y-113770000D01*
X176581278Y-113770000D01*
X176289549Y-113828029D01*
X176014747Y-113941856D01*
X175767431Y-114107107D01*
X175557107Y-114317431D01*
X175460000Y-114462762D01*
X175362893Y-114317431D01*
X175152569Y-114107107D01*
X174905253Y-113941856D01*
X174630451Y-113828029D01*
X174338722Y-113770000D01*
X174041278Y-113770000D01*
X173749549Y-113828029D01*
X173474747Y-113941856D01*
X173227431Y-114107107D01*
X173017107Y-114317431D01*
X172907712Y-114481153D01*
X172696240Y-114413365D01*
X171829605Y-115280000D01*
X171470395Y-115280000D01*
X170603760Y-114413365D01*
X170392288Y-114481153D01*
X170282893Y-114317431D01*
X170199222Y-114233760D01*
X170783365Y-114233760D01*
X171650000Y-115100395D01*
X172516635Y-114233760D01*
X172435975Y-113982132D01*
X172167671Y-113853733D01*
X171879474Y-113780145D01*
X171582457Y-113764196D01*
X171288037Y-113806499D01*
X171007526Y-113905428D01*
X170864025Y-113982132D01*
X170783365Y-114233760D01*
X170199222Y-114233760D01*
X170072569Y-114107107D01*
X169825253Y-113941856D01*
X169550451Y-113828029D01*
X169258722Y-113770000D01*
X168961278Y-113770000D01*
X168669549Y-113828029D01*
X168394747Y-113941856D01*
X168147431Y-114107107D01*
X167937107Y-114317431D01*
X167840000Y-114462762D01*
X167742893Y-114317431D01*
X167532569Y-114107107D01*
X167285253Y-113941856D01*
X167010451Y-113828029D01*
X166718722Y-113770000D01*
X166421278Y-113770000D01*
X166129549Y-113828029D01*
X165854747Y-113941856D01*
X165607431Y-114107107D01*
X165397107Y-114317431D01*
X165300000Y-114462762D01*
X165202893Y-114317431D01*
X164992569Y-114107107D01*
X164745253Y-113941856D01*
X164470451Y-113828029D01*
X164178722Y-113770000D01*
X163881278Y-113770000D01*
X163589549Y-113828029D01*
X163314747Y-113941856D01*
X163067431Y-114107107D01*
X162857107Y-114317431D01*
X162760000Y-114462762D01*
X162662893Y-114317431D01*
X162452569Y-114107107D01*
X162205253Y-113941856D01*
X161930451Y-113828029D01*
X161638722Y-113770000D01*
X161341278Y-113770000D01*
X161049549Y-113828029D01*
X160774747Y-113941856D01*
X160527431Y-114107107D01*
X160317107Y-114317431D01*
X160151856Y-114564747D01*
X160038029Y-114839549D01*
X159980000Y-115131278D01*
X124660000Y-115131278D01*
X124660000Y-106903711D01*
X124703937Y-106859774D01*
X124817205Y-106690256D01*
X124855143Y-106598665D01*
X128125000Y-106598665D01*
X128125000Y-106881335D01*
X128180147Y-107158574D01*
X128288320Y-107419727D01*
X128445363Y-107654759D01*
X128645241Y-107854637D01*
X128880273Y-108011680D01*
X129141426Y-108119853D01*
X129418665Y-108175000D01*
X129701335Y-108175000D01*
X129978574Y-108119853D01*
X130239727Y-108011680D01*
X130474759Y-107854637D01*
X130674637Y-107654759D01*
X130831680Y-107419727D01*
X130939853Y-107158574D01*
X130995000Y-106881335D01*
X130995000Y-106648665D01*
X132965000Y-106648665D01*
X132965000Y-106931335D01*
X133020147Y-107208574D01*
X133128320Y-107469727D01*
X133285363Y-107704759D01*
X133485241Y-107904637D01*
X133720273Y-108061680D01*
X133981426Y-108169853D01*
X134258665Y-108225000D01*
X134541335Y-108225000D01*
X134818574Y-108169853D01*
X135079727Y-108061680D01*
X135314759Y-107904637D01*
X135514637Y-107704759D01*
X135671680Y-107469727D01*
X135779853Y-107208574D01*
X135835000Y-106931335D01*
X135835000Y-106648665D01*
X135779853Y-106371426D01*
X135671680Y-106110273D01*
X135514637Y-105875241D01*
X135314759Y-105675363D01*
X135079727Y-105518320D01*
X134818574Y-105410147D01*
X134541335Y-105355000D01*
X134258665Y-105355000D01*
X133981426Y-105410147D01*
X133720273Y-105518320D01*
X133485241Y-105675363D01*
X133285363Y-105875241D01*
X133128320Y-106110273D01*
X133020147Y-106371426D01*
X132965000Y-106648665D01*
X130995000Y-106648665D01*
X130995000Y-106598665D01*
X130939853Y-106321426D01*
X130831680Y-106060273D01*
X130674637Y-105825241D01*
X130474759Y-105625363D01*
X130239727Y-105468320D01*
X129978574Y-105360147D01*
X129701335Y-105305000D01*
X129418665Y-105305000D01*
X129141426Y-105360147D01*
X128880273Y-105468320D01*
X128645241Y-105625363D01*
X128445363Y-105825241D01*
X128288320Y-106060273D01*
X128180147Y-106321426D01*
X128125000Y-106598665D01*
X124855143Y-106598665D01*
X124895226Y-106501898D01*
X124935000Y-106301939D01*
X124935000Y-106098061D01*
X124895226Y-105898102D01*
X124817205Y-105709744D01*
X124703937Y-105540226D01*
X124559774Y-105396063D01*
X124390256Y-105282795D01*
X124201898Y-105204774D01*
X124001939Y-105165000D01*
X123798061Y-105165000D01*
X123598102Y-105204774D01*
X123409744Y-105282795D01*
X123240226Y-105396063D01*
X123096063Y-105540226D01*
X122982795Y-105709744D01*
X122904774Y-105898102D01*
X122865000Y-106098061D01*
X122865000Y-106301939D01*
X122904774Y-106501898D01*
X122982795Y-106690256D01*
X123096063Y-106859774D01*
X123140000Y-106903711D01*
X123140001Y-117635197D01*
X121515199Y-119260000D01*
X119391388Y-119260000D01*
X119346156Y-119150801D01*
X119145338Y-118850256D01*
X118889744Y-118594662D01*
X118589199Y-118393844D01*
X118502838Y-118358072D01*
X118920000Y-118358072D01*
X119044482Y-118345812D01*
X119164180Y-118309502D01*
X119274494Y-118250537D01*
X119371185Y-118171185D01*
X119450537Y-118074494D01*
X119509502Y-117964180D01*
X119545812Y-117844482D01*
X119558072Y-117720000D01*
X119558072Y-115320000D01*
X119545812Y-115195518D01*
X119509502Y-115075820D01*
X119450537Y-114965506D01*
X119371185Y-114868815D01*
X119274494Y-114789463D01*
X119164180Y-114730498D01*
X119044482Y-114694188D01*
X118920000Y-114681928D01*
X116520000Y-114681928D01*
X116395518Y-114694188D01*
X116275820Y-114730498D01*
X116165506Y-114789463D01*
X116068815Y-114868815D01*
X115989463Y-114965506D01*
X115930498Y-115075820D01*
X115894188Y-115195518D01*
X115881928Y-115320000D01*
X109127000Y-115320000D01*
X109127000Y-102660000D01*
X115811928Y-102660000D01*
X115811928Y-105060000D01*
X115824188Y-105184482D01*
X115860498Y-105304180D01*
X115919463Y-105414494D01*
X115998815Y-105511185D01*
X116095506Y-105590537D01*
X116205820Y-105649502D01*
X116325518Y-105685812D01*
X116450000Y-105698072D01*
X116867162Y-105698072D01*
X116780801Y-105733844D01*
X116480256Y-105934662D01*
X116224662Y-106190256D01*
X116023844Y-106490801D01*
X115885518Y-106824750D01*
X115815000Y-107179268D01*
X115815000Y-107540732D01*
X115885518Y-107895250D01*
X116023844Y-108229199D01*
X116224662Y-108529744D01*
X116480256Y-108785338D01*
X116780801Y-108986156D01*
X117114750Y-109124482D01*
X117469268Y-109195000D01*
X117830732Y-109195000D01*
X118185250Y-109124482D01*
X118519199Y-108986156D01*
X118819744Y-108785338D01*
X119075338Y-108529744D01*
X119276156Y-108229199D01*
X119414482Y-107895250D01*
X119485000Y-107540732D01*
X119485000Y-107179268D01*
X119481167Y-107160000D01*
X120062678Y-107160000D01*
X120100000Y-107163676D01*
X120137322Y-107160000D01*
X120137333Y-107160000D01*
X120248986Y-107149003D01*
X120392247Y-107105546D01*
X120524276Y-107034974D01*
X120640001Y-106940001D01*
X120663804Y-106910997D01*
X125739802Y-101835000D01*
X125801939Y-101835000D01*
X126001898Y-101795226D01*
X126190256Y-101717205D01*
X126359774Y-101603937D01*
X126503937Y-101459774D01*
X126617205Y-101290256D01*
X126695226Y-101101898D01*
X126735000Y-100901939D01*
X126735000Y-100698061D01*
X126695226Y-100498102D01*
X126617205Y-100309744D01*
X126503937Y-100140226D01*
X126359774Y-99996063D01*
X126190256Y-99882795D01*
X126001898Y-99804774D01*
X125801939Y-99765000D01*
X125598061Y-99765000D01*
X125398102Y-99804774D01*
X125209744Y-99882795D01*
X125040226Y-99996063D01*
X124896063Y-100140226D01*
X124782795Y-100309744D01*
X124704774Y-100498102D01*
X124665000Y-100698061D01*
X124665000Y-100760198D01*
X119785199Y-105640000D01*
X119111957Y-105640000D01*
X119204494Y-105590537D01*
X119301185Y-105511185D01*
X119380537Y-105414494D01*
X119439502Y-105304180D01*
X119475812Y-105184482D01*
X119488072Y-105060000D01*
X119488072Y-102660000D01*
X119475812Y-102535518D01*
X119439502Y-102415820D01*
X119380537Y-102305506D01*
X119301185Y-102208815D01*
X119204494Y-102129463D01*
X119094180Y-102070498D01*
X118974482Y-102034188D01*
X118850000Y-102021928D01*
X116450000Y-102021928D01*
X116325518Y-102034188D01*
X116205820Y-102070498D01*
X116095506Y-102129463D01*
X115998815Y-102208815D01*
X115919463Y-102305506D01*
X115860498Y-102415820D01*
X115824188Y-102535518D01*
X115811928Y-102660000D01*
X109127000Y-102660000D01*
X109127000Y-90906000D01*
X116447928Y-90906000D01*
X116447928Y-92314000D01*
X116460188Y-92438482D01*
X116496498Y-92558180D01*
X116555463Y-92668494D01*
X116634815Y-92765185D01*
X116731506Y-92844537D01*
X116841820Y-92903502D01*
X116961518Y-92939812D01*
X117086000Y-92952072D01*
X118494000Y-92952072D01*
X118618482Y-92939812D01*
X118738180Y-92903502D01*
X118848494Y-92844537D01*
X118945185Y-92765185D01*
X119024537Y-92668494D01*
X119060000Y-92602148D01*
X119095463Y-92668494D01*
X119174815Y-92765185D01*
X119271506Y-92844537D01*
X119381820Y-92903502D01*
X119501518Y-92939812D01*
X119626000Y-92952072D01*
X121034000Y-92952072D01*
X121158482Y-92939812D01*
X121278180Y-92903502D01*
X121388494Y-92844537D01*
X121485185Y-92765185D01*
X121564537Y-92668494D01*
X121600000Y-92602148D01*
X121635463Y-92668494D01*
X121714815Y-92765185D01*
X121811506Y-92844537D01*
X121921820Y-92903502D01*
X122041518Y-92939812D01*
X122166000Y-92952072D01*
X123574000Y-92952072D01*
X123698482Y-92939812D01*
X123818180Y-92903502D01*
X123928494Y-92844537D01*
X124025185Y-92765185D01*
X124104537Y-92668494D01*
X124140000Y-92602148D01*
X124175463Y-92668494D01*
X124254815Y-92765185D01*
X124351506Y-92844537D01*
X124461820Y-92903502D01*
X124581518Y-92939812D01*
X124706000Y-92952072D01*
X126114000Y-92952072D01*
X126238482Y-92939812D01*
X126358180Y-92903502D01*
X126468494Y-92844537D01*
X126565185Y-92765185D01*
X126644537Y-92668494D01*
X126680000Y-92602148D01*
X126715463Y-92668494D01*
X126794815Y-92765185D01*
X126891506Y-92844537D01*
X127001820Y-92903502D01*
X127121518Y-92939812D01*
X127246000Y-92952072D01*
X128654000Y-92952072D01*
X128778482Y-92939812D01*
X128898180Y-92903502D01*
X129008494Y-92844537D01*
X129105185Y-92765185D01*
X129184537Y-92668494D01*
X129220000Y-92602148D01*
X129255463Y-92668494D01*
X129334815Y-92765185D01*
X129431506Y-92844537D01*
X129541820Y-92903502D01*
X129661518Y-92939812D01*
X129786000Y-92952072D01*
X131194000Y-92952072D01*
X131318482Y-92939812D01*
X131438180Y-92903502D01*
X131548494Y-92844537D01*
X131645185Y-92765185D01*
X131724537Y-92668494D01*
X131783502Y-92558180D01*
X131819812Y-92438482D01*
X131832072Y-92314000D01*
X131832072Y-90906000D01*
X131819812Y-90781518D01*
X131783502Y-90661820D01*
X131724537Y-90551506D01*
X131645185Y-90454815D01*
X131548494Y-90375463D01*
X131438180Y-90316498D01*
X131318482Y-90280188D01*
X131194000Y-90267928D01*
X129786000Y-90267928D01*
X129661518Y-90280188D01*
X129541820Y-90316498D01*
X129431506Y-90375463D01*
X129334815Y-90454815D01*
X129255463Y-90551506D01*
X129220000Y-90617852D01*
X129184537Y-90551506D01*
X129105185Y-90454815D01*
X129008494Y-90375463D01*
X128898180Y-90316498D01*
X128778482Y-90280188D01*
X128654000Y-90267928D01*
X127246000Y-90267928D01*
X127121518Y-90280188D01*
X127001820Y-90316498D01*
X126891506Y-90375463D01*
X126794815Y-90454815D01*
X126715463Y-90551506D01*
X126680000Y-90617852D01*
X126644537Y-90551506D01*
X126565185Y-90454815D01*
X126468494Y-90375463D01*
X126358180Y-90316498D01*
X126238482Y-90280188D01*
X126114000Y-90267928D01*
X124706000Y-90267928D01*
X124581518Y-90280188D01*
X124461820Y-90316498D01*
X124351506Y-90375463D01*
X124254815Y-90454815D01*
X124175463Y-90551506D01*
X124140000Y-90617852D01*
X124104537Y-90551506D01*
X124025185Y-90454815D01*
X123928494Y-90375463D01*
X123818180Y-90316498D01*
X123698482Y-90280188D01*
X123574000Y-90267928D01*
X122166000Y-90267928D01*
X122041518Y-90280188D01*
X121921820Y-90316498D01*
X121811506Y-90375463D01*
X121714815Y-90454815D01*
X121635463Y-90551506D01*
X121600000Y-90617852D01*
X121564537Y-90551506D01*
X121485185Y-90454815D01*
X121388494Y-90375463D01*
X121278180Y-90316498D01*
X121158482Y-90280188D01*
X121034000Y-90267928D01*
X119626000Y-90267928D01*
X119501518Y-90280188D01*
X119381820Y-90316498D01*
X119271506Y-90375463D01*
X119174815Y-90454815D01*
X119095463Y-90551506D01*
X119060000Y-90617852D01*
X119024537Y-90551506D01*
X118945185Y-90454815D01*
X118848494Y-90375463D01*
X118738180Y-90316498D01*
X118618482Y-90280188D01*
X118494000Y-90267928D01*
X117086000Y-90267928D01*
X116961518Y-90280188D01*
X116841820Y-90316498D01*
X116731506Y-90375463D01*
X116634815Y-90454815D01*
X116555463Y-90551506D01*
X116496498Y-90661820D01*
X116460188Y-90781518D01*
X116447928Y-90906000D01*
X109127000Y-90906000D01*
X109127000Y-76898061D01*
X136665000Y-76898061D01*
X136665000Y-77101939D01*
X136704774Y-77301898D01*
X136782795Y-77490256D01*
X136896063Y-77659774D01*
X137040226Y-77803937D01*
X137209744Y-77917205D01*
X137398102Y-77995226D01*
X137598061Y-78035000D01*
X137801939Y-78035000D01*
X138001898Y-77995226D01*
X138147295Y-77935000D01*
X138274230Y-77935000D01*
X138230147Y-78041426D01*
X138175000Y-78318665D01*
X138175000Y-78601335D01*
X138230147Y-78878574D01*
X138338320Y-79139727D01*
X138495363Y-79374759D01*
X138695241Y-79574637D01*
X138927759Y-79730000D01*
X138695241Y-79885363D01*
X138495363Y-80085241D01*
X138338320Y-80320273D01*
X138230147Y-80581426D01*
X138175000Y-80858665D01*
X138175000Y-81141335D01*
X138230147Y-81418574D01*
X138338320Y-81679727D01*
X138495363Y-81914759D01*
X138695241Y-82114637D01*
X138927759Y-82270000D01*
X138695241Y-82425363D01*
X138495363Y-82625241D01*
X138338320Y-82860273D01*
X138230147Y-83121426D01*
X138175000Y-83398665D01*
X138175000Y-83681335D01*
X138230147Y-83958574D01*
X138338320Y-84219727D01*
X138495363Y-84454759D01*
X138695241Y-84654637D01*
X138927759Y-84810000D01*
X138695241Y-84965363D01*
X138495363Y-85165241D01*
X138338320Y-85400273D01*
X138230147Y-85661426D01*
X138175000Y-85938665D01*
X138175000Y-86221335D01*
X138230147Y-86498574D01*
X138338320Y-86759727D01*
X138495363Y-86994759D01*
X138695241Y-87194637D01*
X138927759Y-87350000D01*
X138695241Y-87505363D01*
X138495363Y-87705241D01*
X138338320Y-87940273D01*
X138230147Y-88201426D01*
X138175000Y-88478665D01*
X138175000Y-88761335D01*
X138230147Y-89038574D01*
X138338320Y-89299727D01*
X138495363Y-89534759D01*
X138695241Y-89734637D01*
X138927759Y-89890000D01*
X138695241Y-90045363D01*
X138495363Y-90245241D01*
X138338320Y-90480273D01*
X138230147Y-90741426D01*
X138175000Y-91018665D01*
X138175000Y-91301335D01*
X138230147Y-91578574D01*
X138338320Y-91839727D01*
X138495363Y-92074759D01*
X138695241Y-92274637D01*
X138927759Y-92430000D01*
X138695241Y-92585363D01*
X138495363Y-92785241D01*
X138338320Y-93020273D01*
X138230147Y-93281426D01*
X138175000Y-93558665D01*
X138175000Y-93841335D01*
X138230147Y-94118574D01*
X138338320Y-94379727D01*
X138495363Y-94614759D01*
X138695241Y-94814637D01*
X138930273Y-94971680D01*
X139191426Y-95079853D01*
X139468665Y-95135000D01*
X139751335Y-95135000D01*
X140028574Y-95079853D01*
X140289727Y-94971680D01*
X140524759Y-94814637D01*
X140724637Y-94614759D01*
X140880000Y-94382241D01*
X141035363Y-94614759D01*
X141235241Y-94814637D01*
X141470273Y-94971680D01*
X141731426Y-95079853D01*
X142008665Y-95135000D01*
X142291335Y-95135000D01*
X142568574Y-95079853D01*
X142829727Y-94971680D01*
X143064759Y-94814637D01*
X143264637Y-94614759D01*
X143420000Y-94382241D01*
X143575363Y-94614759D01*
X143775241Y-94814637D01*
X144010273Y-94971680D01*
X144271426Y-95079853D01*
X144548665Y-95135000D01*
X144831335Y-95135000D01*
X145108574Y-95079853D01*
X145369727Y-94971680D01*
X145604759Y-94814637D01*
X145804637Y-94614759D01*
X145960915Y-94380872D01*
X145993329Y-94441514D01*
X146237298Y-94513097D01*
X147050395Y-93700000D01*
X146237298Y-92886903D01*
X145993329Y-92958486D01*
X145962806Y-93022992D01*
X145961680Y-93020273D01*
X145804637Y-92785241D01*
X145604759Y-92585363D01*
X145369727Y-92428320D01*
X145108574Y-92320147D01*
X144831335Y-92265000D01*
X144548665Y-92265000D01*
X144271426Y-92320147D01*
X144010273Y-92428320D01*
X143775241Y-92585363D01*
X143575363Y-92785241D01*
X143420000Y-93017759D01*
X143264637Y-92785241D01*
X143064759Y-92585363D01*
X142829727Y-92428320D01*
X142568574Y-92320147D01*
X142291335Y-92265000D01*
X142008665Y-92265000D01*
X141731426Y-92320147D01*
X141470273Y-92428320D01*
X141235241Y-92585363D01*
X141035363Y-92785241D01*
X140880000Y-93017759D01*
X140724637Y-92785241D01*
X140524759Y-92585363D01*
X140292241Y-92430000D01*
X140524759Y-92274637D01*
X140724637Y-92074759D01*
X140881680Y-91839727D01*
X140989853Y-91578574D01*
X141045000Y-91301335D01*
X141045000Y-91018665D01*
X140989853Y-90741426D01*
X140881680Y-90480273D01*
X140724637Y-90245241D01*
X140524759Y-90045363D01*
X140292241Y-89890000D01*
X140524759Y-89734637D01*
X140724637Y-89534759D01*
X140881680Y-89299727D01*
X140989853Y-89038574D01*
X141045000Y-88761335D01*
X141045000Y-88478665D01*
X140989853Y-88201426D01*
X140881680Y-87940273D01*
X140724637Y-87705241D01*
X140524759Y-87505363D01*
X140292241Y-87350000D01*
X140524759Y-87194637D01*
X140724637Y-86994759D01*
X140881680Y-86759727D01*
X140989853Y-86498574D01*
X141045000Y-86221335D01*
X141045000Y-85938665D01*
X140989853Y-85661426D01*
X140881680Y-85400273D01*
X140724637Y-85165241D01*
X140524759Y-84965363D01*
X140292241Y-84810000D01*
X140524759Y-84654637D01*
X140724637Y-84454759D01*
X140881680Y-84219727D01*
X140989853Y-83958574D01*
X141045000Y-83681335D01*
X141045000Y-83398665D01*
X140989853Y-83121426D01*
X140881680Y-82860273D01*
X140724637Y-82625241D01*
X140524759Y-82425363D01*
X140292241Y-82270000D01*
X140524759Y-82114637D01*
X140724637Y-81914759D01*
X140881680Y-81679727D01*
X140989853Y-81418574D01*
X141045000Y-81141335D01*
X141045000Y-80858665D01*
X140989853Y-80581426D01*
X140881680Y-80320273D01*
X140724637Y-80085241D01*
X140524759Y-79885363D01*
X140292241Y-79730000D01*
X140524759Y-79574637D01*
X140724637Y-79374759D01*
X140881680Y-79139727D01*
X140989853Y-78878574D01*
X141045000Y-78601335D01*
X141045000Y-78318665D01*
X140989853Y-78041426D01*
X140945770Y-77935000D01*
X142760199Y-77935000D01*
X150265000Y-85439802D01*
X150265000Y-85501939D01*
X150304774Y-85701898D01*
X150382795Y-85890256D01*
X150496063Y-86059774D01*
X150640226Y-86203937D01*
X150809744Y-86317205D01*
X150942856Y-86372342D01*
X147988998Y-89326201D01*
X147960000Y-89349999D01*
X147936202Y-89378997D01*
X147936201Y-89378998D01*
X147865026Y-89465724D01*
X147794454Y-89597754D01*
X147764180Y-89697558D01*
X147752933Y-89734637D01*
X147750998Y-89741015D01*
X147736324Y-89890000D01*
X147740001Y-89927332D01*
X147740001Y-92353784D01*
X147716004Y-92342429D01*
X147441816Y-92273700D01*
X147159488Y-92259783D01*
X146879870Y-92301213D01*
X146613708Y-92396397D01*
X146488486Y-92463329D01*
X146416903Y-92707298D01*
X147230000Y-93520395D01*
X147244143Y-93506253D01*
X147423748Y-93685858D01*
X147409605Y-93700000D01*
X147423748Y-93714143D01*
X147244143Y-93893748D01*
X147230000Y-93879605D01*
X146416903Y-94692702D01*
X146488486Y-94936671D01*
X146743996Y-95057571D01*
X147018184Y-95126300D01*
X147300512Y-95140217D01*
X147580130Y-95098787D01*
X147740000Y-95041615D01*
X147740000Y-97185197D01*
X142460199Y-102465000D01*
X142398061Y-102465000D01*
X142198102Y-102504774D01*
X142009744Y-102582795D01*
X141840226Y-102696063D01*
X141696063Y-102840226D01*
X141582795Y-103009744D01*
X141504774Y-103198102D01*
X141465000Y-103398061D01*
X141465000Y-103601939D01*
X141504774Y-103801898D01*
X141582795Y-103990256D01*
X141696063Y-104159774D01*
X141840226Y-104303937D01*
X142009744Y-104417205D01*
X142198102Y-104495226D01*
X142398061Y-104535000D01*
X142601939Y-104535000D01*
X142801898Y-104495226D01*
X142990256Y-104417205D01*
X143159774Y-104303937D01*
X143303937Y-104159774D01*
X143417205Y-103990256D01*
X143495226Y-103801898D01*
X143535000Y-103601939D01*
X143535000Y-103539801D01*
X149011009Y-98063794D01*
X149040001Y-98040001D01*
X149063795Y-98011008D01*
X149063799Y-98011004D01*
X149134973Y-97924277D01*
X149134974Y-97924276D01*
X149205546Y-97792247D01*
X149249003Y-97648986D01*
X149260000Y-97537333D01*
X149260000Y-97537324D01*
X149263676Y-97500001D01*
X149260000Y-97462678D01*
X149260000Y-95041983D01*
X149351426Y-95079853D01*
X149628665Y-95135000D01*
X149911335Y-95135000D01*
X150188574Y-95079853D01*
X150449727Y-94971680D01*
X150684759Y-94814637D01*
X150884637Y-94614759D01*
X151040000Y-94382241D01*
X151195363Y-94614759D01*
X151395241Y-94814637D01*
X151630273Y-94971680D01*
X151891426Y-95079853D01*
X152168665Y-95135000D01*
X152451335Y-95135000D01*
X152728574Y-95079853D01*
X152840000Y-95033699D01*
X152840000Y-97335198D01*
X147710199Y-102465000D01*
X147648061Y-102465000D01*
X147448102Y-102504774D01*
X147259744Y-102582795D01*
X147090226Y-102696063D01*
X146946063Y-102840226D01*
X146832795Y-103009744D01*
X146754774Y-103198102D01*
X146715000Y-103398061D01*
X146715000Y-103601939D01*
X146754774Y-103801898D01*
X146832795Y-103990256D01*
X146946063Y-104159774D01*
X147090226Y-104303937D01*
X147259744Y-104417205D01*
X147448102Y-104495226D01*
X147648061Y-104535000D01*
X147851939Y-104535000D01*
X148051898Y-104495226D01*
X148240256Y-104417205D01*
X148409774Y-104303937D01*
X148553937Y-104159774D01*
X148667205Y-103990256D01*
X148745226Y-103801898D01*
X148785000Y-103601939D01*
X148785000Y-103539801D01*
X153346136Y-98978665D01*
X162595000Y-98978665D01*
X162595000Y-99261335D01*
X162650147Y-99538574D01*
X162758320Y-99799727D01*
X162915363Y-100034759D01*
X163115241Y-100234637D01*
X163347759Y-100390000D01*
X163115241Y-100545363D01*
X162915363Y-100745241D01*
X162758320Y-100980273D01*
X162650147Y-101241426D01*
X162595000Y-101518665D01*
X162595000Y-101801335D01*
X162650147Y-102078574D01*
X162758320Y-102339727D01*
X162915363Y-102574759D01*
X163115241Y-102774637D01*
X163347759Y-102930000D01*
X163115241Y-103085363D01*
X162915363Y-103285241D01*
X162758320Y-103520273D01*
X162650147Y-103781426D01*
X162595000Y-104058665D01*
X162595000Y-104341335D01*
X162650147Y-104618574D01*
X162758320Y-104879727D01*
X162915363Y-105114759D01*
X163115241Y-105314637D01*
X163350273Y-105471680D01*
X163611426Y-105579853D01*
X163888665Y-105635000D01*
X164171335Y-105635000D01*
X164448574Y-105579853D01*
X164709727Y-105471680D01*
X164944759Y-105314637D01*
X165144637Y-105114759D01*
X165301680Y-104879727D01*
X165409853Y-104618574D01*
X165465000Y-104341335D01*
X165465000Y-104058665D01*
X165409853Y-103781426D01*
X165301680Y-103520273D01*
X165144637Y-103285241D01*
X164944759Y-103085363D01*
X164712241Y-102930000D01*
X164944759Y-102774637D01*
X165144637Y-102574759D01*
X165301680Y-102339727D01*
X165409853Y-102078574D01*
X165465000Y-101801335D01*
X165465000Y-101518665D01*
X165409853Y-101241426D01*
X165301680Y-100980273D01*
X165144637Y-100745241D01*
X164944759Y-100545363D01*
X164712241Y-100390000D01*
X164944759Y-100234637D01*
X165144637Y-100034759D01*
X165301680Y-99799727D01*
X165409853Y-99538574D01*
X165465000Y-99261335D01*
X165465000Y-98978665D01*
X165409853Y-98701426D01*
X165301680Y-98440273D01*
X165144637Y-98205241D01*
X164944759Y-98005363D01*
X164710872Y-97849085D01*
X164771514Y-97816671D01*
X164843097Y-97572702D01*
X164030000Y-96759605D01*
X163216903Y-97572702D01*
X163288486Y-97816671D01*
X163352992Y-97847194D01*
X163350273Y-97848320D01*
X163115241Y-98005363D01*
X162915363Y-98205241D01*
X162758320Y-98440273D01*
X162650147Y-98701426D01*
X162595000Y-98978665D01*
X153346136Y-98978665D01*
X154111004Y-98213798D01*
X154140001Y-98190001D01*
X154234974Y-98074276D01*
X154305546Y-97942247D01*
X154349003Y-97798986D01*
X154360000Y-97687333D01*
X154360000Y-97687324D01*
X154363676Y-97650001D01*
X154360000Y-97612678D01*
X154360000Y-96650512D01*
X162589783Y-96650512D01*
X162631213Y-96930130D01*
X162726397Y-97196292D01*
X162793329Y-97321514D01*
X163037298Y-97393097D01*
X163850395Y-96580000D01*
X164209605Y-96580000D01*
X165022702Y-97393097D01*
X165266671Y-97321514D01*
X165387571Y-97066004D01*
X165456300Y-96791816D01*
X165470217Y-96509488D01*
X165428787Y-96229870D01*
X165333603Y-95963708D01*
X165266671Y-95838486D01*
X165022702Y-95766903D01*
X164209605Y-96580000D01*
X163850395Y-96580000D01*
X163037298Y-95766903D01*
X162793329Y-95838486D01*
X162672429Y-96093996D01*
X162603700Y-96368184D01*
X162589783Y-96650512D01*
X154360000Y-96650512D01*
X154360000Y-95050267D01*
X154431426Y-95079853D01*
X154708665Y-95135000D01*
X154991335Y-95135000D01*
X155268574Y-95079853D01*
X155529727Y-94971680D01*
X155764759Y-94814637D01*
X155964637Y-94614759D01*
X156121680Y-94379727D01*
X156229853Y-94118574D01*
X156285000Y-93841335D01*
X156285000Y-93558665D01*
X156229853Y-93281426D01*
X156121680Y-93020273D01*
X155964637Y-92785241D01*
X155764759Y-92585363D01*
X155532241Y-92430000D01*
X155764759Y-92274637D01*
X155964637Y-92074759D01*
X156121680Y-91839727D01*
X156229853Y-91578574D01*
X156273596Y-91358665D01*
X162595000Y-91358665D01*
X162595000Y-91641335D01*
X162650147Y-91918574D01*
X162758320Y-92179727D01*
X162915363Y-92414759D01*
X163115241Y-92614637D01*
X163347759Y-92770000D01*
X163115241Y-92925363D01*
X162915363Y-93125241D01*
X162758320Y-93360273D01*
X162650147Y-93621426D01*
X162595000Y-93898665D01*
X162595000Y-94181335D01*
X162650147Y-94458574D01*
X162758320Y-94719727D01*
X162915363Y-94954759D01*
X163115241Y-95154637D01*
X163349128Y-95310915D01*
X163288486Y-95343329D01*
X163216903Y-95587298D01*
X164030000Y-96400395D01*
X164843097Y-95587298D01*
X164771514Y-95343329D01*
X164707008Y-95312806D01*
X164709727Y-95311680D01*
X164944759Y-95154637D01*
X165144637Y-94954759D01*
X165301680Y-94719727D01*
X165409853Y-94458574D01*
X165465000Y-94181335D01*
X165465000Y-93898665D01*
X165409853Y-93621426D01*
X165301680Y-93360273D01*
X165144637Y-93125241D01*
X164944759Y-92925363D01*
X164712241Y-92770000D01*
X164944759Y-92614637D01*
X165144637Y-92414759D01*
X165301680Y-92179727D01*
X165409853Y-91918574D01*
X165465000Y-91641335D01*
X165465000Y-91358665D01*
X175295000Y-91358665D01*
X175295000Y-91641335D01*
X175350147Y-91918574D01*
X175458320Y-92179727D01*
X175615363Y-92414759D01*
X175815241Y-92614637D01*
X176047759Y-92770000D01*
X175815241Y-92925363D01*
X175615363Y-93125241D01*
X175458320Y-93360273D01*
X175350147Y-93621426D01*
X175295000Y-93898665D01*
X175295000Y-94181335D01*
X175350147Y-94458574D01*
X175458320Y-94719727D01*
X175615363Y-94954759D01*
X175815241Y-95154637D01*
X176047759Y-95310000D01*
X175815241Y-95465363D01*
X175615363Y-95665241D01*
X175458320Y-95900273D01*
X175350147Y-96161426D01*
X175295000Y-96438665D01*
X175295000Y-96721335D01*
X175350147Y-96998574D01*
X175458320Y-97259727D01*
X175615363Y-97494759D01*
X175815241Y-97694637D01*
X176047759Y-97850000D01*
X175815241Y-98005363D01*
X175615363Y-98205241D01*
X175458320Y-98440273D01*
X175350147Y-98701426D01*
X175295000Y-98978665D01*
X175295000Y-99261335D01*
X175350147Y-99538574D01*
X175458320Y-99799727D01*
X175615363Y-100034759D01*
X175815241Y-100234637D01*
X176047759Y-100390000D01*
X175815241Y-100545363D01*
X175615363Y-100745241D01*
X175458320Y-100980273D01*
X175350147Y-101241426D01*
X175295000Y-101518665D01*
X175295000Y-101801335D01*
X175350147Y-102078574D01*
X175458320Y-102339727D01*
X175615363Y-102574759D01*
X175815241Y-102774637D01*
X176047759Y-102930000D01*
X175815241Y-103085363D01*
X175615363Y-103285241D01*
X175458320Y-103520273D01*
X175350147Y-103781426D01*
X175295000Y-104058665D01*
X175295000Y-104341335D01*
X175350147Y-104618574D01*
X175458320Y-104879727D01*
X175615363Y-105114759D01*
X175815241Y-105314637D01*
X176050273Y-105471680D01*
X176311426Y-105579853D01*
X176588665Y-105635000D01*
X176871335Y-105635000D01*
X177148574Y-105579853D01*
X177409727Y-105471680D01*
X177644759Y-105314637D01*
X177844637Y-105114759D01*
X178001680Y-104879727D01*
X178109853Y-104618574D01*
X178165000Y-104341335D01*
X178165000Y-104058665D01*
X178109853Y-103781426D01*
X178001680Y-103520273D01*
X177844637Y-103285241D01*
X177644759Y-103085363D01*
X177412241Y-102930000D01*
X177644759Y-102774637D01*
X177844637Y-102574759D01*
X178001680Y-102339727D01*
X178109853Y-102078574D01*
X178165000Y-101801335D01*
X178165000Y-101518665D01*
X178109853Y-101241426D01*
X178001680Y-100980273D01*
X177844637Y-100745241D01*
X177644759Y-100545363D01*
X177412241Y-100390000D01*
X177644759Y-100234637D01*
X177844637Y-100034759D01*
X178001680Y-99799727D01*
X178109853Y-99538574D01*
X178165000Y-99261335D01*
X178165000Y-98978665D01*
X178109853Y-98701426D01*
X178001680Y-98440273D01*
X177844637Y-98205241D01*
X177644759Y-98005363D01*
X177412241Y-97850000D01*
X177644759Y-97694637D01*
X177844637Y-97494759D01*
X178001680Y-97259727D01*
X178109853Y-96998574D01*
X178165000Y-96721335D01*
X178165000Y-96438665D01*
X178109853Y-96161426D01*
X178001680Y-95900273D01*
X177844637Y-95665241D01*
X177644759Y-95465363D01*
X177412241Y-95310000D01*
X177644759Y-95154637D01*
X177844637Y-94954759D01*
X178001680Y-94719727D01*
X178109853Y-94458574D01*
X178165000Y-94181335D01*
X178165000Y-93898665D01*
X178109853Y-93621426D01*
X178001680Y-93360273D01*
X177844637Y-93125241D01*
X177644759Y-92925363D01*
X177412241Y-92770000D01*
X177644759Y-92614637D01*
X177844637Y-92414759D01*
X178001680Y-92179727D01*
X178109853Y-91918574D01*
X178165000Y-91641335D01*
X178165000Y-91358665D01*
X178109853Y-91081426D01*
X178001680Y-90820273D01*
X177844637Y-90585241D01*
X177644759Y-90385363D01*
X177409727Y-90228320D01*
X177148574Y-90120147D01*
X176871335Y-90065000D01*
X176588665Y-90065000D01*
X176311426Y-90120147D01*
X176050273Y-90228320D01*
X175815241Y-90385363D01*
X175615363Y-90585241D01*
X175458320Y-90820273D01*
X175350147Y-91081426D01*
X175295000Y-91358665D01*
X165465000Y-91358665D01*
X165409853Y-91081426D01*
X165301680Y-90820273D01*
X165144637Y-90585241D01*
X164944759Y-90385363D01*
X164709727Y-90228320D01*
X164448574Y-90120147D01*
X164171335Y-90065000D01*
X163888665Y-90065000D01*
X163611426Y-90120147D01*
X163350273Y-90228320D01*
X163115241Y-90385363D01*
X162915363Y-90585241D01*
X162758320Y-90820273D01*
X162650147Y-91081426D01*
X162595000Y-91358665D01*
X156273596Y-91358665D01*
X156285000Y-91301335D01*
X156285000Y-91018665D01*
X156229853Y-90741426D01*
X156121680Y-90480273D01*
X155964637Y-90245241D01*
X155764759Y-90045363D01*
X155532241Y-89890000D01*
X155764759Y-89734637D01*
X155964637Y-89534759D01*
X156121680Y-89299727D01*
X156229853Y-89038574D01*
X156285000Y-88761335D01*
X156285000Y-88478665D01*
X156229853Y-88201426D01*
X156121680Y-87940273D01*
X155964637Y-87705241D01*
X155764759Y-87505363D01*
X155532241Y-87350000D01*
X155764759Y-87194637D01*
X155964637Y-86994759D01*
X156121680Y-86759727D01*
X156229853Y-86498574D01*
X156285000Y-86221335D01*
X156285000Y-85938665D01*
X156229853Y-85661426D01*
X156121680Y-85400273D01*
X155964637Y-85165241D01*
X155764759Y-84965363D01*
X155532241Y-84810000D01*
X155764759Y-84654637D01*
X155964637Y-84454759D01*
X156121680Y-84219727D01*
X156229853Y-83958574D01*
X156285000Y-83681335D01*
X156285000Y-83398665D01*
X156229853Y-83121426D01*
X156121680Y-82860273D01*
X155964637Y-82625241D01*
X155764759Y-82425363D01*
X155532241Y-82270000D01*
X155764759Y-82114637D01*
X155964637Y-81914759D01*
X156121680Y-81679727D01*
X156229853Y-81418574D01*
X156285000Y-81141335D01*
X156285000Y-80858665D01*
X156229853Y-80581426D01*
X156121680Y-80320273D01*
X155964637Y-80085241D01*
X155764759Y-79885363D01*
X155532241Y-79730000D01*
X155764759Y-79574637D01*
X155964637Y-79374759D01*
X156121680Y-79139727D01*
X156229853Y-78878574D01*
X156285000Y-78601335D01*
X156285000Y-78318665D01*
X156229853Y-78041426D01*
X156121680Y-77780273D01*
X155964637Y-77545241D01*
X155764759Y-77345363D01*
X155532241Y-77190000D01*
X155764759Y-77034637D01*
X155964637Y-76834759D01*
X156121680Y-76599727D01*
X156229853Y-76338574D01*
X156285000Y-76061335D01*
X156285000Y-75778665D01*
X156229853Y-75501426D01*
X156121680Y-75240273D01*
X155964637Y-75005241D01*
X155764759Y-74805363D01*
X155532241Y-74650000D01*
X155764759Y-74494637D01*
X155964637Y-74294759D01*
X156121680Y-74059727D01*
X156229853Y-73798574D01*
X156285000Y-73521335D01*
X156285000Y-73238665D01*
X156229853Y-72961426D01*
X156121680Y-72700273D01*
X155964637Y-72465241D01*
X155764759Y-72265363D01*
X155532241Y-72110000D01*
X155764759Y-71954637D01*
X155964637Y-71754759D01*
X156121680Y-71519727D01*
X156229853Y-71258574D01*
X156285000Y-70981335D01*
X156285000Y-70698665D01*
X156229853Y-70421426D01*
X156121680Y-70160273D01*
X155964637Y-69925241D01*
X155764759Y-69725363D01*
X155532241Y-69570000D01*
X155764759Y-69414637D01*
X155899396Y-69280000D01*
X166631928Y-69280000D01*
X166644188Y-69404482D01*
X166680498Y-69524180D01*
X166739463Y-69634494D01*
X166818815Y-69731185D01*
X166915506Y-69810537D01*
X167025820Y-69869502D01*
X167145518Y-69905812D01*
X167270000Y-69918072D01*
X168484250Y-69915000D01*
X168643000Y-69756250D01*
X168643000Y-67907000D01*
X168897000Y-67907000D01*
X168897000Y-69756250D01*
X169055750Y-69915000D01*
X170270000Y-69918072D01*
X170394482Y-69905812D01*
X170514180Y-69869502D01*
X170624494Y-69810537D01*
X170721185Y-69731185D01*
X170800537Y-69634494D01*
X170859502Y-69524180D01*
X170895812Y-69404482D01*
X170908072Y-69280000D01*
X170905000Y-68065750D01*
X170746250Y-67907000D01*
X168897000Y-67907000D01*
X168643000Y-67907000D01*
X166793750Y-67907000D01*
X166635000Y-68065750D01*
X166631928Y-69280000D01*
X155899396Y-69280000D01*
X155964637Y-69214759D01*
X156121680Y-68979727D01*
X156229853Y-68718574D01*
X156285000Y-68441335D01*
X156285000Y-68158665D01*
X156229853Y-67881426D01*
X156121680Y-67620273D01*
X155964637Y-67385241D01*
X155764759Y-67185363D01*
X155532241Y-67030000D01*
X155764759Y-66874637D01*
X155964637Y-66674759D01*
X156121680Y-66439727D01*
X156187841Y-66280000D01*
X166631928Y-66280000D01*
X166635000Y-67494250D01*
X166793750Y-67653000D01*
X168643000Y-67653000D01*
X168643000Y-65803750D01*
X168897000Y-65803750D01*
X168897000Y-67653000D01*
X170746250Y-67653000D01*
X170905000Y-67494250D01*
X170908072Y-66280000D01*
X170895812Y-66155518D01*
X170859502Y-66035820D01*
X170800537Y-65925506D01*
X170721185Y-65828815D01*
X170624494Y-65749463D01*
X170514180Y-65690498D01*
X170394482Y-65654188D01*
X170270000Y-65641928D01*
X169055750Y-65645000D01*
X168897000Y-65803750D01*
X168643000Y-65803750D01*
X168484250Y-65645000D01*
X167270000Y-65641928D01*
X167145518Y-65654188D01*
X167025820Y-65690498D01*
X166915506Y-65749463D01*
X166818815Y-65828815D01*
X166739463Y-65925506D01*
X166680498Y-66035820D01*
X166644188Y-66155518D01*
X166631928Y-66280000D01*
X156187841Y-66280000D01*
X156229853Y-66178574D01*
X156285000Y-65901335D01*
X156285000Y-65618665D01*
X156229853Y-65341426D01*
X156121680Y-65080273D01*
X155964637Y-64845241D01*
X155764759Y-64645363D01*
X155530872Y-64489085D01*
X155591514Y-64456671D01*
X155663097Y-64212702D01*
X154850000Y-63399605D01*
X154036903Y-64212702D01*
X154108486Y-64456671D01*
X154172992Y-64487194D01*
X154170273Y-64488320D01*
X153935241Y-64645363D01*
X153735363Y-64845241D01*
X153578320Y-65080273D01*
X153470147Y-65341426D01*
X153415000Y-65618665D01*
X153415000Y-65901335D01*
X153470147Y-66178574D01*
X153578320Y-66439727D01*
X153735363Y-66674759D01*
X153935241Y-66874637D01*
X154167759Y-67030000D01*
X153935241Y-67185363D01*
X153735363Y-67385241D01*
X153580000Y-67617759D01*
X153424637Y-67385241D01*
X153224759Y-67185363D01*
X152989727Y-67028320D01*
X152728574Y-66920147D01*
X152451335Y-66865000D01*
X152168665Y-66865000D01*
X151891426Y-66920147D01*
X151630273Y-67028320D01*
X151395241Y-67185363D01*
X151195363Y-67385241D01*
X151038320Y-67620273D01*
X150930147Y-67881426D01*
X150875000Y-68158665D01*
X150875000Y-68441335D01*
X150930147Y-68718574D01*
X151038320Y-68979727D01*
X151195363Y-69214759D01*
X151395241Y-69414637D01*
X151627759Y-69570000D01*
X151395241Y-69725363D01*
X151195363Y-69925241D01*
X151038320Y-70160273D01*
X150930147Y-70421426D01*
X150875000Y-70698665D01*
X150875000Y-70981335D01*
X150930147Y-71258574D01*
X151038320Y-71519727D01*
X151195363Y-71754759D01*
X151395241Y-71954637D01*
X151627759Y-72110000D01*
X151395241Y-72265363D01*
X151195363Y-72465241D01*
X151038320Y-72700273D01*
X150930147Y-72961426D01*
X150875000Y-73238665D01*
X150875000Y-73521335D01*
X150930147Y-73798574D01*
X151038320Y-74059727D01*
X151195363Y-74294759D01*
X151395241Y-74494637D01*
X151630273Y-74651680D01*
X151891426Y-74759853D01*
X152168665Y-74815000D01*
X152451335Y-74815000D01*
X152728574Y-74759853D01*
X152989727Y-74651680D01*
X153224759Y-74494637D01*
X153424637Y-74294759D01*
X153580000Y-74062241D01*
X153735363Y-74294759D01*
X153935241Y-74494637D01*
X154167759Y-74650000D01*
X153935241Y-74805363D01*
X153735363Y-75005241D01*
X153578320Y-75240273D01*
X153470147Y-75501426D01*
X153415000Y-75778665D01*
X153415000Y-76061335D01*
X153470147Y-76338574D01*
X153578320Y-76599727D01*
X153735363Y-76834759D01*
X153935241Y-77034637D01*
X154167759Y-77190000D01*
X153935241Y-77345363D01*
X153735363Y-77545241D01*
X153578320Y-77780273D01*
X153470147Y-78041426D01*
X153415000Y-78318665D01*
X153415000Y-78601335D01*
X153470147Y-78878574D01*
X153578320Y-79139727D01*
X153735363Y-79374759D01*
X153935241Y-79574637D01*
X154167759Y-79730000D01*
X153935241Y-79885363D01*
X153735363Y-80085241D01*
X153578320Y-80320273D01*
X153470147Y-80581426D01*
X153415000Y-80858665D01*
X153415000Y-81141335D01*
X153470147Y-81418574D01*
X153578320Y-81679727D01*
X153735363Y-81914759D01*
X153935241Y-82114637D01*
X154167759Y-82270000D01*
X153935241Y-82425363D01*
X153735363Y-82625241D01*
X153578320Y-82860273D01*
X153470147Y-83121426D01*
X153415000Y-83398665D01*
X153415000Y-83681335D01*
X153451312Y-83863886D01*
X152272342Y-85042856D01*
X152217205Y-84909744D01*
X152103937Y-84740226D01*
X151959774Y-84596063D01*
X151790256Y-84482795D01*
X151601898Y-84404774D01*
X151401939Y-84365000D01*
X151339802Y-84365000D01*
X143638804Y-76664003D01*
X143615001Y-76634999D01*
X143499276Y-76540026D01*
X143367247Y-76469454D01*
X143223986Y-76425997D01*
X143112333Y-76415000D01*
X143112322Y-76415000D01*
X143075000Y-76411324D01*
X143037678Y-76415000D01*
X140958196Y-76415000D01*
X140989853Y-76338574D01*
X141045000Y-76061335D01*
X141045000Y-75778665D01*
X140989853Y-75501426D01*
X140881680Y-75240273D01*
X140724637Y-75005241D01*
X140524759Y-74805363D01*
X140292241Y-74650000D01*
X140524759Y-74494637D01*
X140724637Y-74294759D01*
X140881680Y-74059727D01*
X140989853Y-73798574D01*
X141045000Y-73521335D01*
X141045000Y-73238665D01*
X140989853Y-72961426D01*
X140881680Y-72700273D01*
X140724637Y-72465241D01*
X140524759Y-72265363D01*
X140292241Y-72110000D01*
X140524759Y-71954637D01*
X140724637Y-71754759D01*
X140881680Y-71519727D01*
X140989853Y-71258574D01*
X141045000Y-70981335D01*
X141045000Y-70698665D01*
X141042062Y-70683891D01*
X145645000Y-70683891D01*
X145645000Y-70996109D01*
X145705911Y-71302327D01*
X145825391Y-71590779D01*
X145998850Y-71850379D01*
X146219621Y-72071150D01*
X146479221Y-72244609D01*
X146767673Y-72364089D01*
X147073891Y-72425000D01*
X147386109Y-72425000D01*
X147692327Y-72364089D01*
X147980779Y-72244609D01*
X148240379Y-72071150D01*
X148461150Y-71850379D01*
X148634609Y-71590779D01*
X148754089Y-71302327D01*
X148815000Y-70996109D01*
X148815000Y-70683891D01*
X148754089Y-70377673D01*
X148634609Y-70089221D01*
X148461150Y-69829621D01*
X148240379Y-69608850D01*
X147980779Y-69435391D01*
X147692327Y-69315911D01*
X147386109Y-69255000D01*
X147073891Y-69255000D01*
X146767673Y-69315911D01*
X146479221Y-69435391D01*
X146219621Y-69608850D01*
X145998850Y-69829621D01*
X145825391Y-70089221D01*
X145705911Y-70377673D01*
X145645000Y-70683891D01*
X141042062Y-70683891D01*
X140989853Y-70421426D01*
X140881680Y-70160273D01*
X140724637Y-69925241D01*
X140524759Y-69725363D01*
X140292241Y-69570000D01*
X140524759Y-69414637D01*
X140724637Y-69214759D01*
X140881680Y-68979727D01*
X140989853Y-68718574D01*
X141045000Y-68441335D01*
X141045000Y-68158665D01*
X140989853Y-67881426D01*
X140881680Y-67620273D01*
X140724637Y-67385241D01*
X140524759Y-67185363D01*
X140292241Y-67030000D01*
X140524759Y-66874637D01*
X140525505Y-66873891D01*
X145645000Y-66873891D01*
X145645000Y-67186109D01*
X145705911Y-67492327D01*
X145825391Y-67780779D01*
X145998850Y-68040379D01*
X146219621Y-68261150D01*
X146479221Y-68434609D01*
X146767673Y-68554089D01*
X147073891Y-68615000D01*
X147386109Y-68615000D01*
X147692327Y-68554089D01*
X147980779Y-68434609D01*
X148240379Y-68261150D01*
X148461150Y-68040379D01*
X148634609Y-67780779D01*
X148754089Y-67492327D01*
X148815000Y-67186109D01*
X148815000Y-66873891D01*
X148754089Y-66567673D01*
X148634609Y-66279221D01*
X148461150Y-66019621D01*
X148240379Y-65798850D01*
X147980779Y-65625391D01*
X147692327Y-65505911D01*
X147386109Y-65445000D01*
X147073891Y-65445000D01*
X146767673Y-65505911D01*
X146479221Y-65625391D01*
X146219621Y-65798850D01*
X145998850Y-66019621D01*
X145825391Y-66279221D01*
X145705911Y-66567673D01*
X145645000Y-66873891D01*
X140525505Y-66873891D01*
X140724637Y-66674759D01*
X140881680Y-66439727D01*
X140989853Y-66178574D01*
X141045000Y-65901335D01*
X141045000Y-65618665D01*
X140989853Y-65341426D01*
X140881680Y-65080273D01*
X140724637Y-64845241D01*
X140524759Y-64645363D01*
X140292241Y-64490000D01*
X140524759Y-64334637D01*
X140724637Y-64134759D01*
X140881680Y-63899727D01*
X140989853Y-63638574D01*
X141045000Y-63361335D01*
X141045000Y-63078665D01*
X150875000Y-63078665D01*
X150875000Y-63361335D01*
X150930147Y-63638574D01*
X151038320Y-63899727D01*
X151195363Y-64134759D01*
X151395241Y-64334637D01*
X151630273Y-64491680D01*
X151891426Y-64599853D01*
X152168665Y-64655000D01*
X152451335Y-64655000D01*
X152728574Y-64599853D01*
X152989727Y-64491680D01*
X153224759Y-64334637D01*
X153424637Y-64134759D01*
X153580915Y-63900872D01*
X153613329Y-63961514D01*
X153857298Y-64033097D01*
X154670395Y-63220000D01*
X155029605Y-63220000D01*
X155842702Y-64033097D01*
X156086671Y-63961514D01*
X156207571Y-63706004D01*
X156276300Y-63431816D01*
X156290217Y-63149488D01*
X156248787Y-62869870D01*
X156153603Y-62603708D01*
X156092677Y-62489721D01*
X166635000Y-62489721D01*
X166635000Y-62910279D01*
X166717047Y-63322756D01*
X166877988Y-63711302D01*
X167111637Y-64060983D01*
X167409017Y-64358363D01*
X167758698Y-64592012D01*
X168147244Y-64752953D01*
X168559721Y-64835000D01*
X168980279Y-64835000D01*
X169392756Y-64752953D01*
X169781302Y-64592012D01*
X170130983Y-64358363D01*
X170428363Y-64060983D01*
X170662012Y-63711302D01*
X170822953Y-63322756D01*
X170905000Y-62910279D01*
X170905000Y-62489721D01*
X170822953Y-62077244D01*
X170662012Y-61688698D01*
X170428363Y-61339017D01*
X170130983Y-61041637D01*
X169781302Y-60807988D01*
X169392756Y-60647047D01*
X168980279Y-60565000D01*
X168559721Y-60565000D01*
X168147244Y-60647047D01*
X167758698Y-60807988D01*
X167409017Y-61041637D01*
X167111637Y-61339017D01*
X166877988Y-61688698D01*
X166717047Y-62077244D01*
X166635000Y-62489721D01*
X156092677Y-62489721D01*
X156086671Y-62478486D01*
X155842702Y-62406903D01*
X155029605Y-63220000D01*
X154670395Y-63220000D01*
X153857298Y-62406903D01*
X153613329Y-62478486D01*
X153582806Y-62542992D01*
X153581680Y-62540273D01*
X153424637Y-62305241D01*
X153224759Y-62105363D01*
X152989727Y-61948320D01*
X152728574Y-61840147D01*
X152451335Y-61785000D01*
X152168665Y-61785000D01*
X151891426Y-61840147D01*
X151630273Y-61948320D01*
X151395241Y-62105363D01*
X151195363Y-62305241D01*
X151038320Y-62540273D01*
X150930147Y-62801426D01*
X150875000Y-63078665D01*
X141045000Y-63078665D01*
X140989853Y-62801426D01*
X140881680Y-62540273D01*
X140724637Y-62305241D01*
X140526039Y-62106643D01*
X140534482Y-62105812D01*
X140654180Y-62069502D01*
X140764494Y-62010537D01*
X140861185Y-61931185D01*
X140940537Y-61834494D01*
X140999502Y-61724180D01*
X141035812Y-61604482D01*
X141048072Y-61480000D01*
X141045000Y-60965750D01*
X140886250Y-60807000D01*
X139737000Y-60807000D01*
X139737000Y-60827000D01*
X139483000Y-60827000D01*
X139483000Y-60807000D01*
X138333750Y-60807000D01*
X138175000Y-60965750D01*
X138171928Y-61480000D01*
X138184188Y-61604482D01*
X138220498Y-61724180D01*
X138279463Y-61834494D01*
X138358815Y-61931185D01*
X138455506Y-62010537D01*
X138565820Y-62069502D01*
X138685518Y-62105812D01*
X138693961Y-62106643D01*
X138495363Y-62305241D01*
X138338320Y-62540273D01*
X138230147Y-62801426D01*
X138175000Y-63078665D01*
X138175000Y-63361335D01*
X138230147Y-63638574D01*
X138338320Y-63899727D01*
X138495363Y-64134759D01*
X138695241Y-64334637D01*
X138927759Y-64490000D01*
X138695241Y-64645363D01*
X138495363Y-64845241D01*
X138338320Y-65080273D01*
X138230147Y-65341426D01*
X138175000Y-65618665D01*
X138175000Y-65901335D01*
X138230147Y-66178574D01*
X138338320Y-66439727D01*
X138495363Y-66674759D01*
X138695241Y-66874637D01*
X138927759Y-67030000D01*
X138695241Y-67185363D01*
X138495363Y-67385241D01*
X138338320Y-67620273D01*
X138230147Y-67881426D01*
X138175000Y-68158665D01*
X138175000Y-68441335D01*
X138230147Y-68718574D01*
X138338320Y-68979727D01*
X138495363Y-69214759D01*
X138695241Y-69414637D01*
X138927759Y-69570000D01*
X138695241Y-69725363D01*
X138495363Y-69925241D01*
X138338320Y-70160273D01*
X138230147Y-70421426D01*
X138175000Y-70698665D01*
X138175000Y-70981335D01*
X138230147Y-71258574D01*
X138338320Y-71519727D01*
X138495363Y-71754759D01*
X138695241Y-71954637D01*
X138927759Y-72110000D01*
X138695241Y-72265363D01*
X138495363Y-72465241D01*
X138338320Y-72700273D01*
X138230147Y-72961426D01*
X138175000Y-73238665D01*
X138175000Y-73521335D01*
X138230147Y-73798574D01*
X138338320Y-74059727D01*
X138495363Y-74294759D01*
X138695241Y-74494637D01*
X138927759Y-74650000D01*
X138695241Y-74805363D01*
X138495363Y-75005241D01*
X138338320Y-75240273D01*
X138230147Y-75501426D01*
X138175000Y-75778665D01*
X138175000Y-76061335D01*
X138178282Y-76077835D01*
X138001898Y-76004774D01*
X137801939Y-75965000D01*
X137598061Y-75965000D01*
X137398102Y-76004774D01*
X137209744Y-76082795D01*
X137040226Y-76196063D01*
X136896063Y-76340226D01*
X136782795Y-76509744D01*
X136704774Y-76698102D01*
X136665000Y-76898061D01*
X109127000Y-76898061D01*
X109127000Y-66914000D01*
X118987928Y-66914000D01*
X119000188Y-67038482D01*
X119036498Y-67158180D01*
X119095463Y-67268494D01*
X119174815Y-67365185D01*
X119271506Y-67444537D01*
X119381820Y-67503502D01*
X119501518Y-67539812D01*
X119626000Y-67552072D01*
X120044250Y-67549000D01*
X120203000Y-67390250D01*
X120203000Y-66337000D01*
X119149750Y-66337000D01*
X118991000Y-66495750D01*
X118987928Y-66914000D01*
X109127000Y-66914000D01*
X109127000Y-65506000D01*
X118987928Y-65506000D01*
X118991000Y-65924250D01*
X119149750Y-66083000D01*
X120203000Y-66083000D01*
X120203000Y-65029750D01*
X120457000Y-65029750D01*
X120457000Y-66083000D01*
X120477000Y-66083000D01*
X120477000Y-66337000D01*
X120457000Y-66337000D01*
X120457000Y-67390250D01*
X120615750Y-67549000D01*
X121034000Y-67552072D01*
X121158482Y-67539812D01*
X121278180Y-67503502D01*
X121388494Y-67444537D01*
X121485185Y-67365185D01*
X121564537Y-67268494D01*
X121600000Y-67202148D01*
X121635463Y-67268494D01*
X121714815Y-67365185D01*
X121811506Y-67444537D01*
X121921820Y-67503502D01*
X122041518Y-67539812D01*
X122166000Y-67552072D01*
X123574000Y-67552072D01*
X123698482Y-67539812D01*
X123818180Y-67503502D01*
X123928494Y-67444537D01*
X124025185Y-67365185D01*
X124104537Y-67268494D01*
X124140000Y-67202148D01*
X124175463Y-67268494D01*
X124254815Y-67365185D01*
X124351506Y-67444537D01*
X124461820Y-67503502D01*
X124581518Y-67539812D01*
X124706000Y-67552072D01*
X126114000Y-67552072D01*
X126238482Y-67539812D01*
X126358180Y-67503502D01*
X126468494Y-67444537D01*
X126565185Y-67365185D01*
X126644537Y-67268494D01*
X126680000Y-67202148D01*
X126715463Y-67268494D01*
X126794815Y-67365185D01*
X126891506Y-67444537D01*
X127001820Y-67503502D01*
X127121518Y-67539812D01*
X127246000Y-67552072D01*
X128654000Y-67552072D01*
X128778482Y-67539812D01*
X128898180Y-67503502D01*
X129008494Y-67444537D01*
X129105185Y-67365185D01*
X129184537Y-67268494D01*
X129243502Y-67158180D01*
X129279812Y-67038482D01*
X129292072Y-66914000D01*
X129292072Y-65506000D01*
X129279812Y-65381518D01*
X129243502Y-65261820D01*
X129184537Y-65151506D01*
X129105185Y-65054815D01*
X129008494Y-64975463D01*
X128898180Y-64916498D01*
X128778482Y-64880188D01*
X128654000Y-64867928D01*
X127246000Y-64867928D01*
X127121518Y-64880188D01*
X127001820Y-64916498D01*
X126891506Y-64975463D01*
X126794815Y-65054815D01*
X126715463Y-65151506D01*
X126680000Y-65217852D01*
X126644537Y-65151506D01*
X126565185Y-65054815D01*
X126468494Y-64975463D01*
X126358180Y-64916498D01*
X126238482Y-64880188D01*
X126114000Y-64867928D01*
X124706000Y-64867928D01*
X124581518Y-64880188D01*
X124461820Y-64916498D01*
X124351506Y-64975463D01*
X124254815Y-65054815D01*
X124175463Y-65151506D01*
X124140000Y-65217852D01*
X124104537Y-65151506D01*
X124025185Y-65054815D01*
X123928494Y-64975463D01*
X123818180Y-64916498D01*
X123698482Y-64880188D01*
X123574000Y-64867928D01*
X122166000Y-64867928D01*
X122041518Y-64880188D01*
X121921820Y-64916498D01*
X121811506Y-64975463D01*
X121714815Y-65054815D01*
X121635463Y-65151506D01*
X121600000Y-65217852D01*
X121564537Y-65151506D01*
X121485185Y-65054815D01*
X121388494Y-64975463D01*
X121278180Y-64916498D01*
X121158482Y-64880188D01*
X121034000Y-64867928D01*
X120615750Y-64871000D01*
X120457000Y-65029750D01*
X120203000Y-65029750D01*
X120044250Y-64871000D01*
X119626000Y-64867928D01*
X119501518Y-64880188D01*
X119381820Y-64916498D01*
X119271506Y-64975463D01*
X119174815Y-65054815D01*
X119095463Y-65151506D01*
X119036498Y-65261820D01*
X119000188Y-65381518D01*
X118987928Y-65506000D01*
X109127000Y-65506000D01*
X109127000Y-59880000D01*
X138171928Y-59880000D01*
X138175000Y-60394250D01*
X138333750Y-60553000D01*
X139483000Y-60553000D01*
X139483000Y-59403750D01*
X139737000Y-59403750D01*
X139737000Y-60553000D01*
X140886250Y-60553000D01*
X140900585Y-60538665D01*
X153415000Y-60538665D01*
X153415000Y-60821335D01*
X153470147Y-61098574D01*
X153578320Y-61359727D01*
X153735363Y-61594759D01*
X153935241Y-61794637D01*
X154169128Y-61950915D01*
X154108486Y-61983329D01*
X154036903Y-62227298D01*
X154850000Y-63040395D01*
X155663097Y-62227298D01*
X155591514Y-61983329D01*
X155527008Y-61952806D01*
X155529727Y-61951680D01*
X155764759Y-61794637D01*
X155964637Y-61594759D01*
X156121680Y-61359727D01*
X156229853Y-61098574D01*
X156285000Y-60821335D01*
X156285000Y-60538665D01*
X156229853Y-60261426D01*
X156121680Y-60000273D01*
X155964637Y-59765241D01*
X155764759Y-59565363D01*
X155529727Y-59408320D01*
X155268574Y-59300147D01*
X154991335Y-59245000D01*
X154708665Y-59245000D01*
X154431426Y-59300147D01*
X154170273Y-59408320D01*
X153935241Y-59565363D01*
X153735363Y-59765241D01*
X153578320Y-60000273D01*
X153470147Y-60261426D01*
X153415000Y-60538665D01*
X140900585Y-60538665D01*
X141045000Y-60394250D01*
X141048072Y-59880000D01*
X141035812Y-59755518D01*
X140999502Y-59635820D01*
X140940537Y-59525506D01*
X140861185Y-59428815D01*
X140764494Y-59349463D01*
X140654180Y-59290498D01*
X140534482Y-59254188D01*
X140410000Y-59241928D01*
X139895750Y-59245000D01*
X139737000Y-59403750D01*
X139483000Y-59403750D01*
X139324250Y-59245000D01*
X138810000Y-59241928D01*
X138685518Y-59254188D01*
X138565820Y-59290498D01*
X138455506Y-59349463D01*
X138358815Y-59428815D01*
X138279463Y-59525506D01*
X138220498Y-59635820D01*
X138184188Y-59755518D01*
X138171928Y-59880000D01*
X109127000Y-59880000D01*
X109127000Y-54732413D01*
X110083146Y-54732413D01*
X110083146Y-55267587D01*
X110187553Y-55792477D01*
X110392355Y-56286913D01*
X110689681Y-56731894D01*
X111068106Y-57110319D01*
X111513087Y-57407645D01*
X112007523Y-57612447D01*
X112532413Y-57716854D01*
X113067587Y-57716854D01*
X113592477Y-57612447D01*
X114086913Y-57407645D01*
X114531894Y-57110319D01*
X114910319Y-56731894D01*
X115207645Y-56286913D01*
X115412447Y-55792477D01*
X115516854Y-55267587D01*
X115516854Y-54732413D01*
X179283146Y-54732413D01*
X179283146Y-55267587D01*
X179387553Y-55792477D01*
X179592355Y-56286913D01*
X179889681Y-56731894D01*
X180268106Y-57110319D01*
X180713087Y-57407645D01*
X181207523Y-57612447D01*
X181732413Y-57716854D01*
X182267587Y-57716854D01*
X182792477Y-57612447D01*
X183286913Y-57407645D01*
X183731894Y-57110319D01*
X184110319Y-56731894D01*
X184407645Y-56286913D01*
X184612447Y-55792477D01*
X184716854Y-55267587D01*
X184716854Y-54732413D01*
X184612447Y-54207523D01*
X184407645Y-53713087D01*
X184110319Y-53268106D01*
X183731894Y-52889681D01*
X183286913Y-52592355D01*
X182792477Y-52387553D01*
X182267587Y-52283146D01*
X181732413Y-52283146D01*
X181207523Y-52387553D01*
X180713087Y-52592355D01*
X180268106Y-52889681D01*
X179889681Y-53268106D01*
X179592355Y-53713087D01*
X179387553Y-54207523D01*
X179283146Y-54732413D01*
X115516854Y-54732413D01*
X115412447Y-54207523D01*
X115207645Y-53713087D01*
X114910319Y-53268106D01*
X114531894Y-52889681D01*
X114086913Y-52592355D01*
X113592477Y-52387553D01*
X113067587Y-52283146D01*
X112532413Y-52283146D01*
X112007523Y-52387553D01*
X111513087Y-52592355D01*
X111068106Y-52889681D01*
X110689681Y-53268106D01*
X110392355Y-53713087D01*
X110187553Y-54207523D01*
X110083146Y-54732413D01*
X109127000Y-54732413D01*
X109127000Y-52127000D01*
X184873000Y-52127000D01*
X184873000Y-137873000D01*
%TA.AperFunction,Conductor*%
D24*
G36*
X184873000Y-137873000D02*
G01*
X109127000Y-137873000D01*
X109127000Y-133032413D01*
X110283146Y-133032413D01*
X110283146Y-133567587D01*
X110387553Y-134092477D01*
X110592355Y-134586913D01*
X110889681Y-135031894D01*
X111268106Y-135410319D01*
X111713087Y-135707645D01*
X112207523Y-135912447D01*
X112732413Y-136016854D01*
X113267587Y-136016854D01*
X113792477Y-135912447D01*
X114286913Y-135707645D01*
X114731894Y-135410319D01*
X115110319Y-135031894D01*
X115407645Y-134586913D01*
X115612447Y-134092477D01*
X115716854Y-133567587D01*
X115716854Y-133032413D01*
X179283146Y-133032413D01*
X179283146Y-133567587D01*
X179387553Y-134092477D01*
X179592355Y-134586913D01*
X179889681Y-135031894D01*
X180268106Y-135410319D01*
X180713087Y-135707645D01*
X181207523Y-135912447D01*
X181732413Y-136016854D01*
X182267587Y-136016854D01*
X182792477Y-135912447D01*
X183286913Y-135707645D01*
X183731894Y-135410319D01*
X184110319Y-135031894D01*
X184407645Y-134586913D01*
X184612447Y-134092477D01*
X184716854Y-133567587D01*
X184716854Y-133032413D01*
X184612447Y-132507523D01*
X184407645Y-132013087D01*
X184110319Y-131568106D01*
X183731894Y-131189681D01*
X183286913Y-130892355D01*
X182792477Y-130687553D01*
X182267587Y-130583146D01*
X181732413Y-130583146D01*
X181207523Y-130687553D01*
X180713087Y-130892355D01*
X180268106Y-131189681D01*
X179889681Y-131568106D01*
X179592355Y-132013087D01*
X179387553Y-132507523D01*
X179283146Y-133032413D01*
X115716854Y-133032413D01*
X115612447Y-132507523D01*
X115407645Y-132013087D01*
X115110319Y-131568106D01*
X114731894Y-131189681D01*
X114286913Y-130892355D01*
X113792477Y-130687553D01*
X113267587Y-130583146D01*
X112732413Y-130583146D01*
X112207523Y-130687553D01*
X111713087Y-130892355D01*
X111268106Y-131189681D01*
X110889681Y-131568106D01*
X110592355Y-132013087D01*
X110387553Y-132507523D01*
X110283146Y-133032413D01*
X109127000Y-133032413D01*
X109127000Y-115320000D01*
X115881928Y-115320000D01*
X115881928Y-117720000D01*
X115894188Y-117844482D01*
X115930498Y-117964180D01*
X115989463Y-118074494D01*
X116068815Y-118171185D01*
X116165506Y-118250537D01*
X116275820Y-118309502D01*
X116395518Y-118345812D01*
X116520000Y-118358072D01*
X116937162Y-118358072D01*
X116850801Y-118393844D01*
X116550256Y-118594662D01*
X116294662Y-118850256D01*
X116093844Y-119150801D01*
X115955518Y-119484750D01*
X115885000Y-119839268D01*
X115885000Y-120200732D01*
X115955518Y-120555250D01*
X116093844Y-120889199D01*
X116294662Y-121189744D01*
X116550256Y-121445338D01*
X116850801Y-121646156D01*
X117184750Y-121784482D01*
X117539268Y-121855000D01*
X117900732Y-121855000D01*
X118255250Y-121784482D01*
X118589199Y-121646156D01*
X118889744Y-121445338D01*
X119145338Y-121189744D01*
X119346156Y-120889199D01*
X119391388Y-120780000D01*
X121792678Y-120780000D01*
X121830000Y-120783676D01*
X121867322Y-120780000D01*
X121867333Y-120780000D01*
X121978986Y-120769003D01*
X122122247Y-120725546D01*
X122254276Y-120654974D01*
X122370001Y-120560001D01*
X122393804Y-120530997D01*
X123626136Y-119298665D01*
X128125000Y-119298665D01*
X128125000Y-119581335D01*
X128180147Y-119858574D01*
X128288320Y-120119727D01*
X128445363Y-120354759D01*
X128645241Y-120554637D01*
X128880273Y-120711680D01*
X129141426Y-120819853D01*
X129418665Y-120875000D01*
X129701335Y-120875000D01*
X129978574Y-120819853D01*
X130239727Y-120711680D01*
X130474759Y-120554637D01*
X130674637Y-120354759D01*
X130831680Y-120119727D01*
X130939853Y-119858574D01*
X130995000Y-119581335D01*
X130995000Y-119348665D01*
X132965000Y-119348665D01*
X132965000Y-119631335D01*
X133020147Y-119908574D01*
X133128320Y-120169727D01*
X133285363Y-120404759D01*
X133485241Y-120604637D01*
X133720273Y-120761680D01*
X133981426Y-120869853D01*
X134258665Y-120925000D01*
X134541335Y-120925000D01*
X134818574Y-120869853D01*
X135079727Y-120761680D01*
X135314759Y-120604637D01*
X135353831Y-120565565D01*
X138874040Y-120565565D01*
X138941020Y-120805656D01*
X139190048Y-120922756D01*
X139457135Y-120989023D01*
X139732017Y-121001910D01*
X140004133Y-120960922D01*
X140263023Y-120867636D01*
X140378980Y-120805656D01*
X140445960Y-120565565D01*
X139660000Y-119779605D01*
X138874040Y-120565565D01*
X135353831Y-120565565D01*
X135514637Y-120404759D01*
X135671680Y-120169727D01*
X135779853Y-119908574D01*
X135826907Y-119672017D01*
X138258090Y-119672017D01*
X138299078Y-119944133D01*
X138392364Y-120203023D01*
X138454344Y-120318980D01*
X138694435Y-120385960D01*
X139480395Y-119600000D01*
X139839605Y-119600000D01*
X140625565Y-120385960D01*
X140865656Y-120318980D01*
X140929485Y-120183240D01*
X140961995Y-120261727D01*
X141114880Y-120490535D01*
X141309465Y-120685120D01*
X141538273Y-120838005D01*
X141792510Y-120943314D01*
X142062408Y-120997000D01*
X142337592Y-120997000D01*
X142607490Y-120943314D01*
X142861727Y-120838005D01*
X143090535Y-120685120D01*
X143285120Y-120490535D01*
X143438005Y-120261727D01*
X143470000Y-120184485D01*
X143501995Y-120261727D01*
X143654880Y-120490535D01*
X143849465Y-120685120D01*
X144078273Y-120838005D01*
X144332510Y-120943314D01*
X144602408Y-120997000D01*
X144877592Y-120997000D01*
X145147490Y-120943314D01*
X145401727Y-120838005D01*
X145630535Y-120685120D01*
X145825120Y-120490535D01*
X145978005Y-120261727D01*
X146010000Y-120184485D01*
X146041995Y-120261727D01*
X146194880Y-120490535D01*
X146389465Y-120685120D01*
X146618273Y-120838005D01*
X146872510Y-120943314D01*
X147142408Y-120997000D01*
X147417592Y-120997000D01*
X147687490Y-120943314D01*
X147941727Y-120838005D01*
X148170535Y-120685120D01*
X148365120Y-120490535D01*
X148518005Y-120261727D01*
X148550000Y-120184485D01*
X148581995Y-120261727D01*
X148734880Y-120490535D01*
X148929465Y-120685120D01*
X149158273Y-120838005D01*
X149412510Y-120943314D01*
X149682408Y-120997000D01*
X149957592Y-120997000D01*
X150227490Y-120943314D01*
X150481727Y-120838005D01*
X150710535Y-120685120D01*
X150905120Y-120490535D01*
X151058005Y-120261727D01*
X151090000Y-120184485D01*
X151121995Y-120261727D01*
X151274880Y-120490535D01*
X151469465Y-120685120D01*
X151698273Y-120838005D01*
X151952510Y-120943314D01*
X152222408Y-120997000D01*
X152497592Y-120997000D01*
X152767490Y-120943314D01*
X153021727Y-120838005D01*
X153250535Y-120685120D01*
X153445120Y-120490535D01*
X153598005Y-120261727D01*
X153630000Y-120184485D01*
X153661995Y-120261727D01*
X153814880Y-120490535D01*
X154009465Y-120685120D01*
X154238273Y-120838005D01*
X154492510Y-120943314D01*
X154762408Y-120997000D01*
X155037592Y-120997000D01*
X155307490Y-120943314D01*
X155561727Y-120838005D01*
X155790535Y-120685120D01*
X155985120Y-120490535D01*
X156138005Y-120261727D01*
X156243314Y-120007490D01*
X156297000Y-119737592D01*
X156297000Y-119462408D01*
X156243314Y-119192510D01*
X156138005Y-118938273D01*
X155985120Y-118709465D01*
X155790535Y-118514880D01*
X155561727Y-118361995D01*
X155307490Y-118256686D01*
X155037592Y-118203000D01*
X154762408Y-118203000D01*
X154492510Y-118256686D01*
X154238273Y-118361995D01*
X154009465Y-118514880D01*
X153814880Y-118709465D01*
X153661995Y-118938273D01*
X153630000Y-119015515D01*
X153598005Y-118938273D01*
X153445120Y-118709465D01*
X153250535Y-118514880D01*
X153021727Y-118361995D01*
X152767490Y-118256686D01*
X152497592Y-118203000D01*
X152222408Y-118203000D01*
X151952510Y-118256686D01*
X151698273Y-118361995D01*
X151469465Y-118514880D01*
X151274880Y-118709465D01*
X151121995Y-118938273D01*
X151090000Y-119015515D01*
X151058005Y-118938273D01*
X150905120Y-118709465D01*
X150710535Y-118514880D01*
X150481727Y-118361995D01*
X150227490Y-118256686D01*
X149957592Y-118203000D01*
X149682408Y-118203000D01*
X149412510Y-118256686D01*
X149158273Y-118361995D01*
X148929465Y-118514880D01*
X148734880Y-118709465D01*
X148581995Y-118938273D01*
X148550000Y-119015515D01*
X148518005Y-118938273D01*
X148365120Y-118709465D01*
X148170535Y-118514880D01*
X147941727Y-118361995D01*
X147687490Y-118256686D01*
X147417592Y-118203000D01*
X147142408Y-118203000D01*
X146872510Y-118256686D01*
X146618273Y-118361995D01*
X146389465Y-118514880D01*
X146194880Y-118709465D01*
X146041995Y-118938273D01*
X146010000Y-119015515D01*
X145978005Y-118938273D01*
X145825120Y-118709465D01*
X145630535Y-118514880D01*
X145401727Y-118361995D01*
X145147490Y-118256686D01*
X144877592Y-118203000D01*
X144602408Y-118203000D01*
X144332510Y-118256686D01*
X144078273Y-118361995D01*
X143849465Y-118514880D01*
X143654880Y-118709465D01*
X143501995Y-118938273D01*
X143470000Y-119015515D01*
X143438005Y-118938273D01*
X143285120Y-118709465D01*
X143090535Y-118514880D01*
X142861727Y-118361995D01*
X142607490Y-118256686D01*
X142337592Y-118203000D01*
X142062408Y-118203000D01*
X141792510Y-118256686D01*
X141538273Y-118361995D01*
X141309465Y-118514880D01*
X141114880Y-118709465D01*
X140961995Y-118938273D01*
X140932308Y-119009943D01*
X140927636Y-118996977D01*
X140865656Y-118881020D01*
X140625565Y-118814040D01*
X139839605Y-119600000D01*
X139480395Y-119600000D01*
X138694435Y-118814040D01*
X138454344Y-118881020D01*
X138337244Y-119130048D01*
X138270977Y-119397135D01*
X138258090Y-119672017D01*
X135826907Y-119672017D01*
X135835000Y-119631335D01*
X135835000Y-119348665D01*
X135779853Y-119071426D01*
X135671680Y-118810273D01*
X135554190Y-118634435D01*
X138874040Y-118634435D01*
X139660000Y-119420395D01*
X140445960Y-118634435D01*
X140378980Y-118394344D01*
X140129952Y-118277244D01*
X139862865Y-118210977D01*
X139587983Y-118198090D01*
X139315867Y-118239078D01*
X139056977Y-118332364D01*
X138941020Y-118394344D01*
X138874040Y-118634435D01*
X135554190Y-118634435D01*
X135514637Y-118575241D01*
X135314759Y-118375363D01*
X135079727Y-118218320D01*
X134818574Y-118110147D01*
X134541335Y-118055000D01*
X134258665Y-118055000D01*
X133981426Y-118110147D01*
X133720273Y-118218320D01*
X133485241Y-118375363D01*
X133285363Y-118575241D01*
X133128320Y-118810273D01*
X133020147Y-119071426D01*
X132965000Y-119348665D01*
X130995000Y-119348665D01*
X130995000Y-119298665D01*
X130939853Y-119021426D01*
X130831680Y-118760273D01*
X130674637Y-118525241D01*
X130474759Y-118325363D01*
X130239727Y-118168320D01*
X129978574Y-118060147D01*
X129701335Y-118005000D01*
X129418665Y-118005000D01*
X129141426Y-118060147D01*
X128880273Y-118168320D01*
X128645241Y-118325363D01*
X128445363Y-118525241D01*
X128288320Y-118760273D01*
X128180147Y-119021426D01*
X128125000Y-119298665D01*
X123626136Y-119298665D01*
X124411003Y-118513799D01*
X124440001Y-118490001D01*
X124518505Y-118394344D01*
X124534974Y-118374277D01*
X124605546Y-118242247D01*
X124617451Y-118203000D01*
X124649003Y-118098986D01*
X124660000Y-117987333D01*
X124660000Y-117987324D01*
X124663676Y-117950001D01*
X124660000Y-117912678D01*
X124660000Y-115131278D01*
X159980000Y-115131278D01*
X159980000Y-115428722D01*
X160038029Y-115720451D01*
X160151856Y-115995253D01*
X160317107Y-116242569D01*
X160527431Y-116452893D01*
X160774747Y-116618144D01*
X161049549Y-116731971D01*
X161341278Y-116790000D01*
X161638722Y-116790000D01*
X161930451Y-116731971D01*
X162205253Y-116618144D01*
X162452569Y-116452893D01*
X162662893Y-116242569D01*
X162760000Y-116097238D01*
X162857107Y-116242569D01*
X163067431Y-116452893D01*
X163314747Y-116618144D01*
X163589549Y-116731971D01*
X163881278Y-116790000D01*
X164178722Y-116790000D01*
X164470451Y-116731971D01*
X164745253Y-116618144D01*
X164992569Y-116452893D01*
X165202893Y-116242569D01*
X165300000Y-116097238D01*
X165397107Y-116242569D01*
X165607431Y-116452893D01*
X165854747Y-116618144D01*
X166129549Y-116731971D01*
X166421278Y-116790000D01*
X166718722Y-116790000D01*
X167010451Y-116731971D01*
X167285253Y-116618144D01*
X167532569Y-116452893D01*
X167742893Y-116242569D01*
X167840000Y-116097238D01*
X167937107Y-116242569D01*
X168147431Y-116452893D01*
X168394747Y-116618144D01*
X168669549Y-116731971D01*
X168961278Y-116790000D01*
X169258722Y-116790000D01*
X169550451Y-116731971D01*
X169825253Y-116618144D01*
X170072569Y-116452893D01*
X170199222Y-116326240D01*
X170783365Y-116326240D01*
X170864025Y-116577868D01*
X171132329Y-116706267D01*
X171420526Y-116779855D01*
X171717543Y-116795804D01*
X172011963Y-116753501D01*
X172292474Y-116654572D01*
X172435975Y-116577868D01*
X172516635Y-116326240D01*
X171650000Y-115459605D01*
X170783365Y-116326240D01*
X170199222Y-116326240D01*
X170282893Y-116242569D01*
X170392288Y-116078847D01*
X170603760Y-116146635D01*
X171470395Y-115280000D01*
X171829605Y-115280000D01*
X172696240Y-116146635D01*
X172907712Y-116078847D01*
X173017107Y-116242569D01*
X173227431Y-116452893D01*
X173474747Y-116618144D01*
X173749549Y-116731971D01*
X174041278Y-116790000D01*
X174338722Y-116790000D01*
X174630451Y-116731971D01*
X174905253Y-116618144D01*
X175152569Y-116452893D01*
X175362893Y-116242569D01*
X175460000Y-116097238D01*
X175557107Y-116242569D01*
X175767431Y-116452893D01*
X176014747Y-116618144D01*
X176289549Y-116731971D01*
X176581278Y-116790000D01*
X176878722Y-116790000D01*
X177170451Y-116731971D01*
X177445253Y-116618144D01*
X177692569Y-116452893D01*
X177902893Y-116242569D01*
X178068144Y-115995253D01*
X178181971Y-115720451D01*
X178240000Y-115428722D01*
X178240000Y-115131278D01*
X178181971Y-114839549D01*
X178068144Y-114564747D01*
X177902893Y-114317431D01*
X177692569Y-114107107D01*
X177445253Y-113941856D01*
X177170451Y-113828029D01*
X176878722Y-113770000D01*
X176581278Y-113770000D01*
X176289549Y-113828029D01*
X176014747Y-113941856D01*
X175767431Y-114107107D01*
X175557107Y-114317431D01*
X175460000Y-114462762D01*
X175362893Y-114317431D01*
X175152569Y-114107107D01*
X174905253Y-113941856D01*
X174630451Y-113828029D01*
X174338722Y-113770000D01*
X174041278Y-113770000D01*
X173749549Y-113828029D01*
X173474747Y-113941856D01*
X173227431Y-114107107D01*
X173017107Y-114317431D01*
X172907712Y-114481153D01*
X172696240Y-114413365D01*
X171829605Y-115280000D01*
X171470395Y-115280000D01*
X170603760Y-114413365D01*
X170392288Y-114481153D01*
X170282893Y-114317431D01*
X170199222Y-114233760D01*
X170783365Y-114233760D01*
X171650000Y-115100395D01*
X172516635Y-114233760D01*
X172435975Y-113982132D01*
X172167671Y-113853733D01*
X171879474Y-113780145D01*
X171582457Y-113764196D01*
X171288037Y-113806499D01*
X171007526Y-113905428D01*
X170864025Y-113982132D01*
X170783365Y-114233760D01*
X170199222Y-114233760D01*
X170072569Y-114107107D01*
X169825253Y-113941856D01*
X169550451Y-113828029D01*
X169258722Y-113770000D01*
X168961278Y-113770000D01*
X168669549Y-113828029D01*
X168394747Y-113941856D01*
X168147431Y-114107107D01*
X167937107Y-114317431D01*
X167840000Y-114462762D01*
X167742893Y-114317431D01*
X167532569Y-114107107D01*
X167285253Y-113941856D01*
X167010451Y-113828029D01*
X166718722Y-113770000D01*
X166421278Y-113770000D01*
X166129549Y-113828029D01*
X165854747Y-113941856D01*
X165607431Y-114107107D01*
X165397107Y-114317431D01*
X165300000Y-114462762D01*
X165202893Y-114317431D01*
X164992569Y-114107107D01*
X164745253Y-113941856D01*
X164470451Y-113828029D01*
X164178722Y-113770000D01*
X163881278Y-113770000D01*
X163589549Y-113828029D01*
X163314747Y-113941856D01*
X163067431Y-114107107D01*
X162857107Y-114317431D01*
X162760000Y-114462762D01*
X162662893Y-114317431D01*
X162452569Y-114107107D01*
X162205253Y-113941856D01*
X161930451Y-113828029D01*
X161638722Y-113770000D01*
X161341278Y-113770000D01*
X161049549Y-113828029D01*
X160774747Y-113941856D01*
X160527431Y-114107107D01*
X160317107Y-114317431D01*
X160151856Y-114564747D01*
X160038029Y-114839549D01*
X159980000Y-115131278D01*
X124660000Y-115131278D01*
X124660000Y-106903711D01*
X124703937Y-106859774D01*
X124817205Y-106690256D01*
X124855143Y-106598665D01*
X128125000Y-106598665D01*
X128125000Y-106881335D01*
X128180147Y-107158574D01*
X128288320Y-107419727D01*
X128445363Y-107654759D01*
X128645241Y-107854637D01*
X128880273Y-108011680D01*
X129141426Y-108119853D01*
X129418665Y-108175000D01*
X129701335Y-108175000D01*
X129978574Y-108119853D01*
X130239727Y-108011680D01*
X130474759Y-107854637D01*
X130674637Y-107654759D01*
X130831680Y-107419727D01*
X130939853Y-107158574D01*
X130995000Y-106881335D01*
X130995000Y-106648665D01*
X132965000Y-106648665D01*
X132965000Y-106931335D01*
X133020147Y-107208574D01*
X133128320Y-107469727D01*
X133285363Y-107704759D01*
X133485241Y-107904637D01*
X133720273Y-108061680D01*
X133981426Y-108169853D01*
X134258665Y-108225000D01*
X134541335Y-108225000D01*
X134818574Y-108169853D01*
X135079727Y-108061680D01*
X135314759Y-107904637D01*
X135514637Y-107704759D01*
X135671680Y-107469727D01*
X135779853Y-107208574D01*
X135835000Y-106931335D01*
X135835000Y-106648665D01*
X135779853Y-106371426D01*
X135671680Y-106110273D01*
X135514637Y-105875241D01*
X135314759Y-105675363D01*
X135079727Y-105518320D01*
X134818574Y-105410147D01*
X134541335Y-105355000D01*
X134258665Y-105355000D01*
X133981426Y-105410147D01*
X133720273Y-105518320D01*
X133485241Y-105675363D01*
X133285363Y-105875241D01*
X133128320Y-106110273D01*
X133020147Y-106371426D01*
X132965000Y-106648665D01*
X130995000Y-106648665D01*
X130995000Y-106598665D01*
X130939853Y-106321426D01*
X130831680Y-106060273D01*
X130674637Y-105825241D01*
X130474759Y-105625363D01*
X130239727Y-105468320D01*
X129978574Y-105360147D01*
X129701335Y-105305000D01*
X129418665Y-105305000D01*
X129141426Y-105360147D01*
X128880273Y-105468320D01*
X128645241Y-105625363D01*
X128445363Y-105825241D01*
X128288320Y-106060273D01*
X128180147Y-106321426D01*
X128125000Y-106598665D01*
X124855143Y-106598665D01*
X124895226Y-106501898D01*
X124935000Y-106301939D01*
X124935000Y-106098061D01*
X124895226Y-105898102D01*
X124817205Y-105709744D01*
X124703937Y-105540226D01*
X124559774Y-105396063D01*
X124390256Y-105282795D01*
X124201898Y-105204774D01*
X124001939Y-105165000D01*
X123798061Y-105165000D01*
X123598102Y-105204774D01*
X123409744Y-105282795D01*
X123240226Y-105396063D01*
X123096063Y-105540226D01*
X122982795Y-105709744D01*
X122904774Y-105898102D01*
X122865000Y-106098061D01*
X122865000Y-106301939D01*
X122904774Y-106501898D01*
X122982795Y-106690256D01*
X123096063Y-106859774D01*
X123140000Y-106903711D01*
X123140001Y-117635197D01*
X121515199Y-119260000D01*
X119391388Y-119260000D01*
X119346156Y-119150801D01*
X119145338Y-118850256D01*
X118889744Y-118594662D01*
X118589199Y-118393844D01*
X118502838Y-118358072D01*
X118920000Y-118358072D01*
X119044482Y-118345812D01*
X119164180Y-118309502D01*
X119274494Y-118250537D01*
X119371185Y-118171185D01*
X119450537Y-118074494D01*
X119509502Y-117964180D01*
X119545812Y-117844482D01*
X119558072Y-117720000D01*
X119558072Y-115320000D01*
X119545812Y-115195518D01*
X119509502Y-115075820D01*
X119450537Y-114965506D01*
X119371185Y-114868815D01*
X119274494Y-114789463D01*
X119164180Y-114730498D01*
X119044482Y-114694188D01*
X118920000Y-114681928D01*
X116520000Y-114681928D01*
X116395518Y-114694188D01*
X116275820Y-114730498D01*
X116165506Y-114789463D01*
X116068815Y-114868815D01*
X115989463Y-114965506D01*
X115930498Y-115075820D01*
X115894188Y-115195518D01*
X115881928Y-115320000D01*
X109127000Y-115320000D01*
X109127000Y-102660000D01*
X115811928Y-102660000D01*
X115811928Y-105060000D01*
X115824188Y-105184482D01*
X115860498Y-105304180D01*
X115919463Y-105414494D01*
X115998815Y-105511185D01*
X116095506Y-105590537D01*
X116205820Y-105649502D01*
X116325518Y-105685812D01*
X116450000Y-105698072D01*
X116867162Y-105698072D01*
X116780801Y-105733844D01*
X116480256Y-105934662D01*
X116224662Y-106190256D01*
X116023844Y-106490801D01*
X115885518Y-106824750D01*
X115815000Y-107179268D01*
X115815000Y-107540732D01*
X115885518Y-107895250D01*
X116023844Y-108229199D01*
X116224662Y-108529744D01*
X116480256Y-108785338D01*
X116780801Y-108986156D01*
X117114750Y-109124482D01*
X117469268Y-109195000D01*
X117830732Y-109195000D01*
X118185250Y-109124482D01*
X118519199Y-108986156D01*
X118819744Y-108785338D01*
X119075338Y-108529744D01*
X119276156Y-108229199D01*
X119414482Y-107895250D01*
X119485000Y-107540732D01*
X119485000Y-107179268D01*
X119481167Y-107160000D01*
X120062678Y-107160000D01*
X120100000Y-107163676D01*
X120137322Y-107160000D01*
X120137333Y-107160000D01*
X120248986Y-107149003D01*
X120392247Y-107105546D01*
X120524276Y-107034974D01*
X120640001Y-106940001D01*
X120663804Y-106910997D01*
X125739802Y-101835000D01*
X125801939Y-101835000D01*
X126001898Y-101795226D01*
X126190256Y-101717205D01*
X126359774Y-101603937D01*
X126503937Y-101459774D01*
X126617205Y-101290256D01*
X126695226Y-101101898D01*
X126735000Y-100901939D01*
X126735000Y-100698061D01*
X126695226Y-100498102D01*
X126617205Y-100309744D01*
X126503937Y-100140226D01*
X126359774Y-99996063D01*
X126190256Y-99882795D01*
X126001898Y-99804774D01*
X125801939Y-99765000D01*
X125598061Y-99765000D01*
X125398102Y-99804774D01*
X125209744Y-99882795D01*
X125040226Y-99996063D01*
X124896063Y-100140226D01*
X124782795Y-100309744D01*
X124704774Y-100498102D01*
X124665000Y-100698061D01*
X124665000Y-100760198D01*
X119785199Y-105640000D01*
X119111957Y-105640000D01*
X119204494Y-105590537D01*
X119301185Y-105511185D01*
X119380537Y-105414494D01*
X119439502Y-105304180D01*
X119475812Y-105184482D01*
X119488072Y-105060000D01*
X119488072Y-102660000D01*
X119475812Y-102535518D01*
X119439502Y-102415820D01*
X119380537Y-102305506D01*
X119301185Y-102208815D01*
X119204494Y-102129463D01*
X119094180Y-102070498D01*
X118974482Y-102034188D01*
X118850000Y-102021928D01*
X116450000Y-102021928D01*
X116325518Y-102034188D01*
X116205820Y-102070498D01*
X116095506Y-102129463D01*
X115998815Y-102208815D01*
X115919463Y-102305506D01*
X115860498Y-102415820D01*
X115824188Y-102535518D01*
X115811928Y-102660000D01*
X109127000Y-102660000D01*
X109127000Y-90906000D01*
X116447928Y-90906000D01*
X116447928Y-92314000D01*
X116460188Y-92438482D01*
X116496498Y-92558180D01*
X116555463Y-92668494D01*
X116634815Y-92765185D01*
X116731506Y-92844537D01*
X116841820Y-92903502D01*
X116961518Y-92939812D01*
X117086000Y-92952072D01*
X118494000Y-92952072D01*
X118618482Y-92939812D01*
X118738180Y-92903502D01*
X118848494Y-92844537D01*
X118945185Y-92765185D01*
X119024537Y-92668494D01*
X119060000Y-92602148D01*
X119095463Y-92668494D01*
X119174815Y-92765185D01*
X119271506Y-92844537D01*
X119381820Y-92903502D01*
X119501518Y-92939812D01*
X119626000Y-92952072D01*
X121034000Y-92952072D01*
X121158482Y-92939812D01*
X121278180Y-92903502D01*
X121388494Y-92844537D01*
X121485185Y-92765185D01*
X121564537Y-92668494D01*
X121600000Y-92602148D01*
X121635463Y-92668494D01*
X121714815Y-92765185D01*
X121811506Y-92844537D01*
X121921820Y-92903502D01*
X122041518Y-92939812D01*
X122166000Y-92952072D01*
X123574000Y-92952072D01*
X123698482Y-92939812D01*
X123818180Y-92903502D01*
X123928494Y-92844537D01*
X124025185Y-92765185D01*
X124104537Y-92668494D01*
X124140000Y-92602148D01*
X124175463Y-92668494D01*
X124254815Y-92765185D01*
X124351506Y-92844537D01*
X124461820Y-92903502D01*
X124581518Y-92939812D01*
X124706000Y-92952072D01*
X126114000Y-92952072D01*
X126238482Y-92939812D01*
X126358180Y-92903502D01*
X126468494Y-92844537D01*
X126565185Y-92765185D01*
X126644537Y-92668494D01*
X126680000Y-92602148D01*
X126715463Y-92668494D01*
X126794815Y-92765185D01*
X126891506Y-92844537D01*
X127001820Y-92903502D01*
X127121518Y-92939812D01*
X127246000Y-92952072D01*
X128654000Y-92952072D01*
X128778482Y-92939812D01*
X128898180Y-92903502D01*
X129008494Y-92844537D01*
X129105185Y-92765185D01*
X129184537Y-92668494D01*
X129220000Y-92602148D01*
X129255463Y-92668494D01*
X129334815Y-92765185D01*
X129431506Y-92844537D01*
X129541820Y-92903502D01*
X129661518Y-92939812D01*
X129786000Y-92952072D01*
X131194000Y-92952072D01*
X131318482Y-92939812D01*
X131438180Y-92903502D01*
X131548494Y-92844537D01*
X131645185Y-92765185D01*
X131724537Y-92668494D01*
X131783502Y-92558180D01*
X131819812Y-92438482D01*
X131832072Y-92314000D01*
X131832072Y-90906000D01*
X131819812Y-90781518D01*
X131783502Y-90661820D01*
X131724537Y-90551506D01*
X131645185Y-90454815D01*
X131548494Y-90375463D01*
X131438180Y-90316498D01*
X131318482Y-90280188D01*
X131194000Y-90267928D01*
X129786000Y-90267928D01*
X129661518Y-90280188D01*
X129541820Y-90316498D01*
X129431506Y-90375463D01*
X129334815Y-90454815D01*
X129255463Y-90551506D01*
X129220000Y-90617852D01*
X129184537Y-90551506D01*
X129105185Y-90454815D01*
X129008494Y-90375463D01*
X128898180Y-90316498D01*
X128778482Y-90280188D01*
X128654000Y-90267928D01*
X127246000Y-90267928D01*
X127121518Y-90280188D01*
X127001820Y-90316498D01*
X126891506Y-90375463D01*
X126794815Y-90454815D01*
X126715463Y-90551506D01*
X126680000Y-90617852D01*
X126644537Y-90551506D01*
X126565185Y-90454815D01*
X126468494Y-90375463D01*
X126358180Y-90316498D01*
X126238482Y-90280188D01*
X126114000Y-90267928D01*
X124706000Y-90267928D01*
X124581518Y-90280188D01*
X124461820Y-90316498D01*
X124351506Y-90375463D01*
X124254815Y-90454815D01*
X124175463Y-90551506D01*
X124140000Y-90617852D01*
X124104537Y-90551506D01*
X124025185Y-90454815D01*
X123928494Y-90375463D01*
X123818180Y-90316498D01*
X123698482Y-90280188D01*
X123574000Y-90267928D01*
X122166000Y-90267928D01*
X122041518Y-90280188D01*
X121921820Y-90316498D01*
X121811506Y-90375463D01*
X121714815Y-90454815D01*
X121635463Y-90551506D01*
X121600000Y-90617852D01*
X121564537Y-90551506D01*
X121485185Y-90454815D01*
X121388494Y-90375463D01*
X121278180Y-90316498D01*
X121158482Y-90280188D01*
X121034000Y-90267928D01*
X119626000Y-90267928D01*
X119501518Y-90280188D01*
X119381820Y-90316498D01*
X119271506Y-90375463D01*
X119174815Y-90454815D01*
X119095463Y-90551506D01*
X119060000Y-90617852D01*
X119024537Y-90551506D01*
X118945185Y-90454815D01*
X118848494Y-90375463D01*
X118738180Y-90316498D01*
X118618482Y-90280188D01*
X118494000Y-90267928D01*
X117086000Y-90267928D01*
X116961518Y-90280188D01*
X116841820Y-90316498D01*
X116731506Y-90375463D01*
X116634815Y-90454815D01*
X116555463Y-90551506D01*
X116496498Y-90661820D01*
X116460188Y-90781518D01*
X116447928Y-90906000D01*
X109127000Y-90906000D01*
X109127000Y-76898061D01*
X136665000Y-76898061D01*
X136665000Y-77101939D01*
X136704774Y-77301898D01*
X136782795Y-77490256D01*
X136896063Y-77659774D01*
X137040226Y-77803937D01*
X137209744Y-77917205D01*
X137398102Y-77995226D01*
X137598061Y-78035000D01*
X137801939Y-78035000D01*
X138001898Y-77995226D01*
X138147295Y-77935000D01*
X138274230Y-77935000D01*
X138230147Y-78041426D01*
X138175000Y-78318665D01*
X138175000Y-78601335D01*
X138230147Y-78878574D01*
X138338320Y-79139727D01*
X138495363Y-79374759D01*
X138695241Y-79574637D01*
X138927759Y-79730000D01*
X138695241Y-79885363D01*
X138495363Y-80085241D01*
X138338320Y-80320273D01*
X138230147Y-80581426D01*
X138175000Y-80858665D01*
X138175000Y-81141335D01*
X138230147Y-81418574D01*
X138338320Y-81679727D01*
X138495363Y-81914759D01*
X138695241Y-82114637D01*
X138927759Y-82270000D01*
X138695241Y-82425363D01*
X138495363Y-82625241D01*
X138338320Y-82860273D01*
X138230147Y-83121426D01*
X138175000Y-83398665D01*
X138175000Y-83681335D01*
X138230147Y-83958574D01*
X138338320Y-84219727D01*
X138495363Y-84454759D01*
X138695241Y-84654637D01*
X138927759Y-84810000D01*
X138695241Y-84965363D01*
X138495363Y-85165241D01*
X138338320Y-85400273D01*
X138230147Y-85661426D01*
X138175000Y-85938665D01*
X138175000Y-86221335D01*
X138230147Y-86498574D01*
X138338320Y-86759727D01*
X138495363Y-86994759D01*
X138695241Y-87194637D01*
X138927759Y-87350000D01*
X138695241Y-87505363D01*
X138495363Y-87705241D01*
X138338320Y-87940273D01*
X138230147Y-88201426D01*
X138175000Y-88478665D01*
X138175000Y-88761335D01*
X138230147Y-89038574D01*
X138338320Y-89299727D01*
X138495363Y-89534759D01*
X138695241Y-89734637D01*
X138927759Y-89890000D01*
X138695241Y-90045363D01*
X138495363Y-90245241D01*
X138338320Y-90480273D01*
X138230147Y-90741426D01*
X138175000Y-91018665D01*
X138175000Y-91301335D01*
X138230147Y-91578574D01*
X138338320Y-91839727D01*
X138495363Y-92074759D01*
X138695241Y-92274637D01*
X138927759Y-92430000D01*
X138695241Y-92585363D01*
X138495363Y-92785241D01*
X138338320Y-93020273D01*
X138230147Y-93281426D01*
X138175000Y-93558665D01*
X138175000Y-93841335D01*
X138230147Y-94118574D01*
X138338320Y-94379727D01*
X138495363Y-94614759D01*
X138695241Y-94814637D01*
X138930273Y-94971680D01*
X139191426Y-95079853D01*
X139468665Y-95135000D01*
X139751335Y-95135000D01*
X140028574Y-95079853D01*
X140289727Y-94971680D01*
X140524759Y-94814637D01*
X140724637Y-94614759D01*
X140880000Y-94382241D01*
X141035363Y-94614759D01*
X141235241Y-94814637D01*
X141470273Y-94971680D01*
X141731426Y-95079853D01*
X142008665Y-95135000D01*
X142291335Y-95135000D01*
X142568574Y-95079853D01*
X142829727Y-94971680D01*
X143064759Y-94814637D01*
X143264637Y-94614759D01*
X143420000Y-94382241D01*
X143575363Y-94614759D01*
X143775241Y-94814637D01*
X144010273Y-94971680D01*
X144271426Y-95079853D01*
X144548665Y-95135000D01*
X144831335Y-95135000D01*
X145108574Y-95079853D01*
X145369727Y-94971680D01*
X145604759Y-94814637D01*
X145804637Y-94614759D01*
X145960915Y-94380872D01*
X145993329Y-94441514D01*
X146237298Y-94513097D01*
X147050395Y-93700000D01*
X146237298Y-92886903D01*
X145993329Y-92958486D01*
X145962806Y-93022992D01*
X145961680Y-93020273D01*
X145804637Y-92785241D01*
X145604759Y-92585363D01*
X145369727Y-92428320D01*
X145108574Y-92320147D01*
X144831335Y-92265000D01*
X144548665Y-92265000D01*
X144271426Y-92320147D01*
X144010273Y-92428320D01*
X143775241Y-92585363D01*
X143575363Y-92785241D01*
X143420000Y-93017759D01*
X143264637Y-92785241D01*
X143064759Y-92585363D01*
X142829727Y-92428320D01*
X142568574Y-92320147D01*
X142291335Y-92265000D01*
X142008665Y-92265000D01*
X141731426Y-92320147D01*
X141470273Y-92428320D01*
X141235241Y-92585363D01*
X141035363Y-92785241D01*
X140880000Y-93017759D01*
X140724637Y-92785241D01*
X140524759Y-92585363D01*
X140292241Y-92430000D01*
X140524759Y-92274637D01*
X140724637Y-92074759D01*
X140881680Y-91839727D01*
X140989853Y-91578574D01*
X141045000Y-91301335D01*
X141045000Y-91018665D01*
X140989853Y-90741426D01*
X140881680Y-90480273D01*
X140724637Y-90245241D01*
X140524759Y-90045363D01*
X140292241Y-89890000D01*
X140524759Y-89734637D01*
X140724637Y-89534759D01*
X140881680Y-89299727D01*
X140989853Y-89038574D01*
X141045000Y-88761335D01*
X141045000Y-88478665D01*
X140989853Y-88201426D01*
X140881680Y-87940273D01*
X140724637Y-87705241D01*
X140524759Y-87505363D01*
X140292241Y-87350000D01*
X140524759Y-87194637D01*
X140724637Y-86994759D01*
X140881680Y-86759727D01*
X140989853Y-86498574D01*
X141045000Y-86221335D01*
X141045000Y-85938665D01*
X140989853Y-85661426D01*
X140881680Y-85400273D01*
X140724637Y-85165241D01*
X140524759Y-84965363D01*
X140292241Y-84810000D01*
X140524759Y-84654637D01*
X140724637Y-84454759D01*
X140881680Y-84219727D01*
X140989853Y-83958574D01*
X141045000Y-83681335D01*
X141045000Y-83398665D01*
X140989853Y-83121426D01*
X140881680Y-82860273D01*
X140724637Y-82625241D01*
X140524759Y-82425363D01*
X140292241Y-82270000D01*
X140524759Y-82114637D01*
X140724637Y-81914759D01*
X140881680Y-81679727D01*
X140989853Y-81418574D01*
X141045000Y-81141335D01*
X141045000Y-80858665D01*
X140989853Y-80581426D01*
X140881680Y-80320273D01*
X140724637Y-80085241D01*
X140524759Y-79885363D01*
X140292241Y-79730000D01*
X140524759Y-79574637D01*
X140724637Y-79374759D01*
X140881680Y-79139727D01*
X140989853Y-78878574D01*
X141045000Y-78601335D01*
X141045000Y-78318665D01*
X140989853Y-78041426D01*
X140945770Y-77935000D01*
X142760199Y-77935000D01*
X150265000Y-85439802D01*
X150265000Y-85501939D01*
X150304774Y-85701898D01*
X150382795Y-85890256D01*
X150496063Y-86059774D01*
X150640226Y-86203937D01*
X150809744Y-86317205D01*
X150942856Y-86372342D01*
X147988998Y-89326201D01*
X147960000Y-89349999D01*
X147936202Y-89378997D01*
X147936201Y-89378998D01*
X147865026Y-89465724D01*
X147794454Y-89597754D01*
X147764180Y-89697558D01*
X147752933Y-89734637D01*
X147750998Y-89741015D01*
X147736324Y-89890000D01*
X147740001Y-89927332D01*
X147740001Y-92353784D01*
X147716004Y-92342429D01*
X147441816Y-92273700D01*
X147159488Y-92259783D01*
X146879870Y-92301213D01*
X146613708Y-92396397D01*
X146488486Y-92463329D01*
X146416903Y-92707298D01*
X147230000Y-93520395D01*
X147244143Y-93506253D01*
X147423748Y-93685858D01*
X147409605Y-93700000D01*
X147423748Y-93714143D01*
X147244143Y-93893748D01*
X147230000Y-93879605D01*
X146416903Y-94692702D01*
X146488486Y-94936671D01*
X146743996Y-95057571D01*
X147018184Y-95126300D01*
X147300512Y-95140217D01*
X147580130Y-95098787D01*
X147740000Y-95041615D01*
X147740000Y-97185197D01*
X142460199Y-102465000D01*
X142398061Y-102465000D01*
X142198102Y-102504774D01*
X142009744Y-102582795D01*
X141840226Y-102696063D01*
X141696063Y-102840226D01*
X141582795Y-103009744D01*
X141504774Y-103198102D01*
X141465000Y-103398061D01*
X141465000Y-103601939D01*
X141504774Y-103801898D01*
X141582795Y-103990256D01*
X141696063Y-104159774D01*
X141840226Y-104303937D01*
X142009744Y-104417205D01*
X142198102Y-104495226D01*
X142398061Y-104535000D01*
X142601939Y-104535000D01*
X142801898Y-104495226D01*
X142990256Y-104417205D01*
X143159774Y-104303937D01*
X143303937Y-104159774D01*
X143417205Y-103990256D01*
X143495226Y-103801898D01*
X143535000Y-103601939D01*
X143535000Y-103539801D01*
X149011009Y-98063794D01*
X149040001Y-98040001D01*
X149063795Y-98011008D01*
X149063799Y-98011004D01*
X149134973Y-97924277D01*
X149134974Y-97924276D01*
X149205546Y-97792247D01*
X149249003Y-97648986D01*
X149260000Y-97537333D01*
X149260000Y-97537324D01*
X149263676Y-97500001D01*
X149260000Y-97462678D01*
X149260000Y-95041983D01*
X149351426Y-95079853D01*
X149628665Y-95135000D01*
X149911335Y-95135000D01*
X150188574Y-95079853D01*
X150449727Y-94971680D01*
X150684759Y-94814637D01*
X150884637Y-94614759D01*
X151040000Y-94382241D01*
X151195363Y-94614759D01*
X151395241Y-94814637D01*
X151630273Y-94971680D01*
X151891426Y-95079853D01*
X152168665Y-95135000D01*
X152451335Y-95135000D01*
X152728574Y-95079853D01*
X152840000Y-95033699D01*
X152840000Y-97335198D01*
X147710199Y-102465000D01*
X147648061Y-102465000D01*
X147448102Y-102504774D01*
X147259744Y-102582795D01*
X147090226Y-102696063D01*
X146946063Y-102840226D01*
X146832795Y-103009744D01*
X146754774Y-103198102D01*
X146715000Y-103398061D01*
X146715000Y-103601939D01*
X146754774Y-103801898D01*
X146832795Y-103990256D01*
X146946063Y-104159774D01*
X147090226Y-104303937D01*
X147259744Y-104417205D01*
X147448102Y-104495226D01*
X147648061Y-104535000D01*
X147851939Y-104535000D01*
X148051898Y-104495226D01*
X148240256Y-104417205D01*
X148409774Y-104303937D01*
X148553937Y-104159774D01*
X148667205Y-103990256D01*
X148745226Y-103801898D01*
X148785000Y-103601939D01*
X148785000Y-103539801D01*
X153346136Y-98978665D01*
X162595000Y-98978665D01*
X162595000Y-99261335D01*
X162650147Y-99538574D01*
X162758320Y-99799727D01*
X162915363Y-100034759D01*
X163115241Y-100234637D01*
X163347759Y-100390000D01*
X163115241Y-100545363D01*
X162915363Y-100745241D01*
X162758320Y-100980273D01*
X162650147Y-101241426D01*
X162595000Y-101518665D01*
X162595000Y-101801335D01*
X162650147Y-102078574D01*
X162758320Y-102339727D01*
X162915363Y-102574759D01*
X163115241Y-102774637D01*
X163347759Y-102930000D01*
X163115241Y-103085363D01*
X162915363Y-103285241D01*
X162758320Y-103520273D01*
X162650147Y-103781426D01*
X162595000Y-104058665D01*
X162595000Y-104341335D01*
X162650147Y-104618574D01*
X162758320Y-104879727D01*
X162915363Y-105114759D01*
X163115241Y-105314637D01*
X163350273Y-105471680D01*
X163611426Y-105579853D01*
X163888665Y-105635000D01*
X164171335Y-105635000D01*
X164448574Y-105579853D01*
X164709727Y-105471680D01*
X164944759Y-105314637D01*
X165144637Y-105114759D01*
X165301680Y-104879727D01*
X165409853Y-104618574D01*
X165465000Y-104341335D01*
X165465000Y-104058665D01*
X165409853Y-103781426D01*
X165301680Y-103520273D01*
X165144637Y-103285241D01*
X164944759Y-103085363D01*
X164712241Y-102930000D01*
X164944759Y-102774637D01*
X165144637Y-102574759D01*
X165301680Y-102339727D01*
X165409853Y-102078574D01*
X165465000Y-101801335D01*
X165465000Y-101518665D01*
X165409853Y-101241426D01*
X165301680Y-100980273D01*
X165144637Y-100745241D01*
X164944759Y-100545363D01*
X164712241Y-100390000D01*
X164944759Y-100234637D01*
X165144637Y-100034759D01*
X165301680Y-99799727D01*
X165409853Y-99538574D01*
X165465000Y-99261335D01*
X165465000Y-98978665D01*
X165409853Y-98701426D01*
X165301680Y-98440273D01*
X165144637Y-98205241D01*
X164944759Y-98005363D01*
X164710872Y-97849085D01*
X164771514Y-97816671D01*
X164843097Y-97572702D01*
X164030000Y-96759605D01*
X163216903Y-97572702D01*
X163288486Y-97816671D01*
X163352992Y-97847194D01*
X163350273Y-97848320D01*
X163115241Y-98005363D01*
X162915363Y-98205241D01*
X162758320Y-98440273D01*
X162650147Y-98701426D01*
X162595000Y-98978665D01*
X153346136Y-98978665D01*
X154111004Y-98213798D01*
X154140001Y-98190001D01*
X154234974Y-98074276D01*
X154305546Y-97942247D01*
X154349003Y-97798986D01*
X154360000Y-97687333D01*
X154360000Y-97687324D01*
X154363676Y-97650001D01*
X154360000Y-97612678D01*
X154360000Y-96650512D01*
X162589783Y-96650512D01*
X162631213Y-96930130D01*
X162726397Y-97196292D01*
X162793329Y-97321514D01*
X163037298Y-97393097D01*
X163850395Y-96580000D01*
X164209605Y-96580000D01*
X165022702Y-97393097D01*
X165266671Y-97321514D01*
X165387571Y-97066004D01*
X165456300Y-96791816D01*
X165470217Y-96509488D01*
X165428787Y-96229870D01*
X165333603Y-95963708D01*
X165266671Y-95838486D01*
X165022702Y-95766903D01*
X164209605Y-96580000D01*
X163850395Y-96580000D01*
X163037298Y-95766903D01*
X162793329Y-95838486D01*
X162672429Y-96093996D01*
X162603700Y-96368184D01*
X162589783Y-96650512D01*
X154360000Y-96650512D01*
X154360000Y-95050267D01*
X154431426Y-95079853D01*
X154708665Y-95135000D01*
X154991335Y-95135000D01*
X155268574Y-95079853D01*
X155529727Y-94971680D01*
X155764759Y-94814637D01*
X155964637Y-94614759D01*
X156121680Y-94379727D01*
X156229853Y-94118574D01*
X156285000Y-93841335D01*
X156285000Y-93558665D01*
X156229853Y-93281426D01*
X156121680Y-93020273D01*
X155964637Y-92785241D01*
X155764759Y-92585363D01*
X155532241Y-92430000D01*
X155764759Y-92274637D01*
X155964637Y-92074759D01*
X156121680Y-91839727D01*
X156229853Y-91578574D01*
X156273596Y-91358665D01*
X162595000Y-91358665D01*
X162595000Y-91641335D01*
X162650147Y-91918574D01*
X162758320Y-92179727D01*
X162915363Y-92414759D01*
X163115241Y-92614637D01*
X163347759Y-92770000D01*
X163115241Y-92925363D01*
X162915363Y-93125241D01*
X162758320Y-93360273D01*
X162650147Y-93621426D01*
X162595000Y-93898665D01*
X162595000Y-94181335D01*
X162650147Y-94458574D01*
X162758320Y-94719727D01*
X162915363Y-94954759D01*
X163115241Y-95154637D01*
X163349128Y-95310915D01*
X163288486Y-95343329D01*
X163216903Y-95587298D01*
X164030000Y-96400395D01*
X164843097Y-95587298D01*
X164771514Y-95343329D01*
X164707008Y-95312806D01*
X164709727Y-95311680D01*
X164944759Y-95154637D01*
X165144637Y-94954759D01*
X165301680Y-94719727D01*
X165409853Y-94458574D01*
X165465000Y-94181335D01*
X165465000Y-93898665D01*
X165409853Y-93621426D01*
X165301680Y-93360273D01*
X165144637Y-93125241D01*
X164944759Y-92925363D01*
X164712241Y-92770000D01*
X164944759Y-92614637D01*
X165144637Y-92414759D01*
X165301680Y-92179727D01*
X165409853Y-91918574D01*
X165465000Y-91641335D01*
X165465000Y-91358665D01*
X175295000Y-91358665D01*
X175295000Y-91641335D01*
X175350147Y-91918574D01*
X175458320Y-92179727D01*
X175615363Y-92414759D01*
X175815241Y-92614637D01*
X176047759Y-92770000D01*
X175815241Y-92925363D01*
X175615363Y-93125241D01*
X175458320Y-93360273D01*
X175350147Y-93621426D01*
X175295000Y-93898665D01*
X175295000Y-94181335D01*
X175350147Y-94458574D01*
X175458320Y-94719727D01*
X175615363Y-94954759D01*
X175815241Y-95154637D01*
X176047759Y-95310000D01*
X175815241Y-95465363D01*
X175615363Y-95665241D01*
X175458320Y-95900273D01*
X175350147Y-96161426D01*
X175295000Y-96438665D01*
X175295000Y-96721335D01*
X175350147Y-96998574D01*
X175458320Y-97259727D01*
X175615363Y-97494759D01*
X175815241Y-97694637D01*
X176047759Y-97850000D01*
X175815241Y-98005363D01*
X175615363Y-98205241D01*
X175458320Y-98440273D01*
X175350147Y-98701426D01*
X175295000Y-98978665D01*
X175295000Y-99261335D01*
X175350147Y-99538574D01*
X175458320Y-99799727D01*
X175615363Y-100034759D01*
X175815241Y-100234637D01*
X176047759Y-100390000D01*
X175815241Y-100545363D01*
X175615363Y-100745241D01*
X175458320Y-100980273D01*
X175350147Y-101241426D01*
X175295000Y-101518665D01*
X175295000Y-101801335D01*
X175350147Y-102078574D01*
X175458320Y-102339727D01*
X175615363Y-102574759D01*
X175815241Y-102774637D01*
X176047759Y-102930000D01*
X175815241Y-103085363D01*
X175615363Y-103285241D01*
X175458320Y-103520273D01*
X175350147Y-103781426D01*
X175295000Y-104058665D01*
X175295000Y-104341335D01*
X175350147Y-104618574D01*
X175458320Y-104879727D01*
X175615363Y-105114759D01*
X175815241Y-105314637D01*
X176050273Y-105471680D01*
X176311426Y-105579853D01*
X176588665Y-105635000D01*
X176871335Y-105635000D01*
X177148574Y-105579853D01*
X177409727Y-105471680D01*
X177644759Y-105314637D01*
X177844637Y-105114759D01*
X178001680Y-104879727D01*
X178109853Y-104618574D01*
X178165000Y-104341335D01*
X178165000Y-104058665D01*
X178109853Y-103781426D01*
X178001680Y-103520273D01*
X177844637Y-103285241D01*
X177644759Y-103085363D01*
X177412241Y-102930000D01*
X177644759Y-102774637D01*
X177844637Y-102574759D01*
X178001680Y-102339727D01*
X178109853Y-102078574D01*
X178165000Y-101801335D01*
X178165000Y-101518665D01*
X178109853Y-101241426D01*
X178001680Y-100980273D01*
X177844637Y-100745241D01*
X177644759Y-100545363D01*
X177412241Y-100390000D01*
X177644759Y-100234637D01*
X177844637Y-100034759D01*
X178001680Y-99799727D01*
X178109853Y-99538574D01*
X178165000Y-99261335D01*
X178165000Y-98978665D01*
X178109853Y-98701426D01*
X178001680Y-98440273D01*
X177844637Y-98205241D01*
X177644759Y-98005363D01*
X177412241Y-97850000D01*
X177644759Y-97694637D01*
X177844637Y-97494759D01*
X178001680Y-97259727D01*
X178109853Y-96998574D01*
X178165000Y-96721335D01*
X178165000Y-96438665D01*
X178109853Y-96161426D01*
X178001680Y-95900273D01*
X177844637Y-95665241D01*
X177644759Y-95465363D01*
X177412241Y-95310000D01*
X177644759Y-95154637D01*
X177844637Y-94954759D01*
X178001680Y-94719727D01*
X178109853Y-94458574D01*
X178165000Y-94181335D01*
X178165000Y-93898665D01*
X178109853Y-93621426D01*
X178001680Y-93360273D01*
X177844637Y-93125241D01*
X177644759Y-92925363D01*
X177412241Y-92770000D01*
X177644759Y-92614637D01*
X177844637Y-92414759D01*
X178001680Y-92179727D01*
X178109853Y-91918574D01*
X178165000Y-91641335D01*
X178165000Y-91358665D01*
X178109853Y-91081426D01*
X178001680Y-90820273D01*
X177844637Y-90585241D01*
X177644759Y-90385363D01*
X177409727Y-90228320D01*
X177148574Y-90120147D01*
X176871335Y-90065000D01*
X176588665Y-90065000D01*
X176311426Y-90120147D01*
X176050273Y-90228320D01*
X175815241Y-90385363D01*
X175615363Y-90585241D01*
X175458320Y-90820273D01*
X175350147Y-91081426D01*
X175295000Y-91358665D01*
X165465000Y-91358665D01*
X165409853Y-91081426D01*
X165301680Y-90820273D01*
X165144637Y-90585241D01*
X164944759Y-90385363D01*
X164709727Y-90228320D01*
X164448574Y-90120147D01*
X164171335Y-90065000D01*
X163888665Y-90065000D01*
X163611426Y-90120147D01*
X163350273Y-90228320D01*
X163115241Y-90385363D01*
X162915363Y-90585241D01*
X162758320Y-90820273D01*
X162650147Y-91081426D01*
X162595000Y-91358665D01*
X156273596Y-91358665D01*
X156285000Y-91301335D01*
X156285000Y-91018665D01*
X156229853Y-90741426D01*
X156121680Y-90480273D01*
X155964637Y-90245241D01*
X155764759Y-90045363D01*
X155532241Y-89890000D01*
X155764759Y-89734637D01*
X155964637Y-89534759D01*
X156121680Y-89299727D01*
X156229853Y-89038574D01*
X156285000Y-88761335D01*
X156285000Y-88478665D01*
X156229853Y-88201426D01*
X156121680Y-87940273D01*
X155964637Y-87705241D01*
X155764759Y-87505363D01*
X155532241Y-87350000D01*
X155764759Y-87194637D01*
X155964637Y-86994759D01*
X156121680Y-86759727D01*
X156229853Y-86498574D01*
X156285000Y-86221335D01*
X156285000Y-85938665D01*
X156229853Y-85661426D01*
X156121680Y-85400273D01*
X155964637Y-85165241D01*
X155764759Y-84965363D01*
X155532241Y-84810000D01*
X155764759Y-84654637D01*
X155964637Y-84454759D01*
X156121680Y-84219727D01*
X156229853Y-83958574D01*
X156285000Y-83681335D01*
X156285000Y-83398665D01*
X156229853Y-83121426D01*
X156121680Y-82860273D01*
X155964637Y-82625241D01*
X155764759Y-82425363D01*
X155532241Y-82270000D01*
X155764759Y-82114637D01*
X155964637Y-81914759D01*
X156121680Y-81679727D01*
X156229853Y-81418574D01*
X156285000Y-81141335D01*
X156285000Y-80858665D01*
X156229853Y-80581426D01*
X156121680Y-80320273D01*
X155964637Y-80085241D01*
X155764759Y-79885363D01*
X155532241Y-79730000D01*
X155764759Y-79574637D01*
X155964637Y-79374759D01*
X156121680Y-79139727D01*
X156229853Y-78878574D01*
X156285000Y-78601335D01*
X156285000Y-78318665D01*
X156229853Y-78041426D01*
X156121680Y-77780273D01*
X155964637Y-77545241D01*
X155764759Y-77345363D01*
X155532241Y-77190000D01*
X155764759Y-77034637D01*
X155964637Y-76834759D01*
X156121680Y-76599727D01*
X156229853Y-76338574D01*
X156285000Y-76061335D01*
X156285000Y-75778665D01*
X156229853Y-75501426D01*
X156121680Y-75240273D01*
X155964637Y-75005241D01*
X155764759Y-74805363D01*
X155532241Y-74650000D01*
X155764759Y-74494637D01*
X155964637Y-74294759D01*
X156121680Y-74059727D01*
X156229853Y-73798574D01*
X156285000Y-73521335D01*
X156285000Y-73238665D01*
X156229853Y-72961426D01*
X156121680Y-72700273D01*
X155964637Y-72465241D01*
X155764759Y-72265363D01*
X155532241Y-72110000D01*
X155764759Y-71954637D01*
X155964637Y-71754759D01*
X156121680Y-71519727D01*
X156229853Y-71258574D01*
X156285000Y-70981335D01*
X156285000Y-70698665D01*
X156229853Y-70421426D01*
X156121680Y-70160273D01*
X155964637Y-69925241D01*
X155764759Y-69725363D01*
X155532241Y-69570000D01*
X155764759Y-69414637D01*
X155899396Y-69280000D01*
X166631928Y-69280000D01*
X166644188Y-69404482D01*
X166680498Y-69524180D01*
X166739463Y-69634494D01*
X166818815Y-69731185D01*
X166915506Y-69810537D01*
X167025820Y-69869502D01*
X167145518Y-69905812D01*
X167270000Y-69918072D01*
X168484250Y-69915000D01*
X168643000Y-69756250D01*
X168643000Y-67907000D01*
X168897000Y-67907000D01*
X168897000Y-69756250D01*
X169055750Y-69915000D01*
X170270000Y-69918072D01*
X170394482Y-69905812D01*
X170514180Y-69869502D01*
X170624494Y-69810537D01*
X170721185Y-69731185D01*
X170800537Y-69634494D01*
X170859502Y-69524180D01*
X170895812Y-69404482D01*
X170908072Y-69280000D01*
X170905000Y-68065750D01*
X170746250Y-67907000D01*
X168897000Y-67907000D01*
X168643000Y-67907000D01*
X166793750Y-67907000D01*
X166635000Y-68065750D01*
X166631928Y-69280000D01*
X155899396Y-69280000D01*
X155964637Y-69214759D01*
X156121680Y-68979727D01*
X156229853Y-68718574D01*
X156285000Y-68441335D01*
X156285000Y-68158665D01*
X156229853Y-67881426D01*
X156121680Y-67620273D01*
X155964637Y-67385241D01*
X155764759Y-67185363D01*
X155532241Y-67030000D01*
X155764759Y-66874637D01*
X155964637Y-66674759D01*
X156121680Y-66439727D01*
X156187841Y-66280000D01*
X166631928Y-66280000D01*
X166635000Y-67494250D01*
X166793750Y-67653000D01*
X168643000Y-67653000D01*
X168643000Y-65803750D01*
X168897000Y-65803750D01*
X168897000Y-67653000D01*
X170746250Y-67653000D01*
X170905000Y-67494250D01*
X170908072Y-66280000D01*
X170895812Y-66155518D01*
X170859502Y-66035820D01*
X170800537Y-65925506D01*
X170721185Y-65828815D01*
X170624494Y-65749463D01*
X170514180Y-65690498D01*
X170394482Y-65654188D01*
X170270000Y-65641928D01*
X169055750Y-65645000D01*
X168897000Y-65803750D01*
X168643000Y-65803750D01*
X168484250Y-65645000D01*
X167270000Y-65641928D01*
X167145518Y-65654188D01*
X167025820Y-65690498D01*
X166915506Y-65749463D01*
X166818815Y-65828815D01*
X166739463Y-65925506D01*
X166680498Y-66035820D01*
X166644188Y-66155518D01*
X166631928Y-66280000D01*
X156187841Y-66280000D01*
X156229853Y-66178574D01*
X156285000Y-65901335D01*
X156285000Y-65618665D01*
X156229853Y-65341426D01*
X156121680Y-65080273D01*
X155964637Y-64845241D01*
X155764759Y-64645363D01*
X155530872Y-64489085D01*
X155591514Y-64456671D01*
X155663097Y-64212702D01*
X154850000Y-63399605D01*
X154036903Y-64212702D01*
X154108486Y-64456671D01*
X154172992Y-64487194D01*
X154170273Y-64488320D01*
X153935241Y-64645363D01*
X153735363Y-64845241D01*
X153578320Y-65080273D01*
X153470147Y-65341426D01*
X153415000Y-65618665D01*
X153415000Y-65901335D01*
X153470147Y-66178574D01*
X153578320Y-66439727D01*
X153735363Y-66674759D01*
X153935241Y-66874637D01*
X154167759Y-67030000D01*
X153935241Y-67185363D01*
X153735363Y-67385241D01*
X153580000Y-67617759D01*
X153424637Y-67385241D01*
X153224759Y-67185363D01*
X152989727Y-67028320D01*
X152728574Y-66920147D01*
X152451335Y-66865000D01*
X152168665Y-66865000D01*
X151891426Y-66920147D01*
X151630273Y-67028320D01*
X151395241Y-67185363D01*
X151195363Y-67385241D01*
X151038320Y-67620273D01*
X150930147Y-67881426D01*
X150875000Y-68158665D01*
X150875000Y-68441335D01*
X150930147Y-68718574D01*
X151038320Y-68979727D01*
X151195363Y-69214759D01*
X151395241Y-69414637D01*
X151627759Y-69570000D01*
X151395241Y-69725363D01*
X151195363Y-69925241D01*
X151038320Y-70160273D01*
X150930147Y-70421426D01*
X150875000Y-70698665D01*
X150875000Y-70981335D01*
X150930147Y-71258574D01*
X151038320Y-71519727D01*
X151195363Y-71754759D01*
X151395241Y-71954637D01*
X151627759Y-72110000D01*
X151395241Y-72265363D01*
X151195363Y-72465241D01*
X151038320Y-72700273D01*
X150930147Y-72961426D01*
X150875000Y-73238665D01*
X150875000Y-73521335D01*
X150930147Y-73798574D01*
X151038320Y-74059727D01*
X151195363Y-74294759D01*
X151395241Y-74494637D01*
X151630273Y-74651680D01*
X151891426Y-74759853D01*
X152168665Y-74815000D01*
X152451335Y-74815000D01*
X152728574Y-74759853D01*
X152989727Y-74651680D01*
X153224759Y-74494637D01*
X153424637Y-74294759D01*
X153580000Y-74062241D01*
X153735363Y-74294759D01*
X153935241Y-74494637D01*
X154167759Y-74650000D01*
X153935241Y-74805363D01*
X153735363Y-75005241D01*
X153578320Y-75240273D01*
X153470147Y-75501426D01*
X153415000Y-75778665D01*
X153415000Y-76061335D01*
X153470147Y-76338574D01*
X153578320Y-76599727D01*
X153735363Y-76834759D01*
X153935241Y-77034637D01*
X154167759Y-77190000D01*
X153935241Y-77345363D01*
X153735363Y-77545241D01*
X153578320Y-77780273D01*
X153470147Y-78041426D01*
X153415000Y-78318665D01*
X153415000Y-78601335D01*
X153470147Y-78878574D01*
X153578320Y-79139727D01*
X153735363Y-79374759D01*
X153935241Y-79574637D01*
X154167759Y-79730000D01*
X153935241Y-79885363D01*
X153735363Y-80085241D01*
X153578320Y-80320273D01*
X153470147Y-80581426D01*
X153415000Y-80858665D01*
X153415000Y-81141335D01*
X153470147Y-81418574D01*
X153578320Y-81679727D01*
X153735363Y-81914759D01*
X153935241Y-82114637D01*
X154167759Y-82270000D01*
X153935241Y-82425363D01*
X153735363Y-82625241D01*
X153578320Y-82860273D01*
X153470147Y-83121426D01*
X153415000Y-83398665D01*
X153415000Y-83681335D01*
X153451312Y-83863886D01*
X152272342Y-85042856D01*
X152217205Y-84909744D01*
X152103937Y-84740226D01*
X151959774Y-84596063D01*
X151790256Y-84482795D01*
X151601898Y-84404774D01*
X151401939Y-84365000D01*
X151339802Y-84365000D01*
X143638804Y-76664003D01*
X143615001Y-76634999D01*
X143499276Y-76540026D01*
X143367247Y-76469454D01*
X143223986Y-76425997D01*
X143112333Y-76415000D01*
X143112322Y-76415000D01*
X143075000Y-76411324D01*
X143037678Y-76415000D01*
X140958196Y-76415000D01*
X140989853Y-76338574D01*
X141045000Y-76061335D01*
X141045000Y-75778665D01*
X140989853Y-75501426D01*
X140881680Y-75240273D01*
X140724637Y-75005241D01*
X140524759Y-74805363D01*
X140292241Y-74650000D01*
X140524759Y-74494637D01*
X140724637Y-74294759D01*
X140881680Y-74059727D01*
X140989853Y-73798574D01*
X141045000Y-73521335D01*
X141045000Y-73238665D01*
X140989853Y-72961426D01*
X140881680Y-72700273D01*
X140724637Y-72465241D01*
X140524759Y-72265363D01*
X140292241Y-72110000D01*
X140524759Y-71954637D01*
X140724637Y-71754759D01*
X140881680Y-71519727D01*
X140989853Y-71258574D01*
X141045000Y-70981335D01*
X141045000Y-70698665D01*
X141042062Y-70683891D01*
X145645000Y-70683891D01*
X145645000Y-70996109D01*
X145705911Y-71302327D01*
X145825391Y-71590779D01*
X145998850Y-71850379D01*
X146219621Y-72071150D01*
X146479221Y-72244609D01*
X146767673Y-72364089D01*
X147073891Y-72425000D01*
X147386109Y-72425000D01*
X147692327Y-72364089D01*
X147980779Y-72244609D01*
X148240379Y-72071150D01*
X148461150Y-71850379D01*
X148634609Y-71590779D01*
X148754089Y-71302327D01*
X148815000Y-70996109D01*
X148815000Y-70683891D01*
X148754089Y-70377673D01*
X148634609Y-70089221D01*
X148461150Y-69829621D01*
X148240379Y-69608850D01*
X147980779Y-69435391D01*
X147692327Y-69315911D01*
X147386109Y-69255000D01*
X147073891Y-69255000D01*
X146767673Y-69315911D01*
X146479221Y-69435391D01*
X146219621Y-69608850D01*
X145998850Y-69829621D01*
X145825391Y-70089221D01*
X145705911Y-70377673D01*
X145645000Y-70683891D01*
X141042062Y-70683891D01*
X140989853Y-70421426D01*
X140881680Y-70160273D01*
X140724637Y-69925241D01*
X140524759Y-69725363D01*
X140292241Y-69570000D01*
X140524759Y-69414637D01*
X140724637Y-69214759D01*
X140881680Y-68979727D01*
X140989853Y-68718574D01*
X141045000Y-68441335D01*
X141045000Y-68158665D01*
X140989853Y-67881426D01*
X140881680Y-67620273D01*
X140724637Y-67385241D01*
X140524759Y-67185363D01*
X140292241Y-67030000D01*
X140524759Y-66874637D01*
X140525505Y-66873891D01*
X145645000Y-66873891D01*
X145645000Y-67186109D01*
X145705911Y-67492327D01*
X145825391Y-67780779D01*
X145998850Y-68040379D01*
X146219621Y-68261150D01*
X146479221Y-68434609D01*
X146767673Y-68554089D01*
X147073891Y-68615000D01*
X147386109Y-68615000D01*
X147692327Y-68554089D01*
X147980779Y-68434609D01*
X148240379Y-68261150D01*
X148461150Y-68040379D01*
X148634609Y-67780779D01*
X148754089Y-67492327D01*
X148815000Y-67186109D01*
X148815000Y-66873891D01*
X148754089Y-66567673D01*
X148634609Y-66279221D01*
X148461150Y-66019621D01*
X148240379Y-65798850D01*
X147980779Y-65625391D01*
X147692327Y-65505911D01*
X147386109Y-65445000D01*
X147073891Y-65445000D01*
X146767673Y-65505911D01*
X146479221Y-65625391D01*
X146219621Y-65798850D01*
X145998850Y-66019621D01*
X145825391Y-66279221D01*
X145705911Y-66567673D01*
X145645000Y-66873891D01*
X140525505Y-66873891D01*
X140724637Y-66674759D01*
X140881680Y-66439727D01*
X140989853Y-66178574D01*
X141045000Y-65901335D01*
X141045000Y-65618665D01*
X140989853Y-65341426D01*
X140881680Y-65080273D01*
X140724637Y-64845241D01*
X140524759Y-64645363D01*
X140292241Y-64490000D01*
X140524759Y-64334637D01*
X140724637Y-64134759D01*
X140881680Y-63899727D01*
X140989853Y-63638574D01*
X141045000Y-63361335D01*
X141045000Y-63078665D01*
X150875000Y-63078665D01*
X150875000Y-63361335D01*
X150930147Y-63638574D01*
X151038320Y-63899727D01*
X151195363Y-64134759D01*
X151395241Y-64334637D01*
X151630273Y-64491680D01*
X151891426Y-64599853D01*
X152168665Y-64655000D01*
X152451335Y-64655000D01*
X152728574Y-64599853D01*
X152989727Y-64491680D01*
X153224759Y-64334637D01*
X153424637Y-64134759D01*
X153580915Y-63900872D01*
X153613329Y-63961514D01*
X153857298Y-64033097D01*
X154670395Y-63220000D01*
X155029605Y-63220000D01*
X155842702Y-64033097D01*
X156086671Y-63961514D01*
X156207571Y-63706004D01*
X156276300Y-63431816D01*
X156290217Y-63149488D01*
X156248787Y-62869870D01*
X156153603Y-62603708D01*
X156092677Y-62489721D01*
X166635000Y-62489721D01*
X166635000Y-62910279D01*
X166717047Y-63322756D01*
X166877988Y-63711302D01*
X167111637Y-64060983D01*
X167409017Y-64358363D01*
X167758698Y-64592012D01*
X168147244Y-64752953D01*
X168559721Y-64835000D01*
X168980279Y-64835000D01*
X169392756Y-64752953D01*
X169781302Y-64592012D01*
X170130983Y-64358363D01*
X170428363Y-64060983D01*
X170662012Y-63711302D01*
X170822953Y-63322756D01*
X170905000Y-62910279D01*
X170905000Y-62489721D01*
X170822953Y-62077244D01*
X170662012Y-61688698D01*
X170428363Y-61339017D01*
X170130983Y-61041637D01*
X169781302Y-60807988D01*
X169392756Y-60647047D01*
X168980279Y-60565000D01*
X168559721Y-60565000D01*
X168147244Y-60647047D01*
X167758698Y-60807988D01*
X167409017Y-61041637D01*
X167111637Y-61339017D01*
X166877988Y-61688698D01*
X166717047Y-62077244D01*
X166635000Y-62489721D01*
X156092677Y-62489721D01*
X156086671Y-62478486D01*
X155842702Y-62406903D01*
X155029605Y-63220000D01*
X154670395Y-63220000D01*
X153857298Y-62406903D01*
X153613329Y-62478486D01*
X153582806Y-62542992D01*
X153581680Y-62540273D01*
X153424637Y-62305241D01*
X153224759Y-62105363D01*
X152989727Y-61948320D01*
X152728574Y-61840147D01*
X152451335Y-61785000D01*
X152168665Y-61785000D01*
X151891426Y-61840147D01*
X151630273Y-61948320D01*
X151395241Y-62105363D01*
X151195363Y-62305241D01*
X151038320Y-62540273D01*
X150930147Y-62801426D01*
X150875000Y-63078665D01*
X141045000Y-63078665D01*
X140989853Y-62801426D01*
X140881680Y-62540273D01*
X140724637Y-62305241D01*
X140526039Y-62106643D01*
X140534482Y-62105812D01*
X140654180Y-62069502D01*
X140764494Y-62010537D01*
X140861185Y-61931185D01*
X140940537Y-61834494D01*
X140999502Y-61724180D01*
X141035812Y-61604482D01*
X141048072Y-61480000D01*
X141045000Y-60965750D01*
X140886250Y-60807000D01*
X139737000Y-60807000D01*
X139737000Y-60827000D01*
X139483000Y-60827000D01*
X139483000Y-60807000D01*
X138333750Y-60807000D01*
X138175000Y-60965750D01*
X138171928Y-61480000D01*
X138184188Y-61604482D01*
X138220498Y-61724180D01*
X138279463Y-61834494D01*
X138358815Y-61931185D01*
X138455506Y-62010537D01*
X138565820Y-62069502D01*
X138685518Y-62105812D01*
X138693961Y-62106643D01*
X138495363Y-62305241D01*
X138338320Y-62540273D01*
X138230147Y-62801426D01*
X138175000Y-63078665D01*
X138175000Y-63361335D01*
X138230147Y-63638574D01*
X138338320Y-63899727D01*
X138495363Y-64134759D01*
X138695241Y-64334637D01*
X138927759Y-64490000D01*
X138695241Y-64645363D01*
X138495363Y-64845241D01*
X138338320Y-65080273D01*
X138230147Y-65341426D01*
X138175000Y-65618665D01*
X138175000Y-65901335D01*
X138230147Y-66178574D01*
X138338320Y-66439727D01*
X138495363Y-66674759D01*
X138695241Y-66874637D01*
X138927759Y-67030000D01*
X138695241Y-67185363D01*
X138495363Y-67385241D01*
X138338320Y-67620273D01*
X138230147Y-67881426D01*
X138175000Y-68158665D01*
X138175000Y-68441335D01*
X138230147Y-68718574D01*
X138338320Y-68979727D01*
X138495363Y-69214759D01*
X138695241Y-69414637D01*
X138927759Y-69570000D01*
X138695241Y-69725363D01*
X138495363Y-69925241D01*
X138338320Y-70160273D01*
X138230147Y-70421426D01*
X138175000Y-70698665D01*
X138175000Y-70981335D01*
X138230147Y-71258574D01*
X138338320Y-71519727D01*
X138495363Y-71754759D01*
X138695241Y-71954637D01*
X138927759Y-72110000D01*
X138695241Y-72265363D01*
X138495363Y-72465241D01*
X138338320Y-72700273D01*
X138230147Y-72961426D01*
X138175000Y-73238665D01*
X138175000Y-73521335D01*
X138230147Y-73798574D01*
X138338320Y-74059727D01*
X138495363Y-74294759D01*
X138695241Y-74494637D01*
X138927759Y-74650000D01*
X138695241Y-74805363D01*
X138495363Y-75005241D01*
X138338320Y-75240273D01*
X138230147Y-75501426D01*
X138175000Y-75778665D01*
X138175000Y-76061335D01*
X138178282Y-76077835D01*
X138001898Y-76004774D01*
X137801939Y-75965000D01*
X137598061Y-75965000D01*
X137398102Y-76004774D01*
X137209744Y-76082795D01*
X137040226Y-76196063D01*
X136896063Y-76340226D01*
X136782795Y-76509744D01*
X136704774Y-76698102D01*
X136665000Y-76898061D01*
X109127000Y-76898061D01*
X109127000Y-66914000D01*
X118987928Y-66914000D01*
X119000188Y-67038482D01*
X119036498Y-67158180D01*
X119095463Y-67268494D01*
X119174815Y-67365185D01*
X119271506Y-67444537D01*
X119381820Y-67503502D01*
X119501518Y-67539812D01*
X119626000Y-67552072D01*
X120044250Y-67549000D01*
X120203000Y-67390250D01*
X120203000Y-66337000D01*
X119149750Y-66337000D01*
X118991000Y-66495750D01*
X118987928Y-66914000D01*
X109127000Y-66914000D01*
X109127000Y-65506000D01*
X118987928Y-65506000D01*
X118991000Y-65924250D01*
X119149750Y-66083000D01*
X120203000Y-66083000D01*
X120203000Y-65029750D01*
X120457000Y-65029750D01*
X120457000Y-66083000D01*
X120477000Y-66083000D01*
X120477000Y-66337000D01*
X120457000Y-66337000D01*
X120457000Y-67390250D01*
X120615750Y-67549000D01*
X121034000Y-67552072D01*
X121158482Y-67539812D01*
X121278180Y-67503502D01*
X121388494Y-67444537D01*
X121485185Y-67365185D01*
X121564537Y-67268494D01*
X121600000Y-67202148D01*
X121635463Y-67268494D01*
X121714815Y-67365185D01*
X121811506Y-67444537D01*
X121921820Y-67503502D01*
X122041518Y-67539812D01*
X122166000Y-67552072D01*
X123574000Y-67552072D01*
X123698482Y-67539812D01*
X123818180Y-67503502D01*
X123928494Y-67444537D01*
X124025185Y-67365185D01*
X124104537Y-67268494D01*
X124140000Y-67202148D01*
X124175463Y-67268494D01*
X124254815Y-67365185D01*
X124351506Y-67444537D01*
X124461820Y-67503502D01*
X124581518Y-67539812D01*
X124706000Y-67552072D01*
X126114000Y-67552072D01*
X126238482Y-67539812D01*
X126358180Y-67503502D01*
X126468494Y-67444537D01*
X126565185Y-67365185D01*
X126644537Y-67268494D01*
X126680000Y-67202148D01*
X126715463Y-67268494D01*
X126794815Y-67365185D01*
X126891506Y-67444537D01*
X127001820Y-67503502D01*
X127121518Y-67539812D01*
X127246000Y-67552072D01*
X128654000Y-67552072D01*
X128778482Y-67539812D01*
X128898180Y-67503502D01*
X129008494Y-67444537D01*
X129105185Y-67365185D01*
X129184537Y-67268494D01*
X129243502Y-67158180D01*
X129279812Y-67038482D01*
X129292072Y-66914000D01*
X129292072Y-65506000D01*
X129279812Y-65381518D01*
X129243502Y-65261820D01*
X129184537Y-65151506D01*
X129105185Y-65054815D01*
X129008494Y-64975463D01*
X128898180Y-64916498D01*
X128778482Y-64880188D01*
X128654000Y-64867928D01*
X127246000Y-64867928D01*
X127121518Y-64880188D01*
X127001820Y-64916498D01*
X126891506Y-64975463D01*
X126794815Y-65054815D01*
X126715463Y-65151506D01*
X126680000Y-65217852D01*
X126644537Y-65151506D01*
X126565185Y-65054815D01*
X126468494Y-64975463D01*
X126358180Y-64916498D01*
X126238482Y-64880188D01*
X126114000Y-64867928D01*
X124706000Y-64867928D01*
X124581518Y-64880188D01*
X124461820Y-64916498D01*
X124351506Y-64975463D01*
X124254815Y-65054815D01*
X124175463Y-65151506D01*
X124140000Y-65217852D01*
X124104537Y-65151506D01*
X124025185Y-65054815D01*
X123928494Y-64975463D01*
X123818180Y-64916498D01*
X123698482Y-64880188D01*
X123574000Y-64867928D01*
X122166000Y-64867928D01*
X122041518Y-64880188D01*
X121921820Y-64916498D01*
X121811506Y-64975463D01*
X121714815Y-65054815D01*
X121635463Y-65151506D01*
X121600000Y-65217852D01*
X121564537Y-65151506D01*
X121485185Y-65054815D01*
X121388494Y-64975463D01*
X121278180Y-64916498D01*
X121158482Y-64880188D01*
X121034000Y-64867928D01*
X120615750Y-64871000D01*
X120457000Y-65029750D01*
X120203000Y-65029750D01*
X120044250Y-64871000D01*
X119626000Y-64867928D01*
X119501518Y-64880188D01*
X119381820Y-64916498D01*
X119271506Y-64975463D01*
X119174815Y-65054815D01*
X119095463Y-65151506D01*
X119036498Y-65261820D01*
X119000188Y-65381518D01*
X118987928Y-65506000D01*
X109127000Y-65506000D01*
X109127000Y-59880000D01*
X138171928Y-59880000D01*
X138175000Y-60394250D01*
X138333750Y-60553000D01*
X139483000Y-60553000D01*
X139483000Y-59403750D01*
X139737000Y-59403750D01*
X139737000Y-60553000D01*
X140886250Y-60553000D01*
X140900585Y-60538665D01*
X153415000Y-60538665D01*
X153415000Y-60821335D01*
X153470147Y-61098574D01*
X153578320Y-61359727D01*
X153735363Y-61594759D01*
X153935241Y-61794637D01*
X154169128Y-61950915D01*
X154108486Y-61983329D01*
X154036903Y-62227298D01*
X154850000Y-63040395D01*
X155663097Y-62227298D01*
X155591514Y-61983329D01*
X155527008Y-61952806D01*
X155529727Y-61951680D01*
X155764759Y-61794637D01*
X155964637Y-61594759D01*
X156121680Y-61359727D01*
X156229853Y-61098574D01*
X156285000Y-60821335D01*
X156285000Y-60538665D01*
X156229853Y-60261426D01*
X156121680Y-60000273D01*
X155964637Y-59765241D01*
X155764759Y-59565363D01*
X155529727Y-59408320D01*
X155268574Y-59300147D01*
X154991335Y-59245000D01*
X154708665Y-59245000D01*
X154431426Y-59300147D01*
X154170273Y-59408320D01*
X153935241Y-59565363D01*
X153735363Y-59765241D01*
X153578320Y-60000273D01*
X153470147Y-60261426D01*
X153415000Y-60538665D01*
X140900585Y-60538665D01*
X141045000Y-60394250D01*
X141048072Y-59880000D01*
X141035812Y-59755518D01*
X140999502Y-59635820D01*
X140940537Y-59525506D01*
X140861185Y-59428815D01*
X140764494Y-59349463D01*
X140654180Y-59290498D01*
X140534482Y-59254188D01*
X140410000Y-59241928D01*
X139895750Y-59245000D01*
X139737000Y-59403750D01*
X139483000Y-59403750D01*
X139324250Y-59245000D01*
X138810000Y-59241928D01*
X138685518Y-59254188D01*
X138565820Y-59290498D01*
X138455506Y-59349463D01*
X138358815Y-59428815D01*
X138279463Y-59525506D01*
X138220498Y-59635820D01*
X138184188Y-59755518D01*
X138171928Y-59880000D01*
X109127000Y-59880000D01*
X109127000Y-54732413D01*
X110083146Y-54732413D01*
X110083146Y-55267587D01*
X110187553Y-55792477D01*
X110392355Y-56286913D01*
X110689681Y-56731894D01*
X111068106Y-57110319D01*
X111513087Y-57407645D01*
X112007523Y-57612447D01*
X112532413Y-57716854D01*
X113067587Y-57716854D01*
X113592477Y-57612447D01*
X114086913Y-57407645D01*
X114531894Y-57110319D01*
X114910319Y-56731894D01*
X115207645Y-56286913D01*
X115412447Y-55792477D01*
X115516854Y-55267587D01*
X115516854Y-54732413D01*
X179283146Y-54732413D01*
X179283146Y-55267587D01*
X179387553Y-55792477D01*
X179592355Y-56286913D01*
X179889681Y-56731894D01*
X180268106Y-57110319D01*
X180713087Y-57407645D01*
X181207523Y-57612447D01*
X181732413Y-57716854D01*
X182267587Y-57716854D01*
X182792477Y-57612447D01*
X183286913Y-57407645D01*
X183731894Y-57110319D01*
X184110319Y-56731894D01*
X184407645Y-56286913D01*
X184612447Y-55792477D01*
X184716854Y-55267587D01*
X184716854Y-54732413D01*
X184612447Y-54207523D01*
X184407645Y-53713087D01*
X184110319Y-53268106D01*
X183731894Y-52889681D01*
X183286913Y-52592355D01*
X182792477Y-52387553D01*
X182267587Y-52283146D01*
X181732413Y-52283146D01*
X181207523Y-52387553D01*
X180713087Y-52592355D01*
X180268106Y-52889681D01*
X179889681Y-53268106D01*
X179592355Y-53713087D01*
X179387553Y-54207523D01*
X179283146Y-54732413D01*
X115516854Y-54732413D01*
X115412447Y-54207523D01*
X115207645Y-53713087D01*
X114910319Y-53268106D01*
X114531894Y-52889681D01*
X114086913Y-52592355D01*
X113592477Y-52387553D01*
X113067587Y-52283146D01*
X112532413Y-52283146D01*
X112007523Y-52387553D01*
X111513087Y-52592355D01*
X111068106Y-52889681D01*
X110689681Y-53268106D01*
X110392355Y-53713087D01*
X110187553Y-54207523D01*
X110083146Y-54732413D01*
X109127000Y-54732413D01*
X109127000Y-52127000D01*
X184873000Y-52127000D01*
X184873000Y-137873000D01*
G37*
%TD.AperFunction*%
%TD*%
M02*
