%TF.GenerationSoftware,KiCad,Pcbnew,(5.1.8)-1*%
%TF.CreationDate,2021-03-14T17:59:32-04:00*%
%TF.ProjectId,Artemis Payload Computer,41727465-6d69-4732-9050-61796c6f6164,rev?*%
%TF.SameCoordinates,Original*%
%TF.FileFunction,Other,User*%
%FSLAX46Y46*%
G04 Gerber Fmt 4.6, Leading zero omitted, Abs format (unit mm)*
G04 Created by KiCad (PCBNEW (5.1.8)-1) date 2021-03-14 17:59:32*
%MOMM*%
%LPD*%
G01*
G04 APERTURE LIST*
%ADD10C,0.050000*%
G04 APERTURE END LIST*
D10*
%TO.C,R2*%
X137650000Y-85800000D02*
X141350000Y-85800000D01*
X141350000Y-85800000D02*
X141350000Y-71000000D01*
X141350000Y-71000000D02*
X137650000Y-71000000D01*
X137650000Y-71000000D02*
X137650000Y-85800000D01*
%TO.C,R1*%
X136600000Y-71000000D02*
X132900000Y-71000000D01*
X132900000Y-71000000D02*
X132900000Y-85800000D01*
X132900000Y-85800000D02*
X136600000Y-85800000D01*
X136600000Y-85800000D02*
X136600000Y-71000000D01*
%TO.C,U601*%
X165600000Y-51100000D02*
X174400000Y-51100000D01*
X165600000Y-43900000D02*
X165600000Y-51100000D01*
X174400000Y-43900000D02*
X165600000Y-43900000D01*
X174400000Y-51100000D02*
X174400000Y-43900000D01*
%TO.C,J601*%
X171100000Y-42210000D02*
X171100000Y-31710000D01*
X171100000Y-42210000D02*
X179100000Y-42210000D01*
X179100000Y-31710000D02*
X171100000Y-31710000D01*
X179100000Y-31710000D02*
X179100000Y-42210000D01*
%TO.C,J2*%
X121250000Y-84500000D02*
X128750000Y-84500000D01*
X128750000Y-84500000D02*
X128750000Y-77960000D01*
X128750000Y-77960000D02*
X121250000Y-77960000D01*
X121250000Y-77960000D02*
X121250000Y-84500000D01*
%TO.C,J1*%
X128750000Y-70500000D02*
X121250000Y-70500000D01*
X121250000Y-70500000D02*
X121250000Y-77040000D01*
X121250000Y-77040000D02*
X128750000Y-77040000D01*
X128750000Y-77040000D02*
X128750000Y-70500000D01*
%TO.C,C602*%
X175270000Y-43850000D02*
X176730000Y-43850000D01*
X176730000Y-43850000D02*
X176730000Y-47150000D01*
X176730000Y-47150000D02*
X175270000Y-47150000D01*
X175270000Y-47150000D02*
X175270000Y-43850000D01*
%TO.C,C601*%
X176730000Y-50650000D02*
X175270000Y-50650000D01*
X175270000Y-50650000D02*
X175270000Y-47350000D01*
X175270000Y-47350000D02*
X176730000Y-47350000D01*
X176730000Y-47350000D02*
X176730000Y-50650000D01*
%TD*%
M02*
