%TF.GenerationSoftware,KiCad,Pcbnew,(5.1.8)-1*%
%TF.CreationDate,2021-03-31T15:24:53-04:00*%
%TF.ProjectId,Artemis Payload Computer,41727465-6d69-4732-9050-61796c6f6164,rev?*%
%TF.SameCoordinates,Original*%
%TF.FileFunction,Soldermask,Top*%
%TF.FilePolarity,Negative*%
%FSLAX46Y46*%
G04 Gerber Fmt 4.6, Leading zero omitted, Abs format (unit mm)*
G04 Created by KiCad (PCBNEW (5.1.8)-1) date 2021-03-31 15:24:53*
%MOMM*%
%LPD*%
G01*
G04 APERTURE LIST*
%ADD10C,2.400000*%
%ADD11R,2.400000X2.400000*%
%ADD12C,1.524000*%
%ADD13C,1.600000*%
%ADD14O,1.600000X1.600000*%
%ADD15R,1.408000X1.408000*%
%ADD16R,2.000000X1.500000*%
%ADD17R,2.000000X3.800000*%
%ADD18C,1.750000*%
%ADD19R,1.600000X1.600000*%
%ADD20C,1.900000*%
%ADD21C,3.000000*%
%ADD22R,3.000000X3.000000*%
G04 APERTURE END LIST*
D10*
%TO.C,J2*%
X117720000Y-120020000D03*
D11*
X117720000Y-116520000D03*
%TD*%
D10*
%TO.C,J1*%
X117650000Y-107360000D03*
D11*
X117650000Y-103860000D03*
%TD*%
D12*
%TO.C,U701*%
X139660000Y-119600000D03*
X142200000Y-119600000D03*
X144740000Y-119600000D03*
X147280000Y-119600000D03*
X149820000Y-119600000D03*
X152360000Y-119600000D03*
X154900000Y-119600000D03*
%TD*%
D13*
%TO.C,U401*%
X176730000Y-104200000D03*
X176730000Y-101660000D03*
X176730000Y-99120000D03*
X176730000Y-96580000D03*
X176730000Y-94040000D03*
X176730000Y-91500000D03*
X164030000Y-104200000D03*
X164030000Y-101660000D03*
X164030000Y-99120000D03*
X164030000Y-96580000D03*
X164030000Y-94040000D03*
X164030000Y-91500000D03*
%TD*%
D14*
%TO.C,R2*%
X134400000Y-106790000D03*
D13*
X134400000Y-119490000D03*
%TD*%
D15*
%TO.C,U1*%
X120330000Y-66210000D03*
X122870000Y-66210000D03*
X125410000Y-66210000D03*
X127950000Y-66210000D03*
X130490000Y-91610000D03*
X127950000Y-91610000D03*
X125410000Y-91610000D03*
X122870000Y-91610000D03*
X120330000Y-91610000D03*
X117790000Y-91610000D03*
%TD*%
D14*
%TO.C,R1*%
X129560000Y-119440000D03*
D13*
X129560000Y-106740000D03*
%TD*%
D16*
%TO.C,U601*%
X170260000Y-80480000D03*
X170260000Y-75880000D03*
X170260000Y-78180000D03*
D17*
X163960000Y-78180000D03*
%TD*%
D18*
%TO.C,U501*%
X161490000Y-115280000D03*
X164030000Y-115280000D03*
X166570000Y-115280000D03*
X169110000Y-115280000D03*
X171650000Y-115280000D03*
X174190000Y-115280000D03*
X176730000Y-115280000D03*
%TD*%
D13*
%TO.C,U2*%
X147230000Y-93700000D03*
X149770000Y-93700000D03*
X152310000Y-93700000D03*
X154850000Y-93700000D03*
X144690000Y-93700000D03*
X142150000Y-93700000D03*
X139610000Y-93700000D03*
X154850000Y-91160000D03*
X154850000Y-88620000D03*
X154850000Y-86080000D03*
X154850000Y-83540000D03*
X154850000Y-81000000D03*
X154850000Y-78460000D03*
X154850000Y-75920000D03*
X154850000Y-73380000D03*
X154850000Y-70840000D03*
X154850000Y-68300000D03*
X154850000Y-65760000D03*
X154850000Y-63220000D03*
X154850000Y-60680000D03*
X152310000Y-63220000D03*
X152310000Y-68300000D03*
X152310000Y-70840000D03*
X152310000Y-73380000D03*
X139610000Y-91160000D03*
X139610000Y-88620000D03*
X139610000Y-86080000D03*
X139610000Y-83540000D03*
X139610000Y-81000000D03*
X139610000Y-78460000D03*
X139610000Y-75920000D03*
X139610000Y-73380000D03*
X139610000Y-70840000D03*
X139610000Y-68300000D03*
X139610000Y-65760000D03*
X139610000Y-63220000D03*
D19*
X139610000Y-60680000D03*
D20*
X147230000Y-70840000D03*
X147230000Y-67030000D03*
%TD*%
D21*
%TO.C,J601*%
X168770000Y-62700000D03*
D22*
X168770000Y-67780000D03*
%TD*%
%TO.C,C602*%
G36*
G01*
X174862500Y-76675000D02*
X175337500Y-76675000D01*
G75*
G02*
X175575000Y-76912500I0J-237500D01*
G01*
X175575000Y-77512500D01*
G75*
G02*
X175337500Y-77750000I-237500J0D01*
G01*
X174862500Y-77750000D01*
G75*
G02*
X174625000Y-77512500I0J237500D01*
G01*
X174625000Y-76912500D01*
G75*
G02*
X174862500Y-76675000I237500J0D01*
G01*
G37*
G36*
G01*
X174862500Y-74950000D02*
X175337500Y-74950000D01*
G75*
G02*
X175575000Y-75187500I0J-237500D01*
G01*
X175575000Y-75787500D01*
G75*
G02*
X175337500Y-76025000I-237500J0D01*
G01*
X174862500Y-76025000D01*
G75*
G02*
X174625000Y-75787500I0J237500D01*
G01*
X174625000Y-75187500D01*
G75*
G02*
X174862500Y-74950000I237500J0D01*
G01*
G37*
%TD*%
%TO.C,C601*%
G36*
G01*
X175337500Y-80000000D02*
X174862500Y-80000000D01*
G75*
G02*
X174625000Y-79762500I0J237500D01*
G01*
X174625000Y-79162500D01*
G75*
G02*
X174862500Y-78925000I237500J0D01*
G01*
X175337500Y-78925000D01*
G75*
G02*
X175575000Y-79162500I0J-237500D01*
G01*
X175575000Y-79762500D01*
G75*
G02*
X175337500Y-80000000I-237500J0D01*
G01*
G37*
G36*
G01*
X175337500Y-81725000D02*
X174862500Y-81725000D01*
G75*
G02*
X174625000Y-81487500I0J237500D01*
G01*
X174625000Y-80887500D01*
G75*
G02*
X174862500Y-80650000I237500J0D01*
G01*
X175337500Y-80650000D01*
G75*
G02*
X175575000Y-80887500I0J-237500D01*
G01*
X175575000Y-81487500D01*
G75*
G02*
X175337500Y-81725000I-237500J0D01*
G01*
G37*
%TD*%
M02*
