%TF.GenerationSoftware,KiCad,Pcbnew,(5.1.8)-1*%
%TF.CreationDate,2021-03-14T17:59:32-04:00*%
%TF.ProjectId,Artemis Payload Computer,41727465-6d69-4732-9050-61796c6f6164,rev?*%
%TF.SameCoordinates,Original*%
%TF.FileFunction,Copper,L2,Bot*%
%TF.FilePolarity,Positive*%
%FSLAX46Y46*%
G04 Gerber Fmt 4.6, Leading zero omitted, Abs format (unit mm)*
G04 Created by KiCad (PCBNEW (5.1.8)-1) date 2021-03-14 17:59:32*
%MOMM*%
%LPD*%
G01*
G04 APERTURE LIST*
%TA.AperFunction,ComponentPad*%
%ADD10O,1.600000X1.600000*%
%TD*%
%TA.AperFunction,ComponentPad*%
%ADD11C,1.600000*%
%TD*%
%TA.AperFunction,ComponentPad*%
%ADD12C,1.524000*%
%TD*%
%TA.AperFunction,ComponentPad*%
%ADD13R,1.408000X1.408000*%
%TD*%
%TA.AperFunction,ComponentPad*%
%ADD14C,1.750000*%
%TD*%
%TA.AperFunction,ComponentPad*%
%ADD15R,1.600000X1.600000*%
%TD*%
%TA.AperFunction,ComponentPad*%
%ADD16C,1.900000*%
%TD*%
%TA.AperFunction,ComponentPad*%
%ADD17C,3.000000*%
%TD*%
%TA.AperFunction,ComponentPad*%
%ADD18R,3.000000X3.000000*%
%TD*%
%TA.AperFunction,ComponentPad*%
%ADD19C,2.100000*%
%TD*%
%TA.AperFunction,ComponentPad*%
%ADD20R,2.100000X2.100000*%
%TD*%
%TA.AperFunction,ViaPad*%
%ADD21C,1.000000*%
%TD*%
%TA.AperFunction,ViaPad*%
%ADD22C,0.800000*%
%TD*%
%TA.AperFunction,Conductor*%
%ADD23C,0.250000*%
%TD*%
%TA.AperFunction,Conductor*%
%ADD24C,0.254000*%
%TD*%
%TA.AperFunction,Conductor*%
%ADD25C,0.100000*%
%TD*%
G04 APERTURE END LIST*
D10*
%TO.P,R2,2*%
%TO.N,Net-(R1-Pad1)*%
X139500000Y-72050000D03*
D11*
%TO.P,R2,1*%
%TO.N,Net-(J2-Pad2)*%
X139500000Y-84750000D03*
%TD*%
D10*
%TO.P,R1,2*%
%TO.N,Net-(J1-Pad1)*%
X134750000Y-84750000D03*
D11*
%TO.P,R1,1*%
%TO.N,Net-(R1-Pad1)*%
X134750000Y-72050000D03*
%TD*%
D12*
%TO.P,U701,7*%
%TO.N,GND*%
X144760000Y-87500000D03*
%TO.P,U701,6*%
%TO.N,/CD*%
X147300000Y-87500000D03*
%TO.P,U701,5*%
%TO.N,/DO*%
X149840000Y-87500000D03*
%TO.P,U701,4*%
%TO.N,/SCK*%
X152380000Y-87500000D03*
%TO.P,U701,3*%
%TO.N,/DI*%
X154920000Y-87500000D03*
%TO.P,U701,2*%
%TO.N,/CS*%
X157460000Y-87500000D03*
%TO.P,U701,1*%
%TO.N,+5V*%
X160000000Y-87500000D03*
%TD*%
D13*
%TO.P,U1,GND*%
%TO.N,GND*%
X128330000Y-38210000D03*
%TO.P,U1,DT*%
%TO.N,/DT*%
X130870000Y-38210000D03*
%TO.P,U1,SCK*%
%TO.N,/SCK*%
X133410000Y-38210000D03*
%TO.P,U1,VCC*%
%TO.N,+5V*%
X135950000Y-38210000D03*
%TO.P,U1,B+*%
%TO.N,Net-(U1-PadB+)*%
X138490000Y-63610000D03*
%TO.P,U1,B*%
%TO.N,Net-(U1-PadB)*%
X135950000Y-63610000D03*
%TO.P,U1,A+*%
%TO.N,Net-(R1-Pad1)*%
X133410000Y-63610000D03*
%TO.P,U1,A*%
%TO.N,Net-(J1-Pad2)*%
X130870000Y-63610000D03*
%TO.P,U1,E*%
%TO.N,Net-(J2-Pad2)*%
X128330000Y-63610000D03*
%TO.P,U1,E+*%
%TO.N,Net-(J1-Pad1)*%
X125790000Y-63610000D03*
%TD*%
D11*
%TO.P,U401,12*%
%TO.N,Net-(U401-Pad12)*%
X179500000Y-67700000D03*
%TO.P,U401,11*%
%TO.N,Net-(U401-Pad11)*%
X179500000Y-65160000D03*
%TO.P,U401,10*%
%TO.N,Net-(U401-Pad10)*%
X179500000Y-62620000D03*
%TO.P,U401,9*%
%TO.N,Net-(U401-Pad9)*%
X179500000Y-60080000D03*
%TO.P,U401,8*%
%TO.N,Net-(U401-Pad8)*%
X179500000Y-57540000D03*
%TO.P,U401,7*%
%TO.N,Net-(U401-Pad7)*%
X179500000Y-55000000D03*
%TO.P,U401,6*%
%TO.N,Net-(U401-Pad6)*%
X166800000Y-67700000D03*
%TO.P,U401,5*%
%TO.N,/SDA0*%
X166800000Y-65160000D03*
%TO.P,U401,4*%
%TO.N,/SCL0*%
X166800000Y-62620000D03*
%TO.P,U401,3*%
%TO.N,GND*%
X166800000Y-60080000D03*
%TO.P,U401,2*%
%TO.N,Net-(U401-Pad2)*%
X166800000Y-57540000D03*
%TO.P,U401,1*%
%TO.N,+5V*%
X166800000Y-55000000D03*
%TD*%
D14*
%TO.P,U501,7*%
%TO.N,Net-(U501-Pad7)*%
X165360000Y-73225000D03*
%TO.P,U501,6*%
%TO.N,/SDA0*%
X167900000Y-73225000D03*
%TO.P,U501,5*%
%TO.N,Net-(U501-Pad5)*%
X170440000Y-73225000D03*
%TO.P,U501,4*%
%TO.N,/SCL0*%
X172980000Y-73225000D03*
%TO.P,U501,3*%
%TO.N,GND*%
X175520000Y-73225000D03*
%TO.P,U501,2*%
%TO.N,Net-(U501-Pad2)*%
X178060000Y-73225000D03*
%TO.P,U501,1*%
%TO.N,+5V*%
X180600000Y-73225000D03*
%TD*%
D11*
%TO.P,U2,17*%
%TO.N,GND*%
X152500000Y-66510000D03*
%TO.P,U2,18*%
%TO.N,Net-(U2-Pad18)*%
X155040000Y-66510000D03*
%TO.P,U2,19*%
%TO.N,Net-(U2-Pad19)*%
X157580000Y-66510000D03*
%TO.P,U2,20*%
%TO.N,Net-(U2-Pad20)*%
X160120000Y-66510000D03*
%TO.P,U2,16*%
%TO.N,Net-(U2-Pad16)*%
X149960000Y-66510000D03*
%TO.P,U2,15*%
%TO.N,Net-(U2-Pad15)*%
X147420000Y-66510000D03*
%TO.P,U2,14*%
%TO.N,/DI*%
X144880000Y-66510000D03*
%TO.P,U2,21*%
%TO.N,/SCK*%
X160120000Y-63970000D03*
%TO.P,U2,22*%
%TO.N,/DT*%
X160120000Y-61430000D03*
%TO.P,U2,23*%
%TO.N,Net-(U2-Pad23)*%
X160120000Y-58890000D03*
%TO.P,U2,24*%
%TO.N,/CD*%
X160120000Y-56350000D03*
%TO.P,U2,25*%
%TO.N,/SDA0*%
X160120000Y-53810000D03*
%TO.P,U2,26*%
%TO.N,/SCL0*%
X160120000Y-51270000D03*
%TO.P,U2,27*%
%TO.N,Net-(U2-Pad27)*%
X160120000Y-48730000D03*
%TO.P,U2,28*%
%TO.N,Net-(U2-Pad28)*%
X160120000Y-46190000D03*
%TO.P,U2,29*%
%TO.N,Net-(U2-Pad29)*%
X160120000Y-43650000D03*
%TO.P,U2,30*%
%TO.N,Net-(U2-Pad30)*%
X160120000Y-41110000D03*
%TO.P,U2,31*%
%TO.N,Net-(U2-Pad31)*%
X160120000Y-38570000D03*
%TO.P,U2,32*%
%TO.N,GND*%
X160120000Y-36030000D03*
%TO.P,U2,33*%
%TO.N,+5V*%
X160120000Y-33490000D03*
%TO.P,U2,34*%
%TO.N,Net-(U2-Pad34)*%
X157580000Y-36030000D03*
%TO.P,U2,35*%
%TO.N,Net-(U2-Pad35)*%
X157580000Y-41110000D03*
%TO.P,U2,36*%
%TO.N,Net-(U2-Pad36)*%
X157580000Y-43650000D03*
%TO.P,U2,37*%
%TO.N,Net-(U2-Pad37)*%
X157580000Y-46190000D03*
%TO.P,U2,13*%
%TO.N,/DO*%
X144880000Y-63970000D03*
%TO.P,U2,12*%
%TO.N,/CS*%
X144880000Y-61430000D03*
%TO.P,U2,11*%
%TO.N,Net-(U2-Pad11)*%
X144880000Y-58890000D03*
%TO.P,U2,10*%
%TO.N,Net-(U2-Pad10)*%
X144880000Y-56350000D03*
%TO.P,U2,9*%
%TO.N,Net-(U2-Pad9)*%
X144880000Y-53810000D03*
%TO.P,U2,8*%
%TO.N,Net-(U2-Pad8)*%
X144880000Y-51270000D03*
%TO.P,U2,7*%
%TO.N,Net-(U2-Pad7)*%
X144880000Y-48730000D03*
%TO.P,U2,6*%
%TO.N,Net-(U2-Pad6)*%
X144880000Y-46190000D03*
%TO.P,U2,5*%
%TO.N,Net-(U2-Pad5)*%
X144880000Y-43650000D03*
%TO.P,U2,4*%
%TO.N,Net-(U2-Pad4)*%
X144880000Y-41110000D03*
%TO.P,U2,3*%
%TO.N,Net-(U2-Pad3)*%
X144880000Y-38570000D03*
%TO.P,U2,2*%
%TO.N,Net-(U2-Pad2)*%
X144880000Y-36030000D03*
D15*
%TO.P,U2,1*%
%TO.N,GND*%
X144880000Y-33490000D03*
D16*
%TO.P,U2,52*%
%TO.N,Net-(U2-Pad52)*%
X152500000Y-43650000D03*
X152500000Y-39840000D03*
%TD*%
D17*
%TO.P,J601,2*%
%TO.N,+BATT*%
X175100000Y-34420000D03*
D18*
%TO.P,J601,1*%
%TO.N,GND*%
X175100000Y-39500000D03*
%TD*%
D19*
%TO.P,J2,2*%
%TO.N,Net-(J2-Pad2)*%
X125000000Y-79960000D03*
D20*
%TO.P,J2,1*%
%TO.N,Net-(J1-Pad2)*%
X125000000Y-82500000D03*
%TD*%
D19*
%TO.P,J1,2*%
%TO.N,Net-(J1-Pad2)*%
X125000000Y-75040000D03*
D20*
%TO.P,J1,1*%
%TO.N,Net-(J1-Pad1)*%
X125000000Y-72500000D03*
%TD*%
D21*
%TO.N,+5V*%
X170000000Y-44420000D03*
D22*
%TO.N,Net-(J1-Pad2)*%
X130860000Y-65470000D03*
%TO.N,/SCK*%
X151300000Y-85630000D03*
%TO.N,/CD*%
X147250000Y-85630000D03*
X161830000Y-67330000D03*
%TD*%
D23*
%TO.N,Net-(J1-Pad2)*%
X126484924Y-75040000D02*
X125000000Y-75040000D01*
X130860000Y-70664924D02*
X126484924Y-75040000D01*
X130860000Y-65470000D02*
X130860000Y-70664924D01*
%TO.N,/SCK*%
X151300000Y-85630000D02*
X162940000Y-73990000D01*
X162940000Y-66790000D02*
X160120000Y-63970000D01*
X162940000Y-73990000D02*
X162940000Y-66790000D01*
%TO.N,/CD*%
X161830000Y-71050000D02*
X161830000Y-67330000D01*
X147250000Y-85630000D02*
X161830000Y-71050000D01*
%TD*%
D24*
%TO.N,+5V*%
X181873000Y-72431053D02*
X181646240Y-72358365D01*
X180779605Y-73225000D01*
X181646240Y-74091635D01*
X181873000Y-74018947D01*
X181873000Y-89873000D01*
X119127000Y-89873000D01*
X119127000Y-87362408D01*
X143363000Y-87362408D01*
X143363000Y-87637592D01*
X143416686Y-87907490D01*
X143521995Y-88161727D01*
X143674880Y-88390535D01*
X143869465Y-88585120D01*
X144098273Y-88738005D01*
X144352510Y-88843314D01*
X144622408Y-88897000D01*
X144897592Y-88897000D01*
X145167490Y-88843314D01*
X145421727Y-88738005D01*
X145650535Y-88585120D01*
X145845120Y-88390535D01*
X145998005Y-88161727D01*
X146030000Y-88084485D01*
X146061995Y-88161727D01*
X146214880Y-88390535D01*
X146409465Y-88585120D01*
X146638273Y-88738005D01*
X146892510Y-88843314D01*
X147162408Y-88897000D01*
X147437592Y-88897000D01*
X147707490Y-88843314D01*
X147961727Y-88738005D01*
X148190535Y-88585120D01*
X148385120Y-88390535D01*
X148538005Y-88161727D01*
X148570000Y-88084485D01*
X148601995Y-88161727D01*
X148754880Y-88390535D01*
X148949465Y-88585120D01*
X149178273Y-88738005D01*
X149432510Y-88843314D01*
X149702408Y-88897000D01*
X149977592Y-88897000D01*
X150247490Y-88843314D01*
X150501727Y-88738005D01*
X150730535Y-88585120D01*
X150925120Y-88390535D01*
X151078005Y-88161727D01*
X151110000Y-88084485D01*
X151141995Y-88161727D01*
X151294880Y-88390535D01*
X151489465Y-88585120D01*
X151718273Y-88738005D01*
X151972510Y-88843314D01*
X152242408Y-88897000D01*
X152517592Y-88897000D01*
X152787490Y-88843314D01*
X153041727Y-88738005D01*
X153270535Y-88585120D01*
X153465120Y-88390535D01*
X153618005Y-88161727D01*
X153650000Y-88084485D01*
X153681995Y-88161727D01*
X153834880Y-88390535D01*
X154029465Y-88585120D01*
X154258273Y-88738005D01*
X154512510Y-88843314D01*
X154782408Y-88897000D01*
X155057592Y-88897000D01*
X155327490Y-88843314D01*
X155581727Y-88738005D01*
X155810535Y-88585120D01*
X156005120Y-88390535D01*
X156158005Y-88161727D01*
X156190000Y-88084485D01*
X156221995Y-88161727D01*
X156374880Y-88390535D01*
X156569465Y-88585120D01*
X156798273Y-88738005D01*
X157052510Y-88843314D01*
X157322408Y-88897000D01*
X157597592Y-88897000D01*
X157867490Y-88843314D01*
X158121727Y-88738005D01*
X158350535Y-88585120D01*
X158470090Y-88465565D01*
X159214040Y-88465565D01*
X159281020Y-88705656D01*
X159530048Y-88822756D01*
X159797135Y-88889023D01*
X160072017Y-88901910D01*
X160344133Y-88860922D01*
X160603023Y-88767636D01*
X160718980Y-88705656D01*
X160785960Y-88465565D01*
X160000000Y-87679605D01*
X159214040Y-88465565D01*
X158470090Y-88465565D01*
X158545120Y-88390535D01*
X158698005Y-88161727D01*
X158727692Y-88090057D01*
X158732364Y-88103023D01*
X158794344Y-88218980D01*
X159034435Y-88285960D01*
X159820395Y-87500000D01*
X160179605Y-87500000D01*
X160965565Y-88285960D01*
X161205656Y-88218980D01*
X161322756Y-87969952D01*
X161389023Y-87702865D01*
X161401910Y-87427983D01*
X161360922Y-87155867D01*
X161267636Y-86896977D01*
X161205656Y-86781020D01*
X160965565Y-86714040D01*
X160179605Y-87500000D01*
X159820395Y-87500000D01*
X159034435Y-86714040D01*
X158794344Y-86781020D01*
X158730515Y-86916760D01*
X158698005Y-86838273D01*
X158545120Y-86609465D01*
X158470090Y-86534435D01*
X159214040Y-86534435D01*
X160000000Y-87320395D01*
X160785960Y-86534435D01*
X160718980Y-86294344D01*
X160469952Y-86177244D01*
X160202865Y-86110977D01*
X159927983Y-86098090D01*
X159655867Y-86139078D01*
X159396977Y-86232364D01*
X159281020Y-86294344D01*
X159214040Y-86534435D01*
X158470090Y-86534435D01*
X158350535Y-86414880D01*
X158121727Y-86261995D01*
X157867490Y-86156686D01*
X157597592Y-86103000D01*
X157322408Y-86103000D01*
X157052510Y-86156686D01*
X156798273Y-86261995D01*
X156569465Y-86414880D01*
X156374880Y-86609465D01*
X156221995Y-86838273D01*
X156190000Y-86915515D01*
X156158005Y-86838273D01*
X156005120Y-86609465D01*
X155810535Y-86414880D01*
X155581727Y-86261995D01*
X155327490Y-86156686D01*
X155057592Y-86103000D01*
X154782408Y-86103000D01*
X154512510Y-86156686D01*
X154258273Y-86261995D01*
X154029465Y-86414880D01*
X153834880Y-86609465D01*
X153681995Y-86838273D01*
X153650000Y-86915515D01*
X153618005Y-86838273D01*
X153465120Y-86609465D01*
X153270535Y-86414880D01*
X153041727Y-86261995D01*
X152787490Y-86156686D01*
X152517592Y-86103000D01*
X152242408Y-86103000D01*
X152222732Y-86106914D01*
X152295226Y-85931898D01*
X152335000Y-85731939D01*
X152335000Y-85669801D01*
X163451004Y-74553798D01*
X163480001Y-74530001D01*
X163574974Y-74414276D01*
X163645546Y-74282247D01*
X163689003Y-74138986D01*
X163700000Y-74027333D01*
X163700000Y-74027323D01*
X163703676Y-73990000D01*
X163700000Y-73952677D01*
X163700000Y-73076278D01*
X163850000Y-73076278D01*
X163850000Y-73373722D01*
X163908029Y-73665451D01*
X164021856Y-73940253D01*
X164187107Y-74187569D01*
X164397431Y-74397893D01*
X164644747Y-74563144D01*
X164919549Y-74676971D01*
X165211278Y-74735000D01*
X165508722Y-74735000D01*
X165800451Y-74676971D01*
X166075253Y-74563144D01*
X166322569Y-74397893D01*
X166532893Y-74187569D01*
X166630000Y-74042238D01*
X166727107Y-74187569D01*
X166937431Y-74397893D01*
X167184747Y-74563144D01*
X167459549Y-74676971D01*
X167751278Y-74735000D01*
X168048722Y-74735000D01*
X168340451Y-74676971D01*
X168615253Y-74563144D01*
X168862569Y-74397893D01*
X169072893Y-74187569D01*
X169170000Y-74042238D01*
X169267107Y-74187569D01*
X169477431Y-74397893D01*
X169724747Y-74563144D01*
X169999549Y-74676971D01*
X170291278Y-74735000D01*
X170588722Y-74735000D01*
X170880451Y-74676971D01*
X171155253Y-74563144D01*
X171402569Y-74397893D01*
X171612893Y-74187569D01*
X171710000Y-74042238D01*
X171807107Y-74187569D01*
X172017431Y-74397893D01*
X172264747Y-74563144D01*
X172539549Y-74676971D01*
X172831278Y-74735000D01*
X173128722Y-74735000D01*
X173420451Y-74676971D01*
X173695253Y-74563144D01*
X173942569Y-74397893D01*
X174152893Y-74187569D01*
X174250000Y-74042238D01*
X174347107Y-74187569D01*
X174557431Y-74397893D01*
X174804747Y-74563144D01*
X175079549Y-74676971D01*
X175371278Y-74735000D01*
X175668722Y-74735000D01*
X175960451Y-74676971D01*
X176235253Y-74563144D01*
X176482569Y-74397893D01*
X176692893Y-74187569D01*
X176790000Y-74042238D01*
X176887107Y-74187569D01*
X177097431Y-74397893D01*
X177344747Y-74563144D01*
X177619549Y-74676971D01*
X177911278Y-74735000D01*
X178208722Y-74735000D01*
X178500451Y-74676971D01*
X178775253Y-74563144D01*
X179022569Y-74397893D01*
X179149222Y-74271240D01*
X179733365Y-74271240D01*
X179814025Y-74522868D01*
X180082329Y-74651267D01*
X180370526Y-74724855D01*
X180667543Y-74740804D01*
X180961963Y-74698501D01*
X181242474Y-74599572D01*
X181385975Y-74522868D01*
X181466635Y-74271240D01*
X180600000Y-73404605D01*
X179733365Y-74271240D01*
X179149222Y-74271240D01*
X179232893Y-74187569D01*
X179342288Y-74023847D01*
X179553760Y-74091635D01*
X180420395Y-73225000D01*
X179553760Y-72358365D01*
X179342288Y-72426153D01*
X179232893Y-72262431D01*
X179149222Y-72178760D01*
X179733365Y-72178760D01*
X180600000Y-73045395D01*
X181466635Y-72178760D01*
X181385975Y-71927132D01*
X181117671Y-71798733D01*
X180829474Y-71725145D01*
X180532457Y-71709196D01*
X180238037Y-71751499D01*
X179957526Y-71850428D01*
X179814025Y-71927132D01*
X179733365Y-72178760D01*
X179149222Y-72178760D01*
X179022569Y-72052107D01*
X178775253Y-71886856D01*
X178500451Y-71773029D01*
X178208722Y-71715000D01*
X177911278Y-71715000D01*
X177619549Y-71773029D01*
X177344747Y-71886856D01*
X177097431Y-72052107D01*
X176887107Y-72262431D01*
X176790000Y-72407762D01*
X176692893Y-72262431D01*
X176482569Y-72052107D01*
X176235253Y-71886856D01*
X175960451Y-71773029D01*
X175668722Y-71715000D01*
X175371278Y-71715000D01*
X175079549Y-71773029D01*
X174804747Y-71886856D01*
X174557431Y-72052107D01*
X174347107Y-72262431D01*
X174250000Y-72407762D01*
X174152893Y-72262431D01*
X173942569Y-72052107D01*
X173695253Y-71886856D01*
X173420451Y-71773029D01*
X173128722Y-71715000D01*
X172831278Y-71715000D01*
X172539549Y-71773029D01*
X172264747Y-71886856D01*
X172017431Y-72052107D01*
X171807107Y-72262431D01*
X171710000Y-72407762D01*
X171612893Y-72262431D01*
X171402569Y-72052107D01*
X171155253Y-71886856D01*
X170880451Y-71773029D01*
X170588722Y-71715000D01*
X170291278Y-71715000D01*
X169999549Y-71773029D01*
X169724747Y-71886856D01*
X169477431Y-72052107D01*
X169267107Y-72262431D01*
X169170000Y-72407762D01*
X169072893Y-72262431D01*
X168862569Y-72052107D01*
X168615253Y-71886856D01*
X168340451Y-71773029D01*
X168048722Y-71715000D01*
X167751278Y-71715000D01*
X167459549Y-71773029D01*
X167184747Y-71886856D01*
X166937431Y-72052107D01*
X166727107Y-72262431D01*
X166630000Y-72407762D01*
X166532893Y-72262431D01*
X166322569Y-72052107D01*
X166075253Y-71886856D01*
X165800451Y-71773029D01*
X165508722Y-71715000D01*
X165211278Y-71715000D01*
X164919549Y-71773029D01*
X164644747Y-71886856D01*
X164397431Y-72052107D01*
X164187107Y-72262431D01*
X164021856Y-72509747D01*
X163908029Y-72784549D01*
X163850000Y-73076278D01*
X163700000Y-73076278D01*
X163700000Y-66827322D01*
X163703676Y-66789999D01*
X163700000Y-66752676D01*
X163700000Y-66752667D01*
X163689003Y-66641014D01*
X163645546Y-66497753D01*
X163574974Y-66365724D01*
X163480001Y-66249999D01*
X163451003Y-66226201D01*
X161518688Y-64293886D01*
X161555000Y-64111335D01*
X161555000Y-63828665D01*
X161499853Y-63551426D01*
X161391680Y-63290273D01*
X161234637Y-63055241D01*
X161034759Y-62855363D01*
X160802241Y-62700000D01*
X161034759Y-62544637D01*
X161234637Y-62344759D01*
X161391680Y-62109727D01*
X161499853Y-61848574D01*
X161555000Y-61571335D01*
X161555000Y-61288665D01*
X161499853Y-61011426D01*
X161391680Y-60750273D01*
X161234637Y-60515241D01*
X161034759Y-60315363D01*
X160802241Y-60160000D01*
X161034759Y-60004637D01*
X161234637Y-59804759D01*
X161391680Y-59569727D01*
X161499853Y-59308574D01*
X161555000Y-59031335D01*
X161555000Y-58748665D01*
X161499853Y-58471426D01*
X161391680Y-58210273D01*
X161234637Y-57975241D01*
X161034759Y-57775363D01*
X160802241Y-57620000D01*
X161034759Y-57464637D01*
X161100731Y-57398665D01*
X165365000Y-57398665D01*
X165365000Y-57681335D01*
X165420147Y-57958574D01*
X165528320Y-58219727D01*
X165685363Y-58454759D01*
X165885241Y-58654637D01*
X166117759Y-58810000D01*
X165885241Y-58965363D01*
X165685363Y-59165241D01*
X165528320Y-59400273D01*
X165420147Y-59661426D01*
X165365000Y-59938665D01*
X165365000Y-60221335D01*
X165420147Y-60498574D01*
X165528320Y-60759727D01*
X165685363Y-60994759D01*
X165885241Y-61194637D01*
X166117759Y-61350000D01*
X165885241Y-61505363D01*
X165685363Y-61705241D01*
X165528320Y-61940273D01*
X165420147Y-62201426D01*
X165365000Y-62478665D01*
X165365000Y-62761335D01*
X165420147Y-63038574D01*
X165528320Y-63299727D01*
X165685363Y-63534759D01*
X165885241Y-63734637D01*
X166117759Y-63890000D01*
X165885241Y-64045363D01*
X165685363Y-64245241D01*
X165528320Y-64480273D01*
X165420147Y-64741426D01*
X165365000Y-65018665D01*
X165365000Y-65301335D01*
X165420147Y-65578574D01*
X165528320Y-65839727D01*
X165685363Y-66074759D01*
X165885241Y-66274637D01*
X166117759Y-66430000D01*
X165885241Y-66585363D01*
X165685363Y-66785241D01*
X165528320Y-67020273D01*
X165420147Y-67281426D01*
X165365000Y-67558665D01*
X165365000Y-67841335D01*
X165420147Y-68118574D01*
X165528320Y-68379727D01*
X165685363Y-68614759D01*
X165885241Y-68814637D01*
X166120273Y-68971680D01*
X166381426Y-69079853D01*
X166658665Y-69135000D01*
X166941335Y-69135000D01*
X167218574Y-69079853D01*
X167479727Y-68971680D01*
X167714759Y-68814637D01*
X167914637Y-68614759D01*
X168071680Y-68379727D01*
X168179853Y-68118574D01*
X168235000Y-67841335D01*
X168235000Y-67558665D01*
X168179853Y-67281426D01*
X168071680Y-67020273D01*
X167914637Y-66785241D01*
X167714759Y-66585363D01*
X167482241Y-66430000D01*
X167714759Y-66274637D01*
X167914637Y-66074759D01*
X168071680Y-65839727D01*
X168179853Y-65578574D01*
X168235000Y-65301335D01*
X168235000Y-65018665D01*
X168179853Y-64741426D01*
X168071680Y-64480273D01*
X167914637Y-64245241D01*
X167714759Y-64045363D01*
X167482241Y-63890000D01*
X167714759Y-63734637D01*
X167914637Y-63534759D01*
X168071680Y-63299727D01*
X168179853Y-63038574D01*
X168235000Y-62761335D01*
X168235000Y-62478665D01*
X168179853Y-62201426D01*
X168071680Y-61940273D01*
X167914637Y-61705241D01*
X167714759Y-61505363D01*
X167482241Y-61350000D01*
X167714759Y-61194637D01*
X167914637Y-60994759D01*
X168071680Y-60759727D01*
X168179853Y-60498574D01*
X168235000Y-60221335D01*
X168235000Y-59938665D01*
X168179853Y-59661426D01*
X168071680Y-59400273D01*
X167914637Y-59165241D01*
X167714759Y-58965363D01*
X167482241Y-58810000D01*
X167714759Y-58654637D01*
X167914637Y-58454759D01*
X168071680Y-58219727D01*
X168179853Y-57958574D01*
X168235000Y-57681335D01*
X168235000Y-57398665D01*
X168179853Y-57121426D01*
X168071680Y-56860273D01*
X167914637Y-56625241D01*
X167714759Y-56425363D01*
X167480872Y-56269085D01*
X167541514Y-56236671D01*
X167613097Y-55992702D01*
X166800000Y-55179605D01*
X165986903Y-55992702D01*
X166058486Y-56236671D01*
X166122992Y-56267194D01*
X166120273Y-56268320D01*
X165885241Y-56425363D01*
X165685363Y-56625241D01*
X165528320Y-56860273D01*
X165420147Y-57121426D01*
X165365000Y-57398665D01*
X161100731Y-57398665D01*
X161234637Y-57264759D01*
X161391680Y-57029727D01*
X161499853Y-56768574D01*
X161555000Y-56491335D01*
X161555000Y-56208665D01*
X161499853Y-55931426D01*
X161391680Y-55670273D01*
X161234637Y-55435241D01*
X161034759Y-55235363D01*
X160802241Y-55080000D01*
X160816440Y-55070512D01*
X165359783Y-55070512D01*
X165401213Y-55350130D01*
X165496397Y-55616292D01*
X165563329Y-55741514D01*
X165807298Y-55813097D01*
X166620395Y-55000000D01*
X166979605Y-55000000D01*
X167792702Y-55813097D01*
X168036671Y-55741514D01*
X168157571Y-55486004D01*
X168226300Y-55211816D01*
X168240217Y-54929488D01*
X168229724Y-54858665D01*
X178065000Y-54858665D01*
X178065000Y-55141335D01*
X178120147Y-55418574D01*
X178228320Y-55679727D01*
X178385363Y-55914759D01*
X178585241Y-56114637D01*
X178817759Y-56270000D01*
X178585241Y-56425363D01*
X178385363Y-56625241D01*
X178228320Y-56860273D01*
X178120147Y-57121426D01*
X178065000Y-57398665D01*
X178065000Y-57681335D01*
X178120147Y-57958574D01*
X178228320Y-58219727D01*
X178385363Y-58454759D01*
X178585241Y-58654637D01*
X178817759Y-58810000D01*
X178585241Y-58965363D01*
X178385363Y-59165241D01*
X178228320Y-59400273D01*
X178120147Y-59661426D01*
X178065000Y-59938665D01*
X178065000Y-60221335D01*
X178120147Y-60498574D01*
X178228320Y-60759727D01*
X178385363Y-60994759D01*
X178585241Y-61194637D01*
X178817759Y-61350000D01*
X178585241Y-61505363D01*
X178385363Y-61705241D01*
X178228320Y-61940273D01*
X178120147Y-62201426D01*
X178065000Y-62478665D01*
X178065000Y-62761335D01*
X178120147Y-63038574D01*
X178228320Y-63299727D01*
X178385363Y-63534759D01*
X178585241Y-63734637D01*
X178817759Y-63890000D01*
X178585241Y-64045363D01*
X178385363Y-64245241D01*
X178228320Y-64480273D01*
X178120147Y-64741426D01*
X178065000Y-65018665D01*
X178065000Y-65301335D01*
X178120147Y-65578574D01*
X178228320Y-65839727D01*
X178385363Y-66074759D01*
X178585241Y-66274637D01*
X178817759Y-66430000D01*
X178585241Y-66585363D01*
X178385363Y-66785241D01*
X178228320Y-67020273D01*
X178120147Y-67281426D01*
X178065000Y-67558665D01*
X178065000Y-67841335D01*
X178120147Y-68118574D01*
X178228320Y-68379727D01*
X178385363Y-68614759D01*
X178585241Y-68814637D01*
X178820273Y-68971680D01*
X179081426Y-69079853D01*
X179358665Y-69135000D01*
X179641335Y-69135000D01*
X179918574Y-69079853D01*
X180179727Y-68971680D01*
X180414759Y-68814637D01*
X180614637Y-68614759D01*
X180771680Y-68379727D01*
X180879853Y-68118574D01*
X180935000Y-67841335D01*
X180935000Y-67558665D01*
X180879853Y-67281426D01*
X180771680Y-67020273D01*
X180614637Y-66785241D01*
X180414759Y-66585363D01*
X180182241Y-66430000D01*
X180414759Y-66274637D01*
X180614637Y-66074759D01*
X180771680Y-65839727D01*
X180879853Y-65578574D01*
X180935000Y-65301335D01*
X180935000Y-65018665D01*
X180879853Y-64741426D01*
X180771680Y-64480273D01*
X180614637Y-64245241D01*
X180414759Y-64045363D01*
X180182241Y-63890000D01*
X180414759Y-63734637D01*
X180614637Y-63534759D01*
X180771680Y-63299727D01*
X180879853Y-63038574D01*
X180935000Y-62761335D01*
X180935000Y-62478665D01*
X180879853Y-62201426D01*
X180771680Y-61940273D01*
X180614637Y-61705241D01*
X180414759Y-61505363D01*
X180182241Y-61350000D01*
X180414759Y-61194637D01*
X180614637Y-60994759D01*
X180771680Y-60759727D01*
X180879853Y-60498574D01*
X180935000Y-60221335D01*
X180935000Y-59938665D01*
X180879853Y-59661426D01*
X180771680Y-59400273D01*
X180614637Y-59165241D01*
X180414759Y-58965363D01*
X180182241Y-58810000D01*
X180414759Y-58654637D01*
X180614637Y-58454759D01*
X180771680Y-58219727D01*
X180879853Y-57958574D01*
X180935000Y-57681335D01*
X180935000Y-57398665D01*
X180879853Y-57121426D01*
X180771680Y-56860273D01*
X180614637Y-56625241D01*
X180414759Y-56425363D01*
X180182241Y-56270000D01*
X180414759Y-56114637D01*
X180614637Y-55914759D01*
X180771680Y-55679727D01*
X180879853Y-55418574D01*
X180935000Y-55141335D01*
X180935000Y-54858665D01*
X180879853Y-54581426D01*
X180771680Y-54320273D01*
X180614637Y-54085241D01*
X180414759Y-53885363D01*
X180179727Y-53728320D01*
X179918574Y-53620147D01*
X179641335Y-53565000D01*
X179358665Y-53565000D01*
X179081426Y-53620147D01*
X178820273Y-53728320D01*
X178585241Y-53885363D01*
X178385363Y-54085241D01*
X178228320Y-54320273D01*
X178120147Y-54581426D01*
X178065000Y-54858665D01*
X168229724Y-54858665D01*
X168198787Y-54649870D01*
X168103603Y-54383708D01*
X168036671Y-54258486D01*
X167792702Y-54186903D01*
X166979605Y-55000000D01*
X166620395Y-55000000D01*
X165807298Y-54186903D01*
X165563329Y-54258486D01*
X165442429Y-54513996D01*
X165373700Y-54788184D01*
X165359783Y-55070512D01*
X160816440Y-55070512D01*
X161034759Y-54924637D01*
X161234637Y-54724759D01*
X161391680Y-54489727D01*
X161499853Y-54228574D01*
X161543868Y-54007298D01*
X165986903Y-54007298D01*
X166800000Y-54820395D01*
X167613097Y-54007298D01*
X167541514Y-53763329D01*
X167286004Y-53642429D01*
X167011816Y-53573700D01*
X166729488Y-53559783D01*
X166449870Y-53601213D01*
X166183708Y-53696397D01*
X166058486Y-53763329D01*
X165986903Y-54007298D01*
X161543868Y-54007298D01*
X161555000Y-53951335D01*
X161555000Y-53668665D01*
X161499853Y-53391426D01*
X161391680Y-53130273D01*
X161234637Y-52895241D01*
X161034759Y-52695363D01*
X160802241Y-52540000D01*
X161034759Y-52384637D01*
X161234637Y-52184759D01*
X161391680Y-51949727D01*
X161499853Y-51688574D01*
X161555000Y-51411335D01*
X161555000Y-51128665D01*
X161499853Y-50851426D01*
X161391680Y-50590273D01*
X161234637Y-50355241D01*
X161034759Y-50155363D01*
X160802241Y-50000000D01*
X161034759Y-49844637D01*
X161234637Y-49644759D01*
X161391680Y-49409727D01*
X161499853Y-49148574D01*
X161555000Y-48871335D01*
X161555000Y-48588665D01*
X161499853Y-48311426D01*
X161391680Y-48050273D01*
X161234637Y-47815241D01*
X161034759Y-47615363D01*
X160802241Y-47460000D01*
X161034759Y-47304637D01*
X161234637Y-47104759D01*
X161391680Y-46869727D01*
X161499853Y-46608574D01*
X161555000Y-46331335D01*
X161555000Y-46048665D01*
X161499853Y-45771426D01*
X161391680Y-45510273D01*
X161234637Y-45275241D01*
X161034759Y-45075363D01*
X160802241Y-44920000D01*
X161034759Y-44764637D01*
X161234637Y-44564759D01*
X161391680Y-44329727D01*
X161499853Y-44068574D01*
X161555000Y-43791335D01*
X161555000Y-43508665D01*
X161499853Y-43231426D01*
X161391680Y-42970273D01*
X161234637Y-42735241D01*
X161034759Y-42535363D01*
X160802241Y-42380000D01*
X161034759Y-42224637D01*
X161234637Y-42024759D01*
X161391680Y-41789727D01*
X161499853Y-41528574D01*
X161555000Y-41251335D01*
X161555000Y-40968665D01*
X161499853Y-40691426D01*
X161391680Y-40430273D01*
X161234637Y-40195241D01*
X161034759Y-39995363D01*
X160802241Y-39840000D01*
X161034759Y-39684637D01*
X161234637Y-39484759D01*
X161391680Y-39249727D01*
X161499853Y-38988574D01*
X161555000Y-38711335D01*
X161555000Y-38428665D01*
X161499853Y-38151426D01*
X161437131Y-38000000D01*
X172961928Y-38000000D01*
X172961928Y-41000000D01*
X172974188Y-41124482D01*
X173010498Y-41244180D01*
X173069463Y-41354494D01*
X173148815Y-41451185D01*
X173245506Y-41530537D01*
X173355820Y-41589502D01*
X173475518Y-41625812D01*
X173600000Y-41638072D01*
X176600000Y-41638072D01*
X176724482Y-41625812D01*
X176844180Y-41589502D01*
X176954494Y-41530537D01*
X177051185Y-41451185D01*
X177130537Y-41354494D01*
X177189502Y-41244180D01*
X177225812Y-41124482D01*
X177238072Y-41000000D01*
X177238072Y-38000000D01*
X177225812Y-37875518D01*
X177189502Y-37755820D01*
X177130537Y-37645506D01*
X177051185Y-37548815D01*
X176954494Y-37469463D01*
X176844180Y-37410498D01*
X176724482Y-37374188D01*
X176600000Y-37361928D01*
X173600000Y-37361928D01*
X173475518Y-37374188D01*
X173355820Y-37410498D01*
X173245506Y-37469463D01*
X173148815Y-37548815D01*
X173069463Y-37645506D01*
X173010498Y-37755820D01*
X172974188Y-37875518D01*
X172961928Y-38000000D01*
X161437131Y-38000000D01*
X161391680Y-37890273D01*
X161234637Y-37655241D01*
X161034759Y-37455363D01*
X160802241Y-37300000D01*
X161034759Y-37144637D01*
X161234637Y-36944759D01*
X161391680Y-36709727D01*
X161499853Y-36448574D01*
X161555000Y-36171335D01*
X161555000Y-35888665D01*
X161499853Y-35611426D01*
X161391680Y-35350273D01*
X161234637Y-35115241D01*
X161034759Y-34915363D01*
X160800872Y-34759085D01*
X160861514Y-34726671D01*
X160933097Y-34482702D01*
X160120000Y-33669605D01*
X159306903Y-34482702D01*
X159378486Y-34726671D01*
X159442992Y-34757194D01*
X159440273Y-34758320D01*
X159205241Y-34915363D01*
X159005363Y-35115241D01*
X158850000Y-35347759D01*
X158694637Y-35115241D01*
X158494759Y-34915363D01*
X158259727Y-34758320D01*
X157998574Y-34650147D01*
X157721335Y-34595000D01*
X157438665Y-34595000D01*
X157161426Y-34650147D01*
X156900273Y-34758320D01*
X156665241Y-34915363D01*
X156465363Y-35115241D01*
X156308320Y-35350273D01*
X156200147Y-35611426D01*
X156145000Y-35888665D01*
X156145000Y-36171335D01*
X156200147Y-36448574D01*
X156308320Y-36709727D01*
X156465363Y-36944759D01*
X156665241Y-37144637D01*
X156900273Y-37301680D01*
X157161426Y-37409853D01*
X157438665Y-37465000D01*
X157721335Y-37465000D01*
X157998574Y-37409853D01*
X158259727Y-37301680D01*
X158494759Y-37144637D01*
X158694637Y-36944759D01*
X158850000Y-36712241D01*
X159005363Y-36944759D01*
X159205241Y-37144637D01*
X159437759Y-37300000D01*
X159205241Y-37455363D01*
X159005363Y-37655241D01*
X158848320Y-37890273D01*
X158740147Y-38151426D01*
X158685000Y-38428665D01*
X158685000Y-38711335D01*
X158740147Y-38988574D01*
X158848320Y-39249727D01*
X159005363Y-39484759D01*
X159205241Y-39684637D01*
X159437759Y-39840000D01*
X159205241Y-39995363D01*
X159005363Y-40195241D01*
X158850000Y-40427759D01*
X158694637Y-40195241D01*
X158494759Y-39995363D01*
X158259727Y-39838320D01*
X157998574Y-39730147D01*
X157721335Y-39675000D01*
X157438665Y-39675000D01*
X157161426Y-39730147D01*
X156900273Y-39838320D01*
X156665241Y-39995363D01*
X156465363Y-40195241D01*
X156308320Y-40430273D01*
X156200147Y-40691426D01*
X156145000Y-40968665D01*
X156145000Y-41251335D01*
X156200147Y-41528574D01*
X156308320Y-41789727D01*
X156465363Y-42024759D01*
X156665241Y-42224637D01*
X156897759Y-42380000D01*
X156665241Y-42535363D01*
X156465363Y-42735241D01*
X156308320Y-42970273D01*
X156200147Y-43231426D01*
X156145000Y-43508665D01*
X156145000Y-43791335D01*
X156200147Y-44068574D01*
X156308320Y-44329727D01*
X156465363Y-44564759D01*
X156665241Y-44764637D01*
X156897759Y-44920000D01*
X156665241Y-45075363D01*
X156465363Y-45275241D01*
X156308320Y-45510273D01*
X156200147Y-45771426D01*
X156145000Y-46048665D01*
X156145000Y-46331335D01*
X156200147Y-46608574D01*
X156308320Y-46869727D01*
X156465363Y-47104759D01*
X156665241Y-47304637D01*
X156900273Y-47461680D01*
X157161426Y-47569853D01*
X157438665Y-47625000D01*
X157721335Y-47625000D01*
X157998574Y-47569853D01*
X158259727Y-47461680D01*
X158494759Y-47304637D01*
X158694637Y-47104759D01*
X158850000Y-46872241D01*
X159005363Y-47104759D01*
X159205241Y-47304637D01*
X159437759Y-47460000D01*
X159205241Y-47615363D01*
X159005363Y-47815241D01*
X158848320Y-48050273D01*
X158740147Y-48311426D01*
X158685000Y-48588665D01*
X158685000Y-48871335D01*
X158740147Y-49148574D01*
X158848320Y-49409727D01*
X159005363Y-49644759D01*
X159205241Y-49844637D01*
X159437759Y-50000000D01*
X159205241Y-50155363D01*
X159005363Y-50355241D01*
X158848320Y-50590273D01*
X158740147Y-50851426D01*
X158685000Y-51128665D01*
X158685000Y-51411335D01*
X158740147Y-51688574D01*
X158848320Y-51949727D01*
X159005363Y-52184759D01*
X159205241Y-52384637D01*
X159437759Y-52540000D01*
X159205241Y-52695363D01*
X159005363Y-52895241D01*
X158848320Y-53130273D01*
X158740147Y-53391426D01*
X158685000Y-53668665D01*
X158685000Y-53951335D01*
X158740147Y-54228574D01*
X158848320Y-54489727D01*
X159005363Y-54724759D01*
X159205241Y-54924637D01*
X159437759Y-55080000D01*
X159205241Y-55235363D01*
X159005363Y-55435241D01*
X158848320Y-55670273D01*
X158740147Y-55931426D01*
X158685000Y-56208665D01*
X158685000Y-56491335D01*
X158740147Y-56768574D01*
X158848320Y-57029727D01*
X159005363Y-57264759D01*
X159205241Y-57464637D01*
X159437759Y-57620000D01*
X159205241Y-57775363D01*
X159005363Y-57975241D01*
X158848320Y-58210273D01*
X158740147Y-58471426D01*
X158685000Y-58748665D01*
X158685000Y-59031335D01*
X158740147Y-59308574D01*
X158848320Y-59569727D01*
X159005363Y-59804759D01*
X159205241Y-60004637D01*
X159437759Y-60160000D01*
X159205241Y-60315363D01*
X159005363Y-60515241D01*
X158848320Y-60750273D01*
X158740147Y-61011426D01*
X158685000Y-61288665D01*
X158685000Y-61571335D01*
X158740147Y-61848574D01*
X158848320Y-62109727D01*
X159005363Y-62344759D01*
X159205241Y-62544637D01*
X159437759Y-62700000D01*
X159205241Y-62855363D01*
X159005363Y-63055241D01*
X158848320Y-63290273D01*
X158740147Y-63551426D01*
X158685000Y-63828665D01*
X158685000Y-64111335D01*
X158740147Y-64388574D01*
X158848320Y-64649727D01*
X159005363Y-64884759D01*
X159205241Y-65084637D01*
X159437759Y-65240000D01*
X159205241Y-65395363D01*
X159005363Y-65595241D01*
X158850000Y-65827759D01*
X158694637Y-65595241D01*
X158494759Y-65395363D01*
X158259727Y-65238320D01*
X157998574Y-65130147D01*
X157721335Y-65075000D01*
X157438665Y-65075000D01*
X157161426Y-65130147D01*
X156900273Y-65238320D01*
X156665241Y-65395363D01*
X156465363Y-65595241D01*
X156310000Y-65827759D01*
X156154637Y-65595241D01*
X155954759Y-65395363D01*
X155719727Y-65238320D01*
X155458574Y-65130147D01*
X155181335Y-65075000D01*
X154898665Y-65075000D01*
X154621426Y-65130147D01*
X154360273Y-65238320D01*
X154125241Y-65395363D01*
X153925363Y-65595241D01*
X153770000Y-65827759D01*
X153614637Y-65595241D01*
X153414759Y-65395363D01*
X153179727Y-65238320D01*
X152918574Y-65130147D01*
X152641335Y-65075000D01*
X152358665Y-65075000D01*
X152081426Y-65130147D01*
X151820273Y-65238320D01*
X151585241Y-65395363D01*
X151385363Y-65595241D01*
X151230000Y-65827759D01*
X151074637Y-65595241D01*
X150874759Y-65395363D01*
X150639727Y-65238320D01*
X150378574Y-65130147D01*
X150101335Y-65075000D01*
X149818665Y-65075000D01*
X149541426Y-65130147D01*
X149280273Y-65238320D01*
X149045241Y-65395363D01*
X148845363Y-65595241D01*
X148690000Y-65827759D01*
X148534637Y-65595241D01*
X148334759Y-65395363D01*
X148099727Y-65238320D01*
X147838574Y-65130147D01*
X147561335Y-65075000D01*
X147278665Y-65075000D01*
X147001426Y-65130147D01*
X146740273Y-65238320D01*
X146505241Y-65395363D01*
X146305363Y-65595241D01*
X146150000Y-65827759D01*
X145994637Y-65595241D01*
X145794759Y-65395363D01*
X145562241Y-65240000D01*
X145794759Y-65084637D01*
X145994637Y-64884759D01*
X146151680Y-64649727D01*
X146259853Y-64388574D01*
X146315000Y-64111335D01*
X146315000Y-63828665D01*
X146259853Y-63551426D01*
X146151680Y-63290273D01*
X145994637Y-63055241D01*
X145794759Y-62855363D01*
X145562241Y-62700000D01*
X145794759Y-62544637D01*
X145994637Y-62344759D01*
X146151680Y-62109727D01*
X146259853Y-61848574D01*
X146315000Y-61571335D01*
X146315000Y-61288665D01*
X146259853Y-61011426D01*
X146151680Y-60750273D01*
X145994637Y-60515241D01*
X145794759Y-60315363D01*
X145562241Y-60160000D01*
X145794759Y-60004637D01*
X145994637Y-59804759D01*
X146151680Y-59569727D01*
X146259853Y-59308574D01*
X146315000Y-59031335D01*
X146315000Y-58748665D01*
X146259853Y-58471426D01*
X146151680Y-58210273D01*
X145994637Y-57975241D01*
X145794759Y-57775363D01*
X145562241Y-57620000D01*
X145794759Y-57464637D01*
X145994637Y-57264759D01*
X146151680Y-57029727D01*
X146259853Y-56768574D01*
X146315000Y-56491335D01*
X146315000Y-56208665D01*
X146259853Y-55931426D01*
X146151680Y-55670273D01*
X145994637Y-55435241D01*
X145794759Y-55235363D01*
X145562241Y-55080000D01*
X145794759Y-54924637D01*
X145994637Y-54724759D01*
X146151680Y-54489727D01*
X146259853Y-54228574D01*
X146315000Y-53951335D01*
X146315000Y-53668665D01*
X146259853Y-53391426D01*
X146151680Y-53130273D01*
X145994637Y-52895241D01*
X145794759Y-52695363D01*
X145562241Y-52540000D01*
X145794759Y-52384637D01*
X145994637Y-52184759D01*
X146151680Y-51949727D01*
X146259853Y-51688574D01*
X146315000Y-51411335D01*
X146315000Y-51128665D01*
X146259853Y-50851426D01*
X146151680Y-50590273D01*
X145994637Y-50355241D01*
X145794759Y-50155363D01*
X145562241Y-50000000D01*
X145794759Y-49844637D01*
X145994637Y-49644759D01*
X146151680Y-49409727D01*
X146259853Y-49148574D01*
X146315000Y-48871335D01*
X146315000Y-48588665D01*
X146259853Y-48311426D01*
X146151680Y-48050273D01*
X145994637Y-47815241D01*
X145794759Y-47615363D01*
X145562241Y-47460000D01*
X145794759Y-47304637D01*
X145994637Y-47104759D01*
X146151680Y-46869727D01*
X146259853Y-46608574D01*
X146315000Y-46331335D01*
X146315000Y-46048665D01*
X146259853Y-45771426D01*
X146151680Y-45510273D01*
X145994637Y-45275241D01*
X145794759Y-45075363D01*
X145562241Y-44920000D01*
X145794759Y-44764637D01*
X145994637Y-44564759D01*
X146151680Y-44329727D01*
X146259853Y-44068574D01*
X146315000Y-43791335D01*
X146315000Y-43508665D01*
X146312062Y-43493891D01*
X150915000Y-43493891D01*
X150915000Y-43806109D01*
X150975911Y-44112327D01*
X151095391Y-44400779D01*
X151268850Y-44660379D01*
X151489621Y-44881150D01*
X151749221Y-45054609D01*
X152037673Y-45174089D01*
X152343891Y-45235000D01*
X152656109Y-45235000D01*
X152962327Y-45174089D01*
X153250779Y-45054609D01*
X153510379Y-44881150D01*
X153731150Y-44660379D01*
X153904609Y-44400779D01*
X154024089Y-44112327D01*
X154085000Y-43806109D01*
X154085000Y-43493891D01*
X154024089Y-43187673D01*
X153904609Y-42899221D01*
X153731150Y-42639621D01*
X153510379Y-42418850D01*
X153250779Y-42245391D01*
X152962327Y-42125911D01*
X152656109Y-42065000D01*
X152343891Y-42065000D01*
X152037673Y-42125911D01*
X151749221Y-42245391D01*
X151489621Y-42418850D01*
X151268850Y-42639621D01*
X151095391Y-42899221D01*
X150975911Y-43187673D01*
X150915000Y-43493891D01*
X146312062Y-43493891D01*
X146259853Y-43231426D01*
X146151680Y-42970273D01*
X145994637Y-42735241D01*
X145794759Y-42535363D01*
X145562241Y-42380000D01*
X145794759Y-42224637D01*
X145994637Y-42024759D01*
X146151680Y-41789727D01*
X146259853Y-41528574D01*
X146315000Y-41251335D01*
X146315000Y-40968665D01*
X146259853Y-40691426D01*
X146151680Y-40430273D01*
X145994637Y-40195241D01*
X145794759Y-39995363D01*
X145562241Y-39840000D01*
X145794759Y-39684637D01*
X145795505Y-39683891D01*
X150915000Y-39683891D01*
X150915000Y-39996109D01*
X150975911Y-40302327D01*
X151095391Y-40590779D01*
X151268850Y-40850379D01*
X151489621Y-41071150D01*
X151749221Y-41244609D01*
X152037673Y-41364089D01*
X152343891Y-41425000D01*
X152656109Y-41425000D01*
X152962327Y-41364089D01*
X153250779Y-41244609D01*
X153510379Y-41071150D01*
X153731150Y-40850379D01*
X153904609Y-40590779D01*
X154024089Y-40302327D01*
X154085000Y-39996109D01*
X154085000Y-39683891D01*
X154024089Y-39377673D01*
X153904609Y-39089221D01*
X153731150Y-38829621D01*
X153510379Y-38608850D01*
X153250779Y-38435391D01*
X152962327Y-38315911D01*
X152656109Y-38255000D01*
X152343891Y-38255000D01*
X152037673Y-38315911D01*
X151749221Y-38435391D01*
X151489621Y-38608850D01*
X151268850Y-38829621D01*
X151095391Y-39089221D01*
X150975911Y-39377673D01*
X150915000Y-39683891D01*
X145795505Y-39683891D01*
X145994637Y-39484759D01*
X146151680Y-39249727D01*
X146259853Y-38988574D01*
X146315000Y-38711335D01*
X146315000Y-38428665D01*
X146259853Y-38151426D01*
X146151680Y-37890273D01*
X145994637Y-37655241D01*
X145794759Y-37455363D01*
X145562241Y-37300000D01*
X145794759Y-37144637D01*
X145994637Y-36944759D01*
X146151680Y-36709727D01*
X146259853Y-36448574D01*
X146315000Y-36171335D01*
X146315000Y-35888665D01*
X146259853Y-35611426D01*
X146151680Y-35350273D01*
X145994637Y-35115241D01*
X145796039Y-34916643D01*
X145804482Y-34915812D01*
X145924180Y-34879502D01*
X146034494Y-34820537D01*
X146131185Y-34741185D01*
X146210537Y-34644494D01*
X146269502Y-34534180D01*
X146305812Y-34414482D01*
X146318072Y-34290000D01*
X146318072Y-33560512D01*
X158679783Y-33560512D01*
X158721213Y-33840130D01*
X158816397Y-34106292D01*
X158883329Y-34231514D01*
X159127298Y-34303097D01*
X159940395Y-33490000D01*
X160299605Y-33490000D01*
X161112702Y-34303097D01*
X161356671Y-34231514D01*
X161366982Y-34209721D01*
X172965000Y-34209721D01*
X172965000Y-34630279D01*
X173047047Y-35042756D01*
X173207988Y-35431302D01*
X173441637Y-35780983D01*
X173739017Y-36078363D01*
X174088698Y-36312012D01*
X174477244Y-36472953D01*
X174889721Y-36555000D01*
X175310279Y-36555000D01*
X175722756Y-36472953D01*
X176111302Y-36312012D01*
X176460983Y-36078363D01*
X176758363Y-35780983D01*
X176992012Y-35431302D01*
X177152953Y-35042756D01*
X177235000Y-34630279D01*
X177235000Y-34209721D01*
X177152953Y-33797244D01*
X176992012Y-33408698D01*
X176758363Y-33059017D01*
X176460983Y-32761637D01*
X176111302Y-32527988D01*
X175722756Y-32367047D01*
X175310279Y-32285000D01*
X174889721Y-32285000D01*
X174477244Y-32367047D01*
X174088698Y-32527988D01*
X173739017Y-32761637D01*
X173441637Y-33059017D01*
X173207988Y-33408698D01*
X173047047Y-33797244D01*
X172965000Y-34209721D01*
X161366982Y-34209721D01*
X161477571Y-33976004D01*
X161546300Y-33701816D01*
X161560217Y-33419488D01*
X161518787Y-33139870D01*
X161423603Y-32873708D01*
X161356671Y-32748486D01*
X161112702Y-32676903D01*
X160299605Y-33490000D01*
X159940395Y-33490000D01*
X159127298Y-32676903D01*
X158883329Y-32748486D01*
X158762429Y-33003996D01*
X158693700Y-33278184D01*
X158679783Y-33560512D01*
X146318072Y-33560512D01*
X146318072Y-32690000D01*
X146305812Y-32565518D01*
X146285118Y-32497298D01*
X159306903Y-32497298D01*
X160120000Y-33310395D01*
X160933097Y-32497298D01*
X160861514Y-32253329D01*
X160606004Y-32132429D01*
X160331816Y-32063700D01*
X160049488Y-32049783D01*
X159769870Y-32091213D01*
X159503708Y-32186397D01*
X159378486Y-32253329D01*
X159306903Y-32497298D01*
X146285118Y-32497298D01*
X146269502Y-32445820D01*
X146210537Y-32335506D01*
X146131185Y-32238815D01*
X146034494Y-32159463D01*
X145924180Y-32100498D01*
X145804482Y-32064188D01*
X145680000Y-32051928D01*
X144080000Y-32051928D01*
X143955518Y-32064188D01*
X143835820Y-32100498D01*
X143725506Y-32159463D01*
X143628815Y-32238815D01*
X143549463Y-32335506D01*
X143490498Y-32445820D01*
X143454188Y-32565518D01*
X143441928Y-32690000D01*
X143441928Y-34290000D01*
X143454188Y-34414482D01*
X143490498Y-34534180D01*
X143549463Y-34644494D01*
X143628815Y-34741185D01*
X143725506Y-34820537D01*
X143835820Y-34879502D01*
X143955518Y-34915812D01*
X143963961Y-34916643D01*
X143765363Y-35115241D01*
X143608320Y-35350273D01*
X143500147Y-35611426D01*
X143445000Y-35888665D01*
X143445000Y-36171335D01*
X143500147Y-36448574D01*
X143608320Y-36709727D01*
X143765363Y-36944759D01*
X143965241Y-37144637D01*
X144197759Y-37300000D01*
X143965241Y-37455363D01*
X143765363Y-37655241D01*
X143608320Y-37890273D01*
X143500147Y-38151426D01*
X143445000Y-38428665D01*
X143445000Y-38711335D01*
X143500147Y-38988574D01*
X143608320Y-39249727D01*
X143765363Y-39484759D01*
X143965241Y-39684637D01*
X144197759Y-39840000D01*
X143965241Y-39995363D01*
X143765363Y-40195241D01*
X143608320Y-40430273D01*
X143500147Y-40691426D01*
X143445000Y-40968665D01*
X143445000Y-41251335D01*
X143500147Y-41528574D01*
X143608320Y-41789727D01*
X143765363Y-42024759D01*
X143965241Y-42224637D01*
X144197759Y-42380000D01*
X143965241Y-42535363D01*
X143765363Y-42735241D01*
X143608320Y-42970273D01*
X143500147Y-43231426D01*
X143445000Y-43508665D01*
X143445000Y-43791335D01*
X143500147Y-44068574D01*
X143608320Y-44329727D01*
X143765363Y-44564759D01*
X143965241Y-44764637D01*
X144197759Y-44920000D01*
X143965241Y-45075363D01*
X143765363Y-45275241D01*
X143608320Y-45510273D01*
X143500147Y-45771426D01*
X143445000Y-46048665D01*
X143445000Y-46331335D01*
X143500147Y-46608574D01*
X143608320Y-46869727D01*
X143765363Y-47104759D01*
X143965241Y-47304637D01*
X144197759Y-47460000D01*
X143965241Y-47615363D01*
X143765363Y-47815241D01*
X143608320Y-48050273D01*
X143500147Y-48311426D01*
X143445000Y-48588665D01*
X143445000Y-48871335D01*
X143500147Y-49148574D01*
X143608320Y-49409727D01*
X143765363Y-49644759D01*
X143965241Y-49844637D01*
X144197759Y-50000000D01*
X143965241Y-50155363D01*
X143765363Y-50355241D01*
X143608320Y-50590273D01*
X143500147Y-50851426D01*
X143445000Y-51128665D01*
X143445000Y-51411335D01*
X143500147Y-51688574D01*
X143608320Y-51949727D01*
X143765363Y-52184759D01*
X143965241Y-52384637D01*
X144197759Y-52540000D01*
X143965241Y-52695363D01*
X143765363Y-52895241D01*
X143608320Y-53130273D01*
X143500147Y-53391426D01*
X143445000Y-53668665D01*
X143445000Y-53951335D01*
X143500147Y-54228574D01*
X143608320Y-54489727D01*
X143765363Y-54724759D01*
X143965241Y-54924637D01*
X144197759Y-55080000D01*
X143965241Y-55235363D01*
X143765363Y-55435241D01*
X143608320Y-55670273D01*
X143500147Y-55931426D01*
X143445000Y-56208665D01*
X143445000Y-56491335D01*
X143500147Y-56768574D01*
X143608320Y-57029727D01*
X143765363Y-57264759D01*
X143965241Y-57464637D01*
X144197759Y-57620000D01*
X143965241Y-57775363D01*
X143765363Y-57975241D01*
X143608320Y-58210273D01*
X143500147Y-58471426D01*
X143445000Y-58748665D01*
X143445000Y-59031335D01*
X143500147Y-59308574D01*
X143608320Y-59569727D01*
X143765363Y-59804759D01*
X143965241Y-60004637D01*
X144197759Y-60160000D01*
X143965241Y-60315363D01*
X143765363Y-60515241D01*
X143608320Y-60750273D01*
X143500147Y-61011426D01*
X143445000Y-61288665D01*
X143445000Y-61571335D01*
X143500147Y-61848574D01*
X143608320Y-62109727D01*
X143765363Y-62344759D01*
X143965241Y-62544637D01*
X144197759Y-62700000D01*
X143965241Y-62855363D01*
X143765363Y-63055241D01*
X143608320Y-63290273D01*
X143500147Y-63551426D01*
X143445000Y-63828665D01*
X143445000Y-64111335D01*
X143500147Y-64388574D01*
X143608320Y-64649727D01*
X143765363Y-64884759D01*
X143965241Y-65084637D01*
X144197759Y-65240000D01*
X143965241Y-65395363D01*
X143765363Y-65595241D01*
X143608320Y-65830273D01*
X143500147Y-66091426D01*
X143445000Y-66368665D01*
X143445000Y-66651335D01*
X143500147Y-66928574D01*
X143608320Y-67189727D01*
X143765363Y-67424759D01*
X143965241Y-67624637D01*
X144200273Y-67781680D01*
X144461426Y-67889853D01*
X144738665Y-67945000D01*
X145021335Y-67945000D01*
X145298574Y-67889853D01*
X145559727Y-67781680D01*
X145794759Y-67624637D01*
X145994637Y-67424759D01*
X146150000Y-67192241D01*
X146305363Y-67424759D01*
X146505241Y-67624637D01*
X146740273Y-67781680D01*
X147001426Y-67889853D01*
X147278665Y-67945000D01*
X147561335Y-67945000D01*
X147838574Y-67889853D01*
X148099727Y-67781680D01*
X148334759Y-67624637D01*
X148534637Y-67424759D01*
X148690000Y-67192241D01*
X148845363Y-67424759D01*
X149045241Y-67624637D01*
X149280273Y-67781680D01*
X149541426Y-67889853D01*
X149818665Y-67945000D01*
X150101335Y-67945000D01*
X150378574Y-67889853D01*
X150639727Y-67781680D01*
X150874759Y-67624637D01*
X151074637Y-67424759D01*
X151230000Y-67192241D01*
X151385363Y-67424759D01*
X151585241Y-67624637D01*
X151820273Y-67781680D01*
X152081426Y-67889853D01*
X152358665Y-67945000D01*
X152641335Y-67945000D01*
X152918574Y-67889853D01*
X153179727Y-67781680D01*
X153414759Y-67624637D01*
X153614637Y-67424759D01*
X153770000Y-67192241D01*
X153925363Y-67424759D01*
X154125241Y-67624637D01*
X154360273Y-67781680D01*
X154621426Y-67889853D01*
X154898665Y-67945000D01*
X155181335Y-67945000D01*
X155458574Y-67889853D01*
X155719727Y-67781680D01*
X155954759Y-67624637D01*
X156154637Y-67424759D01*
X156310000Y-67192241D01*
X156465363Y-67424759D01*
X156665241Y-67624637D01*
X156900273Y-67781680D01*
X157161426Y-67889853D01*
X157438665Y-67945000D01*
X157721335Y-67945000D01*
X157998574Y-67889853D01*
X158259727Y-67781680D01*
X158494759Y-67624637D01*
X158694637Y-67424759D01*
X158850000Y-67192241D01*
X159005363Y-67424759D01*
X159205241Y-67624637D01*
X159440273Y-67781680D01*
X159701426Y-67889853D01*
X159978665Y-67945000D01*
X160261335Y-67945000D01*
X160538574Y-67889853D01*
X160799727Y-67781680D01*
X160875770Y-67730870D01*
X160912795Y-67820256D01*
X161026063Y-67989774D01*
X161070001Y-68033712D01*
X161070000Y-70735198D01*
X147210199Y-84595000D01*
X147148061Y-84595000D01*
X146948102Y-84634774D01*
X146759744Y-84712795D01*
X146590226Y-84826063D01*
X146446063Y-84970226D01*
X146332795Y-85139744D01*
X146254774Y-85328102D01*
X146215000Y-85528061D01*
X146215000Y-85731939D01*
X146254774Y-85931898D01*
X146332795Y-86120256D01*
X146446063Y-86289774D01*
X146506399Y-86350110D01*
X146409465Y-86414880D01*
X146214880Y-86609465D01*
X146061995Y-86838273D01*
X146030000Y-86915515D01*
X145998005Y-86838273D01*
X145845120Y-86609465D01*
X145650535Y-86414880D01*
X145421727Y-86261995D01*
X145167490Y-86156686D01*
X144897592Y-86103000D01*
X144622408Y-86103000D01*
X144352510Y-86156686D01*
X144098273Y-86261995D01*
X143869465Y-86414880D01*
X143674880Y-86609465D01*
X143521995Y-86838273D01*
X143416686Y-87092510D01*
X143363000Y-87362408D01*
X119127000Y-87362408D01*
X119127000Y-84608665D01*
X133315000Y-84608665D01*
X133315000Y-84891335D01*
X133370147Y-85168574D01*
X133478320Y-85429727D01*
X133635363Y-85664759D01*
X133835241Y-85864637D01*
X134070273Y-86021680D01*
X134331426Y-86129853D01*
X134608665Y-86185000D01*
X134891335Y-86185000D01*
X135168574Y-86129853D01*
X135429727Y-86021680D01*
X135664759Y-85864637D01*
X135864637Y-85664759D01*
X136021680Y-85429727D01*
X136129853Y-85168574D01*
X136185000Y-84891335D01*
X136185000Y-84608665D01*
X138065000Y-84608665D01*
X138065000Y-84891335D01*
X138120147Y-85168574D01*
X138228320Y-85429727D01*
X138385363Y-85664759D01*
X138585241Y-85864637D01*
X138820273Y-86021680D01*
X139081426Y-86129853D01*
X139358665Y-86185000D01*
X139641335Y-86185000D01*
X139918574Y-86129853D01*
X140179727Y-86021680D01*
X140414759Y-85864637D01*
X140614637Y-85664759D01*
X140771680Y-85429727D01*
X140879853Y-85168574D01*
X140935000Y-84891335D01*
X140935000Y-84608665D01*
X140879853Y-84331426D01*
X140771680Y-84070273D01*
X140614637Y-83835241D01*
X140414759Y-83635363D01*
X140179727Y-83478320D01*
X139918574Y-83370147D01*
X139641335Y-83315000D01*
X139358665Y-83315000D01*
X139081426Y-83370147D01*
X138820273Y-83478320D01*
X138585241Y-83635363D01*
X138385363Y-83835241D01*
X138228320Y-84070273D01*
X138120147Y-84331426D01*
X138065000Y-84608665D01*
X136185000Y-84608665D01*
X136129853Y-84331426D01*
X136021680Y-84070273D01*
X135864637Y-83835241D01*
X135664759Y-83635363D01*
X135429727Y-83478320D01*
X135168574Y-83370147D01*
X134891335Y-83315000D01*
X134608665Y-83315000D01*
X134331426Y-83370147D01*
X134070273Y-83478320D01*
X133835241Y-83635363D01*
X133635363Y-83835241D01*
X133478320Y-84070273D01*
X133370147Y-84331426D01*
X133315000Y-84608665D01*
X119127000Y-84608665D01*
X119127000Y-81450000D01*
X123311928Y-81450000D01*
X123311928Y-83550000D01*
X123324188Y-83674482D01*
X123360498Y-83794180D01*
X123419463Y-83904494D01*
X123498815Y-84001185D01*
X123595506Y-84080537D01*
X123705820Y-84139502D01*
X123825518Y-84175812D01*
X123950000Y-84188072D01*
X126050000Y-84188072D01*
X126174482Y-84175812D01*
X126294180Y-84139502D01*
X126404494Y-84080537D01*
X126501185Y-84001185D01*
X126580537Y-83904494D01*
X126639502Y-83794180D01*
X126675812Y-83674482D01*
X126688072Y-83550000D01*
X126688072Y-81450000D01*
X126675812Y-81325518D01*
X126639502Y-81205820D01*
X126580537Y-81095506D01*
X126501185Y-80998815D01*
X126404494Y-80919463D01*
X126390454Y-80911958D01*
X126493228Y-80758147D01*
X126620246Y-80451496D01*
X126685000Y-80125958D01*
X126685000Y-79794042D01*
X126620246Y-79468504D01*
X126493228Y-79161853D01*
X126308825Y-78885875D01*
X126074125Y-78651175D01*
X125798147Y-78466772D01*
X125491496Y-78339754D01*
X125165958Y-78275000D01*
X124834042Y-78275000D01*
X124508504Y-78339754D01*
X124201853Y-78466772D01*
X123925875Y-78651175D01*
X123691175Y-78885875D01*
X123506772Y-79161853D01*
X123379754Y-79468504D01*
X123315000Y-79794042D01*
X123315000Y-80125958D01*
X123379754Y-80451496D01*
X123506772Y-80758147D01*
X123609546Y-80911958D01*
X123595506Y-80919463D01*
X123498815Y-80998815D01*
X123419463Y-81095506D01*
X123360498Y-81205820D01*
X123324188Y-81325518D01*
X123311928Y-81450000D01*
X119127000Y-81450000D01*
X119127000Y-71450000D01*
X123311928Y-71450000D01*
X123311928Y-73550000D01*
X123324188Y-73674482D01*
X123360498Y-73794180D01*
X123419463Y-73904494D01*
X123498815Y-74001185D01*
X123595506Y-74080537D01*
X123609546Y-74088042D01*
X123506772Y-74241853D01*
X123379754Y-74548504D01*
X123315000Y-74874042D01*
X123315000Y-75205958D01*
X123379754Y-75531496D01*
X123506772Y-75838147D01*
X123691175Y-76114125D01*
X123925875Y-76348825D01*
X124201853Y-76533228D01*
X124508504Y-76660246D01*
X124834042Y-76725000D01*
X125165958Y-76725000D01*
X125491496Y-76660246D01*
X125798147Y-76533228D01*
X126074125Y-76348825D01*
X126308825Y-76114125D01*
X126493228Y-75838147D01*
X126508467Y-75801357D01*
X126522246Y-75800000D01*
X126522257Y-75800000D01*
X126633910Y-75789003D01*
X126777171Y-75745546D01*
X126909200Y-75674974D01*
X127024925Y-75580001D01*
X127048728Y-75550997D01*
X130691060Y-71908665D01*
X133315000Y-71908665D01*
X133315000Y-72191335D01*
X133370147Y-72468574D01*
X133478320Y-72729727D01*
X133635363Y-72964759D01*
X133835241Y-73164637D01*
X134070273Y-73321680D01*
X134331426Y-73429853D01*
X134608665Y-73485000D01*
X134891335Y-73485000D01*
X135168574Y-73429853D01*
X135429727Y-73321680D01*
X135664759Y-73164637D01*
X135864637Y-72964759D01*
X136021680Y-72729727D01*
X136129853Y-72468574D01*
X136185000Y-72191335D01*
X136185000Y-71908665D01*
X138065000Y-71908665D01*
X138065000Y-72191335D01*
X138120147Y-72468574D01*
X138228320Y-72729727D01*
X138385363Y-72964759D01*
X138585241Y-73164637D01*
X138820273Y-73321680D01*
X139081426Y-73429853D01*
X139358665Y-73485000D01*
X139641335Y-73485000D01*
X139918574Y-73429853D01*
X140179727Y-73321680D01*
X140414759Y-73164637D01*
X140614637Y-72964759D01*
X140771680Y-72729727D01*
X140879853Y-72468574D01*
X140935000Y-72191335D01*
X140935000Y-71908665D01*
X140879853Y-71631426D01*
X140771680Y-71370273D01*
X140614637Y-71135241D01*
X140414759Y-70935363D01*
X140179727Y-70778320D01*
X139918574Y-70670147D01*
X139641335Y-70615000D01*
X139358665Y-70615000D01*
X139081426Y-70670147D01*
X138820273Y-70778320D01*
X138585241Y-70935363D01*
X138385363Y-71135241D01*
X138228320Y-71370273D01*
X138120147Y-71631426D01*
X138065000Y-71908665D01*
X136185000Y-71908665D01*
X136129853Y-71631426D01*
X136021680Y-71370273D01*
X135864637Y-71135241D01*
X135664759Y-70935363D01*
X135429727Y-70778320D01*
X135168574Y-70670147D01*
X134891335Y-70615000D01*
X134608665Y-70615000D01*
X134331426Y-70670147D01*
X134070273Y-70778320D01*
X133835241Y-70935363D01*
X133635363Y-71135241D01*
X133478320Y-71370273D01*
X133370147Y-71631426D01*
X133315000Y-71908665D01*
X130691060Y-71908665D01*
X131371003Y-71228723D01*
X131400001Y-71204925D01*
X131494974Y-71089200D01*
X131565546Y-70957171D01*
X131609003Y-70813910D01*
X131620000Y-70702257D01*
X131620000Y-70702247D01*
X131623676Y-70664924D01*
X131620000Y-70627601D01*
X131620000Y-66173711D01*
X131663937Y-66129774D01*
X131777205Y-65960256D01*
X131855226Y-65771898D01*
X131895000Y-65571939D01*
X131895000Y-65368061D01*
X131855226Y-65168102D01*
X131777205Y-64979744D01*
X131741753Y-64926686D01*
X131818180Y-64903502D01*
X131928494Y-64844537D01*
X132025185Y-64765185D01*
X132104537Y-64668494D01*
X132140000Y-64602148D01*
X132175463Y-64668494D01*
X132254815Y-64765185D01*
X132351506Y-64844537D01*
X132461820Y-64903502D01*
X132581518Y-64939812D01*
X132706000Y-64952072D01*
X134114000Y-64952072D01*
X134238482Y-64939812D01*
X134358180Y-64903502D01*
X134468494Y-64844537D01*
X134565185Y-64765185D01*
X134644537Y-64668494D01*
X134680000Y-64602148D01*
X134715463Y-64668494D01*
X134794815Y-64765185D01*
X134891506Y-64844537D01*
X135001820Y-64903502D01*
X135121518Y-64939812D01*
X135246000Y-64952072D01*
X136654000Y-64952072D01*
X136778482Y-64939812D01*
X136898180Y-64903502D01*
X137008494Y-64844537D01*
X137105185Y-64765185D01*
X137184537Y-64668494D01*
X137220000Y-64602148D01*
X137255463Y-64668494D01*
X137334815Y-64765185D01*
X137431506Y-64844537D01*
X137541820Y-64903502D01*
X137661518Y-64939812D01*
X137786000Y-64952072D01*
X139194000Y-64952072D01*
X139318482Y-64939812D01*
X139438180Y-64903502D01*
X139548494Y-64844537D01*
X139645185Y-64765185D01*
X139724537Y-64668494D01*
X139783502Y-64558180D01*
X139819812Y-64438482D01*
X139832072Y-64314000D01*
X139832072Y-62906000D01*
X139819812Y-62781518D01*
X139783502Y-62661820D01*
X139724537Y-62551506D01*
X139645185Y-62454815D01*
X139548494Y-62375463D01*
X139438180Y-62316498D01*
X139318482Y-62280188D01*
X139194000Y-62267928D01*
X137786000Y-62267928D01*
X137661518Y-62280188D01*
X137541820Y-62316498D01*
X137431506Y-62375463D01*
X137334815Y-62454815D01*
X137255463Y-62551506D01*
X137220000Y-62617852D01*
X137184537Y-62551506D01*
X137105185Y-62454815D01*
X137008494Y-62375463D01*
X136898180Y-62316498D01*
X136778482Y-62280188D01*
X136654000Y-62267928D01*
X135246000Y-62267928D01*
X135121518Y-62280188D01*
X135001820Y-62316498D01*
X134891506Y-62375463D01*
X134794815Y-62454815D01*
X134715463Y-62551506D01*
X134680000Y-62617852D01*
X134644537Y-62551506D01*
X134565185Y-62454815D01*
X134468494Y-62375463D01*
X134358180Y-62316498D01*
X134238482Y-62280188D01*
X134114000Y-62267928D01*
X132706000Y-62267928D01*
X132581518Y-62280188D01*
X132461820Y-62316498D01*
X132351506Y-62375463D01*
X132254815Y-62454815D01*
X132175463Y-62551506D01*
X132140000Y-62617852D01*
X132104537Y-62551506D01*
X132025185Y-62454815D01*
X131928494Y-62375463D01*
X131818180Y-62316498D01*
X131698482Y-62280188D01*
X131574000Y-62267928D01*
X130166000Y-62267928D01*
X130041518Y-62280188D01*
X129921820Y-62316498D01*
X129811506Y-62375463D01*
X129714815Y-62454815D01*
X129635463Y-62551506D01*
X129600000Y-62617852D01*
X129564537Y-62551506D01*
X129485185Y-62454815D01*
X129388494Y-62375463D01*
X129278180Y-62316498D01*
X129158482Y-62280188D01*
X129034000Y-62267928D01*
X127626000Y-62267928D01*
X127501518Y-62280188D01*
X127381820Y-62316498D01*
X127271506Y-62375463D01*
X127174815Y-62454815D01*
X127095463Y-62551506D01*
X127060000Y-62617852D01*
X127024537Y-62551506D01*
X126945185Y-62454815D01*
X126848494Y-62375463D01*
X126738180Y-62316498D01*
X126618482Y-62280188D01*
X126494000Y-62267928D01*
X125086000Y-62267928D01*
X124961518Y-62280188D01*
X124841820Y-62316498D01*
X124731506Y-62375463D01*
X124634815Y-62454815D01*
X124555463Y-62551506D01*
X124496498Y-62661820D01*
X124460188Y-62781518D01*
X124447928Y-62906000D01*
X124447928Y-64314000D01*
X124460188Y-64438482D01*
X124496498Y-64558180D01*
X124555463Y-64668494D01*
X124634815Y-64765185D01*
X124731506Y-64844537D01*
X124841820Y-64903502D01*
X124961518Y-64939812D01*
X125086000Y-64952072D01*
X126494000Y-64952072D01*
X126618482Y-64939812D01*
X126738180Y-64903502D01*
X126848494Y-64844537D01*
X126945185Y-64765185D01*
X127024537Y-64668494D01*
X127060000Y-64602148D01*
X127095463Y-64668494D01*
X127174815Y-64765185D01*
X127271506Y-64844537D01*
X127381820Y-64903502D01*
X127501518Y-64939812D01*
X127626000Y-64952072D01*
X129034000Y-64952072D01*
X129158482Y-64939812D01*
X129278180Y-64903502D01*
X129388494Y-64844537D01*
X129485185Y-64765185D01*
X129564537Y-64668494D01*
X129600000Y-64602148D01*
X129635463Y-64668494D01*
X129714815Y-64765185D01*
X129811506Y-64844537D01*
X129921820Y-64903502D01*
X129981618Y-64921641D01*
X129942795Y-64979744D01*
X129864774Y-65168102D01*
X129825000Y-65368061D01*
X129825000Y-65571939D01*
X129864774Y-65771898D01*
X129942795Y-65960256D01*
X130056063Y-66129774D01*
X130100000Y-66173711D01*
X130100001Y-70350121D01*
X126620623Y-73829500D01*
X126639502Y-73794180D01*
X126675812Y-73674482D01*
X126688072Y-73550000D01*
X126688072Y-71450000D01*
X126675812Y-71325518D01*
X126639502Y-71205820D01*
X126580537Y-71095506D01*
X126501185Y-70998815D01*
X126404494Y-70919463D01*
X126294180Y-70860498D01*
X126174482Y-70824188D01*
X126050000Y-70811928D01*
X123950000Y-70811928D01*
X123825518Y-70824188D01*
X123705820Y-70860498D01*
X123595506Y-70919463D01*
X123498815Y-70998815D01*
X123419463Y-71095506D01*
X123360498Y-71205820D01*
X123324188Y-71325518D01*
X123311928Y-71450000D01*
X119127000Y-71450000D01*
X119127000Y-37506000D01*
X126987928Y-37506000D01*
X126987928Y-38914000D01*
X127000188Y-39038482D01*
X127036498Y-39158180D01*
X127095463Y-39268494D01*
X127174815Y-39365185D01*
X127271506Y-39444537D01*
X127381820Y-39503502D01*
X127501518Y-39539812D01*
X127626000Y-39552072D01*
X129034000Y-39552072D01*
X129158482Y-39539812D01*
X129278180Y-39503502D01*
X129388494Y-39444537D01*
X129485185Y-39365185D01*
X129564537Y-39268494D01*
X129600000Y-39202148D01*
X129635463Y-39268494D01*
X129714815Y-39365185D01*
X129811506Y-39444537D01*
X129921820Y-39503502D01*
X130041518Y-39539812D01*
X130166000Y-39552072D01*
X131574000Y-39552072D01*
X131698482Y-39539812D01*
X131818180Y-39503502D01*
X131928494Y-39444537D01*
X132025185Y-39365185D01*
X132104537Y-39268494D01*
X132140000Y-39202148D01*
X132175463Y-39268494D01*
X132254815Y-39365185D01*
X132351506Y-39444537D01*
X132461820Y-39503502D01*
X132581518Y-39539812D01*
X132706000Y-39552072D01*
X134114000Y-39552072D01*
X134238482Y-39539812D01*
X134358180Y-39503502D01*
X134468494Y-39444537D01*
X134565185Y-39365185D01*
X134644537Y-39268494D01*
X134680000Y-39202148D01*
X134715463Y-39268494D01*
X134794815Y-39365185D01*
X134891506Y-39444537D01*
X135001820Y-39503502D01*
X135121518Y-39539812D01*
X135246000Y-39552072D01*
X135664250Y-39549000D01*
X135823000Y-39390250D01*
X135823000Y-38337000D01*
X136077000Y-38337000D01*
X136077000Y-39390250D01*
X136235750Y-39549000D01*
X136654000Y-39552072D01*
X136778482Y-39539812D01*
X136898180Y-39503502D01*
X137008494Y-39444537D01*
X137105185Y-39365185D01*
X137184537Y-39268494D01*
X137243502Y-39158180D01*
X137279812Y-39038482D01*
X137292072Y-38914000D01*
X137289000Y-38495750D01*
X137130250Y-38337000D01*
X136077000Y-38337000D01*
X135823000Y-38337000D01*
X135803000Y-38337000D01*
X135803000Y-38083000D01*
X135823000Y-38083000D01*
X135823000Y-37029750D01*
X136077000Y-37029750D01*
X136077000Y-38083000D01*
X137130250Y-38083000D01*
X137289000Y-37924250D01*
X137292072Y-37506000D01*
X137279812Y-37381518D01*
X137243502Y-37261820D01*
X137184537Y-37151506D01*
X137105185Y-37054815D01*
X137008494Y-36975463D01*
X136898180Y-36916498D01*
X136778482Y-36880188D01*
X136654000Y-36867928D01*
X136235750Y-36871000D01*
X136077000Y-37029750D01*
X135823000Y-37029750D01*
X135664250Y-36871000D01*
X135246000Y-36867928D01*
X135121518Y-36880188D01*
X135001820Y-36916498D01*
X134891506Y-36975463D01*
X134794815Y-37054815D01*
X134715463Y-37151506D01*
X134680000Y-37217852D01*
X134644537Y-37151506D01*
X134565185Y-37054815D01*
X134468494Y-36975463D01*
X134358180Y-36916498D01*
X134238482Y-36880188D01*
X134114000Y-36867928D01*
X132706000Y-36867928D01*
X132581518Y-36880188D01*
X132461820Y-36916498D01*
X132351506Y-36975463D01*
X132254815Y-37054815D01*
X132175463Y-37151506D01*
X132140000Y-37217852D01*
X132104537Y-37151506D01*
X132025185Y-37054815D01*
X131928494Y-36975463D01*
X131818180Y-36916498D01*
X131698482Y-36880188D01*
X131574000Y-36867928D01*
X130166000Y-36867928D01*
X130041518Y-36880188D01*
X129921820Y-36916498D01*
X129811506Y-36975463D01*
X129714815Y-37054815D01*
X129635463Y-37151506D01*
X129600000Y-37217852D01*
X129564537Y-37151506D01*
X129485185Y-37054815D01*
X129388494Y-36975463D01*
X129278180Y-36916498D01*
X129158482Y-36880188D01*
X129034000Y-36867928D01*
X127626000Y-36867928D01*
X127501518Y-36880188D01*
X127381820Y-36916498D01*
X127271506Y-36975463D01*
X127174815Y-37054815D01*
X127095463Y-37151506D01*
X127036498Y-37261820D01*
X127000188Y-37381518D01*
X126987928Y-37506000D01*
X119127000Y-37506000D01*
X119127000Y-31127000D01*
X181873000Y-31127000D01*
X181873000Y-72431053D01*
%TA.AperFunction,Conductor*%
D25*
G36*
X181873000Y-72431053D02*
G01*
X181646240Y-72358365D01*
X180779605Y-73225000D01*
X181646240Y-74091635D01*
X181873000Y-74018947D01*
X181873000Y-89873000D01*
X119127000Y-89873000D01*
X119127000Y-87362408D01*
X143363000Y-87362408D01*
X143363000Y-87637592D01*
X143416686Y-87907490D01*
X143521995Y-88161727D01*
X143674880Y-88390535D01*
X143869465Y-88585120D01*
X144098273Y-88738005D01*
X144352510Y-88843314D01*
X144622408Y-88897000D01*
X144897592Y-88897000D01*
X145167490Y-88843314D01*
X145421727Y-88738005D01*
X145650535Y-88585120D01*
X145845120Y-88390535D01*
X145998005Y-88161727D01*
X146030000Y-88084485D01*
X146061995Y-88161727D01*
X146214880Y-88390535D01*
X146409465Y-88585120D01*
X146638273Y-88738005D01*
X146892510Y-88843314D01*
X147162408Y-88897000D01*
X147437592Y-88897000D01*
X147707490Y-88843314D01*
X147961727Y-88738005D01*
X148190535Y-88585120D01*
X148385120Y-88390535D01*
X148538005Y-88161727D01*
X148570000Y-88084485D01*
X148601995Y-88161727D01*
X148754880Y-88390535D01*
X148949465Y-88585120D01*
X149178273Y-88738005D01*
X149432510Y-88843314D01*
X149702408Y-88897000D01*
X149977592Y-88897000D01*
X150247490Y-88843314D01*
X150501727Y-88738005D01*
X150730535Y-88585120D01*
X150925120Y-88390535D01*
X151078005Y-88161727D01*
X151110000Y-88084485D01*
X151141995Y-88161727D01*
X151294880Y-88390535D01*
X151489465Y-88585120D01*
X151718273Y-88738005D01*
X151972510Y-88843314D01*
X152242408Y-88897000D01*
X152517592Y-88897000D01*
X152787490Y-88843314D01*
X153041727Y-88738005D01*
X153270535Y-88585120D01*
X153465120Y-88390535D01*
X153618005Y-88161727D01*
X153650000Y-88084485D01*
X153681995Y-88161727D01*
X153834880Y-88390535D01*
X154029465Y-88585120D01*
X154258273Y-88738005D01*
X154512510Y-88843314D01*
X154782408Y-88897000D01*
X155057592Y-88897000D01*
X155327490Y-88843314D01*
X155581727Y-88738005D01*
X155810535Y-88585120D01*
X156005120Y-88390535D01*
X156158005Y-88161727D01*
X156190000Y-88084485D01*
X156221995Y-88161727D01*
X156374880Y-88390535D01*
X156569465Y-88585120D01*
X156798273Y-88738005D01*
X157052510Y-88843314D01*
X157322408Y-88897000D01*
X157597592Y-88897000D01*
X157867490Y-88843314D01*
X158121727Y-88738005D01*
X158350535Y-88585120D01*
X158470090Y-88465565D01*
X159214040Y-88465565D01*
X159281020Y-88705656D01*
X159530048Y-88822756D01*
X159797135Y-88889023D01*
X160072017Y-88901910D01*
X160344133Y-88860922D01*
X160603023Y-88767636D01*
X160718980Y-88705656D01*
X160785960Y-88465565D01*
X160000000Y-87679605D01*
X159214040Y-88465565D01*
X158470090Y-88465565D01*
X158545120Y-88390535D01*
X158698005Y-88161727D01*
X158727692Y-88090057D01*
X158732364Y-88103023D01*
X158794344Y-88218980D01*
X159034435Y-88285960D01*
X159820395Y-87500000D01*
X160179605Y-87500000D01*
X160965565Y-88285960D01*
X161205656Y-88218980D01*
X161322756Y-87969952D01*
X161389023Y-87702865D01*
X161401910Y-87427983D01*
X161360922Y-87155867D01*
X161267636Y-86896977D01*
X161205656Y-86781020D01*
X160965565Y-86714040D01*
X160179605Y-87500000D01*
X159820395Y-87500000D01*
X159034435Y-86714040D01*
X158794344Y-86781020D01*
X158730515Y-86916760D01*
X158698005Y-86838273D01*
X158545120Y-86609465D01*
X158470090Y-86534435D01*
X159214040Y-86534435D01*
X160000000Y-87320395D01*
X160785960Y-86534435D01*
X160718980Y-86294344D01*
X160469952Y-86177244D01*
X160202865Y-86110977D01*
X159927983Y-86098090D01*
X159655867Y-86139078D01*
X159396977Y-86232364D01*
X159281020Y-86294344D01*
X159214040Y-86534435D01*
X158470090Y-86534435D01*
X158350535Y-86414880D01*
X158121727Y-86261995D01*
X157867490Y-86156686D01*
X157597592Y-86103000D01*
X157322408Y-86103000D01*
X157052510Y-86156686D01*
X156798273Y-86261995D01*
X156569465Y-86414880D01*
X156374880Y-86609465D01*
X156221995Y-86838273D01*
X156190000Y-86915515D01*
X156158005Y-86838273D01*
X156005120Y-86609465D01*
X155810535Y-86414880D01*
X155581727Y-86261995D01*
X155327490Y-86156686D01*
X155057592Y-86103000D01*
X154782408Y-86103000D01*
X154512510Y-86156686D01*
X154258273Y-86261995D01*
X154029465Y-86414880D01*
X153834880Y-86609465D01*
X153681995Y-86838273D01*
X153650000Y-86915515D01*
X153618005Y-86838273D01*
X153465120Y-86609465D01*
X153270535Y-86414880D01*
X153041727Y-86261995D01*
X152787490Y-86156686D01*
X152517592Y-86103000D01*
X152242408Y-86103000D01*
X152222732Y-86106914D01*
X152295226Y-85931898D01*
X152335000Y-85731939D01*
X152335000Y-85669801D01*
X163451004Y-74553798D01*
X163480001Y-74530001D01*
X163574974Y-74414276D01*
X163645546Y-74282247D01*
X163689003Y-74138986D01*
X163700000Y-74027333D01*
X163700000Y-74027323D01*
X163703676Y-73990000D01*
X163700000Y-73952677D01*
X163700000Y-73076278D01*
X163850000Y-73076278D01*
X163850000Y-73373722D01*
X163908029Y-73665451D01*
X164021856Y-73940253D01*
X164187107Y-74187569D01*
X164397431Y-74397893D01*
X164644747Y-74563144D01*
X164919549Y-74676971D01*
X165211278Y-74735000D01*
X165508722Y-74735000D01*
X165800451Y-74676971D01*
X166075253Y-74563144D01*
X166322569Y-74397893D01*
X166532893Y-74187569D01*
X166630000Y-74042238D01*
X166727107Y-74187569D01*
X166937431Y-74397893D01*
X167184747Y-74563144D01*
X167459549Y-74676971D01*
X167751278Y-74735000D01*
X168048722Y-74735000D01*
X168340451Y-74676971D01*
X168615253Y-74563144D01*
X168862569Y-74397893D01*
X169072893Y-74187569D01*
X169170000Y-74042238D01*
X169267107Y-74187569D01*
X169477431Y-74397893D01*
X169724747Y-74563144D01*
X169999549Y-74676971D01*
X170291278Y-74735000D01*
X170588722Y-74735000D01*
X170880451Y-74676971D01*
X171155253Y-74563144D01*
X171402569Y-74397893D01*
X171612893Y-74187569D01*
X171710000Y-74042238D01*
X171807107Y-74187569D01*
X172017431Y-74397893D01*
X172264747Y-74563144D01*
X172539549Y-74676971D01*
X172831278Y-74735000D01*
X173128722Y-74735000D01*
X173420451Y-74676971D01*
X173695253Y-74563144D01*
X173942569Y-74397893D01*
X174152893Y-74187569D01*
X174250000Y-74042238D01*
X174347107Y-74187569D01*
X174557431Y-74397893D01*
X174804747Y-74563144D01*
X175079549Y-74676971D01*
X175371278Y-74735000D01*
X175668722Y-74735000D01*
X175960451Y-74676971D01*
X176235253Y-74563144D01*
X176482569Y-74397893D01*
X176692893Y-74187569D01*
X176790000Y-74042238D01*
X176887107Y-74187569D01*
X177097431Y-74397893D01*
X177344747Y-74563144D01*
X177619549Y-74676971D01*
X177911278Y-74735000D01*
X178208722Y-74735000D01*
X178500451Y-74676971D01*
X178775253Y-74563144D01*
X179022569Y-74397893D01*
X179149222Y-74271240D01*
X179733365Y-74271240D01*
X179814025Y-74522868D01*
X180082329Y-74651267D01*
X180370526Y-74724855D01*
X180667543Y-74740804D01*
X180961963Y-74698501D01*
X181242474Y-74599572D01*
X181385975Y-74522868D01*
X181466635Y-74271240D01*
X180600000Y-73404605D01*
X179733365Y-74271240D01*
X179149222Y-74271240D01*
X179232893Y-74187569D01*
X179342288Y-74023847D01*
X179553760Y-74091635D01*
X180420395Y-73225000D01*
X179553760Y-72358365D01*
X179342288Y-72426153D01*
X179232893Y-72262431D01*
X179149222Y-72178760D01*
X179733365Y-72178760D01*
X180600000Y-73045395D01*
X181466635Y-72178760D01*
X181385975Y-71927132D01*
X181117671Y-71798733D01*
X180829474Y-71725145D01*
X180532457Y-71709196D01*
X180238037Y-71751499D01*
X179957526Y-71850428D01*
X179814025Y-71927132D01*
X179733365Y-72178760D01*
X179149222Y-72178760D01*
X179022569Y-72052107D01*
X178775253Y-71886856D01*
X178500451Y-71773029D01*
X178208722Y-71715000D01*
X177911278Y-71715000D01*
X177619549Y-71773029D01*
X177344747Y-71886856D01*
X177097431Y-72052107D01*
X176887107Y-72262431D01*
X176790000Y-72407762D01*
X176692893Y-72262431D01*
X176482569Y-72052107D01*
X176235253Y-71886856D01*
X175960451Y-71773029D01*
X175668722Y-71715000D01*
X175371278Y-71715000D01*
X175079549Y-71773029D01*
X174804747Y-71886856D01*
X174557431Y-72052107D01*
X174347107Y-72262431D01*
X174250000Y-72407762D01*
X174152893Y-72262431D01*
X173942569Y-72052107D01*
X173695253Y-71886856D01*
X173420451Y-71773029D01*
X173128722Y-71715000D01*
X172831278Y-71715000D01*
X172539549Y-71773029D01*
X172264747Y-71886856D01*
X172017431Y-72052107D01*
X171807107Y-72262431D01*
X171710000Y-72407762D01*
X171612893Y-72262431D01*
X171402569Y-72052107D01*
X171155253Y-71886856D01*
X170880451Y-71773029D01*
X170588722Y-71715000D01*
X170291278Y-71715000D01*
X169999549Y-71773029D01*
X169724747Y-71886856D01*
X169477431Y-72052107D01*
X169267107Y-72262431D01*
X169170000Y-72407762D01*
X169072893Y-72262431D01*
X168862569Y-72052107D01*
X168615253Y-71886856D01*
X168340451Y-71773029D01*
X168048722Y-71715000D01*
X167751278Y-71715000D01*
X167459549Y-71773029D01*
X167184747Y-71886856D01*
X166937431Y-72052107D01*
X166727107Y-72262431D01*
X166630000Y-72407762D01*
X166532893Y-72262431D01*
X166322569Y-72052107D01*
X166075253Y-71886856D01*
X165800451Y-71773029D01*
X165508722Y-71715000D01*
X165211278Y-71715000D01*
X164919549Y-71773029D01*
X164644747Y-71886856D01*
X164397431Y-72052107D01*
X164187107Y-72262431D01*
X164021856Y-72509747D01*
X163908029Y-72784549D01*
X163850000Y-73076278D01*
X163700000Y-73076278D01*
X163700000Y-66827322D01*
X163703676Y-66789999D01*
X163700000Y-66752676D01*
X163700000Y-66752667D01*
X163689003Y-66641014D01*
X163645546Y-66497753D01*
X163574974Y-66365724D01*
X163480001Y-66249999D01*
X163451003Y-66226201D01*
X161518688Y-64293886D01*
X161555000Y-64111335D01*
X161555000Y-63828665D01*
X161499853Y-63551426D01*
X161391680Y-63290273D01*
X161234637Y-63055241D01*
X161034759Y-62855363D01*
X160802241Y-62700000D01*
X161034759Y-62544637D01*
X161234637Y-62344759D01*
X161391680Y-62109727D01*
X161499853Y-61848574D01*
X161555000Y-61571335D01*
X161555000Y-61288665D01*
X161499853Y-61011426D01*
X161391680Y-60750273D01*
X161234637Y-60515241D01*
X161034759Y-60315363D01*
X160802241Y-60160000D01*
X161034759Y-60004637D01*
X161234637Y-59804759D01*
X161391680Y-59569727D01*
X161499853Y-59308574D01*
X161555000Y-59031335D01*
X161555000Y-58748665D01*
X161499853Y-58471426D01*
X161391680Y-58210273D01*
X161234637Y-57975241D01*
X161034759Y-57775363D01*
X160802241Y-57620000D01*
X161034759Y-57464637D01*
X161100731Y-57398665D01*
X165365000Y-57398665D01*
X165365000Y-57681335D01*
X165420147Y-57958574D01*
X165528320Y-58219727D01*
X165685363Y-58454759D01*
X165885241Y-58654637D01*
X166117759Y-58810000D01*
X165885241Y-58965363D01*
X165685363Y-59165241D01*
X165528320Y-59400273D01*
X165420147Y-59661426D01*
X165365000Y-59938665D01*
X165365000Y-60221335D01*
X165420147Y-60498574D01*
X165528320Y-60759727D01*
X165685363Y-60994759D01*
X165885241Y-61194637D01*
X166117759Y-61350000D01*
X165885241Y-61505363D01*
X165685363Y-61705241D01*
X165528320Y-61940273D01*
X165420147Y-62201426D01*
X165365000Y-62478665D01*
X165365000Y-62761335D01*
X165420147Y-63038574D01*
X165528320Y-63299727D01*
X165685363Y-63534759D01*
X165885241Y-63734637D01*
X166117759Y-63890000D01*
X165885241Y-64045363D01*
X165685363Y-64245241D01*
X165528320Y-64480273D01*
X165420147Y-64741426D01*
X165365000Y-65018665D01*
X165365000Y-65301335D01*
X165420147Y-65578574D01*
X165528320Y-65839727D01*
X165685363Y-66074759D01*
X165885241Y-66274637D01*
X166117759Y-66430000D01*
X165885241Y-66585363D01*
X165685363Y-66785241D01*
X165528320Y-67020273D01*
X165420147Y-67281426D01*
X165365000Y-67558665D01*
X165365000Y-67841335D01*
X165420147Y-68118574D01*
X165528320Y-68379727D01*
X165685363Y-68614759D01*
X165885241Y-68814637D01*
X166120273Y-68971680D01*
X166381426Y-69079853D01*
X166658665Y-69135000D01*
X166941335Y-69135000D01*
X167218574Y-69079853D01*
X167479727Y-68971680D01*
X167714759Y-68814637D01*
X167914637Y-68614759D01*
X168071680Y-68379727D01*
X168179853Y-68118574D01*
X168235000Y-67841335D01*
X168235000Y-67558665D01*
X168179853Y-67281426D01*
X168071680Y-67020273D01*
X167914637Y-66785241D01*
X167714759Y-66585363D01*
X167482241Y-66430000D01*
X167714759Y-66274637D01*
X167914637Y-66074759D01*
X168071680Y-65839727D01*
X168179853Y-65578574D01*
X168235000Y-65301335D01*
X168235000Y-65018665D01*
X168179853Y-64741426D01*
X168071680Y-64480273D01*
X167914637Y-64245241D01*
X167714759Y-64045363D01*
X167482241Y-63890000D01*
X167714759Y-63734637D01*
X167914637Y-63534759D01*
X168071680Y-63299727D01*
X168179853Y-63038574D01*
X168235000Y-62761335D01*
X168235000Y-62478665D01*
X168179853Y-62201426D01*
X168071680Y-61940273D01*
X167914637Y-61705241D01*
X167714759Y-61505363D01*
X167482241Y-61350000D01*
X167714759Y-61194637D01*
X167914637Y-60994759D01*
X168071680Y-60759727D01*
X168179853Y-60498574D01*
X168235000Y-60221335D01*
X168235000Y-59938665D01*
X168179853Y-59661426D01*
X168071680Y-59400273D01*
X167914637Y-59165241D01*
X167714759Y-58965363D01*
X167482241Y-58810000D01*
X167714759Y-58654637D01*
X167914637Y-58454759D01*
X168071680Y-58219727D01*
X168179853Y-57958574D01*
X168235000Y-57681335D01*
X168235000Y-57398665D01*
X168179853Y-57121426D01*
X168071680Y-56860273D01*
X167914637Y-56625241D01*
X167714759Y-56425363D01*
X167480872Y-56269085D01*
X167541514Y-56236671D01*
X167613097Y-55992702D01*
X166800000Y-55179605D01*
X165986903Y-55992702D01*
X166058486Y-56236671D01*
X166122992Y-56267194D01*
X166120273Y-56268320D01*
X165885241Y-56425363D01*
X165685363Y-56625241D01*
X165528320Y-56860273D01*
X165420147Y-57121426D01*
X165365000Y-57398665D01*
X161100731Y-57398665D01*
X161234637Y-57264759D01*
X161391680Y-57029727D01*
X161499853Y-56768574D01*
X161555000Y-56491335D01*
X161555000Y-56208665D01*
X161499853Y-55931426D01*
X161391680Y-55670273D01*
X161234637Y-55435241D01*
X161034759Y-55235363D01*
X160802241Y-55080000D01*
X160816440Y-55070512D01*
X165359783Y-55070512D01*
X165401213Y-55350130D01*
X165496397Y-55616292D01*
X165563329Y-55741514D01*
X165807298Y-55813097D01*
X166620395Y-55000000D01*
X166979605Y-55000000D01*
X167792702Y-55813097D01*
X168036671Y-55741514D01*
X168157571Y-55486004D01*
X168226300Y-55211816D01*
X168240217Y-54929488D01*
X168229724Y-54858665D01*
X178065000Y-54858665D01*
X178065000Y-55141335D01*
X178120147Y-55418574D01*
X178228320Y-55679727D01*
X178385363Y-55914759D01*
X178585241Y-56114637D01*
X178817759Y-56270000D01*
X178585241Y-56425363D01*
X178385363Y-56625241D01*
X178228320Y-56860273D01*
X178120147Y-57121426D01*
X178065000Y-57398665D01*
X178065000Y-57681335D01*
X178120147Y-57958574D01*
X178228320Y-58219727D01*
X178385363Y-58454759D01*
X178585241Y-58654637D01*
X178817759Y-58810000D01*
X178585241Y-58965363D01*
X178385363Y-59165241D01*
X178228320Y-59400273D01*
X178120147Y-59661426D01*
X178065000Y-59938665D01*
X178065000Y-60221335D01*
X178120147Y-60498574D01*
X178228320Y-60759727D01*
X178385363Y-60994759D01*
X178585241Y-61194637D01*
X178817759Y-61350000D01*
X178585241Y-61505363D01*
X178385363Y-61705241D01*
X178228320Y-61940273D01*
X178120147Y-62201426D01*
X178065000Y-62478665D01*
X178065000Y-62761335D01*
X178120147Y-63038574D01*
X178228320Y-63299727D01*
X178385363Y-63534759D01*
X178585241Y-63734637D01*
X178817759Y-63890000D01*
X178585241Y-64045363D01*
X178385363Y-64245241D01*
X178228320Y-64480273D01*
X178120147Y-64741426D01*
X178065000Y-65018665D01*
X178065000Y-65301335D01*
X178120147Y-65578574D01*
X178228320Y-65839727D01*
X178385363Y-66074759D01*
X178585241Y-66274637D01*
X178817759Y-66430000D01*
X178585241Y-66585363D01*
X178385363Y-66785241D01*
X178228320Y-67020273D01*
X178120147Y-67281426D01*
X178065000Y-67558665D01*
X178065000Y-67841335D01*
X178120147Y-68118574D01*
X178228320Y-68379727D01*
X178385363Y-68614759D01*
X178585241Y-68814637D01*
X178820273Y-68971680D01*
X179081426Y-69079853D01*
X179358665Y-69135000D01*
X179641335Y-69135000D01*
X179918574Y-69079853D01*
X180179727Y-68971680D01*
X180414759Y-68814637D01*
X180614637Y-68614759D01*
X180771680Y-68379727D01*
X180879853Y-68118574D01*
X180935000Y-67841335D01*
X180935000Y-67558665D01*
X180879853Y-67281426D01*
X180771680Y-67020273D01*
X180614637Y-66785241D01*
X180414759Y-66585363D01*
X180182241Y-66430000D01*
X180414759Y-66274637D01*
X180614637Y-66074759D01*
X180771680Y-65839727D01*
X180879853Y-65578574D01*
X180935000Y-65301335D01*
X180935000Y-65018665D01*
X180879853Y-64741426D01*
X180771680Y-64480273D01*
X180614637Y-64245241D01*
X180414759Y-64045363D01*
X180182241Y-63890000D01*
X180414759Y-63734637D01*
X180614637Y-63534759D01*
X180771680Y-63299727D01*
X180879853Y-63038574D01*
X180935000Y-62761335D01*
X180935000Y-62478665D01*
X180879853Y-62201426D01*
X180771680Y-61940273D01*
X180614637Y-61705241D01*
X180414759Y-61505363D01*
X180182241Y-61350000D01*
X180414759Y-61194637D01*
X180614637Y-60994759D01*
X180771680Y-60759727D01*
X180879853Y-60498574D01*
X180935000Y-60221335D01*
X180935000Y-59938665D01*
X180879853Y-59661426D01*
X180771680Y-59400273D01*
X180614637Y-59165241D01*
X180414759Y-58965363D01*
X180182241Y-58810000D01*
X180414759Y-58654637D01*
X180614637Y-58454759D01*
X180771680Y-58219727D01*
X180879853Y-57958574D01*
X180935000Y-57681335D01*
X180935000Y-57398665D01*
X180879853Y-57121426D01*
X180771680Y-56860273D01*
X180614637Y-56625241D01*
X180414759Y-56425363D01*
X180182241Y-56270000D01*
X180414759Y-56114637D01*
X180614637Y-55914759D01*
X180771680Y-55679727D01*
X180879853Y-55418574D01*
X180935000Y-55141335D01*
X180935000Y-54858665D01*
X180879853Y-54581426D01*
X180771680Y-54320273D01*
X180614637Y-54085241D01*
X180414759Y-53885363D01*
X180179727Y-53728320D01*
X179918574Y-53620147D01*
X179641335Y-53565000D01*
X179358665Y-53565000D01*
X179081426Y-53620147D01*
X178820273Y-53728320D01*
X178585241Y-53885363D01*
X178385363Y-54085241D01*
X178228320Y-54320273D01*
X178120147Y-54581426D01*
X178065000Y-54858665D01*
X168229724Y-54858665D01*
X168198787Y-54649870D01*
X168103603Y-54383708D01*
X168036671Y-54258486D01*
X167792702Y-54186903D01*
X166979605Y-55000000D01*
X166620395Y-55000000D01*
X165807298Y-54186903D01*
X165563329Y-54258486D01*
X165442429Y-54513996D01*
X165373700Y-54788184D01*
X165359783Y-55070512D01*
X160816440Y-55070512D01*
X161034759Y-54924637D01*
X161234637Y-54724759D01*
X161391680Y-54489727D01*
X161499853Y-54228574D01*
X161543868Y-54007298D01*
X165986903Y-54007298D01*
X166800000Y-54820395D01*
X167613097Y-54007298D01*
X167541514Y-53763329D01*
X167286004Y-53642429D01*
X167011816Y-53573700D01*
X166729488Y-53559783D01*
X166449870Y-53601213D01*
X166183708Y-53696397D01*
X166058486Y-53763329D01*
X165986903Y-54007298D01*
X161543868Y-54007298D01*
X161555000Y-53951335D01*
X161555000Y-53668665D01*
X161499853Y-53391426D01*
X161391680Y-53130273D01*
X161234637Y-52895241D01*
X161034759Y-52695363D01*
X160802241Y-52540000D01*
X161034759Y-52384637D01*
X161234637Y-52184759D01*
X161391680Y-51949727D01*
X161499853Y-51688574D01*
X161555000Y-51411335D01*
X161555000Y-51128665D01*
X161499853Y-50851426D01*
X161391680Y-50590273D01*
X161234637Y-50355241D01*
X161034759Y-50155363D01*
X160802241Y-50000000D01*
X161034759Y-49844637D01*
X161234637Y-49644759D01*
X161391680Y-49409727D01*
X161499853Y-49148574D01*
X161555000Y-48871335D01*
X161555000Y-48588665D01*
X161499853Y-48311426D01*
X161391680Y-48050273D01*
X161234637Y-47815241D01*
X161034759Y-47615363D01*
X160802241Y-47460000D01*
X161034759Y-47304637D01*
X161234637Y-47104759D01*
X161391680Y-46869727D01*
X161499853Y-46608574D01*
X161555000Y-46331335D01*
X161555000Y-46048665D01*
X161499853Y-45771426D01*
X161391680Y-45510273D01*
X161234637Y-45275241D01*
X161034759Y-45075363D01*
X160802241Y-44920000D01*
X161034759Y-44764637D01*
X161234637Y-44564759D01*
X161391680Y-44329727D01*
X161499853Y-44068574D01*
X161555000Y-43791335D01*
X161555000Y-43508665D01*
X161499853Y-43231426D01*
X161391680Y-42970273D01*
X161234637Y-42735241D01*
X161034759Y-42535363D01*
X160802241Y-42380000D01*
X161034759Y-42224637D01*
X161234637Y-42024759D01*
X161391680Y-41789727D01*
X161499853Y-41528574D01*
X161555000Y-41251335D01*
X161555000Y-40968665D01*
X161499853Y-40691426D01*
X161391680Y-40430273D01*
X161234637Y-40195241D01*
X161034759Y-39995363D01*
X160802241Y-39840000D01*
X161034759Y-39684637D01*
X161234637Y-39484759D01*
X161391680Y-39249727D01*
X161499853Y-38988574D01*
X161555000Y-38711335D01*
X161555000Y-38428665D01*
X161499853Y-38151426D01*
X161437131Y-38000000D01*
X172961928Y-38000000D01*
X172961928Y-41000000D01*
X172974188Y-41124482D01*
X173010498Y-41244180D01*
X173069463Y-41354494D01*
X173148815Y-41451185D01*
X173245506Y-41530537D01*
X173355820Y-41589502D01*
X173475518Y-41625812D01*
X173600000Y-41638072D01*
X176600000Y-41638072D01*
X176724482Y-41625812D01*
X176844180Y-41589502D01*
X176954494Y-41530537D01*
X177051185Y-41451185D01*
X177130537Y-41354494D01*
X177189502Y-41244180D01*
X177225812Y-41124482D01*
X177238072Y-41000000D01*
X177238072Y-38000000D01*
X177225812Y-37875518D01*
X177189502Y-37755820D01*
X177130537Y-37645506D01*
X177051185Y-37548815D01*
X176954494Y-37469463D01*
X176844180Y-37410498D01*
X176724482Y-37374188D01*
X176600000Y-37361928D01*
X173600000Y-37361928D01*
X173475518Y-37374188D01*
X173355820Y-37410498D01*
X173245506Y-37469463D01*
X173148815Y-37548815D01*
X173069463Y-37645506D01*
X173010498Y-37755820D01*
X172974188Y-37875518D01*
X172961928Y-38000000D01*
X161437131Y-38000000D01*
X161391680Y-37890273D01*
X161234637Y-37655241D01*
X161034759Y-37455363D01*
X160802241Y-37300000D01*
X161034759Y-37144637D01*
X161234637Y-36944759D01*
X161391680Y-36709727D01*
X161499853Y-36448574D01*
X161555000Y-36171335D01*
X161555000Y-35888665D01*
X161499853Y-35611426D01*
X161391680Y-35350273D01*
X161234637Y-35115241D01*
X161034759Y-34915363D01*
X160800872Y-34759085D01*
X160861514Y-34726671D01*
X160933097Y-34482702D01*
X160120000Y-33669605D01*
X159306903Y-34482702D01*
X159378486Y-34726671D01*
X159442992Y-34757194D01*
X159440273Y-34758320D01*
X159205241Y-34915363D01*
X159005363Y-35115241D01*
X158850000Y-35347759D01*
X158694637Y-35115241D01*
X158494759Y-34915363D01*
X158259727Y-34758320D01*
X157998574Y-34650147D01*
X157721335Y-34595000D01*
X157438665Y-34595000D01*
X157161426Y-34650147D01*
X156900273Y-34758320D01*
X156665241Y-34915363D01*
X156465363Y-35115241D01*
X156308320Y-35350273D01*
X156200147Y-35611426D01*
X156145000Y-35888665D01*
X156145000Y-36171335D01*
X156200147Y-36448574D01*
X156308320Y-36709727D01*
X156465363Y-36944759D01*
X156665241Y-37144637D01*
X156900273Y-37301680D01*
X157161426Y-37409853D01*
X157438665Y-37465000D01*
X157721335Y-37465000D01*
X157998574Y-37409853D01*
X158259727Y-37301680D01*
X158494759Y-37144637D01*
X158694637Y-36944759D01*
X158850000Y-36712241D01*
X159005363Y-36944759D01*
X159205241Y-37144637D01*
X159437759Y-37300000D01*
X159205241Y-37455363D01*
X159005363Y-37655241D01*
X158848320Y-37890273D01*
X158740147Y-38151426D01*
X158685000Y-38428665D01*
X158685000Y-38711335D01*
X158740147Y-38988574D01*
X158848320Y-39249727D01*
X159005363Y-39484759D01*
X159205241Y-39684637D01*
X159437759Y-39840000D01*
X159205241Y-39995363D01*
X159005363Y-40195241D01*
X158850000Y-40427759D01*
X158694637Y-40195241D01*
X158494759Y-39995363D01*
X158259727Y-39838320D01*
X157998574Y-39730147D01*
X157721335Y-39675000D01*
X157438665Y-39675000D01*
X157161426Y-39730147D01*
X156900273Y-39838320D01*
X156665241Y-39995363D01*
X156465363Y-40195241D01*
X156308320Y-40430273D01*
X156200147Y-40691426D01*
X156145000Y-40968665D01*
X156145000Y-41251335D01*
X156200147Y-41528574D01*
X156308320Y-41789727D01*
X156465363Y-42024759D01*
X156665241Y-42224637D01*
X156897759Y-42380000D01*
X156665241Y-42535363D01*
X156465363Y-42735241D01*
X156308320Y-42970273D01*
X156200147Y-43231426D01*
X156145000Y-43508665D01*
X156145000Y-43791335D01*
X156200147Y-44068574D01*
X156308320Y-44329727D01*
X156465363Y-44564759D01*
X156665241Y-44764637D01*
X156897759Y-44920000D01*
X156665241Y-45075363D01*
X156465363Y-45275241D01*
X156308320Y-45510273D01*
X156200147Y-45771426D01*
X156145000Y-46048665D01*
X156145000Y-46331335D01*
X156200147Y-46608574D01*
X156308320Y-46869727D01*
X156465363Y-47104759D01*
X156665241Y-47304637D01*
X156900273Y-47461680D01*
X157161426Y-47569853D01*
X157438665Y-47625000D01*
X157721335Y-47625000D01*
X157998574Y-47569853D01*
X158259727Y-47461680D01*
X158494759Y-47304637D01*
X158694637Y-47104759D01*
X158850000Y-46872241D01*
X159005363Y-47104759D01*
X159205241Y-47304637D01*
X159437759Y-47460000D01*
X159205241Y-47615363D01*
X159005363Y-47815241D01*
X158848320Y-48050273D01*
X158740147Y-48311426D01*
X158685000Y-48588665D01*
X158685000Y-48871335D01*
X158740147Y-49148574D01*
X158848320Y-49409727D01*
X159005363Y-49644759D01*
X159205241Y-49844637D01*
X159437759Y-50000000D01*
X159205241Y-50155363D01*
X159005363Y-50355241D01*
X158848320Y-50590273D01*
X158740147Y-50851426D01*
X158685000Y-51128665D01*
X158685000Y-51411335D01*
X158740147Y-51688574D01*
X158848320Y-51949727D01*
X159005363Y-52184759D01*
X159205241Y-52384637D01*
X159437759Y-52540000D01*
X159205241Y-52695363D01*
X159005363Y-52895241D01*
X158848320Y-53130273D01*
X158740147Y-53391426D01*
X158685000Y-53668665D01*
X158685000Y-53951335D01*
X158740147Y-54228574D01*
X158848320Y-54489727D01*
X159005363Y-54724759D01*
X159205241Y-54924637D01*
X159437759Y-55080000D01*
X159205241Y-55235363D01*
X159005363Y-55435241D01*
X158848320Y-55670273D01*
X158740147Y-55931426D01*
X158685000Y-56208665D01*
X158685000Y-56491335D01*
X158740147Y-56768574D01*
X158848320Y-57029727D01*
X159005363Y-57264759D01*
X159205241Y-57464637D01*
X159437759Y-57620000D01*
X159205241Y-57775363D01*
X159005363Y-57975241D01*
X158848320Y-58210273D01*
X158740147Y-58471426D01*
X158685000Y-58748665D01*
X158685000Y-59031335D01*
X158740147Y-59308574D01*
X158848320Y-59569727D01*
X159005363Y-59804759D01*
X159205241Y-60004637D01*
X159437759Y-60160000D01*
X159205241Y-60315363D01*
X159005363Y-60515241D01*
X158848320Y-60750273D01*
X158740147Y-61011426D01*
X158685000Y-61288665D01*
X158685000Y-61571335D01*
X158740147Y-61848574D01*
X158848320Y-62109727D01*
X159005363Y-62344759D01*
X159205241Y-62544637D01*
X159437759Y-62700000D01*
X159205241Y-62855363D01*
X159005363Y-63055241D01*
X158848320Y-63290273D01*
X158740147Y-63551426D01*
X158685000Y-63828665D01*
X158685000Y-64111335D01*
X158740147Y-64388574D01*
X158848320Y-64649727D01*
X159005363Y-64884759D01*
X159205241Y-65084637D01*
X159437759Y-65240000D01*
X159205241Y-65395363D01*
X159005363Y-65595241D01*
X158850000Y-65827759D01*
X158694637Y-65595241D01*
X158494759Y-65395363D01*
X158259727Y-65238320D01*
X157998574Y-65130147D01*
X157721335Y-65075000D01*
X157438665Y-65075000D01*
X157161426Y-65130147D01*
X156900273Y-65238320D01*
X156665241Y-65395363D01*
X156465363Y-65595241D01*
X156310000Y-65827759D01*
X156154637Y-65595241D01*
X155954759Y-65395363D01*
X155719727Y-65238320D01*
X155458574Y-65130147D01*
X155181335Y-65075000D01*
X154898665Y-65075000D01*
X154621426Y-65130147D01*
X154360273Y-65238320D01*
X154125241Y-65395363D01*
X153925363Y-65595241D01*
X153770000Y-65827759D01*
X153614637Y-65595241D01*
X153414759Y-65395363D01*
X153179727Y-65238320D01*
X152918574Y-65130147D01*
X152641335Y-65075000D01*
X152358665Y-65075000D01*
X152081426Y-65130147D01*
X151820273Y-65238320D01*
X151585241Y-65395363D01*
X151385363Y-65595241D01*
X151230000Y-65827759D01*
X151074637Y-65595241D01*
X150874759Y-65395363D01*
X150639727Y-65238320D01*
X150378574Y-65130147D01*
X150101335Y-65075000D01*
X149818665Y-65075000D01*
X149541426Y-65130147D01*
X149280273Y-65238320D01*
X149045241Y-65395363D01*
X148845363Y-65595241D01*
X148690000Y-65827759D01*
X148534637Y-65595241D01*
X148334759Y-65395363D01*
X148099727Y-65238320D01*
X147838574Y-65130147D01*
X147561335Y-65075000D01*
X147278665Y-65075000D01*
X147001426Y-65130147D01*
X146740273Y-65238320D01*
X146505241Y-65395363D01*
X146305363Y-65595241D01*
X146150000Y-65827759D01*
X145994637Y-65595241D01*
X145794759Y-65395363D01*
X145562241Y-65240000D01*
X145794759Y-65084637D01*
X145994637Y-64884759D01*
X146151680Y-64649727D01*
X146259853Y-64388574D01*
X146315000Y-64111335D01*
X146315000Y-63828665D01*
X146259853Y-63551426D01*
X146151680Y-63290273D01*
X145994637Y-63055241D01*
X145794759Y-62855363D01*
X145562241Y-62700000D01*
X145794759Y-62544637D01*
X145994637Y-62344759D01*
X146151680Y-62109727D01*
X146259853Y-61848574D01*
X146315000Y-61571335D01*
X146315000Y-61288665D01*
X146259853Y-61011426D01*
X146151680Y-60750273D01*
X145994637Y-60515241D01*
X145794759Y-60315363D01*
X145562241Y-60160000D01*
X145794759Y-60004637D01*
X145994637Y-59804759D01*
X146151680Y-59569727D01*
X146259853Y-59308574D01*
X146315000Y-59031335D01*
X146315000Y-58748665D01*
X146259853Y-58471426D01*
X146151680Y-58210273D01*
X145994637Y-57975241D01*
X145794759Y-57775363D01*
X145562241Y-57620000D01*
X145794759Y-57464637D01*
X145994637Y-57264759D01*
X146151680Y-57029727D01*
X146259853Y-56768574D01*
X146315000Y-56491335D01*
X146315000Y-56208665D01*
X146259853Y-55931426D01*
X146151680Y-55670273D01*
X145994637Y-55435241D01*
X145794759Y-55235363D01*
X145562241Y-55080000D01*
X145794759Y-54924637D01*
X145994637Y-54724759D01*
X146151680Y-54489727D01*
X146259853Y-54228574D01*
X146315000Y-53951335D01*
X146315000Y-53668665D01*
X146259853Y-53391426D01*
X146151680Y-53130273D01*
X145994637Y-52895241D01*
X145794759Y-52695363D01*
X145562241Y-52540000D01*
X145794759Y-52384637D01*
X145994637Y-52184759D01*
X146151680Y-51949727D01*
X146259853Y-51688574D01*
X146315000Y-51411335D01*
X146315000Y-51128665D01*
X146259853Y-50851426D01*
X146151680Y-50590273D01*
X145994637Y-50355241D01*
X145794759Y-50155363D01*
X145562241Y-50000000D01*
X145794759Y-49844637D01*
X145994637Y-49644759D01*
X146151680Y-49409727D01*
X146259853Y-49148574D01*
X146315000Y-48871335D01*
X146315000Y-48588665D01*
X146259853Y-48311426D01*
X146151680Y-48050273D01*
X145994637Y-47815241D01*
X145794759Y-47615363D01*
X145562241Y-47460000D01*
X145794759Y-47304637D01*
X145994637Y-47104759D01*
X146151680Y-46869727D01*
X146259853Y-46608574D01*
X146315000Y-46331335D01*
X146315000Y-46048665D01*
X146259853Y-45771426D01*
X146151680Y-45510273D01*
X145994637Y-45275241D01*
X145794759Y-45075363D01*
X145562241Y-44920000D01*
X145794759Y-44764637D01*
X145994637Y-44564759D01*
X146151680Y-44329727D01*
X146259853Y-44068574D01*
X146315000Y-43791335D01*
X146315000Y-43508665D01*
X146312062Y-43493891D01*
X150915000Y-43493891D01*
X150915000Y-43806109D01*
X150975911Y-44112327D01*
X151095391Y-44400779D01*
X151268850Y-44660379D01*
X151489621Y-44881150D01*
X151749221Y-45054609D01*
X152037673Y-45174089D01*
X152343891Y-45235000D01*
X152656109Y-45235000D01*
X152962327Y-45174089D01*
X153250779Y-45054609D01*
X153510379Y-44881150D01*
X153731150Y-44660379D01*
X153904609Y-44400779D01*
X154024089Y-44112327D01*
X154085000Y-43806109D01*
X154085000Y-43493891D01*
X154024089Y-43187673D01*
X153904609Y-42899221D01*
X153731150Y-42639621D01*
X153510379Y-42418850D01*
X153250779Y-42245391D01*
X152962327Y-42125911D01*
X152656109Y-42065000D01*
X152343891Y-42065000D01*
X152037673Y-42125911D01*
X151749221Y-42245391D01*
X151489621Y-42418850D01*
X151268850Y-42639621D01*
X151095391Y-42899221D01*
X150975911Y-43187673D01*
X150915000Y-43493891D01*
X146312062Y-43493891D01*
X146259853Y-43231426D01*
X146151680Y-42970273D01*
X145994637Y-42735241D01*
X145794759Y-42535363D01*
X145562241Y-42380000D01*
X145794759Y-42224637D01*
X145994637Y-42024759D01*
X146151680Y-41789727D01*
X146259853Y-41528574D01*
X146315000Y-41251335D01*
X146315000Y-40968665D01*
X146259853Y-40691426D01*
X146151680Y-40430273D01*
X145994637Y-40195241D01*
X145794759Y-39995363D01*
X145562241Y-39840000D01*
X145794759Y-39684637D01*
X145795505Y-39683891D01*
X150915000Y-39683891D01*
X150915000Y-39996109D01*
X150975911Y-40302327D01*
X151095391Y-40590779D01*
X151268850Y-40850379D01*
X151489621Y-41071150D01*
X151749221Y-41244609D01*
X152037673Y-41364089D01*
X152343891Y-41425000D01*
X152656109Y-41425000D01*
X152962327Y-41364089D01*
X153250779Y-41244609D01*
X153510379Y-41071150D01*
X153731150Y-40850379D01*
X153904609Y-40590779D01*
X154024089Y-40302327D01*
X154085000Y-39996109D01*
X154085000Y-39683891D01*
X154024089Y-39377673D01*
X153904609Y-39089221D01*
X153731150Y-38829621D01*
X153510379Y-38608850D01*
X153250779Y-38435391D01*
X152962327Y-38315911D01*
X152656109Y-38255000D01*
X152343891Y-38255000D01*
X152037673Y-38315911D01*
X151749221Y-38435391D01*
X151489621Y-38608850D01*
X151268850Y-38829621D01*
X151095391Y-39089221D01*
X150975911Y-39377673D01*
X150915000Y-39683891D01*
X145795505Y-39683891D01*
X145994637Y-39484759D01*
X146151680Y-39249727D01*
X146259853Y-38988574D01*
X146315000Y-38711335D01*
X146315000Y-38428665D01*
X146259853Y-38151426D01*
X146151680Y-37890273D01*
X145994637Y-37655241D01*
X145794759Y-37455363D01*
X145562241Y-37300000D01*
X145794759Y-37144637D01*
X145994637Y-36944759D01*
X146151680Y-36709727D01*
X146259853Y-36448574D01*
X146315000Y-36171335D01*
X146315000Y-35888665D01*
X146259853Y-35611426D01*
X146151680Y-35350273D01*
X145994637Y-35115241D01*
X145796039Y-34916643D01*
X145804482Y-34915812D01*
X145924180Y-34879502D01*
X146034494Y-34820537D01*
X146131185Y-34741185D01*
X146210537Y-34644494D01*
X146269502Y-34534180D01*
X146305812Y-34414482D01*
X146318072Y-34290000D01*
X146318072Y-33560512D01*
X158679783Y-33560512D01*
X158721213Y-33840130D01*
X158816397Y-34106292D01*
X158883329Y-34231514D01*
X159127298Y-34303097D01*
X159940395Y-33490000D01*
X160299605Y-33490000D01*
X161112702Y-34303097D01*
X161356671Y-34231514D01*
X161366982Y-34209721D01*
X172965000Y-34209721D01*
X172965000Y-34630279D01*
X173047047Y-35042756D01*
X173207988Y-35431302D01*
X173441637Y-35780983D01*
X173739017Y-36078363D01*
X174088698Y-36312012D01*
X174477244Y-36472953D01*
X174889721Y-36555000D01*
X175310279Y-36555000D01*
X175722756Y-36472953D01*
X176111302Y-36312012D01*
X176460983Y-36078363D01*
X176758363Y-35780983D01*
X176992012Y-35431302D01*
X177152953Y-35042756D01*
X177235000Y-34630279D01*
X177235000Y-34209721D01*
X177152953Y-33797244D01*
X176992012Y-33408698D01*
X176758363Y-33059017D01*
X176460983Y-32761637D01*
X176111302Y-32527988D01*
X175722756Y-32367047D01*
X175310279Y-32285000D01*
X174889721Y-32285000D01*
X174477244Y-32367047D01*
X174088698Y-32527988D01*
X173739017Y-32761637D01*
X173441637Y-33059017D01*
X173207988Y-33408698D01*
X173047047Y-33797244D01*
X172965000Y-34209721D01*
X161366982Y-34209721D01*
X161477571Y-33976004D01*
X161546300Y-33701816D01*
X161560217Y-33419488D01*
X161518787Y-33139870D01*
X161423603Y-32873708D01*
X161356671Y-32748486D01*
X161112702Y-32676903D01*
X160299605Y-33490000D01*
X159940395Y-33490000D01*
X159127298Y-32676903D01*
X158883329Y-32748486D01*
X158762429Y-33003996D01*
X158693700Y-33278184D01*
X158679783Y-33560512D01*
X146318072Y-33560512D01*
X146318072Y-32690000D01*
X146305812Y-32565518D01*
X146285118Y-32497298D01*
X159306903Y-32497298D01*
X160120000Y-33310395D01*
X160933097Y-32497298D01*
X160861514Y-32253329D01*
X160606004Y-32132429D01*
X160331816Y-32063700D01*
X160049488Y-32049783D01*
X159769870Y-32091213D01*
X159503708Y-32186397D01*
X159378486Y-32253329D01*
X159306903Y-32497298D01*
X146285118Y-32497298D01*
X146269502Y-32445820D01*
X146210537Y-32335506D01*
X146131185Y-32238815D01*
X146034494Y-32159463D01*
X145924180Y-32100498D01*
X145804482Y-32064188D01*
X145680000Y-32051928D01*
X144080000Y-32051928D01*
X143955518Y-32064188D01*
X143835820Y-32100498D01*
X143725506Y-32159463D01*
X143628815Y-32238815D01*
X143549463Y-32335506D01*
X143490498Y-32445820D01*
X143454188Y-32565518D01*
X143441928Y-32690000D01*
X143441928Y-34290000D01*
X143454188Y-34414482D01*
X143490498Y-34534180D01*
X143549463Y-34644494D01*
X143628815Y-34741185D01*
X143725506Y-34820537D01*
X143835820Y-34879502D01*
X143955518Y-34915812D01*
X143963961Y-34916643D01*
X143765363Y-35115241D01*
X143608320Y-35350273D01*
X143500147Y-35611426D01*
X143445000Y-35888665D01*
X143445000Y-36171335D01*
X143500147Y-36448574D01*
X143608320Y-36709727D01*
X143765363Y-36944759D01*
X143965241Y-37144637D01*
X144197759Y-37300000D01*
X143965241Y-37455363D01*
X143765363Y-37655241D01*
X143608320Y-37890273D01*
X143500147Y-38151426D01*
X143445000Y-38428665D01*
X143445000Y-38711335D01*
X143500147Y-38988574D01*
X143608320Y-39249727D01*
X143765363Y-39484759D01*
X143965241Y-39684637D01*
X144197759Y-39840000D01*
X143965241Y-39995363D01*
X143765363Y-40195241D01*
X143608320Y-40430273D01*
X143500147Y-40691426D01*
X143445000Y-40968665D01*
X143445000Y-41251335D01*
X143500147Y-41528574D01*
X143608320Y-41789727D01*
X143765363Y-42024759D01*
X143965241Y-42224637D01*
X144197759Y-42380000D01*
X143965241Y-42535363D01*
X143765363Y-42735241D01*
X143608320Y-42970273D01*
X143500147Y-43231426D01*
X143445000Y-43508665D01*
X143445000Y-43791335D01*
X143500147Y-44068574D01*
X143608320Y-44329727D01*
X143765363Y-44564759D01*
X143965241Y-44764637D01*
X144197759Y-44920000D01*
X143965241Y-45075363D01*
X143765363Y-45275241D01*
X143608320Y-45510273D01*
X143500147Y-45771426D01*
X143445000Y-46048665D01*
X143445000Y-46331335D01*
X143500147Y-46608574D01*
X143608320Y-46869727D01*
X143765363Y-47104759D01*
X143965241Y-47304637D01*
X144197759Y-47460000D01*
X143965241Y-47615363D01*
X143765363Y-47815241D01*
X143608320Y-48050273D01*
X143500147Y-48311426D01*
X143445000Y-48588665D01*
X143445000Y-48871335D01*
X143500147Y-49148574D01*
X143608320Y-49409727D01*
X143765363Y-49644759D01*
X143965241Y-49844637D01*
X144197759Y-50000000D01*
X143965241Y-50155363D01*
X143765363Y-50355241D01*
X143608320Y-50590273D01*
X143500147Y-50851426D01*
X143445000Y-51128665D01*
X143445000Y-51411335D01*
X143500147Y-51688574D01*
X143608320Y-51949727D01*
X143765363Y-52184759D01*
X143965241Y-52384637D01*
X144197759Y-52540000D01*
X143965241Y-52695363D01*
X143765363Y-52895241D01*
X143608320Y-53130273D01*
X143500147Y-53391426D01*
X143445000Y-53668665D01*
X143445000Y-53951335D01*
X143500147Y-54228574D01*
X143608320Y-54489727D01*
X143765363Y-54724759D01*
X143965241Y-54924637D01*
X144197759Y-55080000D01*
X143965241Y-55235363D01*
X143765363Y-55435241D01*
X143608320Y-55670273D01*
X143500147Y-55931426D01*
X143445000Y-56208665D01*
X143445000Y-56491335D01*
X143500147Y-56768574D01*
X143608320Y-57029727D01*
X143765363Y-57264759D01*
X143965241Y-57464637D01*
X144197759Y-57620000D01*
X143965241Y-57775363D01*
X143765363Y-57975241D01*
X143608320Y-58210273D01*
X143500147Y-58471426D01*
X143445000Y-58748665D01*
X143445000Y-59031335D01*
X143500147Y-59308574D01*
X143608320Y-59569727D01*
X143765363Y-59804759D01*
X143965241Y-60004637D01*
X144197759Y-60160000D01*
X143965241Y-60315363D01*
X143765363Y-60515241D01*
X143608320Y-60750273D01*
X143500147Y-61011426D01*
X143445000Y-61288665D01*
X143445000Y-61571335D01*
X143500147Y-61848574D01*
X143608320Y-62109727D01*
X143765363Y-62344759D01*
X143965241Y-62544637D01*
X144197759Y-62700000D01*
X143965241Y-62855363D01*
X143765363Y-63055241D01*
X143608320Y-63290273D01*
X143500147Y-63551426D01*
X143445000Y-63828665D01*
X143445000Y-64111335D01*
X143500147Y-64388574D01*
X143608320Y-64649727D01*
X143765363Y-64884759D01*
X143965241Y-65084637D01*
X144197759Y-65240000D01*
X143965241Y-65395363D01*
X143765363Y-65595241D01*
X143608320Y-65830273D01*
X143500147Y-66091426D01*
X143445000Y-66368665D01*
X143445000Y-66651335D01*
X143500147Y-66928574D01*
X143608320Y-67189727D01*
X143765363Y-67424759D01*
X143965241Y-67624637D01*
X144200273Y-67781680D01*
X144461426Y-67889853D01*
X144738665Y-67945000D01*
X145021335Y-67945000D01*
X145298574Y-67889853D01*
X145559727Y-67781680D01*
X145794759Y-67624637D01*
X145994637Y-67424759D01*
X146150000Y-67192241D01*
X146305363Y-67424759D01*
X146505241Y-67624637D01*
X146740273Y-67781680D01*
X147001426Y-67889853D01*
X147278665Y-67945000D01*
X147561335Y-67945000D01*
X147838574Y-67889853D01*
X148099727Y-67781680D01*
X148334759Y-67624637D01*
X148534637Y-67424759D01*
X148690000Y-67192241D01*
X148845363Y-67424759D01*
X149045241Y-67624637D01*
X149280273Y-67781680D01*
X149541426Y-67889853D01*
X149818665Y-67945000D01*
X150101335Y-67945000D01*
X150378574Y-67889853D01*
X150639727Y-67781680D01*
X150874759Y-67624637D01*
X151074637Y-67424759D01*
X151230000Y-67192241D01*
X151385363Y-67424759D01*
X151585241Y-67624637D01*
X151820273Y-67781680D01*
X152081426Y-67889853D01*
X152358665Y-67945000D01*
X152641335Y-67945000D01*
X152918574Y-67889853D01*
X153179727Y-67781680D01*
X153414759Y-67624637D01*
X153614637Y-67424759D01*
X153770000Y-67192241D01*
X153925363Y-67424759D01*
X154125241Y-67624637D01*
X154360273Y-67781680D01*
X154621426Y-67889853D01*
X154898665Y-67945000D01*
X155181335Y-67945000D01*
X155458574Y-67889853D01*
X155719727Y-67781680D01*
X155954759Y-67624637D01*
X156154637Y-67424759D01*
X156310000Y-67192241D01*
X156465363Y-67424759D01*
X156665241Y-67624637D01*
X156900273Y-67781680D01*
X157161426Y-67889853D01*
X157438665Y-67945000D01*
X157721335Y-67945000D01*
X157998574Y-67889853D01*
X158259727Y-67781680D01*
X158494759Y-67624637D01*
X158694637Y-67424759D01*
X158850000Y-67192241D01*
X159005363Y-67424759D01*
X159205241Y-67624637D01*
X159440273Y-67781680D01*
X159701426Y-67889853D01*
X159978665Y-67945000D01*
X160261335Y-67945000D01*
X160538574Y-67889853D01*
X160799727Y-67781680D01*
X160875770Y-67730870D01*
X160912795Y-67820256D01*
X161026063Y-67989774D01*
X161070001Y-68033712D01*
X161070000Y-70735198D01*
X147210199Y-84595000D01*
X147148061Y-84595000D01*
X146948102Y-84634774D01*
X146759744Y-84712795D01*
X146590226Y-84826063D01*
X146446063Y-84970226D01*
X146332795Y-85139744D01*
X146254774Y-85328102D01*
X146215000Y-85528061D01*
X146215000Y-85731939D01*
X146254774Y-85931898D01*
X146332795Y-86120256D01*
X146446063Y-86289774D01*
X146506399Y-86350110D01*
X146409465Y-86414880D01*
X146214880Y-86609465D01*
X146061995Y-86838273D01*
X146030000Y-86915515D01*
X145998005Y-86838273D01*
X145845120Y-86609465D01*
X145650535Y-86414880D01*
X145421727Y-86261995D01*
X145167490Y-86156686D01*
X144897592Y-86103000D01*
X144622408Y-86103000D01*
X144352510Y-86156686D01*
X144098273Y-86261995D01*
X143869465Y-86414880D01*
X143674880Y-86609465D01*
X143521995Y-86838273D01*
X143416686Y-87092510D01*
X143363000Y-87362408D01*
X119127000Y-87362408D01*
X119127000Y-84608665D01*
X133315000Y-84608665D01*
X133315000Y-84891335D01*
X133370147Y-85168574D01*
X133478320Y-85429727D01*
X133635363Y-85664759D01*
X133835241Y-85864637D01*
X134070273Y-86021680D01*
X134331426Y-86129853D01*
X134608665Y-86185000D01*
X134891335Y-86185000D01*
X135168574Y-86129853D01*
X135429727Y-86021680D01*
X135664759Y-85864637D01*
X135864637Y-85664759D01*
X136021680Y-85429727D01*
X136129853Y-85168574D01*
X136185000Y-84891335D01*
X136185000Y-84608665D01*
X138065000Y-84608665D01*
X138065000Y-84891335D01*
X138120147Y-85168574D01*
X138228320Y-85429727D01*
X138385363Y-85664759D01*
X138585241Y-85864637D01*
X138820273Y-86021680D01*
X139081426Y-86129853D01*
X139358665Y-86185000D01*
X139641335Y-86185000D01*
X139918574Y-86129853D01*
X140179727Y-86021680D01*
X140414759Y-85864637D01*
X140614637Y-85664759D01*
X140771680Y-85429727D01*
X140879853Y-85168574D01*
X140935000Y-84891335D01*
X140935000Y-84608665D01*
X140879853Y-84331426D01*
X140771680Y-84070273D01*
X140614637Y-83835241D01*
X140414759Y-83635363D01*
X140179727Y-83478320D01*
X139918574Y-83370147D01*
X139641335Y-83315000D01*
X139358665Y-83315000D01*
X139081426Y-83370147D01*
X138820273Y-83478320D01*
X138585241Y-83635363D01*
X138385363Y-83835241D01*
X138228320Y-84070273D01*
X138120147Y-84331426D01*
X138065000Y-84608665D01*
X136185000Y-84608665D01*
X136129853Y-84331426D01*
X136021680Y-84070273D01*
X135864637Y-83835241D01*
X135664759Y-83635363D01*
X135429727Y-83478320D01*
X135168574Y-83370147D01*
X134891335Y-83315000D01*
X134608665Y-83315000D01*
X134331426Y-83370147D01*
X134070273Y-83478320D01*
X133835241Y-83635363D01*
X133635363Y-83835241D01*
X133478320Y-84070273D01*
X133370147Y-84331426D01*
X133315000Y-84608665D01*
X119127000Y-84608665D01*
X119127000Y-81450000D01*
X123311928Y-81450000D01*
X123311928Y-83550000D01*
X123324188Y-83674482D01*
X123360498Y-83794180D01*
X123419463Y-83904494D01*
X123498815Y-84001185D01*
X123595506Y-84080537D01*
X123705820Y-84139502D01*
X123825518Y-84175812D01*
X123950000Y-84188072D01*
X126050000Y-84188072D01*
X126174482Y-84175812D01*
X126294180Y-84139502D01*
X126404494Y-84080537D01*
X126501185Y-84001185D01*
X126580537Y-83904494D01*
X126639502Y-83794180D01*
X126675812Y-83674482D01*
X126688072Y-83550000D01*
X126688072Y-81450000D01*
X126675812Y-81325518D01*
X126639502Y-81205820D01*
X126580537Y-81095506D01*
X126501185Y-80998815D01*
X126404494Y-80919463D01*
X126390454Y-80911958D01*
X126493228Y-80758147D01*
X126620246Y-80451496D01*
X126685000Y-80125958D01*
X126685000Y-79794042D01*
X126620246Y-79468504D01*
X126493228Y-79161853D01*
X126308825Y-78885875D01*
X126074125Y-78651175D01*
X125798147Y-78466772D01*
X125491496Y-78339754D01*
X125165958Y-78275000D01*
X124834042Y-78275000D01*
X124508504Y-78339754D01*
X124201853Y-78466772D01*
X123925875Y-78651175D01*
X123691175Y-78885875D01*
X123506772Y-79161853D01*
X123379754Y-79468504D01*
X123315000Y-79794042D01*
X123315000Y-80125958D01*
X123379754Y-80451496D01*
X123506772Y-80758147D01*
X123609546Y-80911958D01*
X123595506Y-80919463D01*
X123498815Y-80998815D01*
X123419463Y-81095506D01*
X123360498Y-81205820D01*
X123324188Y-81325518D01*
X123311928Y-81450000D01*
X119127000Y-81450000D01*
X119127000Y-71450000D01*
X123311928Y-71450000D01*
X123311928Y-73550000D01*
X123324188Y-73674482D01*
X123360498Y-73794180D01*
X123419463Y-73904494D01*
X123498815Y-74001185D01*
X123595506Y-74080537D01*
X123609546Y-74088042D01*
X123506772Y-74241853D01*
X123379754Y-74548504D01*
X123315000Y-74874042D01*
X123315000Y-75205958D01*
X123379754Y-75531496D01*
X123506772Y-75838147D01*
X123691175Y-76114125D01*
X123925875Y-76348825D01*
X124201853Y-76533228D01*
X124508504Y-76660246D01*
X124834042Y-76725000D01*
X125165958Y-76725000D01*
X125491496Y-76660246D01*
X125798147Y-76533228D01*
X126074125Y-76348825D01*
X126308825Y-76114125D01*
X126493228Y-75838147D01*
X126508467Y-75801357D01*
X126522246Y-75800000D01*
X126522257Y-75800000D01*
X126633910Y-75789003D01*
X126777171Y-75745546D01*
X126909200Y-75674974D01*
X127024925Y-75580001D01*
X127048728Y-75550997D01*
X130691060Y-71908665D01*
X133315000Y-71908665D01*
X133315000Y-72191335D01*
X133370147Y-72468574D01*
X133478320Y-72729727D01*
X133635363Y-72964759D01*
X133835241Y-73164637D01*
X134070273Y-73321680D01*
X134331426Y-73429853D01*
X134608665Y-73485000D01*
X134891335Y-73485000D01*
X135168574Y-73429853D01*
X135429727Y-73321680D01*
X135664759Y-73164637D01*
X135864637Y-72964759D01*
X136021680Y-72729727D01*
X136129853Y-72468574D01*
X136185000Y-72191335D01*
X136185000Y-71908665D01*
X138065000Y-71908665D01*
X138065000Y-72191335D01*
X138120147Y-72468574D01*
X138228320Y-72729727D01*
X138385363Y-72964759D01*
X138585241Y-73164637D01*
X138820273Y-73321680D01*
X139081426Y-73429853D01*
X139358665Y-73485000D01*
X139641335Y-73485000D01*
X139918574Y-73429853D01*
X140179727Y-73321680D01*
X140414759Y-73164637D01*
X140614637Y-72964759D01*
X140771680Y-72729727D01*
X140879853Y-72468574D01*
X140935000Y-72191335D01*
X140935000Y-71908665D01*
X140879853Y-71631426D01*
X140771680Y-71370273D01*
X140614637Y-71135241D01*
X140414759Y-70935363D01*
X140179727Y-70778320D01*
X139918574Y-70670147D01*
X139641335Y-70615000D01*
X139358665Y-70615000D01*
X139081426Y-70670147D01*
X138820273Y-70778320D01*
X138585241Y-70935363D01*
X138385363Y-71135241D01*
X138228320Y-71370273D01*
X138120147Y-71631426D01*
X138065000Y-71908665D01*
X136185000Y-71908665D01*
X136129853Y-71631426D01*
X136021680Y-71370273D01*
X135864637Y-71135241D01*
X135664759Y-70935363D01*
X135429727Y-70778320D01*
X135168574Y-70670147D01*
X134891335Y-70615000D01*
X134608665Y-70615000D01*
X134331426Y-70670147D01*
X134070273Y-70778320D01*
X133835241Y-70935363D01*
X133635363Y-71135241D01*
X133478320Y-71370273D01*
X133370147Y-71631426D01*
X133315000Y-71908665D01*
X130691060Y-71908665D01*
X131371003Y-71228723D01*
X131400001Y-71204925D01*
X131494974Y-71089200D01*
X131565546Y-70957171D01*
X131609003Y-70813910D01*
X131620000Y-70702257D01*
X131620000Y-70702247D01*
X131623676Y-70664924D01*
X131620000Y-70627601D01*
X131620000Y-66173711D01*
X131663937Y-66129774D01*
X131777205Y-65960256D01*
X131855226Y-65771898D01*
X131895000Y-65571939D01*
X131895000Y-65368061D01*
X131855226Y-65168102D01*
X131777205Y-64979744D01*
X131741753Y-64926686D01*
X131818180Y-64903502D01*
X131928494Y-64844537D01*
X132025185Y-64765185D01*
X132104537Y-64668494D01*
X132140000Y-64602148D01*
X132175463Y-64668494D01*
X132254815Y-64765185D01*
X132351506Y-64844537D01*
X132461820Y-64903502D01*
X132581518Y-64939812D01*
X132706000Y-64952072D01*
X134114000Y-64952072D01*
X134238482Y-64939812D01*
X134358180Y-64903502D01*
X134468494Y-64844537D01*
X134565185Y-64765185D01*
X134644537Y-64668494D01*
X134680000Y-64602148D01*
X134715463Y-64668494D01*
X134794815Y-64765185D01*
X134891506Y-64844537D01*
X135001820Y-64903502D01*
X135121518Y-64939812D01*
X135246000Y-64952072D01*
X136654000Y-64952072D01*
X136778482Y-64939812D01*
X136898180Y-64903502D01*
X137008494Y-64844537D01*
X137105185Y-64765185D01*
X137184537Y-64668494D01*
X137220000Y-64602148D01*
X137255463Y-64668494D01*
X137334815Y-64765185D01*
X137431506Y-64844537D01*
X137541820Y-64903502D01*
X137661518Y-64939812D01*
X137786000Y-64952072D01*
X139194000Y-64952072D01*
X139318482Y-64939812D01*
X139438180Y-64903502D01*
X139548494Y-64844537D01*
X139645185Y-64765185D01*
X139724537Y-64668494D01*
X139783502Y-64558180D01*
X139819812Y-64438482D01*
X139832072Y-64314000D01*
X139832072Y-62906000D01*
X139819812Y-62781518D01*
X139783502Y-62661820D01*
X139724537Y-62551506D01*
X139645185Y-62454815D01*
X139548494Y-62375463D01*
X139438180Y-62316498D01*
X139318482Y-62280188D01*
X139194000Y-62267928D01*
X137786000Y-62267928D01*
X137661518Y-62280188D01*
X137541820Y-62316498D01*
X137431506Y-62375463D01*
X137334815Y-62454815D01*
X137255463Y-62551506D01*
X137220000Y-62617852D01*
X137184537Y-62551506D01*
X137105185Y-62454815D01*
X137008494Y-62375463D01*
X136898180Y-62316498D01*
X136778482Y-62280188D01*
X136654000Y-62267928D01*
X135246000Y-62267928D01*
X135121518Y-62280188D01*
X135001820Y-62316498D01*
X134891506Y-62375463D01*
X134794815Y-62454815D01*
X134715463Y-62551506D01*
X134680000Y-62617852D01*
X134644537Y-62551506D01*
X134565185Y-62454815D01*
X134468494Y-62375463D01*
X134358180Y-62316498D01*
X134238482Y-62280188D01*
X134114000Y-62267928D01*
X132706000Y-62267928D01*
X132581518Y-62280188D01*
X132461820Y-62316498D01*
X132351506Y-62375463D01*
X132254815Y-62454815D01*
X132175463Y-62551506D01*
X132140000Y-62617852D01*
X132104537Y-62551506D01*
X132025185Y-62454815D01*
X131928494Y-62375463D01*
X131818180Y-62316498D01*
X131698482Y-62280188D01*
X131574000Y-62267928D01*
X130166000Y-62267928D01*
X130041518Y-62280188D01*
X129921820Y-62316498D01*
X129811506Y-62375463D01*
X129714815Y-62454815D01*
X129635463Y-62551506D01*
X129600000Y-62617852D01*
X129564537Y-62551506D01*
X129485185Y-62454815D01*
X129388494Y-62375463D01*
X129278180Y-62316498D01*
X129158482Y-62280188D01*
X129034000Y-62267928D01*
X127626000Y-62267928D01*
X127501518Y-62280188D01*
X127381820Y-62316498D01*
X127271506Y-62375463D01*
X127174815Y-62454815D01*
X127095463Y-62551506D01*
X127060000Y-62617852D01*
X127024537Y-62551506D01*
X126945185Y-62454815D01*
X126848494Y-62375463D01*
X126738180Y-62316498D01*
X126618482Y-62280188D01*
X126494000Y-62267928D01*
X125086000Y-62267928D01*
X124961518Y-62280188D01*
X124841820Y-62316498D01*
X124731506Y-62375463D01*
X124634815Y-62454815D01*
X124555463Y-62551506D01*
X124496498Y-62661820D01*
X124460188Y-62781518D01*
X124447928Y-62906000D01*
X124447928Y-64314000D01*
X124460188Y-64438482D01*
X124496498Y-64558180D01*
X124555463Y-64668494D01*
X124634815Y-64765185D01*
X124731506Y-64844537D01*
X124841820Y-64903502D01*
X124961518Y-64939812D01*
X125086000Y-64952072D01*
X126494000Y-64952072D01*
X126618482Y-64939812D01*
X126738180Y-64903502D01*
X126848494Y-64844537D01*
X126945185Y-64765185D01*
X127024537Y-64668494D01*
X127060000Y-64602148D01*
X127095463Y-64668494D01*
X127174815Y-64765185D01*
X127271506Y-64844537D01*
X127381820Y-64903502D01*
X127501518Y-64939812D01*
X127626000Y-64952072D01*
X129034000Y-64952072D01*
X129158482Y-64939812D01*
X129278180Y-64903502D01*
X129388494Y-64844537D01*
X129485185Y-64765185D01*
X129564537Y-64668494D01*
X129600000Y-64602148D01*
X129635463Y-64668494D01*
X129714815Y-64765185D01*
X129811506Y-64844537D01*
X129921820Y-64903502D01*
X129981618Y-64921641D01*
X129942795Y-64979744D01*
X129864774Y-65168102D01*
X129825000Y-65368061D01*
X129825000Y-65571939D01*
X129864774Y-65771898D01*
X129942795Y-65960256D01*
X130056063Y-66129774D01*
X130100000Y-66173711D01*
X130100001Y-70350121D01*
X126620623Y-73829500D01*
X126639502Y-73794180D01*
X126675812Y-73674482D01*
X126688072Y-73550000D01*
X126688072Y-71450000D01*
X126675812Y-71325518D01*
X126639502Y-71205820D01*
X126580537Y-71095506D01*
X126501185Y-70998815D01*
X126404494Y-70919463D01*
X126294180Y-70860498D01*
X126174482Y-70824188D01*
X126050000Y-70811928D01*
X123950000Y-70811928D01*
X123825518Y-70824188D01*
X123705820Y-70860498D01*
X123595506Y-70919463D01*
X123498815Y-70998815D01*
X123419463Y-71095506D01*
X123360498Y-71205820D01*
X123324188Y-71325518D01*
X123311928Y-71450000D01*
X119127000Y-71450000D01*
X119127000Y-37506000D01*
X126987928Y-37506000D01*
X126987928Y-38914000D01*
X127000188Y-39038482D01*
X127036498Y-39158180D01*
X127095463Y-39268494D01*
X127174815Y-39365185D01*
X127271506Y-39444537D01*
X127381820Y-39503502D01*
X127501518Y-39539812D01*
X127626000Y-39552072D01*
X129034000Y-39552072D01*
X129158482Y-39539812D01*
X129278180Y-39503502D01*
X129388494Y-39444537D01*
X129485185Y-39365185D01*
X129564537Y-39268494D01*
X129600000Y-39202148D01*
X129635463Y-39268494D01*
X129714815Y-39365185D01*
X129811506Y-39444537D01*
X129921820Y-39503502D01*
X130041518Y-39539812D01*
X130166000Y-39552072D01*
X131574000Y-39552072D01*
X131698482Y-39539812D01*
X131818180Y-39503502D01*
X131928494Y-39444537D01*
X132025185Y-39365185D01*
X132104537Y-39268494D01*
X132140000Y-39202148D01*
X132175463Y-39268494D01*
X132254815Y-39365185D01*
X132351506Y-39444537D01*
X132461820Y-39503502D01*
X132581518Y-39539812D01*
X132706000Y-39552072D01*
X134114000Y-39552072D01*
X134238482Y-39539812D01*
X134358180Y-39503502D01*
X134468494Y-39444537D01*
X134565185Y-39365185D01*
X134644537Y-39268494D01*
X134680000Y-39202148D01*
X134715463Y-39268494D01*
X134794815Y-39365185D01*
X134891506Y-39444537D01*
X135001820Y-39503502D01*
X135121518Y-39539812D01*
X135246000Y-39552072D01*
X135664250Y-39549000D01*
X135823000Y-39390250D01*
X135823000Y-38337000D01*
X136077000Y-38337000D01*
X136077000Y-39390250D01*
X136235750Y-39549000D01*
X136654000Y-39552072D01*
X136778482Y-39539812D01*
X136898180Y-39503502D01*
X137008494Y-39444537D01*
X137105185Y-39365185D01*
X137184537Y-39268494D01*
X137243502Y-39158180D01*
X137279812Y-39038482D01*
X137292072Y-38914000D01*
X137289000Y-38495750D01*
X137130250Y-38337000D01*
X136077000Y-38337000D01*
X135823000Y-38337000D01*
X135803000Y-38337000D01*
X135803000Y-38083000D01*
X135823000Y-38083000D01*
X135823000Y-37029750D01*
X136077000Y-37029750D01*
X136077000Y-38083000D01*
X137130250Y-38083000D01*
X137289000Y-37924250D01*
X137292072Y-37506000D01*
X137279812Y-37381518D01*
X137243502Y-37261820D01*
X137184537Y-37151506D01*
X137105185Y-37054815D01*
X137008494Y-36975463D01*
X136898180Y-36916498D01*
X136778482Y-36880188D01*
X136654000Y-36867928D01*
X136235750Y-36871000D01*
X136077000Y-37029750D01*
X135823000Y-37029750D01*
X135664250Y-36871000D01*
X135246000Y-36867928D01*
X135121518Y-36880188D01*
X135001820Y-36916498D01*
X134891506Y-36975463D01*
X134794815Y-37054815D01*
X134715463Y-37151506D01*
X134680000Y-37217852D01*
X134644537Y-37151506D01*
X134565185Y-37054815D01*
X134468494Y-36975463D01*
X134358180Y-36916498D01*
X134238482Y-36880188D01*
X134114000Y-36867928D01*
X132706000Y-36867928D01*
X132581518Y-36880188D01*
X132461820Y-36916498D01*
X132351506Y-36975463D01*
X132254815Y-37054815D01*
X132175463Y-37151506D01*
X132140000Y-37217852D01*
X132104537Y-37151506D01*
X132025185Y-37054815D01*
X131928494Y-36975463D01*
X131818180Y-36916498D01*
X131698482Y-36880188D01*
X131574000Y-36867928D01*
X130166000Y-36867928D01*
X130041518Y-36880188D01*
X129921820Y-36916498D01*
X129811506Y-36975463D01*
X129714815Y-37054815D01*
X129635463Y-37151506D01*
X129600000Y-37217852D01*
X129564537Y-37151506D01*
X129485185Y-37054815D01*
X129388494Y-36975463D01*
X129278180Y-36916498D01*
X129158482Y-36880188D01*
X129034000Y-36867928D01*
X127626000Y-36867928D01*
X127501518Y-36880188D01*
X127381820Y-36916498D01*
X127271506Y-36975463D01*
X127174815Y-37054815D01*
X127095463Y-37151506D01*
X127036498Y-37261820D01*
X127000188Y-37381518D01*
X126987928Y-37506000D01*
X119127000Y-37506000D01*
X119127000Y-31127000D01*
X181873000Y-31127000D01*
X181873000Y-72431053D01*
G37*
%TD.AperFunction*%
%TD*%
M02*
