%TF.GenerationSoftware,KiCad,Pcbnew,(5.1.8)-1*%
%TF.CreationDate,2021-03-14T17:59:32-04:00*%
%TF.ProjectId,Artemis Payload Computer,41727465-6d69-4732-9050-61796c6f6164,rev?*%
%TF.SameCoordinates,Original*%
%TF.FileFunction,Soldermask,Bot*%
%TF.FilePolarity,Negative*%
%FSLAX46Y46*%
G04 Gerber Fmt 4.6, Leading zero omitted, Abs format (unit mm)*
G04 Created by KiCad (PCBNEW (5.1.8)-1) date 2021-03-14 17:59:32*
%MOMM*%
%LPD*%
G01*
G04 APERTURE LIST*
%ADD10O,1.600000X1.600000*%
%ADD11C,1.600000*%
%ADD12C,1.524000*%
%ADD13R,1.408000X1.408000*%
%ADD14C,1.750000*%
%ADD15R,1.600000X1.600000*%
%ADD16C,1.900000*%
%ADD17C,3.000000*%
%ADD18R,3.000000X3.000000*%
%ADD19C,2.100000*%
%ADD20R,2.100000X2.100000*%
G04 APERTURE END LIST*
D10*
%TO.C,R2*%
X139500000Y-72050000D03*
D11*
X139500000Y-84750000D03*
%TD*%
D10*
%TO.C,R1*%
X134750000Y-84750000D03*
D11*
X134750000Y-72050000D03*
%TD*%
D12*
%TO.C,U701*%
X144760000Y-87500000D03*
X147300000Y-87500000D03*
X149840000Y-87500000D03*
X152380000Y-87500000D03*
X154920000Y-87500000D03*
X157460000Y-87500000D03*
X160000000Y-87500000D03*
%TD*%
D13*
%TO.C,U1*%
X128330000Y-38210000D03*
X130870000Y-38210000D03*
X133410000Y-38210000D03*
X135950000Y-38210000D03*
X138490000Y-63610000D03*
X135950000Y-63610000D03*
X133410000Y-63610000D03*
X130870000Y-63610000D03*
X128330000Y-63610000D03*
X125790000Y-63610000D03*
%TD*%
D11*
%TO.C,U401*%
X179500000Y-67700000D03*
X179500000Y-65160000D03*
X179500000Y-62620000D03*
X179500000Y-60080000D03*
X179500000Y-57540000D03*
X179500000Y-55000000D03*
X166800000Y-67700000D03*
X166800000Y-65160000D03*
X166800000Y-62620000D03*
X166800000Y-60080000D03*
X166800000Y-57540000D03*
X166800000Y-55000000D03*
%TD*%
D14*
%TO.C,U501*%
X165360000Y-73225000D03*
X167900000Y-73225000D03*
X170440000Y-73225000D03*
X172980000Y-73225000D03*
X175520000Y-73225000D03*
X178060000Y-73225000D03*
X180600000Y-73225000D03*
%TD*%
D11*
%TO.C,U2*%
X152500000Y-66510000D03*
X155040000Y-66510000D03*
X157580000Y-66510000D03*
X160120000Y-66510000D03*
X149960000Y-66510000D03*
X147420000Y-66510000D03*
X144880000Y-66510000D03*
X160120000Y-63970000D03*
X160120000Y-61430000D03*
X160120000Y-58890000D03*
X160120000Y-56350000D03*
X160120000Y-53810000D03*
X160120000Y-51270000D03*
X160120000Y-48730000D03*
X160120000Y-46190000D03*
X160120000Y-43650000D03*
X160120000Y-41110000D03*
X160120000Y-38570000D03*
X160120000Y-36030000D03*
X160120000Y-33490000D03*
X157580000Y-36030000D03*
X157580000Y-41110000D03*
X157580000Y-43650000D03*
X157580000Y-46190000D03*
X144880000Y-63970000D03*
X144880000Y-61430000D03*
X144880000Y-58890000D03*
X144880000Y-56350000D03*
X144880000Y-53810000D03*
X144880000Y-51270000D03*
X144880000Y-48730000D03*
X144880000Y-46190000D03*
X144880000Y-43650000D03*
X144880000Y-41110000D03*
X144880000Y-38570000D03*
X144880000Y-36030000D03*
D15*
X144880000Y-33490000D03*
D16*
X152500000Y-43650000D03*
X152500000Y-39840000D03*
%TD*%
D17*
%TO.C,J601*%
X175100000Y-34420000D03*
D18*
X175100000Y-39500000D03*
%TD*%
D19*
%TO.C,J2*%
X125000000Y-79960000D03*
D20*
X125000000Y-82500000D03*
%TD*%
D19*
%TO.C,J1*%
X125000000Y-75040000D03*
D20*
X125000000Y-72500000D03*
%TD*%
M02*
