%TF.GenerationSoftware,KiCad,Pcbnew,(5.1.8)-1*%
%TF.CreationDate,2021-03-14T17:59:32-04:00*%
%TF.ProjectId,Artemis Payload Computer,41727465-6d69-4732-9050-61796c6f6164,rev?*%
%TF.SameCoordinates,Original*%
%TF.FileFunction,Legend,Top*%
%TF.FilePolarity,Positive*%
%FSLAX46Y46*%
G04 Gerber Fmt 4.6, Leading zero omitted, Abs format (unit mm)*
G04 Created by KiCad (PCBNEW (5.1.8)-1) date 2021-03-14 17:59:32*
%MOMM*%
%LPD*%
G01*
G04 APERTURE LIST*
%ADD10C,0.120000*%
%ADD11C,0.127000*%
%ADD12C,0.150000*%
%ADD13C,0.100000*%
G04 APERTURE END LIST*
D10*
%TO.C,R2*%
X137780000Y-83020000D02*
X141220000Y-83020000D01*
X141220000Y-83020000D02*
X141220000Y-73780000D01*
X141220000Y-73780000D02*
X137780000Y-73780000D01*
X137780000Y-73780000D02*
X137780000Y-83020000D01*
X139500000Y-83710000D02*
X139500000Y-83020000D01*
X139500000Y-73090000D02*
X139500000Y-73780000D01*
%TO.C,R1*%
X136470000Y-73780000D02*
X133030000Y-73780000D01*
X133030000Y-73780000D02*
X133030000Y-83020000D01*
X133030000Y-83020000D02*
X136470000Y-83020000D01*
X136470000Y-83020000D02*
X136470000Y-73780000D01*
X134750000Y-73090000D02*
X134750000Y-73780000D01*
X134750000Y-83710000D02*
X134750000Y-83020000D01*
%TO.C,U701*%
X162540000Y-90040000D02*
X142220000Y-90040000D01*
X142220000Y-90040000D02*
X142220000Y-69720000D01*
X142220000Y-69720000D02*
X162540000Y-69720000D01*
X162540000Y-69720000D02*
X162540000Y-90040000D01*
D11*
%TO.C,U1*%
X142300000Y-68690000D02*
X120710000Y-68690000D01*
X120710000Y-68690000D02*
X120710000Y-33130000D01*
X120710000Y-33130000D02*
X142300000Y-33130000D01*
X142300000Y-33130000D02*
X142300000Y-68690000D01*
D10*
%TO.C,U401*%
X180770000Y-68970000D02*
X180770000Y-53730000D01*
X180770000Y-53730000D02*
X165530000Y-53730000D01*
X165530000Y-53730000D02*
X165530000Y-68970000D01*
X165530000Y-68970000D02*
X180770000Y-68970000D01*
%TO.C,U601*%
X168090000Y-44090000D02*
X168090000Y-45350000D01*
X168090000Y-50910000D02*
X168090000Y-49650000D01*
X171850000Y-44090000D02*
X168090000Y-44090000D01*
X174100000Y-50910000D02*
X168090000Y-50910000D01*
%TO.C,U501*%
X181600000Y-71225000D02*
X181600000Y-90475000D01*
X181600000Y-90475000D02*
X164360000Y-90475000D01*
X164360000Y-90475000D02*
X164360000Y-71225000D01*
X164360000Y-71225000D02*
X181600000Y-71225000D01*
D12*
%TO.C,U2*%
X148690000Y-32220000D02*
X148690000Y-30950000D01*
X148690000Y-30950000D02*
X156310000Y-30950000D01*
X156310000Y-30950000D02*
X156310000Y-32220000D01*
X147420000Y-43650000D02*
X147420000Y-47460000D01*
X147420000Y-47460000D02*
X149960000Y-47460000D01*
X149960000Y-47460000D02*
X149960000Y-43650000D01*
X149960000Y-43650000D02*
X147420000Y-43650000D01*
X148690000Y-37300000D02*
X156310000Y-37300000D01*
X156310000Y-37300000D02*
X156310000Y-32220000D01*
X148690000Y-37300000D02*
X148690000Y-32220000D01*
X147420000Y-38570000D02*
X147420000Y-41110000D01*
X147420000Y-41110000D02*
X149960000Y-41110000D01*
X149960000Y-41110000D02*
X149960000Y-38570000D01*
X149960000Y-38570000D02*
X147420000Y-38570000D01*
X155040000Y-65240000D02*
X149960000Y-65240000D01*
X149960000Y-65240000D02*
X149960000Y-62700000D01*
X149960000Y-62700000D02*
X155040000Y-62700000D01*
X155040000Y-62700000D02*
X155040000Y-65240000D01*
X147420000Y-58890000D02*
X157580000Y-58890000D01*
X157580000Y-50000000D02*
X147420000Y-50000000D01*
X157580000Y-58890000D02*
X157580000Y-50000000D01*
X147420000Y-58890000D02*
X147420000Y-50000000D01*
X161390000Y-32220000D02*
X161390000Y-67780000D01*
X161390000Y-67780000D02*
X143610000Y-67780000D01*
X143610000Y-67780000D02*
X143610000Y-32220000D01*
X143610000Y-32220000D02*
X161390000Y-32220000D01*
D13*
G36*
X149579000Y-53937000D02*
G01*
X149833000Y-53683000D01*
X150087000Y-54064000D01*
X149833000Y-54318000D01*
X149579000Y-53937000D01*
G37*
X149579000Y-53937000D02*
X149833000Y-53683000D01*
X150087000Y-54064000D01*
X149833000Y-54318000D01*
X149579000Y-53937000D01*
G36*
X149198000Y-54318000D02*
G01*
X149452000Y-54064000D01*
X149706000Y-54445000D01*
X149452000Y-54699000D01*
X149198000Y-54318000D01*
G37*
X149198000Y-54318000D02*
X149452000Y-54064000D01*
X149706000Y-54445000D01*
X149452000Y-54699000D01*
X149198000Y-54318000D01*
G36*
X150341000Y-54953000D02*
G01*
X150595000Y-54699000D01*
X150849000Y-55080000D01*
X150595000Y-55334000D01*
X150341000Y-54953000D01*
G37*
X150341000Y-54953000D02*
X150595000Y-54699000D01*
X150849000Y-55080000D01*
X150595000Y-55334000D01*
X150341000Y-54953000D01*
G36*
X148436000Y-54191000D02*
G01*
X148690000Y-53937000D01*
X148944000Y-54318000D01*
X148690000Y-54572000D01*
X148436000Y-54191000D01*
G37*
X148436000Y-54191000D02*
X148690000Y-53937000D01*
X148944000Y-54318000D01*
X148690000Y-54572000D01*
X148436000Y-54191000D01*
G36*
X149960000Y-54445000D02*
G01*
X150214000Y-54191000D01*
X150468000Y-54572000D01*
X150214000Y-54826000D01*
X149960000Y-54445000D01*
G37*
X149960000Y-54445000D02*
X150214000Y-54191000D01*
X150468000Y-54572000D01*
X150214000Y-54826000D01*
X149960000Y-54445000D01*
G36*
X148055000Y-54572000D02*
G01*
X148309000Y-54318000D01*
X148563000Y-54699000D01*
X148309000Y-54953000D01*
X148055000Y-54572000D01*
G37*
X148055000Y-54572000D02*
X148309000Y-54318000D01*
X148563000Y-54699000D01*
X148309000Y-54953000D01*
X148055000Y-54572000D01*
G36*
X148817000Y-53810000D02*
G01*
X149071000Y-53556000D01*
X149325000Y-53937000D01*
X149071000Y-54191000D01*
X148817000Y-53810000D01*
G37*
X148817000Y-53810000D02*
X149071000Y-53556000D01*
X149325000Y-53937000D01*
X149071000Y-54191000D01*
X148817000Y-53810000D01*
G36*
X149579000Y-54826000D02*
G01*
X149833000Y-54572000D01*
X150087000Y-54953000D01*
X149833000Y-55207000D01*
X149579000Y-54826000D01*
G37*
X149579000Y-54826000D02*
X149833000Y-54572000D01*
X150087000Y-54953000D01*
X149833000Y-55207000D01*
X149579000Y-54826000D01*
D10*
%TO.C,J601*%
X177640000Y-31880000D02*
X177640000Y-42040000D01*
X178910000Y-31880000D02*
X171290000Y-31880000D01*
X171290000Y-31880000D02*
X171290000Y-42040000D01*
X171290000Y-42040000D02*
X178910000Y-42040000D01*
X178910000Y-42040000D02*
X178910000Y-31880000D01*
%TO.C,J2*%
X127850000Y-84120000D02*
X127850000Y-78340000D01*
X122750000Y-84120000D02*
X122750000Y-78340000D01*
X121630000Y-84120000D02*
X121630000Y-78340000D01*
X128370000Y-84120000D02*
X128370000Y-78340000D01*
X121630000Y-84120000D02*
X128370000Y-84120000D01*
X121630000Y-78340000D02*
X128370000Y-78340000D01*
X127970000Y-84360000D02*
X128610000Y-84360000D01*
X128610000Y-84360000D02*
X128610000Y-83960000D01*
%TO.C,J1*%
X122150000Y-70880000D02*
X122150000Y-76660000D01*
X127250000Y-70880000D02*
X127250000Y-76660000D01*
X128370000Y-70880000D02*
X128370000Y-76660000D01*
X121630000Y-70880000D02*
X121630000Y-76660000D01*
X128370000Y-70880000D02*
X121630000Y-70880000D01*
X128370000Y-76660000D02*
X121630000Y-76660000D01*
X122030000Y-70640000D02*
X121390000Y-70640000D01*
X121390000Y-70640000D02*
X121390000Y-71040000D01*
%TO.C,C602*%
X176510000Y-45353733D02*
X176510000Y-45646267D01*
X175490000Y-45353733D02*
X175490000Y-45646267D01*
%TO.C,C601*%
X175490000Y-49146267D02*
X175490000Y-48853733D01*
X176510000Y-49146267D02*
X176510000Y-48853733D01*
%TO.C,R2*%
D12*
X138522380Y-84916666D02*
X138046190Y-85250000D01*
X138522380Y-85488095D02*
X137522380Y-85488095D01*
X137522380Y-85107142D01*
X137570000Y-85011904D01*
X137617619Y-84964285D01*
X137712857Y-84916666D01*
X137855714Y-84916666D01*
X137950952Y-84964285D01*
X137998571Y-85011904D01*
X138046190Y-85107142D01*
X138046190Y-85488095D01*
X137617619Y-84535714D02*
X137570000Y-84488095D01*
X137522380Y-84392857D01*
X137522380Y-84154761D01*
X137570000Y-84059523D01*
X137617619Y-84011904D01*
X137712857Y-83964285D01*
X137808095Y-83964285D01*
X137950952Y-84011904D01*
X138522380Y-84583333D01*
X138522380Y-83964285D01*
%TO.C,R1*%
X136632380Y-72216666D02*
X136156190Y-72550000D01*
X136632380Y-72788095D02*
X135632380Y-72788095D01*
X135632380Y-72407142D01*
X135680000Y-72311904D01*
X135727619Y-72264285D01*
X135822857Y-72216666D01*
X135965714Y-72216666D01*
X136060952Y-72264285D01*
X136108571Y-72311904D01*
X136156190Y-72407142D01*
X136156190Y-72788095D01*
X136632380Y-71264285D02*
X136632380Y-71835714D01*
X136632380Y-71550000D02*
X135632380Y-71550000D01*
X135775238Y-71645238D01*
X135870476Y-71740476D01*
X135918095Y-71835714D01*
%TO.C,U701*%
X145356190Y-78395714D02*
X145356190Y-79395714D01*
X145832380Y-78919523D02*
X145880000Y-79014761D01*
X145975238Y-79062380D01*
X145356190Y-78919523D02*
X145403809Y-79014761D01*
X145499047Y-79062380D01*
X145689523Y-79062380D01*
X145784761Y-79014761D01*
X145832380Y-78919523D01*
X145832380Y-78395714D01*
X146356190Y-79014761D02*
X146499047Y-79062380D01*
X146737142Y-79062380D01*
X146832380Y-79014761D01*
X146880000Y-78967142D01*
X146927619Y-78871904D01*
X146927619Y-78776666D01*
X146880000Y-78681428D01*
X146832380Y-78633809D01*
X146737142Y-78586190D01*
X146546666Y-78538571D01*
X146451428Y-78490952D01*
X146403809Y-78443333D01*
X146356190Y-78348095D01*
X146356190Y-78252857D01*
X146403809Y-78157619D01*
X146451428Y-78110000D01*
X146546666Y-78062380D01*
X146784761Y-78062380D01*
X146927619Y-78110000D01*
X147356190Y-79062380D02*
X147356190Y-78062380D01*
X147594285Y-78062380D01*
X147737142Y-78110000D01*
X147832380Y-78205238D01*
X147880000Y-78300476D01*
X147927619Y-78490952D01*
X147927619Y-78633809D01*
X147880000Y-78824285D01*
X147832380Y-78919523D01*
X147737142Y-79014761D01*
X147594285Y-79062380D01*
X147356190Y-79062380D01*
X149689523Y-78967142D02*
X149641904Y-79014761D01*
X149499047Y-79062380D01*
X149403809Y-79062380D01*
X149260952Y-79014761D01*
X149165714Y-78919523D01*
X149118095Y-78824285D01*
X149070476Y-78633809D01*
X149070476Y-78490952D01*
X149118095Y-78300476D01*
X149165714Y-78205238D01*
X149260952Y-78110000D01*
X149403809Y-78062380D01*
X149499047Y-78062380D01*
X149641904Y-78110000D01*
X149689523Y-78157619D01*
X150546666Y-79062380D02*
X150546666Y-78538571D01*
X150499047Y-78443333D01*
X150403809Y-78395714D01*
X150213333Y-78395714D01*
X150118095Y-78443333D01*
X150546666Y-79014761D02*
X150451428Y-79062380D01*
X150213333Y-79062380D01*
X150118095Y-79014761D01*
X150070476Y-78919523D01*
X150070476Y-78824285D01*
X150118095Y-78729047D01*
X150213333Y-78681428D01*
X150451428Y-78681428D01*
X150546666Y-78633809D01*
X151022857Y-79062380D02*
X151022857Y-78395714D01*
X151022857Y-78586190D02*
X151070476Y-78490952D01*
X151118095Y-78443333D01*
X151213333Y-78395714D01*
X151308571Y-78395714D01*
X152070476Y-79062380D02*
X152070476Y-78062380D01*
X152070476Y-79014761D02*
X151975238Y-79062380D01*
X151784761Y-79062380D01*
X151689523Y-79014761D01*
X151641904Y-78967142D01*
X151594285Y-78871904D01*
X151594285Y-78586190D01*
X151641904Y-78490952D01*
X151689523Y-78443333D01*
X151784761Y-78395714D01*
X151975238Y-78395714D01*
X152070476Y-78443333D01*
X153641904Y-78538571D02*
X153784761Y-78586190D01*
X153832380Y-78633809D01*
X153880000Y-78729047D01*
X153880000Y-78871904D01*
X153832380Y-78967142D01*
X153784761Y-79014761D01*
X153689523Y-79062380D01*
X153308571Y-79062380D01*
X153308571Y-78062380D01*
X153641904Y-78062380D01*
X153737142Y-78110000D01*
X153784761Y-78157619D01*
X153832380Y-78252857D01*
X153832380Y-78348095D01*
X153784761Y-78443333D01*
X153737142Y-78490952D01*
X153641904Y-78538571D01*
X153308571Y-78538571D01*
X154308571Y-79062380D02*
X154308571Y-78395714D01*
X154308571Y-78586190D02*
X154356190Y-78490952D01*
X154403809Y-78443333D01*
X154499047Y-78395714D01*
X154594285Y-78395714D01*
X155308571Y-79014761D02*
X155213333Y-79062380D01*
X155022857Y-79062380D01*
X154927619Y-79014761D01*
X154880000Y-78919523D01*
X154880000Y-78538571D01*
X154927619Y-78443333D01*
X155022857Y-78395714D01*
X155213333Y-78395714D01*
X155308571Y-78443333D01*
X155356190Y-78538571D01*
X155356190Y-78633809D01*
X154880000Y-78729047D01*
X156213333Y-79062380D02*
X156213333Y-78538571D01*
X156165714Y-78443333D01*
X156070476Y-78395714D01*
X155880000Y-78395714D01*
X155784761Y-78443333D01*
X156213333Y-79014761D02*
X156118095Y-79062380D01*
X155880000Y-79062380D01*
X155784761Y-79014761D01*
X155737142Y-78919523D01*
X155737142Y-78824285D01*
X155784761Y-78729047D01*
X155880000Y-78681428D01*
X156118095Y-78681428D01*
X156213333Y-78633809D01*
X156689523Y-79062380D02*
X156689523Y-78062380D01*
X156784761Y-78681428D02*
X157070476Y-79062380D01*
X157070476Y-78395714D02*
X156689523Y-78776666D01*
X157641904Y-79062380D02*
X157546666Y-79014761D01*
X157499047Y-78967142D01*
X157451428Y-78871904D01*
X157451428Y-78586190D01*
X157499047Y-78490952D01*
X157546666Y-78443333D01*
X157641904Y-78395714D01*
X157784761Y-78395714D01*
X157880000Y-78443333D01*
X157927619Y-78490952D01*
X157975238Y-78586190D01*
X157975238Y-78871904D01*
X157927619Y-78967142D01*
X157880000Y-79014761D01*
X157784761Y-79062380D01*
X157641904Y-79062380D01*
X158832380Y-78395714D02*
X158832380Y-79062380D01*
X158403809Y-78395714D02*
X158403809Y-78919523D01*
X158451428Y-79014761D01*
X158546666Y-79062380D01*
X158689523Y-79062380D01*
X158784761Y-79014761D01*
X158832380Y-78967142D01*
X159165714Y-78395714D02*
X159546666Y-78395714D01*
X159308571Y-78062380D02*
X159308571Y-78919523D01*
X159356190Y-79014761D01*
X159451428Y-79062380D01*
X159546666Y-79062380D01*
%TO.C,U1*%
X132654761Y-56830952D02*
X130654761Y-56830952D01*
X131607142Y-56830952D02*
X131607142Y-55688095D01*
X132654761Y-55688095D02*
X130654761Y-55688095D01*
X130654761Y-54926190D02*
X132654761Y-53592857D01*
X130654761Y-53592857D02*
X132654761Y-54926190D01*
X130654761Y-53021428D02*
X130654761Y-51688095D01*
X132654761Y-52545238D01*
X132654761Y-49878571D02*
X132654761Y-51021428D01*
X132654761Y-50450000D02*
X130654761Y-50450000D01*
X130940476Y-50640476D01*
X131130952Y-50830952D01*
X131226190Y-51021428D01*
X132654761Y-47973809D02*
X132654761Y-49116666D01*
X132654761Y-48545238D02*
X130654761Y-48545238D01*
X130940476Y-48735714D01*
X131130952Y-48926190D01*
X131226190Y-49116666D01*
%TO.C,U401*%
X175552380Y-63084285D02*
X176361904Y-63084285D01*
X176457142Y-63036666D01*
X176504761Y-62989047D01*
X176552380Y-62893809D01*
X176552380Y-62703333D01*
X176504761Y-62608095D01*
X176457142Y-62560476D01*
X176361904Y-62512857D01*
X175552380Y-62512857D01*
X175885714Y-61608095D02*
X176552380Y-61608095D01*
X175504761Y-61846190D02*
X176219047Y-62084285D01*
X176219047Y-61465238D01*
X175552380Y-60893809D02*
X175552380Y-60798571D01*
X175600000Y-60703333D01*
X175647619Y-60655714D01*
X175742857Y-60608095D01*
X175933333Y-60560476D01*
X176171428Y-60560476D01*
X176361904Y-60608095D01*
X176457142Y-60655714D01*
X176504761Y-60703333D01*
X176552380Y-60798571D01*
X176552380Y-60893809D01*
X176504761Y-60989047D01*
X176457142Y-61036666D01*
X176361904Y-61084285D01*
X176171428Y-61131904D01*
X175933333Y-61131904D01*
X175742857Y-61084285D01*
X175647619Y-61036666D01*
X175600000Y-60989047D01*
X175552380Y-60893809D01*
X176552380Y-59608095D02*
X176552380Y-60179523D01*
X176552380Y-59893809D02*
X175552380Y-59893809D01*
X175695238Y-59989047D01*
X175790476Y-60084285D01*
X175838095Y-60179523D01*
X173602380Y-67135714D02*
X172602380Y-67135714D01*
X173507142Y-66088095D02*
X173554761Y-66135714D01*
X173602380Y-66278571D01*
X173602380Y-66373809D01*
X173554761Y-66516666D01*
X173459523Y-66611904D01*
X173364285Y-66659523D01*
X173173809Y-66707142D01*
X173030952Y-66707142D01*
X172840476Y-66659523D01*
X172745238Y-66611904D01*
X172650000Y-66516666D01*
X172602380Y-66373809D01*
X172602380Y-66278571D01*
X172650000Y-66135714D01*
X172697619Y-66088095D01*
X173602380Y-65659523D02*
X172602380Y-65659523D01*
X173316666Y-65326190D01*
X172602380Y-64992857D01*
X173602380Y-64992857D01*
X173221428Y-64516666D02*
X173221428Y-63754761D01*
X172697619Y-63326190D02*
X172650000Y-63278571D01*
X172602380Y-63183333D01*
X172602380Y-62945238D01*
X172650000Y-62850000D01*
X172697619Y-62802380D01*
X172792857Y-62754761D01*
X172888095Y-62754761D01*
X173030952Y-62802380D01*
X173602380Y-63373809D01*
X173602380Y-62754761D01*
X172602380Y-62135714D02*
X172602380Y-62040476D01*
X172650000Y-61945238D01*
X172697619Y-61897619D01*
X172792857Y-61850000D01*
X172983333Y-61802380D01*
X173221428Y-61802380D01*
X173411904Y-61850000D01*
X173507142Y-61897619D01*
X173554761Y-61945238D01*
X173602380Y-62040476D01*
X173602380Y-62135714D01*
X173554761Y-62230952D01*
X173507142Y-62278571D01*
X173411904Y-62326190D01*
X173221428Y-62373809D01*
X172983333Y-62373809D01*
X172792857Y-62326190D01*
X172697619Y-62278571D01*
X172650000Y-62230952D01*
X172602380Y-62135714D01*
X173602380Y-61326190D02*
X173602380Y-61135714D01*
X173554761Y-61040476D01*
X173507142Y-60992857D01*
X173364285Y-60897619D01*
X173173809Y-60850000D01*
X172792857Y-60850000D01*
X172697619Y-60897619D01*
X172650000Y-60945238D01*
X172602380Y-61040476D01*
X172602380Y-61230952D01*
X172650000Y-61326190D01*
X172697619Y-61373809D01*
X172792857Y-61421428D01*
X173030952Y-61421428D01*
X173126190Y-61373809D01*
X173173809Y-61326190D01*
X173221428Y-61230952D01*
X173221428Y-61040476D01*
X173173809Y-60945238D01*
X173126190Y-60897619D01*
X173030952Y-60850000D01*
X172935714Y-59992857D02*
X173602380Y-59992857D01*
X172554761Y-60230952D02*
X173269047Y-60469047D01*
X173269047Y-59850000D01*
X173030952Y-59326190D02*
X172983333Y-59421428D01*
X172935714Y-59469047D01*
X172840476Y-59516666D01*
X172792857Y-59516666D01*
X172697619Y-59469047D01*
X172650000Y-59421428D01*
X172602380Y-59326190D01*
X172602380Y-59135714D01*
X172650000Y-59040476D01*
X172697619Y-58992857D01*
X172792857Y-58945238D01*
X172840476Y-58945238D01*
X172935714Y-58992857D01*
X172983333Y-59040476D01*
X173030952Y-59135714D01*
X173030952Y-59326190D01*
X173078571Y-59421428D01*
X173126190Y-59469047D01*
X173221428Y-59516666D01*
X173411904Y-59516666D01*
X173507142Y-59469047D01*
X173554761Y-59421428D01*
X173602380Y-59326190D01*
X173602380Y-59135714D01*
X173554761Y-59040476D01*
X173507142Y-58992857D01*
X173411904Y-58945238D01*
X173221428Y-58945238D01*
X173126190Y-58992857D01*
X173078571Y-59040476D01*
X173030952Y-59135714D01*
X173602380Y-57754761D02*
X172602380Y-57754761D01*
X173602380Y-57278571D02*
X172602380Y-57278571D01*
X173316666Y-56945238D01*
X172602380Y-56611904D01*
X173602380Y-56611904D01*
X172602380Y-56135714D02*
X173411904Y-56135714D01*
X173507142Y-56088095D01*
X173554761Y-56040476D01*
X173602380Y-55945238D01*
X173602380Y-55754761D01*
X173554761Y-55659523D01*
X173507142Y-55611904D01*
X173411904Y-55564285D01*
X172602380Y-55564285D01*
%TO.C,U601*%
X168285714Y-51452380D02*
X168285714Y-52261904D01*
X168333333Y-52357142D01*
X168380952Y-52404761D01*
X168476190Y-52452380D01*
X168666666Y-52452380D01*
X168761904Y-52404761D01*
X168809523Y-52357142D01*
X168857142Y-52261904D01*
X168857142Y-51452380D01*
X169761904Y-51452380D02*
X169571428Y-51452380D01*
X169476190Y-51500000D01*
X169428571Y-51547619D01*
X169333333Y-51690476D01*
X169285714Y-51880952D01*
X169285714Y-52261904D01*
X169333333Y-52357142D01*
X169380952Y-52404761D01*
X169476190Y-52452380D01*
X169666666Y-52452380D01*
X169761904Y-52404761D01*
X169809523Y-52357142D01*
X169857142Y-52261904D01*
X169857142Y-52023809D01*
X169809523Y-51928571D01*
X169761904Y-51880952D01*
X169666666Y-51833333D01*
X169476190Y-51833333D01*
X169380952Y-51880952D01*
X169333333Y-51928571D01*
X169285714Y-52023809D01*
X170476190Y-51452380D02*
X170571428Y-51452380D01*
X170666666Y-51500000D01*
X170714285Y-51547619D01*
X170761904Y-51642857D01*
X170809523Y-51833333D01*
X170809523Y-52071428D01*
X170761904Y-52261904D01*
X170714285Y-52357142D01*
X170666666Y-52404761D01*
X170571428Y-52452380D01*
X170476190Y-52452380D01*
X170380952Y-52404761D01*
X170333333Y-52357142D01*
X170285714Y-52261904D01*
X170238095Y-52071428D01*
X170238095Y-51833333D01*
X170285714Y-51642857D01*
X170333333Y-51547619D01*
X170380952Y-51500000D01*
X170476190Y-51452380D01*
X171761904Y-52452380D02*
X171190476Y-52452380D01*
X171476190Y-52452380D02*
X171476190Y-51452380D01*
X171380952Y-51595238D01*
X171285714Y-51690476D01*
X171190476Y-51738095D01*
%TO.C,U501*%
X170815714Y-76087380D02*
X170815714Y-76896904D01*
X170863333Y-76992142D01*
X170910952Y-77039761D01*
X171006190Y-77087380D01*
X171196666Y-77087380D01*
X171291904Y-77039761D01*
X171339523Y-76992142D01*
X171387142Y-76896904D01*
X171387142Y-76087380D01*
X172339523Y-76087380D02*
X171863333Y-76087380D01*
X171815714Y-76563571D01*
X171863333Y-76515952D01*
X171958571Y-76468333D01*
X172196666Y-76468333D01*
X172291904Y-76515952D01*
X172339523Y-76563571D01*
X172387142Y-76658809D01*
X172387142Y-76896904D01*
X172339523Y-76992142D01*
X172291904Y-77039761D01*
X172196666Y-77087380D01*
X171958571Y-77087380D01*
X171863333Y-77039761D01*
X171815714Y-76992142D01*
X173006190Y-76087380D02*
X173101428Y-76087380D01*
X173196666Y-76135000D01*
X173244285Y-76182619D01*
X173291904Y-76277857D01*
X173339523Y-76468333D01*
X173339523Y-76706428D01*
X173291904Y-76896904D01*
X173244285Y-76992142D01*
X173196666Y-77039761D01*
X173101428Y-77087380D01*
X173006190Y-77087380D01*
X172910952Y-77039761D01*
X172863333Y-76992142D01*
X172815714Y-76896904D01*
X172768095Y-76706428D01*
X172768095Y-76468333D01*
X172815714Y-76277857D01*
X172863333Y-76182619D01*
X172910952Y-76135000D01*
X173006190Y-76087380D01*
X174291904Y-77087380D02*
X173720476Y-77087380D01*
X174006190Y-77087380D02*
X174006190Y-76087380D01*
X173910952Y-76230238D01*
X173815714Y-76325476D01*
X173720476Y-76373095D01*
X167872857Y-82672142D02*
X168158571Y-82767380D01*
X168253809Y-82862619D01*
X168349047Y-83053095D01*
X168349047Y-83338809D01*
X168253809Y-83529285D01*
X168158571Y-83624523D01*
X167968095Y-83719761D01*
X167206190Y-83719761D01*
X167206190Y-81719761D01*
X167872857Y-81719761D01*
X168063333Y-81815000D01*
X168158571Y-81910238D01*
X168253809Y-82100714D01*
X168253809Y-82291190D01*
X168158571Y-82481666D01*
X168063333Y-82576904D01*
X167872857Y-82672142D01*
X167206190Y-82672142D01*
X169206190Y-83719761D02*
X169206190Y-81719761D01*
X169872857Y-83148333D01*
X170539523Y-81719761D01*
X170539523Y-83719761D01*
X171491904Y-83719761D02*
X171491904Y-81719761D01*
X172253809Y-81719761D01*
X172444285Y-81815000D01*
X172539523Y-81910238D01*
X172634761Y-82100714D01*
X172634761Y-82386428D01*
X172539523Y-82576904D01*
X172444285Y-82672142D01*
X172253809Y-82767380D01*
X171491904Y-82767380D01*
X173396666Y-81910238D02*
X173491904Y-81815000D01*
X173682380Y-81719761D01*
X174158571Y-81719761D01*
X174349047Y-81815000D01*
X174444285Y-81910238D01*
X174539523Y-82100714D01*
X174539523Y-82291190D01*
X174444285Y-82576904D01*
X173301428Y-83719761D01*
X174539523Y-83719761D01*
X175682380Y-82576904D02*
X175491904Y-82481666D01*
X175396666Y-82386428D01*
X175301428Y-82195952D01*
X175301428Y-82100714D01*
X175396666Y-81910238D01*
X175491904Y-81815000D01*
X175682380Y-81719761D01*
X176063333Y-81719761D01*
X176253809Y-81815000D01*
X176349047Y-81910238D01*
X176444285Y-82100714D01*
X176444285Y-82195952D01*
X176349047Y-82386428D01*
X176253809Y-82481666D01*
X176063333Y-82576904D01*
X175682380Y-82576904D01*
X175491904Y-82672142D01*
X175396666Y-82767380D01*
X175301428Y-82957857D01*
X175301428Y-83338809D01*
X175396666Y-83529285D01*
X175491904Y-83624523D01*
X175682380Y-83719761D01*
X176063333Y-83719761D01*
X176253809Y-83624523D01*
X176349047Y-83529285D01*
X176444285Y-83338809D01*
X176444285Y-82957857D01*
X176349047Y-82767380D01*
X176253809Y-82672142D01*
X176063333Y-82576904D01*
X177682380Y-81719761D02*
X177872857Y-81719761D01*
X178063333Y-81815000D01*
X178158571Y-81910238D01*
X178253809Y-82100714D01*
X178349047Y-82481666D01*
X178349047Y-82957857D01*
X178253809Y-83338809D01*
X178158571Y-83529285D01*
X178063333Y-83624523D01*
X177872857Y-83719761D01*
X177682380Y-83719761D01*
X177491904Y-83624523D01*
X177396666Y-83529285D01*
X177301428Y-83338809D01*
X177206190Y-82957857D01*
X177206190Y-82481666D01*
X177301428Y-82100714D01*
X177396666Y-81910238D01*
X177491904Y-81815000D01*
X177682380Y-81719761D01*
%TO.C,U2*%
X162112380Y-50761904D02*
X162921904Y-50761904D01*
X163017142Y-50714285D01*
X163064761Y-50666666D01*
X163112380Y-50571428D01*
X163112380Y-50380952D01*
X163064761Y-50285714D01*
X163017142Y-50238095D01*
X162921904Y-50190476D01*
X162112380Y-50190476D01*
X162207619Y-49761904D02*
X162160000Y-49714285D01*
X162112380Y-49619047D01*
X162112380Y-49380952D01*
X162160000Y-49285714D01*
X162207619Y-49238095D01*
X162302857Y-49190476D01*
X162398095Y-49190476D01*
X162540952Y-49238095D01*
X163112380Y-49809523D01*
X163112380Y-49190476D01*
X153563809Y-39292380D02*
X154135238Y-39292380D01*
X153849523Y-40292380D02*
X153849523Y-39292380D01*
X154373333Y-39292380D02*
X154992380Y-39292380D01*
X154659047Y-39673333D01*
X154801904Y-39673333D01*
X154897142Y-39720952D01*
X154944761Y-39768571D01*
X154992380Y-39863809D01*
X154992380Y-40101904D01*
X154944761Y-40197142D01*
X154897142Y-40244761D01*
X154801904Y-40292380D01*
X154516190Y-40292380D01*
X154420952Y-40244761D01*
X154373333Y-40197142D01*
X155420952Y-40197142D02*
X155468571Y-40244761D01*
X155420952Y-40292380D01*
X155373333Y-40244761D01*
X155420952Y-40197142D01*
X155420952Y-40292380D01*
X155849523Y-39387619D02*
X155897142Y-39340000D01*
X155992380Y-39292380D01*
X156230476Y-39292380D01*
X156325714Y-39340000D01*
X156373333Y-39387619D01*
X156420952Y-39482857D01*
X156420952Y-39578095D01*
X156373333Y-39720952D01*
X155801904Y-40292380D01*
X156420952Y-40292380D01*
X153563809Y-43102380D02*
X154135238Y-43102380D01*
X153849523Y-44102380D02*
X153849523Y-43102380D01*
X154373333Y-43102380D02*
X154992380Y-43102380D01*
X154659047Y-43483333D01*
X154801904Y-43483333D01*
X154897142Y-43530952D01*
X154944761Y-43578571D01*
X154992380Y-43673809D01*
X154992380Y-43911904D01*
X154944761Y-44007142D01*
X154897142Y-44054761D01*
X154801904Y-44102380D01*
X154516190Y-44102380D01*
X154420952Y-44054761D01*
X154373333Y-44007142D01*
X155420952Y-44007142D02*
X155468571Y-44054761D01*
X155420952Y-44102380D01*
X155373333Y-44054761D01*
X155420952Y-44007142D01*
X155420952Y-44102380D01*
X156420952Y-44102380D02*
X155849523Y-44102380D01*
X156135238Y-44102380D02*
X156135238Y-43102380D01*
X156040000Y-43245238D01*
X155944761Y-43340476D01*
X155849523Y-43388095D01*
X155610666Y-58661666D02*
X154910666Y-58661666D01*
X155410666Y-58428333D01*
X154910666Y-58195000D01*
X155610666Y-58195000D01*
X155610666Y-57861666D02*
X154910666Y-57861666D01*
X155610666Y-57461666D02*
X155210666Y-57761666D01*
X154910666Y-57461666D02*
X155310666Y-57861666D01*
X154977333Y-57195000D02*
X154944000Y-57161666D01*
X154910666Y-57095000D01*
X154910666Y-56928333D01*
X154944000Y-56861666D01*
X154977333Y-56828333D01*
X155044000Y-56795000D01*
X155110666Y-56795000D01*
X155210666Y-56828333D01*
X155610666Y-57228333D01*
X155610666Y-56795000D01*
X154910666Y-56361666D02*
X154910666Y-56295000D01*
X154944000Y-56228333D01*
X154977333Y-56195000D01*
X155044000Y-56161666D01*
X155177333Y-56128333D01*
X155344000Y-56128333D01*
X155477333Y-56161666D01*
X155544000Y-56195000D01*
X155577333Y-56228333D01*
X155610666Y-56295000D01*
X155610666Y-56361666D01*
X155577333Y-56428333D01*
X155544000Y-56461666D01*
X155477333Y-56495000D01*
X155344000Y-56528333D01*
X155177333Y-56528333D01*
X155044000Y-56495000D01*
X154977333Y-56461666D01*
X154944000Y-56428333D01*
X154910666Y-56361666D01*
X155610666Y-55828333D02*
X154910666Y-55828333D01*
X154910666Y-55661666D01*
X154944000Y-55561666D01*
X155010666Y-55495000D01*
X155077333Y-55461666D01*
X155210666Y-55428333D01*
X155310666Y-55428333D01*
X155444000Y-55461666D01*
X155510666Y-55495000D01*
X155577333Y-55561666D01*
X155610666Y-55661666D01*
X155610666Y-55828333D01*
X154910666Y-55195000D02*
X155610666Y-54728333D01*
X154910666Y-54728333D02*
X155610666Y-55195000D01*
X154977333Y-54495000D02*
X154944000Y-54461666D01*
X154910666Y-54395000D01*
X154910666Y-54228333D01*
X154944000Y-54161666D01*
X154977333Y-54128333D01*
X155044000Y-54095000D01*
X155110666Y-54095000D01*
X155210666Y-54128333D01*
X155610666Y-54528333D01*
X155610666Y-54095000D01*
X154910666Y-53461666D02*
X154910666Y-53795000D01*
X155244000Y-53828333D01*
X155210666Y-53795000D01*
X155177333Y-53728333D01*
X155177333Y-53561666D01*
X155210666Y-53495000D01*
X155244000Y-53461666D01*
X155310666Y-53428333D01*
X155477333Y-53428333D01*
X155544000Y-53461666D01*
X155577333Y-53495000D01*
X155610666Y-53561666D01*
X155610666Y-53728333D01*
X155577333Y-53795000D01*
X155544000Y-53828333D01*
X154910666Y-52828333D02*
X154910666Y-52961666D01*
X154944000Y-53028333D01*
X154977333Y-53061666D01*
X155077333Y-53128333D01*
X155210666Y-53161666D01*
X155477333Y-53161666D01*
X155544000Y-53128333D01*
X155577333Y-53095000D01*
X155610666Y-53028333D01*
X155610666Y-52895000D01*
X155577333Y-52828333D01*
X155544000Y-52795000D01*
X155477333Y-52761666D01*
X155310666Y-52761666D01*
X155244000Y-52795000D01*
X155210666Y-52828333D01*
X155177333Y-52895000D01*
X155177333Y-53028333D01*
X155210666Y-53095000D01*
X155244000Y-53128333D01*
X155310666Y-53161666D01*
X154910666Y-52561666D02*
X155610666Y-52328333D01*
X154910666Y-52095000D01*
X155610666Y-51528333D02*
X155610666Y-51861666D01*
X154910666Y-51861666D01*
X155610666Y-51295000D02*
X154910666Y-51295000D01*
X155244000Y-51295000D02*
X155244000Y-50895000D01*
X155610666Y-50895000D02*
X154910666Y-50895000D01*
X154910666Y-50628333D02*
X154910666Y-50161666D01*
X155610666Y-50461666D01*
X153070666Y-58178333D02*
X152370666Y-58178333D01*
X152870666Y-57945000D01*
X152370666Y-57711666D01*
X153070666Y-57711666D01*
X153070666Y-57378333D02*
X152370666Y-57378333D01*
X153070666Y-56978333D02*
X152670666Y-57278333D01*
X152370666Y-56978333D02*
X152770666Y-57378333D01*
X153070666Y-56345000D02*
X153070666Y-56678333D01*
X152370666Y-56678333D01*
X152437333Y-56145000D02*
X152404000Y-56111666D01*
X152370666Y-56045000D01*
X152370666Y-55878333D01*
X152404000Y-55811666D01*
X152437333Y-55778333D01*
X152504000Y-55745000D01*
X152570666Y-55745000D01*
X152670666Y-55778333D01*
X153070666Y-56178333D01*
X153070666Y-55745000D01*
X152370666Y-55145000D02*
X152370666Y-55278333D01*
X152404000Y-55345000D01*
X152437333Y-55378333D01*
X152537333Y-55445000D01*
X152670666Y-55478333D01*
X152937333Y-55478333D01*
X153004000Y-55445000D01*
X153037333Y-55411666D01*
X153070666Y-55345000D01*
X153070666Y-55211666D01*
X153037333Y-55145000D01*
X153004000Y-55111666D01*
X152937333Y-55078333D01*
X152770666Y-55078333D01*
X152704000Y-55111666D01*
X152670666Y-55145000D01*
X152637333Y-55211666D01*
X152637333Y-55345000D01*
X152670666Y-55411666D01*
X152704000Y-55445000D01*
X152770666Y-55478333D01*
X152370666Y-54845000D02*
X152370666Y-54378333D01*
X153070666Y-54845000D01*
X153070666Y-54378333D01*
X152370666Y-53811666D02*
X152370666Y-53945000D01*
X152404000Y-54011666D01*
X152437333Y-54045000D01*
X152537333Y-54111666D01*
X152670666Y-54145000D01*
X152937333Y-54145000D01*
X153004000Y-54111666D01*
X153037333Y-54078333D01*
X153070666Y-54011666D01*
X153070666Y-53878333D01*
X153037333Y-53811666D01*
X153004000Y-53778333D01*
X152937333Y-53745000D01*
X152770666Y-53745000D01*
X152704000Y-53778333D01*
X152670666Y-53811666D01*
X152637333Y-53878333D01*
X152637333Y-54011666D01*
X152670666Y-54078333D01*
X152704000Y-54111666D01*
X152770666Y-54145000D01*
X152604000Y-53145000D02*
X153070666Y-53145000D01*
X152337333Y-53311666D02*
X152837333Y-53478333D01*
X152837333Y-53045000D01*
X152370666Y-52878333D02*
X153070666Y-52645000D01*
X152370666Y-52411666D01*
X152704000Y-51945000D02*
X152704000Y-52178333D01*
X153070666Y-52178333D02*
X152370666Y-52178333D01*
X152370666Y-51845000D01*
X152370666Y-51678333D02*
X152370666Y-51278333D01*
X153070666Y-51478333D02*
X152370666Y-51478333D01*
X152604000Y-50745000D02*
X153070666Y-50745000D01*
X152337333Y-50911666D02*
X152837333Y-51078333D01*
X152837333Y-50645000D01*
X154340666Y-58661666D02*
X153640666Y-58661666D01*
X154140666Y-58428333D01*
X153640666Y-58195000D01*
X154340666Y-58195000D01*
X154340666Y-57861666D02*
X153640666Y-57861666D01*
X154340666Y-57461666D02*
X153940666Y-57761666D01*
X153640666Y-57461666D02*
X154040666Y-57861666D01*
X153707333Y-57195000D02*
X153674000Y-57161666D01*
X153640666Y-57095000D01*
X153640666Y-56928333D01*
X153674000Y-56861666D01*
X153707333Y-56828333D01*
X153774000Y-56795000D01*
X153840666Y-56795000D01*
X153940666Y-56828333D01*
X154340666Y-57228333D01*
X154340666Y-56795000D01*
X153640666Y-56361666D02*
X153640666Y-56295000D01*
X153674000Y-56228333D01*
X153707333Y-56195000D01*
X153774000Y-56161666D01*
X153907333Y-56128333D01*
X154074000Y-56128333D01*
X154207333Y-56161666D01*
X154274000Y-56195000D01*
X154307333Y-56228333D01*
X154340666Y-56295000D01*
X154340666Y-56361666D01*
X154307333Y-56428333D01*
X154274000Y-56461666D01*
X154207333Y-56495000D01*
X154074000Y-56528333D01*
X153907333Y-56528333D01*
X153774000Y-56495000D01*
X153707333Y-56461666D01*
X153674000Y-56428333D01*
X153640666Y-56361666D01*
X154340666Y-55828333D02*
X153640666Y-55828333D01*
X153640666Y-55661666D01*
X153674000Y-55561666D01*
X153740666Y-55495000D01*
X153807333Y-55461666D01*
X153940666Y-55428333D01*
X154040666Y-55428333D01*
X154174000Y-55461666D01*
X154240666Y-55495000D01*
X154307333Y-55561666D01*
X154340666Y-55661666D01*
X154340666Y-55828333D01*
X153640666Y-55195000D02*
X154340666Y-54728333D01*
X153640666Y-54728333D02*
X154340666Y-55195000D01*
X154340666Y-54095000D02*
X154340666Y-54495000D01*
X154340666Y-54295000D02*
X153640666Y-54295000D01*
X153740666Y-54361666D01*
X153807333Y-54428333D01*
X153840666Y-54495000D01*
X153707333Y-53828333D02*
X153674000Y-53795000D01*
X153640666Y-53728333D01*
X153640666Y-53561666D01*
X153674000Y-53495000D01*
X153707333Y-53461666D01*
X153774000Y-53428333D01*
X153840666Y-53428333D01*
X153940666Y-53461666D01*
X154340666Y-53861666D01*
X154340666Y-53428333D01*
X153940666Y-53028333D02*
X153907333Y-53095000D01*
X153874000Y-53128333D01*
X153807333Y-53161666D01*
X153774000Y-53161666D01*
X153707333Y-53128333D01*
X153674000Y-53095000D01*
X153640666Y-53028333D01*
X153640666Y-52895000D01*
X153674000Y-52828333D01*
X153707333Y-52795000D01*
X153774000Y-52761666D01*
X153807333Y-52761666D01*
X153874000Y-52795000D01*
X153907333Y-52828333D01*
X153940666Y-52895000D01*
X153940666Y-53028333D01*
X153974000Y-53095000D01*
X154007333Y-53128333D01*
X154074000Y-53161666D01*
X154207333Y-53161666D01*
X154274000Y-53128333D01*
X154307333Y-53095000D01*
X154340666Y-53028333D01*
X154340666Y-52895000D01*
X154307333Y-52828333D01*
X154274000Y-52795000D01*
X154207333Y-52761666D01*
X154074000Y-52761666D01*
X154007333Y-52795000D01*
X153974000Y-52828333D01*
X153940666Y-52895000D01*
X153640666Y-52561666D02*
X154340666Y-52328333D01*
X153640666Y-52095000D01*
X154340666Y-51528333D02*
X154340666Y-51861666D01*
X153640666Y-51861666D01*
X154340666Y-51295000D02*
X153640666Y-51295000D01*
X153974000Y-51295000D02*
X153974000Y-50895000D01*
X154340666Y-50895000D02*
X153640666Y-50895000D01*
X153640666Y-50228333D02*
X153640666Y-50561666D01*
X153974000Y-50595000D01*
X153940666Y-50561666D01*
X153907333Y-50495000D01*
X153907333Y-50328333D01*
X153940666Y-50261666D01*
X153974000Y-50228333D01*
X154040666Y-50195000D01*
X154207333Y-50195000D01*
X154274000Y-50228333D01*
X154307333Y-50261666D01*
X154340666Y-50328333D01*
X154340666Y-50495000D01*
X154307333Y-50561666D01*
X154274000Y-50595000D01*
%TO.C,J601*%
X169472380Y-38245714D02*
X170186666Y-38245714D01*
X170329523Y-38293333D01*
X170424761Y-38388571D01*
X170472380Y-38531428D01*
X170472380Y-38626666D01*
X169472380Y-37340952D02*
X169472380Y-37531428D01*
X169520000Y-37626666D01*
X169567619Y-37674285D01*
X169710476Y-37769523D01*
X169900952Y-37817142D01*
X170281904Y-37817142D01*
X170377142Y-37769523D01*
X170424761Y-37721904D01*
X170472380Y-37626666D01*
X170472380Y-37436190D01*
X170424761Y-37340952D01*
X170377142Y-37293333D01*
X170281904Y-37245714D01*
X170043809Y-37245714D01*
X169948571Y-37293333D01*
X169900952Y-37340952D01*
X169853333Y-37436190D01*
X169853333Y-37626666D01*
X169900952Y-37721904D01*
X169948571Y-37769523D01*
X170043809Y-37817142D01*
X169472380Y-36626666D02*
X169472380Y-36531428D01*
X169520000Y-36436190D01*
X169567619Y-36388571D01*
X169662857Y-36340952D01*
X169853333Y-36293333D01*
X170091428Y-36293333D01*
X170281904Y-36340952D01*
X170377142Y-36388571D01*
X170424761Y-36436190D01*
X170472380Y-36531428D01*
X170472380Y-36626666D01*
X170424761Y-36721904D01*
X170377142Y-36769523D01*
X170281904Y-36817142D01*
X170091428Y-36864761D01*
X169853333Y-36864761D01*
X169662857Y-36817142D01*
X169567619Y-36769523D01*
X169520000Y-36721904D01*
X169472380Y-36626666D01*
X170472380Y-35340952D02*
X170472380Y-35912380D01*
X170472380Y-35626666D02*
X169472380Y-35626666D01*
X169615238Y-35721904D01*
X169710476Y-35817142D01*
X169758095Y-35912380D01*
%TO.C,J2*%
X120082380Y-81563333D02*
X120796666Y-81563333D01*
X120939523Y-81610952D01*
X121034761Y-81706190D01*
X121082380Y-81849047D01*
X121082380Y-81944285D01*
X120177619Y-81134761D02*
X120130000Y-81087142D01*
X120082380Y-80991904D01*
X120082380Y-80753809D01*
X120130000Y-80658571D01*
X120177619Y-80610952D01*
X120272857Y-80563333D01*
X120368095Y-80563333D01*
X120510952Y-80610952D01*
X121082380Y-81182380D01*
X121082380Y-80563333D01*
%TO.C,J1*%
X128822380Y-74103333D02*
X129536666Y-74103333D01*
X129679523Y-74150952D01*
X129774761Y-74246190D01*
X129822380Y-74389047D01*
X129822380Y-74484285D01*
X129822380Y-73103333D02*
X129822380Y-73674761D01*
X129822380Y-73389047D02*
X128822380Y-73389047D01*
X128965238Y-73484285D01*
X129060476Y-73579523D01*
X129108095Y-73674761D01*
%TO.C,C602*%
X177787142Y-46619047D02*
X177834761Y-46666666D01*
X177882380Y-46809523D01*
X177882380Y-46904761D01*
X177834761Y-47047619D01*
X177739523Y-47142857D01*
X177644285Y-47190476D01*
X177453809Y-47238095D01*
X177310952Y-47238095D01*
X177120476Y-47190476D01*
X177025238Y-47142857D01*
X176930000Y-47047619D01*
X176882380Y-46904761D01*
X176882380Y-46809523D01*
X176930000Y-46666666D01*
X176977619Y-46619047D01*
X176882380Y-45761904D02*
X176882380Y-45952380D01*
X176930000Y-46047619D01*
X176977619Y-46095238D01*
X177120476Y-46190476D01*
X177310952Y-46238095D01*
X177691904Y-46238095D01*
X177787142Y-46190476D01*
X177834761Y-46142857D01*
X177882380Y-46047619D01*
X177882380Y-45857142D01*
X177834761Y-45761904D01*
X177787142Y-45714285D01*
X177691904Y-45666666D01*
X177453809Y-45666666D01*
X177358571Y-45714285D01*
X177310952Y-45761904D01*
X177263333Y-45857142D01*
X177263333Y-46047619D01*
X177310952Y-46142857D01*
X177358571Y-46190476D01*
X177453809Y-46238095D01*
X176882380Y-45047619D02*
X176882380Y-44952380D01*
X176930000Y-44857142D01*
X176977619Y-44809523D01*
X177072857Y-44761904D01*
X177263333Y-44714285D01*
X177501428Y-44714285D01*
X177691904Y-44761904D01*
X177787142Y-44809523D01*
X177834761Y-44857142D01*
X177882380Y-44952380D01*
X177882380Y-45047619D01*
X177834761Y-45142857D01*
X177787142Y-45190476D01*
X177691904Y-45238095D01*
X177501428Y-45285714D01*
X177263333Y-45285714D01*
X177072857Y-45238095D01*
X176977619Y-45190476D01*
X176930000Y-45142857D01*
X176882380Y-45047619D01*
X176977619Y-44333333D02*
X176930000Y-44285714D01*
X176882380Y-44190476D01*
X176882380Y-43952380D01*
X176930000Y-43857142D01*
X176977619Y-43809523D01*
X177072857Y-43761904D01*
X177168095Y-43761904D01*
X177310952Y-43809523D01*
X177882380Y-44380952D01*
X177882380Y-43761904D01*
%TO.C,C601*%
X174927142Y-50119047D02*
X174974761Y-50166666D01*
X175022380Y-50309523D01*
X175022380Y-50404761D01*
X174974761Y-50547619D01*
X174879523Y-50642857D01*
X174784285Y-50690476D01*
X174593809Y-50738095D01*
X174450952Y-50738095D01*
X174260476Y-50690476D01*
X174165238Y-50642857D01*
X174070000Y-50547619D01*
X174022380Y-50404761D01*
X174022380Y-50309523D01*
X174070000Y-50166666D01*
X174117619Y-50119047D01*
X174022380Y-49261904D02*
X174022380Y-49452380D01*
X174070000Y-49547619D01*
X174117619Y-49595238D01*
X174260476Y-49690476D01*
X174450952Y-49738095D01*
X174831904Y-49738095D01*
X174927142Y-49690476D01*
X174974761Y-49642857D01*
X175022380Y-49547619D01*
X175022380Y-49357142D01*
X174974761Y-49261904D01*
X174927142Y-49214285D01*
X174831904Y-49166666D01*
X174593809Y-49166666D01*
X174498571Y-49214285D01*
X174450952Y-49261904D01*
X174403333Y-49357142D01*
X174403333Y-49547619D01*
X174450952Y-49642857D01*
X174498571Y-49690476D01*
X174593809Y-49738095D01*
X174022380Y-48547619D02*
X174022380Y-48452380D01*
X174070000Y-48357142D01*
X174117619Y-48309523D01*
X174212857Y-48261904D01*
X174403333Y-48214285D01*
X174641428Y-48214285D01*
X174831904Y-48261904D01*
X174927142Y-48309523D01*
X174974761Y-48357142D01*
X175022380Y-48452380D01*
X175022380Y-48547619D01*
X174974761Y-48642857D01*
X174927142Y-48690476D01*
X174831904Y-48738095D01*
X174641428Y-48785714D01*
X174403333Y-48785714D01*
X174212857Y-48738095D01*
X174117619Y-48690476D01*
X174070000Y-48642857D01*
X174022380Y-48547619D01*
X175022380Y-47261904D02*
X175022380Y-47833333D01*
X175022380Y-47547619D02*
X174022380Y-47547619D01*
X174165238Y-47642857D01*
X174260476Y-47738095D01*
X174308095Y-47833333D01*
%TD*%
M02*
